G75*
%MOIN*%
%OFA0B0*%
%FSLAX25Y25*%
%IPPOS*%
%LPD*%
%AMOC8*
5,1,8,0,0,1.08239X$1,22.5*
%
%ADD10C,0.00100*%
%ADD11C,0.07400*%
%ADD12OC8,0.07400*%
%ADD13C,0.17000*%
%ADD14C,0.10000*%
%ADD15C,0.07000*%
%ADD16R,0.05500X0.05500*%
%ADD17C,0.05500*%
%ADD18C,0.04500*%
%ADD19C,0.06500*%
%ADD20C,0.08858*%
%ADD21C,0.03000*%
%ADD22C,0.02400*%
%ADD23C,0.02800*%
%ADD24C,0.01600*%
%ADD25C,0.01200*%
D10*
X0007500Y0015000D02*
X0007500Y0212500D01*
X0007502Y0212681D01*
X0007509Y0212862D01*
X0007520Y0213043D01*
X0007535Y0213224D01*
X0007555Y0213404D01*
X0007579Y0213584D01*
X0007607Y0213763D01*
X0007640Y0213941D01*
X0007677Y0214118D01*
X0007718Y0214295D01*
X0007763Y0214470D01*
X0007813Y0214645D01*
X0007867Y0214818D01*
X0007925Y0214989D01*
X0007987Y0215160D01*
X0008054Y0215328D01*
X0008124Y0215495D01*
X0008198Y0215661D01*
X0008277Y0215824D01*
X0008359Y0215985D01*
X0008445Y0216145D01*
X0008535Y0216302D01*
X0008629Y0216457D01*
X0008726Y0216610D01*
X0008828Y0216760D01*
X0008932Y0216908D01*
X0009041Y0217054D01*
X0009152Y0217196D01*
X0009268Y0217336D01*
X0009386Y0217473D01*
X0009508Y0217608D01*
X0009633Y0217739D01*
X0009761Y0217867D01*
X0009892Y0217992D01*
X0010027Y0218114D01*
X0010164Y0218232D01*
X0010304Y0218348D01*
X0010446Y0218459D01*
X0010592Y0218568D01*
X0010740Y0218672D01*
X0010890Y0218774D01*
X0011043Y0218871D01*
X0011198Y0218965D01*
X0011355Y0219055D01*
X0011515Y0219141D01*
X0011676Y0219223D01*
X0011839Y0219302D01*
X0012005Y0219376D01*
X0012172Y0219446D01*
X0012340Y0219513D01*
X0012511Y0219575D01*
X0012682Y0219633D01*
X0012855Y0219687D01*
X0013030Y0219737D01*
X0013205Y0219782D01*
X0013382Y0219823D01*
X0013559Y0219860D01*
X0013737Y0219893D01*
X0013916Y0219921D01*
X0014096Y0219945D01*
X0014276Y0219965D01*
X0014457Y0219980D01*
X0014638Y0219991D01*
X0014819Y0219998D01*
X0015000Y0220000D01*
X0197500Y0220000D01*
X0197681Y0219998D01*
X0197862Y0219991D01*
X0198043Y0219980D01*
X0198224Y0219965D01*
X0198404Y0219945D01*
X0198584Y0219921D01*
X0198763Y0219893D01*
X0198941Y0219860D01*
X0199118Y0219823D01*
X0199295Y0219782D01*
X0199470Y0219737D01*
X0199645Y0219687D01*
X0199818Y0219633D01*
X0199989Y0219575D01*
X0200160Y0219513D01*
X0200328Y0219446D01*
X0200495Y0219376D01*
X0200661Y0219302D01*
X0200824Y0219223D01*
X0200985Y0219141D01*
X0201145Y0219055D01*
X0201302Y0218965D01*
X0201457Y0218871D01*
X0201610Y0218774D01*
X0201760Y0218672D01*
X0201908Y0218568D01*
X0202054Y0218459D01*
X0202196Y0218348D01*
X0202336Y0218232D01*
X0202473Y0218114D01*
X0202608Y0217992D01*
X0202739Y0217867D01*
X0202867Y0217739D01*
X0202992Y0217608D01*
X0203114Y0217473D01*
X0203232Y0217336D01*
X0203348Y0217196D01*
X0203459Y0217054D01*
X0203568Y0216908D01*
X0203672Y0216760D01*
X0203774Y0216610D01*
X0203871Y0216457D01*
X0203965Y0216302D01*
X0204055Y0216145D01*
X0204141Y0215985D01*
X0204223Y0215824D01*
X0204302Y0215661D01*
X0204376Y0215495D01*
X0204446Y0215328D01*
X0204513Y0215160D01*
X0204575Y0214989D01*
X0204633Y0214818D01*
X0204687Y0214645D01*
X0204737Y0214470D01*
X0204782Y0214295D01*
X0204823Y0214118D01*
X0204860Y0213941D01*
X0204893Y0213763D01*
X0204921Y0213584D01*
X0204945Y0213404D01*
X0204965Y0213224D01*
X0204980Y0213043D01*
X0204991Y0212862D01*
X0204998Y0212681D01*
X0205000Y0212500D01*
X0205000Y0185000D01*
X0204998Y0184860D01*
X0204992Y0184720D01*
X0204982Y0184580D01*
X0204969Y0184440D01*
X0204951Y0184301D01*
X0204929Y0184162D01*
X0204904Y0184025D01*
X0204875Y0183887D01*
X0204842Y0183751D01*
X0204805Y0183616D01*
X0204764Y0183482D01*
X0204719Y0183349D01*
X0204671Y0183217D01*
X0204619Y0183087D01*
X0204564Y0182958D01*
X0204505Y0182831D01*
X0204442Y0182705D01*
X0204376Y0182581D01*
X0204307Y0182460D01*
X0204234Y0182340D01*
X0204157Y0182222D01*
X0204078Y0182107D01*
X0203995Y0181993D01*
X0203909Y0181883D01*
X0203820Y0181774D01*
X0203728Y0181668D01*
X0203633Y0181565D01*
X0203536Y0181464D01*
X0203435Y0181367D01*
X0203332Y0181272D01*
X0203226Y0181180D01*
X0203117Y0181091D01*
X0203007Y0181005D01*
X0202893Y0180922D01*
X0202778Y0180843D01*
X0202660Y0180766D01*
X0202540Y0180693D01*
X0202419Y0180624D01*
X0202295Y0180558D01*
X0202169Y0180495D01*
X0202042Y0180436D01*
X0201913Y0180381D01*
X0201783Y0180329D01*
X0201651Y0180281D01*
X0201518Y0180236D01*
X0201384Y0180195D01*
X0201249Y0180158D01*
X0201113Y0180125D01*
X0200975Y0180096D01*
X0200838Y0180071D01*
X0200699Y0180049D01*
X0200560Y0180031D01*
X0200420Y0180018D01*
X0200280Y0180008D01*
X0200140Y0180002D01*
X0200000Y0180000D01*
X0167500Y0180000D01*
X0167360Y0179998D01*
X0167220Y0179992D01*
X0167080Y0179982D01*
X0166940Y0179969D01*
X0166801Y0179951D01*
X0166662Y0179929D01*
X0166525Y0179904D01*
X0166387Y0179875D01*
X0166251Y0179842D01*
X0166116Y0179805D01*
X0165982Y0179764D01*
X0165849Y0179719D01*
X0165717Y0179671D01*
X0165587Y0179619D01*
X0165458Y0179564D01*
X0165331Y0179505D01*
X0165205Y0179442D01*
X0165081Y0179376D01*
X0164960Y0179307D01*
X0164840Y0179234D01*
X0164722Y0179157D01*
X0164607Y0179078D01*
X0164493Y0178995D01*
X0164383Y0178909D01*
X0164274Y0178820D01*
X0164168Y0178728D01*
X0164065Y0178633D01*
X0163964Y0178536D01*
X0163867Y0178435D01*
X0163772Y0178332D01*
X0163680Y0178226D01*
X0163591Y0178117D01*
X0163505Y0178007D01*
X0163422Y0177893D01*
X0163343Y0177778D01*
X0163266Y0177660D01*
X0163193Y0177540D01*
X0163124Y0177419D01*
X0163058Y0177295D01*
X0162995Y0177169D01*
X0162936Y0177042D01*
X0162881Y0176913D01*
X0162829Y0176783D01*
X0162781Y0176651D01*
X0162736Y0176518D01*
X0162695Y0176384D01*
X0162658Y0176249D01*
X0162625Y0176113D01*
X0162596Y0175975D01*
X0162571Y0175838D01*
X0162549Y0175699D01*
X0162531Y0175560D01*
X0162518Y0175420D01*
X0162508Y0175280D01*
X0162502Y0175140D01*
X0162500Y0175000D01*
X0162500Y0100000D01*
X0162502Y0099860D01*
X0162508Y0099720D01*
X0162518Y0099580D01*
X0162531Y0099440D01*
X0162549Y0099301D01*
X0162571Y0099162D01*
X0162596Y0099025D01*
X0162625Y0098887D01*
X0162658Y0098751D01*
X0162695Y0098616D01*
X0162736Y0098482D01*
X0162781Y0098349D01*
X0162829Y0098217D01*
X0162881Y0098087D01*
X0162936Y0097958D01*
X0162995Y0097831D01*
X0163058Y0097705D01*
X0163124Y0097581D01*
X0163193Y0097460D01*
X0163266Y0097340D01*
X0163343Y0097222D01*
X0163422Y0097107D01*
X0163505Y0096993D01*
X0163591Y0096883D01*
X0163680Y0096774D01*
X0163772Y0096668D01*
X0163867Y0096565D01*
X0163964Y0096464D01*
X0164065Y0096367D01*
X0164168Y0096272D01*
X0164274Y0096180D01*
X0164383Y0096091D01*
X0164493Y0096005D01*
X0164607Y0095922D01*
X0164722Y0095843D01*
X0164840Y0095766D01*
X0164960Y0095693D01*
X0165081Y0095624D01*
X0165205Y0095558D01*
X0165331Y0095495D01*
X0165458Y0095436D01*
X0165587Y0095381D01*
X0165717Y0095329D01*
X0165849Y0095281D01*
X0165982Y0095236D01*
X0166116Y0095195D01*
X0166251Y0095158D01*
X0166387Y0095125D01*
X0166525Y0095096D01*
X0166662Y0095071D01*
X0166801Y0095049D01*
X0166940Y0095031D01*
X0167080Y0095018D01*
X0167220Y0095008D01*
X0167360Y0095002D01*
X0167500Y0095000D01*
X0200000Y0095000D01*
X0200140Y0094998D01*
X0200280Y0094992D01*
X0200420Y0094982D01*
X0200560Y0094969D01*
X0200699Y0094951D01*
X0200838Y0094929D01*
X0200975Y0094904D01*
X0201113Y0094875D01*
X0201249Y0094842D01*
X0201384Y0094805D01*
X0201518Y0094764D01*
X0201651Y0094719D01*
X0201783Y0094671D01*
X0201913Y0094619D01*
X0202042Y0094564D01*
X0202169Y0094505D01*
X0202295Y0094442D01*
X0202419Y0094376D01*
X0202540Y0094307D01*
X0202660Y0094234D01*
X0202778Y0094157D01*
X0202893Y0094078D01*
X0203007Y0093995D01*
X0203117Y0093909D01*
X0203226Y0093820D01*
X0203332Y0093728D01*
X0203435Y0093633D01*
X0203536Y0093536D01*
X0203633Y0093435D01*
X0203728Y0093332D01*
X0203820Y0093226D01*
X0203909Y0093117D01*
X0203995Y0093007D01*
X0204078Y0092893D01*
X0204157Y0092778D01*
X0204234Y0092660D01*
X0204307Y0092540D01*
X0204376Y0092419D01*
X0204442Y0092295D01*
X0204505Y0092169D01*
X0204564Y0092042D01*
X0204619Y0091913D01*
X0204671Y0091783D01*
X0204719Y0091651D01*
X0204764Y0091518D01*
X0204805Y0091384D01*
X0204842Y0091249D01*
X0204875Y0091113D01*
X0204904Y0090975D01*
X0204929Y0090838D01*
X0204951Y0090699D01*
X0204969Y0090560D01*
X0204982Y0090420D01*
X0204992Y0090280D01*
X0204998Y0090140D01*
X0205000Y0090000D01*
X0205000Y0015000D01*
X0204998Y0014819D01*
X0204991Y0014638D01*
X0204980Y0014457D01*
X0204965Y0014276D01*
X0204945Y0014096D01*
X0204921Y0013916D01*
X0204893Y0013737D01*
X0204860Y0013559D01*
X0204823Y0013382D01*
X0204782Y0013205D01*
X0204737Y0013030D01*
X0204687Y0012855D01*
X0204633Y0012682D01*
X0204575Y0012511D01*
X0204513Y0012340D01*
X0204446Y0012172D01*
X0204376Y0012005D01*
X0204302Y0011839D01*
X0204223Y0011676D01*
X0204141Y0011515D01*
X0204055Y0011355D01*
X0203965Y0011198D01*
X0203871Y0011043D01*
X0203774Y0010890D01*
X0203672Y0010740D01*
X0203568Y0010592D01*
X0203459Y0010446D01*
X0203348Y0010304D01*
X0203232Y0010164D01*
X0203114Y0010027D01*
X0202992Y0009892D01*
X0202867Y0009761D01*
X0202739Y0009633D01*
X0202608Y0009508D01*
X0202473Y0009386D01*
X0202336Y0009268D01*
X0202196Y0009152D01*
X0202054Y0009041D01*
X0201908Y0008932D01*
X0201760Y0008828D01*
X0201610Y0008726D01*
X0201457Y0008629D01*
X0201302Y0008535D01*
X0201145Y0008445D01*
X0200985Y0008359D01*
X0200824Y0008277D01*
X0200661Y0008198D01*
X0200495Y0008124D01*
X0200328Y0008054D01*
X0200160Y0007987D01*
X0199989Y0007925D01*
X0199818Y0007867D01*
X0199645Y0007813D01*
X0199470Y0007763D01*
X0199295Y0007718D01*
X0199118Y0007677D01*
X0198941Y0007640D01*
X0198763Y0007607D01*
X0198584Y0007579D01*
X0198404Y0007555D01*
X0198224Y0007535D01*
X0198043Y0007520D01*
X0197862Y0007509D01*
X0197681Y0007502D01*
X0197500Y0007500D01*
X0015000Y0007500D01*
X0014819Y0007502D01*
X0014638Y0007509D01*
X0014457Y0007520D01*
X0014276Y0007535D01*
X0014096Y0007555D01*
X0013916Y0007579D01*
X0013737Y0007607D01*
X0013559Y0007640D01*
X0013382Y0007677D01*
X0013205Y0007718D01*
X0013030Y0007763D01*
X0012855Y0007813D01*
X0012682Y0007867D01*
X0012511Y0007925D01*
X0012340Y0007987D01*
X0012172Y0008054D01*
X0012005Y0008124D01*
X0011839Y0008198D01*
X0011676Y0008277D01*
X0011515Y0008359D01*
X0011355Y0008445D01*
X0011198Y0008535D01*
X0011043Y0008629D01*
X0010890Y0008726D01*
X0010740Y0008828D01*
X0010592Y0008932D01*
X0010446Y0009041D01*
X0010304Y0009152D01*
X0010164Y0009268D01*
X0010027Y0009386D01*
X0009892Y0009508D01*
X0009761Y0009633D01*
X0009633Y0009761D01*
X0009508Y0009892D01*
X0009386Y0010027D01*
X0009268Y0010164D01*
X0009152Y0010304D01*
X0009041Y0010446D01*
X0008932Y0010592D01*
X0008828Y0010740D01*
X0008726Y0010890D01*
X0008629Y0011043D01*
X0008535Y0011198D01*
X0008445Y0011355D01*
X0008359Y0011515D01*
X0008277Y0011676D01*
X0008198Y0011839D01*
X0008124Y0012005D01*
X0008054Y0012172D01*
X0007987Y0012340D01*
X0007925Y0012511D01*
X0007867Y0012682D01*
X0007813Y0012855D01*
X0007763Y0013030D01*
X0007718Y0013205D01*
X0007677Y0013382D01*
X0007640Y0013559D01*
X0007607Y0013737D01*
X0007579Y0013916D01*
X0007555Y0014096D01*
X0007535Y0014276D01*
X0007520Y0014457D01*
X0007509Y0014638D01*
X0007502Y0014819D01*
X0007500Y0015000D01*
D11*
X0015000Y0069500D03*
X0025000Y0069500D03*
X0035000Y0069500D03*
X0062500Y0102500D03*
X0062500Y0112500D03*
X0062500Y0122500D03*
X0062500Y0132500D03*
X0062500Y0142500D03*
X0062500Y0152500D03*
X0062500Y0162500D03*
X0062500Y0172500D03*
X0062500Y0182500D03*
X0062500Y0192500D03*
X0072500Y0192500D03*
X0072500Y0182500D03*
X0072500Y0172500D03*
X0072500Y0162500D03*
X0072500Y0152500D03*
X0072500Y0142500D03*
X0072500Y0132500D03*
X0072500Y0122500D03*
X0142500Y0122500D03*
X0152500Y0122500D03*
X0152500Y0112500D03*
X0152500Y0102500D03*
X0152500Y0132500D03*
X0152500Y0142500D03*
X0142500Y0142500D03*
X0142500Y0132500D03*
X0142500Y0152500D03*
X0142500Y0162500D03*
X0142500Y0172500D03*
X0152500Y0172500D03*
X0152500Y0162500D03*
X0152500Y0152500D03*
X0152500Y0182500D03*
X0152500Y0192500D03*
X0142500Y0192500D03*
X0142500Y0182500D03*
X0182500Y0189000D03*
X0182500Y0199000D03*
X0182500Y0209000D03*
X0192500Y0209000D03*
X0192500Y0199000D03*
X0192500Y0189000D03*
D12*
X0032500Y0160000D03*
X0032500Y0150000D03*
X0032500Y0140000D03*
X0032500Y0130000D03*
X0032500Y0120000D03*
X0032500Y0110000D03*
X0032500Y0100000D03*
X0032500Y0090000D03*
X0022500Y0090000D03*
X0022500Y0100000D03*
X0022500Y0110000D03*
X0022500Y0120000D03*
X0022500Y0130000D03*
X0022500Y0140000D03*
X0022500Y0150000D03*
X0022500Y0160000D03*
D13*
X0037815Y0039000D03*
X0049626Y0020496D03*
X0061437Y0039000D03*
D14*
X0095157Y0040374D03*
X0095157Y0020689D03*
X0114843Y0020689D03*
X0114843Y0040374D03*
D15*
X0142500Y0045000D03*
X0142500Y0035000D03*
X0142500Y0025000D03*
X0142500Y0015000D03*
D16*
X0033500Y0202500D03*
D17*
X0020500Y0202500D03*
D18*
X0052500Y0207343D03*
X0052500Y0187657D03*
X0050157Y0069500D03*
X0069843Y0069500D03*
D19*
X0042500Y0172500D03*
X0042500Y0182500D03*
D20*
X0180571Y0073386D02*
X0189429Y0073386D01*
X0189429Y0057795D02*
X0180571Y0057795D01*
X0180571Y0042205D02*
X0189429Y0042205D01*
X0189429Y0026614D02*
X0180571Y0026614D01*
D21*
X0011853Y0011853D02*
X0011035Y0012980D01*
X0010605Y0014304D01*
X0010550Y0015000D01*
X0010550Y0065182D01*
X0010961Y0064771D01*
X0011750Y0064197D01*
X0012620Y0063754D01*
X0013548Y0063453D01*
X0014512Y0063300D01*
X0015000Y0063300D01*
X0015488Y0063300D01*
X0016452Y0063453D01*
X0017380Y0063754D01*
X0018250Y0064197D01*
X0019039Y0064771D01*
X0019729Y0065461D01*
X0020076Y0065939D01*
X0021601Y0064413D01*
X0023807Y0063500D01*
X0026193Y0063500D01*
X0028399Y0064413D01*
X0030000Y0066015D01*
X0031601Y0064413D01*
X0033807Y0063500D01*
X0036193Y0063500D01*
X0038399Y0064413D01*
X0040087Y0066101D01*
X0041000Y0068307D01*
X0041000Y0070693D01*
X0040087Y0072899D01*
X0038399Y0074587D01*
X0037986Y0074757D01*
X0050656Y0074757D01*
X0049949Y0074050D01*
X0049252Y0074050D01*
X0047580Y0073357D01*
X0046300Y0072077D01*
X0045607Y0070405D01*
X0045607Y0068595D01*
X0046300Y0066923D01*
X0047580Y0065643D01*
X0049252Y0064950D01*
X0051063Y0064950D01*
X0052735Y0065643D01*
X0054015Y0066923D01*
X0054707Y0068595D01*
X0054707Y0070405D01*
X0054649Y0070547D01*
X0058859Y0074757D01*
X0070716Y0074757D01*
X0070008Y0074050D01*
X0068937Y0074050D01*
X0067265Y0073357D01*
X0065985Y0072077D01*
X0065293Y0070405D01*
X0065293Y0068595D01*
X0065985Y0066923D01*
X0067265Y0065643D01*
X0068937Y0064950D01*
X0070748Y0064950D01*
X0072420Y0065643D01*
X0073700Y0066923D01*
X0074393Y0068595D01*
X0074393Y0069666D01*
X0076127Y0071400D01*
X0090117Y0071400D01*
X0091256Y0071872D01*
X0092128Y0072744D01*
X0096756Y0077372D01*
X0097628Y0078244D01*
X0098100Y0079383D01*
X0098100Y0115367D01*
X0098137Y0115404D01*
X0098700Y0116764D01*
X0098700Y0118236D01*
X0098137Y0119596D01*
X0098100Y0119633D01*
X0098100Y0190617D01*
X0097628Y0191756D01*
X0096756Y0192628D01*
X0096200Y0193184D01*
X0096200Y0193236D01*
X0095637Y0194596D01*
X0094596Y0195637D01*
X0093236Y0196200D01*
X0091764Y0196200D01*
X0090404Y0195637D01*
X0089363Y0194596D01*
X0088800Y0193236D01*
X0088800Y0191764D01*
X0089363Y0190404D01*
X0090404Y0189363D01*
X0091764Y0188800D01*
X0091816Y0188800D01*
X0091900Y0188716D01*
X0091900Y0167201D01*
X0091643Y0167458D01*
X0084143Y0174958D01*
X0083077Y0175400D01*
X0077793Y0175400D01*
X0077587Y0175899D01*
X0075985Y0177500D01*
X0077587Y0179101D01*
X0078500Y0181307D01*
X0078500Y0183693D01*
X0077587Y0185899D01*
X0075985Y0187500D01*
X0077587Y0189101D01*
X0078500Y0191307D01*
X0078500Y0193693D01*
X0077587Y0195899D01*
X0076885Y0196600D01*
X0138115Y0196600D01*
X0137413Y0195899D01*
X0136500Y0193693D01*
X0136500Y0191307D01*
X0137413Y0189101D01*
X0139015Y0187500D01*
X0137413Y0185899D01*
X0136500Y0183693D01*
X0136500Y0181307D01*
X0137413Y0179101D01*
X0139015Y0177500D01*
X0137413Y0175899D01*
X0136500Y0173693D01*
X0136500Y0171307D01*
X0137413Y0169101D01*
X0139015Y0167500D01*
X0137413Y0165899D01*
X0136500Y0163693D01*
X0136500Y0161307D01*
X0137413Y0159101D01*
X0139015Y0157500D01*
X0137413Y0155899D01*
X0137207Y0155400D01*
X0124423Y0155400D01*
X0123357Y0154958D01*
X0122541Y0154143D01*
X0118541Y0150143D01*
X0118100Y0149077D01*
X0118100Y0130833D01*
X0117863Y0130596D01*
X0117300Y0129236D01*
X0117300Y0127764D01*
X0117863Y0126404D01*
X0118904Y0125363D01*
X0120264Y0124800D01*
X0121736Y0124800D01*
X0123096Y0125363D01*
X0124137Y0126404D01*
X0124700Y0127764D01*
X0124700Y0129236D01*
X0124137Y0130596D01*
X0123900Y0130833D01*
X0123900Y0147299D01*
X0126201Y0149600D01*
X0137207Y0149600D01*
X0137413Y0149101D01*
X0139015Y0147500D01*
X0137413Y0145899D01*
X0136500Y0143693D01*
X0136500Y0141307D01*
X0137413Y0139101D01*
X0138939Y0137576D01*
X0138461Y0137229D01*
X0137771Y0136539D01*
X0137197Y0135750D01*
X0136754Y0134880D01*
X0136453Y0133952D01*
X0136300Y0132988D01*
X0136300Y0132500D01*
X0142500Y0132500D01*
X0148700Y0132500D01*
X0152500Y0132500D01*
X0158700Y0132500D01*
X0158700Y0132988D01*
X0158547Y0133952D01*
X0158246Y0134880D01*
X0157803Y0135750D01*
X0157229Y0136539D01*
X0156539Y0137229D01*
X0156061Y0137576D01*
X0157587Y0139101D01*
X0158500Y0141307D01*
X0158500Y0143693D01*
X0157587Y0145899D01*
X0155985Y0147500D01*
X0157587Y0149101D01*
X0158500Y0151307D01*
X0158500Y0153693D01*
X0157587Y0155899D01*
X0155985Y0157500D01*
X0157587Y0159101D01*
X0158500Y0161307D01*
X0158500Y0163693D01*
X0157587Y0165899D01*
X0155985Y0167500D01*
X0157587Y0169101D01*
X0158500Y0171307D01*
X0158500Y0173693D01*
X0157587Y0175899D01*
X0155985Y0177500D01*
X0157587Y0179101D01*
X0158500Y0181307D01*
X0158500Y0183693D01*
X0157587Y0185899D01*
X0155985Y0187500D01*
X0157587Y0189101D01*
X0158500Y0191307D01*
X0158500Y0193693D01*
X0157587Y0195899D01*
X0156885Y0196600D01*
X0166799Y0196600D01*
X0176857Y0186541D01*
X0177059Y0186458D01*
X0177413Y0185601D01*
X0179101Y0183913D01*
X0181186Y0183050D01*
X0165899Y0183050D01*
X0162940Y0181824D01*
X0160676Y0179560D01*
X0159450Y0176601D01*
X0159450Y0098399D01*
X0160676Y0095440D01*
X0162940Y0093176D01*
X0165899Y0091950D01*
X0200000Y0091950D01*
X0200380Y0091913D01*
X0201083Y0091621D01*
X0201621Y0091083D01*
X0201913Y0090380D01*
X0201950Y0090000D01*
X0201950Y0015000D01*
X0201895Y0014304D01*
X0201465Y0012980D01*
X0200647Y0011853D01*
X0199520Y0011035D01*
X0198196Y0010605D01*
X0197500Y0010550D01*
X0146252Y0010550D01*
X0147417Y0011715D01*
X0148300Y0013846D01*
X0148300Y0016154D01*
X0147417Y0018285D01*
X0145785Y0019917D01*
X0145585Y0020000D01*
X0145785Y0020083D01*
X0147417Y0021715D01*
X0148300Y0023846D01*
X0148300Y0026154D01*
X0147417Y0028285D01*
X0145785Y0029917D01*
X0145738Y0029936D01*
X0146409Y0030423D01*
X0147077Y0031091D01*
X0147632Y0031855D01*
X0148060Y0032697D01*
X0148352Y0033595D01*
X0148500Y0034528D01*
X0148500Y0035000D01*
X0148500Y0035472D01*
X0148352Y0036405D01*
X0148060Y0037303D01*
X0147632Y0038145D01*
X0147077Y0038909D01*
X0146409Y0039577D01*
X0145826Y0040000D01*
X0146409Y0040423D01*
X0147077Y0041091D01*
X0147632Y0041855D01*
X0148060Y0042697D01*
X0148352Y0043595D01*
X0148500Y0044528D01*
X0148500Y0045000D01*
X0148500Y0045472D01*
X0148352Y0046405D01*
X0148060Y0047303D01*
X0147632Y0048145D01*
X0147077Y0048909D01*
X0146409Y0049577D01*
X0145645Y0050132D01*
X0144803Y0050560D01*
X0143905Y0050852D01*
X0142972Y0051000D01*
X0142500Y0051000D01*
X0142500Y0045000D01*
X0142500Y0045000D01*
X0148500Y0045000D01*
X0142500Y0045000D01*
X0142500Y0045000D01*
X0142500Y0045000D01*
X0136500Y0045000D01*
X0136500Y0045472D01*
X0136648Y0046405D01*
X0136940Y0047303D01*
X0137368Y0048145D01*
X0137923Y0048909D01*
X0138591Y0049577D01*
X0139355Y0050132D01*
X0140197Y0050560D01*
X0141095Y0050852D01*
X0142028Y0051000D01*
X0142500Y0051000D01*
X0142500Y0045000D01*
X0142500Y0039000D01*
X0142500Y0035000D01*
X0148500Y0035000D01*
X0142500Y0035000D01*
X0142500Y0035000D01*
X0142500Y0035000D01*
X0142500Y0035000D01*
X0136500Y0035000D01*
X0136500Y0035472D01*
X0136648Y0036405D01*
X0136940Y0037303D01*
X0137368Y0038145D01*
X0137923Y0038909D01*
X0138591Y0039577D01*
X0139174Y0040000D01*
X0138591Y0040423D01*
X0137923Y0041091D01*
X0137368Y0041855D01*
X0136940Y0042697D01*
X0136648Y0043595D01*
X0136500Y0044528D01*
X0136500Y0045000D01*
X0142500Y0045000D01*
X0142500Y0045000D01*
X0142500Y0035000D01*
X0136500Y0035000D01*
X0136500Y0034528D01*
X0136648Y0033595D01*
X0136940Y0032697D01*
X0137368Y0031855D01*
X0137923Y0031091D01*
X0138591Y0030423D01*
X0139262Y0029936D01*
X0139215Y0029917D01*
X0137583Y0028285D01*
X0136700Y0026154D01*
X0136700Y0023846D01*
X0137583Y0021715D01*
X0139215Y0020083D01*
X0139415Y0020000D01*
X0139215Y0019917D01*
X0137583Y0018285D01*
X0136700Y0016154D01*
X0136700Y0013846D01*
X0137583Y0011715D01*
X0138748Y0010550D01*
X0054325Y0010550D01*
X0054955Y0010853D01*
X0056001Y0011511D01*
X0056967Y0012281D01*
X0057841Y0013155D01*
X0058611Y0014121D01*
X0059269Y0015167D01*
X0059805Y0016280D01*
X0060213Y0017446D01*
X0060488Y0018651D01*
X0060532Y0019046D01*
X0051076Y0019046D01*
X0051076Y0021946D01*
X0060532Y0021946D01*
X0060488Y0022342D01*
X0060213Y0023546D01*
X0059805Y0024712D01*
X0059269Y0025825D01*
X0058611Y0026871D01*
X0057841Y0027837D01*
X0056967Y0028711D01*
X0056001Y0029481D01*
X0054955Y0030139D01*
X0053842Y0030675D01*
X0052676Y0031083D01*
X0051471Y0031358D01*
X0051076Y0031402D01*
X0051076Y0021946D01*
X0048176Y0021946D01*
X0048176Y0019046D01*
X0038720Y0019046D01*
X0038764Y0018651D01*
X0039039Y0017446D01*
X0039447Y0016280D01*
X0039983Y0015167D01*
X0040641Y0014121D01*
X0041411Y0013155D01*
X0042285Y0012281D01*
X0043251Y0011511D01*
X0044297Y0010853D01*
X0044927Y0010550D01*
X0015000Y0010550D01*
X0014304Y0010605D01*
X0012980Y0011035D01*
X0011853Y0011853D01*
X0010867Y0013497D02*
X0041138Y0013497D01*
X0039372Y0016496D02*
X0010550Y0016496D01*
X0010550Y0019494D02*
X0048176Y0019494D01*
X0048176Y0021946D02*
X0038720Y0021946D01*
X0038764Y0022342D01*
X0039039Y0023546D01*
X0039447Y0024712D01*
X0039983Y0025825D01*
X0040641Y0026871D01*
X0041411Y0027837D01*
X0042285Y0028711D01*
X0043020Y0029298D01*
X0042031Y0028821D01*
X0040865Y0028413D01*
X0039660Y0028138D01*
X0039265Y0028094D01*
X0039265Y0037550D01*
X0039265Y0040450D01*
X0048721Y0040450D01*
X0048677Y0040845D01*
X0048402Y0042050D01*
X0047994Y0043216D01*
X0047458Y0044329D01*
X0046800Y0045375D01*
X0046030Y0046341D01*
X0045156Y0047215D01*
X0044190Y0047985D01*
X0043144Y0048643D01*
X0042031Y0049179D01*
X0040865Y0049587D01*
X0039660Y0049862D01*
X0039265Y0049906D01*
X0039265Y0040450D01*
X0036365Y0040450D01*
X0036365Y0049906D01*
X0035969Y0049862D01*
X0034765Y0049587D01*
X0033599Y0049179D01*
X0032486Y0048643D01*
X0031440Y0047985D01*
X0030474Y0047215D01*
X0029600Y0046341D01*
X0028830Y0045375D01*
X0028172Y0044329D01*
X0027636Y0043216D01*
X0027228Y0042050D01*
X0026953Y0040845D01*
X0026909Y0040450D01*
X0036365Y0040450D01*
X0036365Y0037550D01*
X0039265Y0037550D01*
X0048721Y0037550D01*
X0048677Y0037155D01*
X0048402Y0035950D01*
X0047994Y0034784D01*
X0047458Y0033671D01*
X0046800Y0032625D01*
X0046030Y0031659D01*
X0045156Y0030785D01*
X0044421Y0030198D01*
X0045410Y0030675D01*
X0046576Y0031083D01*
X0047780Y0031358D01*
X0048176Y0031402D01*
X0048176Y0021946D01*
X0048176Y0022493D02*
X0051076Y0022493D01*
X0051076Y0019494D02*
X0087750Y0019494D01*
X0087786Y0019223D02*
X0088040Y0018273D01*
X0088416Y0017365D01*
X0088908Y0016513D01*
X0089507Y0015733D01*
X0090202Y0015038D01*
X0090982Y0014440D01*
X0091833Y0013948D01*
X0092741Y0013572D01*
X0093691Y0013317D01*
X0094666Y0013189D01*
X0095157Y0013189D01*
X0095157Y0020689D01*
X0095157Y0020689D01*
X0087657Y0020689D01*
X0087657Y0020197D01*
X0087786Y0019223D01*
X0087657Y0020689D02*
X0095157Y0020689D01*
X0095157Y0028189D01*
X0094666Y0028189D01*
X0093691Y0028061D01*
X0092741Y0027806D01*
X0091833Y0027430D01*
X0090982Y0026938D01*
X0090202Y0026340D01*
X0089507Y0025645D01*
X0088908Y0024865D01*
X0088416Y0024013D01*
X0088040Y0023105D01*
X0087786Y0022155D01*
X0087657Y0021181D01*
X0087657Y0020689D01*
X0087876Y0022493D02*
X0060453Y0022493D01*
X0059430Y0025491D02*
X0089389Y0025491D01*
X0095157Y0025491D02*
X0095158Y0025491D01*
X0095158Y0028189D02*
X0095649Y0028189D01*
X0096624Y0028061D01*
X0097573Y0027806D01*
X0098482Y0027430D01*
X0099333Y0026938D01*
X0100113Y0026340D01*
X0100808Y0025645D01*
X0101407Y0024865D01*
X0101898Y0024013D01*
X0102275Y0023105D01*
X0102529Y0022155D01*
X0102657Y0021181D01*
X0102657Y0020689D01*
X0095158Y0020689D01*
X0095158Y0020689D01*
X0102657Y0020689D01*
X0102657Y0020197D01*
X0102529Y0019223D01*
X0102275Y0018273D01*
X0101898Y0017365D01*
X0101407Y0016513D01*
X0100808Y0015733D01*
X0100113Y0015038D01*
X0099333Y0014440D01*
X0098482Y0013948D01*
X0097573Y0013572D01*
X0096624Y0013317D01*
X0095649Y0013189D01*
X0095158Y0013189D01*
X0095158Y0020689D01*
X0095157Y0020689D01*
X0095158Y0020689D01*
X0095158Y0028189D01*
X0095157Y0032874D02*
X0095157Y0040374D01*
X0087657Y0040374D01*
X0087657Y0039882D01*
X0087786Y0038908D01*
X0088040Y0037958D01*
X0088416Y0037050D01*
X0088908Y0036198D01*
X0089507Y0035418D01*
X0090202Y0034723D01*
X0090982Y0034125D01*
X0091833Y0033633D01*
X0092741Y0033257D01*
X0093691Y0033002D01*
X0094666Y0032874D01*
X0095157Y0032874D01*
X0095158Y0032874D02*
X0095649Y0032874D01*
X0096624Y0033002D01*
X0097573Y0033257D01*
X0098482Y0033633D01*
X0099333Y0034125D01*
X0100113Y0034723D01*
X0100808Y0035418D01*
X0101407Y0036198D01*
X0101898Y0037050D01*
X0102275Y0037958D01*
X0102529Y0038908D01*
X0102657Y0039882D01*
X0102657Y0040374D01*
X0102657Y0040866D01*
X0102529Y0041840D01*
X0102275Y0042790D01*
X0101898Y0043698D01*
X0101407Y0044550D01*
X0100808Y0045330D01*
X0100113Y0046025D01*
X0099333Y0046623D01*
X0098482Y0047115D01*
X0097573Y0047491D01*
X0096624Y0047746D01*
X0095649Y0047874D01*
X0095158Y0047874D01*
X0095158Y0040374D01*
X0102657Y0040374D01*
X0095158Y0040374D01*
X0095158Y0040374D01*
X0095158Y0032874D01*
X0095157Y0034487D02*
X0095158Y0034487D01*
X0095157Y0037485D02*
X0095158Y0037485D01*
X0095157Y0040374D02*
X0095158Y0040374D01*
X0095157Y0040374D01*
X0095157Y0040374D01*
X0087657Y0040374D01*
X0087657Y0040866D01*
X0087786Y0041840D01*
X0088040Y0042790D01*
X0088416Y0043698D01*
X0088908Y0044550D01*
X0089507Y0045330D01*
X0090202Y0046025D01*
X0090982Y0046623D01*
X0091833Y0047115D01*
X0092741Y0047491D01*
X0093691Y0047746D01*
X0094666Y0047874D01*
X0095157Y0047874D01*
X0095157Y0040374D01*
X0095157Y0040484D02*
X0095158Y0040484D01*
X0095157Y0043482D02*
X0095158Y0043482D01*
X0095157Y0046481D02*
X0095158Y0046481D01*
X0099519Y0046481D02*
X0110625Y0046481D01*
X0110707Y0046563D02*
X0108654Y0044509D01*
X0107543Y0041826D01*
X0107543Y0038922D01*
X0108654Y0036239D01*
X0110707Y0034185D01*
X0113390Y0033074D01*
X0116295Y0033074D01*
X0118978Y0034185D01*
X0121031Y0036239D01*
X0122143Y0038922D01*
X0122143Y0041826D01*
X0121031Y0044509D01*
X0118978Y0046563D01*
X0116295Y0047674D01*
X0113390Y0047674D01*
X0110707Y0046563D01*
X0108228Y0043482D02*
X0101988Y0043482D01*
X0102657Y0040484D02*
X0107543Y0040484D01*
X0108138Y0037485D02*
X0102079Y0037485D01*
X0099805Y0034487D02*
X0110406Y0034487D01*
X0113390Y0027989D02*
X0110707Y0026878D01*
X0108654Y0024824D01*
X0107543Y0022141D01*
X0107543Y0019237D01*
X0108654Y0016554D01*
X0110707Y0014500D01*
X0113390Y0013389D01*
X0116295Y0013389D01*
X0118978Y0014500D01*
X0121031Y0016554D01*
X0122143Y0019237D01*
X0122143Y0022141D01*
X0121031Y0024824D01*
X0118978Y0026878D01*
X0116295Y0027989D01*
X0113390Y0027989D01*
X0109321Y0025491D02*
X0100926Y0025491D01*
X0102439Y0022493D02*
X0107688Y0022493D01*
X0107543Y0019494D02*
X0102565Y0019494D01*
X0101393Y0016496D02*
X0108712Y0016496D01*
X0113130Y0013497D02*
X0097295Y0013497D01*
X0095158Y0013497D02*
X0095157Y0013497D01*
X0093020Y0013497D02*
X0058114Y0013497D01*
X0059880Y0016496D02*
X0088922Y0016496D01*
X0095157Y0016496D02*
X0095158Y0016496D01*
X0095157Y0019494D02*
X0095158Y0019494D01*
X0095157Y0022493D02*
X0095158Y0022493D01*
X0090510Y0034487D02*
X0071302Y0034487D01*
X0071501Y0034831D02*
X0072237Y0037578D01*
X0072237Y0040422D01*
X0071501Y0043169D01*
X0070079Y0045631D01*
X0068068Y0047642D01*
X0065606Y0049064D01*
X0062859Y0049800D01*
X0060015Y0049800D01*
X0057268Y0049064D01*
X0054806Y0047642D01*
X0052795Y0045631D01*
X0051373Y0043169D01*
X0050637Y0040422D01*
X0050637Y0037578D01*
X0051373Y0034831D01*
X0052795Y0032369D01*
X0054806Y0030358D01*
X0057268Y0028936D01*
X0060015Y0028200D01*
X0062859Y0028200D01*
X0065606Y0028936D01*
X0068068Y0030358D01*
X0070079Y0032369D01*
X0071501Y0034831D01*
X0072212Y0037485D02*
X0088236Y0037485D01*
X0087657Y0040484D02*
X0072220Y0040484D01*
X0071320Y0043482D02*
X0088327Y0043482D01*
X0090796Y0046481D02*
X0069230Y0046481D01*
X0064056Y0049479D02*
X0138494Y0049479D01*
X0136672Y0046481D02*
X0119060Y0046481D01*
X0121457Y0043482D02*
X0136684Y0043482D01*
X0138531Y0040484D02*
X0122143Y0040484D01*
X0121547Y0037485D02*
X0137032Y0037485D01*
X0136507Y0034487D02*
X0119279Y0034487D01*
X0120364Y0025491D02*
X0136700Y0025491D01*
X0137787Y0028490D02*
X0063940Y0028490D01*
X0069199Y0031488D02*
X0137635Y0031488D01*
X0142500Y0037485D02*
X0142500Y0037485D01*
X0142500Y0040484D02*
X0142500Y0040484D01*
X0146469Y0040484D02*
X0174000Y0040484D01*
X0173842Y0040866D02*
X0174866Y0038393D01*
X0176759Y0036500D01*
X0179232Y0035476D01*
X0190768Y0035476D01*
X0193241Y0036500D01*
X0195134Y0038393D01*
X0196158Y0040866D01*
X0196158Y0043543D01*
X0195134Y0046016D01*
X0193241Y0047909D01*
X0190768Y0048934D01*
X0179232Y0048934D01*
X0176759Y0047909D01*
X0174866Y0046016D01*
X0173842Y0043543D01*
X0173842Y0040866D01*
X0175774Y0037485D02*
X0147968Y0037485D01*
X0148493Y0034487D02*
X0201950Y0034487D01*
X0201950Y0037485D02*
X0194226Y0037485D01*
X0196000Y0040484D02*
X0201950Y0040484D01*
X0201950Y0043482D02*
X0196158Y0043482D01*
X0194670Y0046481D02*
X0201950Y0046481D01*
X0201950Y0049479D02*
X0146506Y0049479D01*
X0148328Y0046481D02*
X0175330Y0046481D01*
X0173842Y0043482D02*
X0148316Y0043482D01*
X0142500Y0043482D02*
X0142500Y0043482D01*
X0142500Y0046481D02*
X0142500Y0046481D01*
X0142500Y0049479D02*
X0142500Y0049479D01*
X0147365Y0031488D02*
X0175928Y0031488D01*
X0176759Y0032319D02*
X0174866Y0030426D01*
X0173842Y0027953D01*
X0173842Y0025276D01*
X0174866Y0022802D01*
X0176759Y0020909D01*
X0179232Y0019885D01*
X0190768Y0019885D01*
X0193241Y0020909D01*
X0195134Y0022802D01*
X0196158Y0025276D01*
X0196158Y0027953D01*
X0195134Y0030426D01*
X0193241Y0032319D01*
X0190768Y0033343D01*
X0179232Y0033343D01*
X0176759Y0032319D01*
X0174064Y0028490D02*
X0147213Y0028490D01*
X0148300Y0025491D02*
X0173842Y0025491D01*
X0175176Y0022493D02*
X0147739Y0022493D01*
X0146208Y0019494D02*
X0201950Y0019494D01*
X0201950Y0016496D02*
X0148158Y0016496D01*
X0148155Y0013497D02*
X0201633Y0013497D01*
X0201950Y0022493D02*
X0194824Y0022493D01*
X0196158Y0025491D02*
X0201950Y0025491D01*
X0201950Y0028490D02*
X0195936Y0028490D01*
X0194072Y0031488D02*
X0201950Y0031488D01*
X0192500Y0051567D02*
X0193287Y0052022D01*
X0194008Y0052574D01*
X0194650Y0053217D01*
X0195203Y0053937D01*
X0195657Y0054724D01*
X0196005Y0055563D01*
X0196240Y0056441D01*
X0196358Y0057341D01*
X0196358Y0057795D01*
X0185000Y0057795D01*
X0185000Y0050866D01*
X0189883Y0050866D01*
X0190784Y0050985D01*
X0191661Y0051220D01*
X0192500Y0051567D01*
X0193881Y0052478D02*
X0201950Y0052478D01*
X0201950Y0055476D02*
X0195969Y0055476D01*
X0196358Y0057795D02*
X0196358Y0058249D01*
X0196240Y0059150D01*
X0196005Y0060027D01*
X0195657Y0060867D01*
X0195203Y0061653D01*
X0194650Y0062374D01*
X0194008Y0063016D01*
X0193287Y0063569D01*
X0192500Y0064023D01*
X0191661Y0064371D01*
X0190784Y0064606D01*
X0189883Y0064724D01*
X0185000Y0064724D01*
X0180117Y0064724D01*
X0179216Y0064606D01*
X0178339Y0064371D01*
X0177500Y0064023D01*
X0176713Y0063569D01*
X0175992Y0063016D01*
X0175350Y0062374D01*
X0174797Y0061653D01*
X0174343Y0060867D01*
X0173995Y0060027D01*
X0173760Y0059150D01*
X0173642Y0058249D01*
X0173642Y0057795D01*
X0173642Y0057341D01*
X0173760Y0056441D01*
X0173995Y0055563D01*
X0174343Y0054724D01*
X0174797Y0053937D01*
X0175350Y0053217D01*
X0175992Y0052574D01*
X0176713Y0052022D01*
X0177500Y0051567D01*
X0178339Y0051220D01*
X0179216Y0050985D01*
X0180117Y0050866D01*
X0185000Y0050866D01*
X0185000Y0057795D01*
X0185000Y0057795D01*
X0185000Y0057795D01*
X0173642Y0057795D01*
X0185000Y0057795D01*
X0185000Y0057795D01*
X0196358Y0057795D01*
X0196329Y0058475D02*
X0201950Y0058475D01*
X0201950Y0061473D02*
X0195307Y0061473D01*
X0191284Y0064472D02*
X0201950Y0064472D01*
X0201950Y0067470D02*
X0193041Y0067470D01*
X0193287Y0067612D02*
X0194008Y0068165D01*
X0194650Y0068807D01*
X0195203Y0069528D01*
X0195657Y0070315D01*
X0196005Y0071154D01*
X0196240Y0072031D01*
X0196358Y0072932D01*
X0196358Y0073386D01*
X0196358Y0073840D01*
X0196240Y0074741D01*
X0196005Y0075618D01*
X0195657Y0076457D01*
X0195203Y0077244D01*
X0194650Y0077964D01*
X0194008Y0078607D01*
X0193287Y0079160D01*
X0192500Y0079614D01*
X0191661Y0079961D01*
X0190784Y0080196D01*
X0189883Y0080315D01*
X0185000Y0080315D01*
X0185000Y0073386D01*
X0185000Y0073386D01*
X0185000Y0080315D01*
X0180117Y0080315D01*
X0179216Y0080196D01*
X0178339Y0079961D01*
X0177500Y0079614D01*
X0176713Y0079160D01*
X0175992Y0078607D01*
X0175350Y0077964D01*
X0174797Y0077244D01*
X0174343Y0076457D01*
X0173995Y0075618D01*
X0173760Y0074741D01*
X0173642Y0073840D01*
X0173642Y0073386D01*
X0185000Y0073386D01*
X0196358Y0073386D01*
X0185000Y0073386D01*
X0185000Y0073386D01*
X0185000Y0073386D01*
X0173642Y0073386D01*
X0173642Y0072932D01*
X0173760Y0072031D01*
X0173995Y0071154D01*
X0174343Y0070315D01*
X0174797Y0069528D01*
X0175350Y0068807D01*
X0175992Y0068165D01*
X0176713Y0067612D01*
X0177500Y0067158D01*
X0178339Y0066810D01*
X0179216Y0066575D01*
X0180117Y0066457D01*
X0185000Y0066457D01*
X0189883Y0066457D01*
X0190784Y0066575D01*
X0191661Y0066810D01*
X0192500Y0067158D01*
X0193287Y0067612D01*
X0195721Y0070469D02*
X0201950Y0070469D01*
X0201950Y0073467D02*
X0196358Y0073467D01*
X0195652Y0076466D02*
X0201950Y0076466D01*
X0201950Y0079464D02*
X0192759Y0079464D01*
X0185000Y0079464D02*
X0185000Y0079464D01*
X0185000Y0076466D02*
X0185000Y0076466D01*
X0185000Y0073467D02*
X0185000Y0073467D01*
X0185000Y0073386D02*
X0185000Y0066457D01*
X0185000Y0073386D01*
X0185000Y0073386D01*
X0185000Y0070469D02*
X0185000Y0070469D01*
X0185000Y0067470D02*
X0185000Y0067470D01*
X0185000Y0064724D02*
X0185000Y0057795D01*
X0185000Y0057795D01*
X0185000Y0064724D01*
X0185000Y0064472D02*
X0185000Y0064472D01*
X0185000Y0061473D02*
X0185000Y0061473D01*
X0185000Y0058475D02*
X0185000Y0058475D01*
X0185000Y0055476D02*
X0185000Y0055476D01*
X0185000Y0052478D02*
X0185000Y0052478D01*
X0176119Y0052478D02*
X0010550Y0052478D01*
X0010550Y0055476D02*
X0174031Y0055476D01*
X0173671Y0058475D02*
X0010550Y0058475D01*
X0010550Y0061473D02*
X0174693Y0061473D01*
X0178716Y0064472D02*
X0038457Y0064472D01*
X0040654Y0067470D02*
X0046073Y0067470D01*
X0045634Y0070469D02*
X0041000Y0070469D01*
X0039518Y0073467D02*
X0047846Y0073467D01*
X0054681Y0070469D02*
X0065319Y0070469D01*
X0065758Y0067470D02*
X0054242Y0067470D01*
X0057568Y0073467D02*
X0067531Y0073467D01*
X0069956Y0080557D02*
X0029581Y0080557D01*
X0028515Y0080116D01*
X0027699Y0079300D01*
X0023899Y0075500D01*
X0023807Y0075500D01*
X0021601Y0074587D01*
X0020076Y0073061D01*
X0019729Y0073539D01*
X0019039Y0074229D01*
X0018250Y0074803D01*
X0017380Y0075246D01*
X0016452Y0075547D01*
X0015488Y0075700D01*
X0015000Y0075700D01*
X0015000Y0069500D01*
X0015000Y0069500D01*
X0015000Y0075700D01*
X0014512Y0075700D01*
X0013548Y0075547D01*
X0012620Y0075246D01*
X0011750Y0074803D01*
X0010961Y0074229D01*
X0010550Y0073818D01*
X0010550Y0212500D01*
X0010605Y0213196D01*
X0011035Y0214520D01*
X0011853Y0215647D01*
X0012980Y0216465D01*
X0014304Y0216895D01*
X0015000Y0216950D01*
X0197500Y0216950D01*
X0198196Y0216895D01*
X0199520Y0216465D01*
X0200647Y0215647D01*
X0201465Y0214520D01*
X0201895Y0213196D01*
X0201950Y0212500D01*
X0201950Y0185000D01*
X0201913Y0184620D01*
X0201621Y0183917D01*
X0201083Y0183379D01*
X0200380Y0183087D01*
X0200000Y0183050D01*
X0193814Y0183050D01*
X0195899Y0183913D01*
X0197587Y0185601D01*
X0198500Y0187807D01*
X0198500Y0190193D01*
X0197587Y0192399D01*
X0196061Y0193924D01*
X0196539Y0194271D01*
X0197229Y0194961D01*
X0197803Y0195750D01*
X0198246Y0196620D01*
X0198547Y0197548D01*
X0198700Y0198512D01*
X0198700Y0199000D01*
X0198700Y0199488D01*
X0198547Y0200452D01*
X0198246Y0201380D01*
X0197803Y0202250D01*
X0197229Y0203039D01*
X0196539Y0203729D01*
X0196061Y0204076D01*
X0197587Y0205601D01*
X0198500Y0207807D01*
X0198500Y0210193D01*
X0197587Y0212399D01*
X0195899Y0214087D01*
X0193693Y0215000D01*
X0191307Y0215000D01*
X0189101Y0214087D01*
X0187500Y0212485D01*
X0185899Y0214087D01*
X0183693Y0215000D01*
X0181307Y0215000D01*
X0179101Y0214087D01*
X0177413Y0212399D01*
X0176500Y0210193D01*
X0176500Y0207900D01*
X0142333Y0207900D01*
X0142096Y0208137D01*
X0140736Y0208700D01*
X0139264Y0208700D01*
X0137904Y0208137D01*
X0136863Y0207096D01*
X0136300Y0205736D01*
X0136300Y0204900D01*
X0056586Y0204900D01*
X0056902Y0205519D01*
X0057133Y0206230D01*
X0057250Y0206969D01*
X0057250Y0207342D01*
X0052500Y0207342D01*
X0047750Y0207342D01*
X0047750Y0206969D01*
X0047867Y0206230D01*
X0048098Y0205519D01*
X0048413Y0204900D01*
X0047923Y0204900D01*
X0046857Y0204458D01*
X0013357Y0170958D01*
X0012541Y0170143D01*
X0012100Y0169077D01*
X0012100Y0131923D01*
X0012541Y0130857D01*
X0015041Y0128357D01*
X0015857Y0127541D01*
X0016909Y0127106D01*
X0019015Y0125000D01*
X0016500Y0122485D01*
X0016500Y0117515D01*
X0019015Y0115000D01*
X0016500Y0112485D01*
X0016500Y0107515D01*
X0019015Y0105000D01*
X0016500Y0102485D01*
X0016500Y0097515D01*
X0019015Y0095000D01*
X0016500Y0092485D01*
X0016500Y0087515D01*
X0020015Y0084000D01*
X0024985Y0084000D01*
X0027359Y0086373D01*
X0029932Y0083800D01*
X0032500Y0083800D01*
X0035068Y0083800D01*
X0038700Y0087432D01*
X0038700Y0090000D01*
X0038700Y0092568D01*
X0036127Y0095141D01*
X0038085Y0097100D01*
X0043799Y0097100D01*
X0052541Y0088357D01*
X0053357Y0087541D01*
X0054423Y0087100D01*
X0075577Y0087100D01*
X0076643Y0087541D01*
X0081300Y0092199D01*
X0081300Y0091901D01*
X0069956Y0080557D01*
X0071862Y0082463D02*
X0010550Y0082463D01*
X0010550Y0085461D02*
X0018553Y0085461D01*
X0016500Y0088460D02*
X0010550Y0088460D01*
X0010550Y0091458D02*
X0016500Y0091458D01*
X0018472Y0094457D02*
X0010550Y0094457D01*
X0010550Y0097455D02*
X0016559Y0097455D01*
X0016500Y0100454D02*
X0010550Y0100454D01*
X0010550Y0103452D02*
X0017467Y0103452D01*
X0017564Y0106451D02*
X0010550Y0106451D01*
X0010550Y0109449D02*
X0016500Y0109449D01*
X0016500Y0112448D02*
X0010550Y0112448D01*
X0010550Y0115446D02*
X0018568Y0115446D01*
X0016500Y0118445D02*
X0010550Y0118445D01*
X0010550Y0121443D02*
X0016500Y0121443D01*
X0018457Y0124442D02*
X0010550Y0124442D01*
X0010550Y0127440D02*
X0016101Y0127440D01*
X0012960Y0130439D02*
X0010550Y0130439D01*
X0010550Y0133437D02*
X0012100Y0133437D01*
X0012100Y0136436D02*
X0010550Y0136436D01*
X0010550Y0139434D02*
X0012100Y0139434D01*
X0012100Y0142433D02*
X0010550Y0142433D01*
X0010550Y0145432D02*
X0012100Y0145432D01*
X0012100Y0148430D02*
X0010550Y0148430D01*
X0010550Y0151429D02*
X0012100Y0151429D01*
X0012100Y0154427D02*
X0010550Y0154427D01*
X0010550Y0157426D02*
X0012100Y0157426D01*
X0012100Y0160424D02*
X0010550Y0160424D01*
X0010550Y0163423D02*
X0012100Y0163423D01*
X0012100Y0166421D02*
X0010550Y0166421D01*
X0010550Y0169420D02*
X0012242Y0169420D01*
X0010550Y0172418D02*
X0014817Y0172418D01*
X0017815Y0175417D02*
X0010550Y0175417D01*
X0010550Y0178415D02*
X0020814Y0178415D01*
X0023812Y0181414D02*
X0010550Y0181414D01*
X0010550Y0184412D02*
X0026811Y0184412D01*
X0029809Y0187411D02*
X0010550Y0187411D01*
X0010550Y0190409D02*
X0032808Y0190409D01*
X0035806Y0193408D02*
X0010550Y0193408D01*
X0010550Y0196406D02*
X0038805Y0196406D01*
X0037203Y0197450D02*
X0038550Y0198797D01*
X0038550Y0206203D01*
X0037203Y0207550D01*
X0029797Y0207550D01*
X0028450Y0206203D01*
X0028450Y0198797D01*
X0029797Y0197450D01*
X0037203Y0197450D01*
X0038550Y0199405D02*
X0041804Y0199405D01*
X0044802Y0202403D02*
X0038550Y0202403D01*
X0038550Y0205402D02*
X0048158Y0205402D01*
X0047750Y0207343D02*
X0052500Y0207343D01*
X0052500Y0212093D01*
X0052126Y0212093D01*
X0051388Y0211976D01*
X0050677Y0211745D01*
X0050010Y0211405D01*
X0049406Y0210966D01*
X0048877Y0210437D01*
X0048437Y0209832D01*
X0048098Y0209166D01*
X0047867Y0208455D01*
X0047750Y0207716D01*
X0047750Y0207343D01*
X0047858Y0208400D02*
X0010550Y0208400D01*
X0010550Y0205402D02*
X0016260Y0205402D01*
X0016219Y0205361D02*
X0015450Y0203505D01*
X0015450Y0201495D01*
X0016219Y0199639D01*
X0017639Y0198219D01*
X0019495Y0197450D01*
X0021505Y0197450D01*
X0023361Y0198219D01*
X0024781Y0199639D01*
X0025550Y0201495D01*
X0025550Y0203505D01*
X0024781Y0205361D01*
X0023361Y0206781D01*
X0021505Y0207550D01*
X0019495Y0207550D01*
X0017639Y0206781D01*
X0016219Y0205361D01*
X0015450Y0202403D02*
X0010550Y0202403D01*
X0010550Y0199405D02*
X0016453Y0199405D01*
X0024547Y0199405D02*
X0028450Y0199405D01*
X0028450Y0202403D02*
X0025550Y0202403D01*
X0024740Y0205402D02*
X0028450Y0205402D01*
X0010995Y0214397D02*
X0179851Y0214397D01*
X0176999Y0211399D02*
X0054998Y0211399D01*
X0054990Y0211405D02*
X0054323Y0211745D01*
X0053612Y0211976D01*
X0052874Y0212093D01*
X0052500Y0212093D01*
X0052500Y0207343D01*
X0052500Y0207343D01*
X0052500Y0207342D01*
X0052500Y0207343D01*
X0057250Y0207343D01*
X0057250Y0207716D01*
X0057133Y0208455D01*
X0056902Y0209166D01*
X0056563Y0209832D01*
X0056123Y0210437D01*
X0055594Y0210966D01*
X0054990Y0211405D01*
X0052500Y0211399D02*
X0052500Y0211399D01*
X0050002Y0211399D02*
X0010550Y0211399D01*
X0036950Y0182849D02*
X0035400Y0181299D01*
X0035400Y0165585D01*
X0038500Y0162485D01*
X0038500Y0157900D01*
X0053077Y0157900D01*
X0054143Y0157458D01*
X0056643Y0154958D01*
X0056912Y0154689D01*
X0057413Y0155899D01*
X0059015Y0157500D01*
X0057413Y0159101D01*
X0056500Y0161307D01*
X0056500Y0163693D01*
X0057413Y0165899D01*
X0059015Y0167500D01*
X0057413Y0169101D01*
X0056500Y0171307D01*
X0056500Y0173693D01*
X0057413Y0175899D01*
X0059015Y0177500D01*
X0057413Y0179101D01*
X0057207Y0179600D01*
X0047306Y0179600D01*
X0047205Y0179356D01*
X0045644Y0177795D01*
X0045164Y0177596D01*
X0045514Y0177418D01*
X0046246Y0176886D01*
X0046886Y0176246D01*
X0047418Y0175514D01*
X0047829Y0174707D01*
X0048108Y0173846D01*
X0048250Y0172953D01*
X0048250Y0172500D01*
X0042500Y0172500D01*
X0042500Y0172500D01*
X0048250Y0172500D01*
X0048250Y0172047D01*
X0048108Y0171154D01*
X0047829Y0170293D01*
X0047418Y0169486D01*
X0046886Y0168754D01*
X0046246Y0168114D01*
X0045514Y0167582D01*
X0044707Y0167171D01*
X0043846Y0166892D01*
X0042953Y0166750D01*
X0042500Y0166750D01*
X0042500Y0172500D01*
X0042500Y0172500D01*
X0042500Y0172500D01*
X0036750Y0172500D01*
X0036750Y0172953D01*
X0036892Y0173846D01*
X0037171Y0174707D01*
X0037582Y0175514D01*
X0038114Y0176246D01*
X0038754Y0176886D01*
X0039486Y0177418D01*
X0039836Y0177596D01*
X0039356Y0177795D01*
X0037795Y0179356D01*
X0036950Y0181396D01*
X0036950Y0182849D01*
X0036950Y0181414D02*
X0035515Y0181414D01*
X0035400Y0178415D02*
X0038736Y0178415D01*
X0037533Y0175417D02*
X0035400Y0175417D01*
X0035400Y0172418D02*
X0036750Y0172418D01*
X0036750Y0172500D02*
X0036750Y0172047D01*
X0036892Y0171154D01*
X0037171Y0170293D01*
X0037582Y0169486D01*
X0038114Y0168754D01*
X0038754Y0168114D01*
X0039486Y0167582D01*
X0040293Y0167171D01*
X0041154Y0166892D01*
X0042047Y0166750D01*
X0042500Y0166750D01*
X0042500Y0172500D01*
X0036750Y0172500D01*
X0037631Y0169420D02*
X0035400Y0169420D01*
X0035400Y0166421D02*
X0057936Y0166421D01*
X0057282Y0169420D02*
X0047369Y0169420D01*
X0048250Y0172418D02*
X0056500Y0172418D01*
X0057214Y0175417D02*
X0047467Y0175417D01*
X0046264Y0178415D02*
X0058100Y0178415D01*
X0056500Y0163423D02*
X0037563Y0163423D01*
X0038500Y0160424D02*
X0056866Y0160424D01*
X0058940Y0157426D02*
X0054176Y0157426D01*
X0051299Y0152100D02*
X0052100Y0151299D01*
X0052100Y0144423D01*
X0052541Y0143357D01*
X0053357Y0142541D01*
X0055857Y0140041D01*
X0056923Y0139600D01*
X0057207Y0139600D01*
X0057413Y0139101D01*
X0059015Y0137500D01*
X0057413Y0135899D01*
X0056500Y0133693D01*
X0056500Y0131307D01*
X0057413Y0129101D01*
X0059015Y0127500D01*
X0057413Y0125899D01*
X0056500Y0123693D01*
X0056500Y0121307D01*
X0057413Y0119101D01*
X0059015Y0117500D01*
X0057413Y0115899D01*
X0056500Y0113693D01*
X0056500Y0111307D01*
X0057413Y0109101D01*
X0059015Y0107500D01*
X0057413Y0105899D01*
X0056500Y0103693D01*
X0056500Y0102601D01*
X0041643Y0117458D01*
X0040577Y0117900D01*
X0038500Y0117900D01*
X0038500Y0122485D01*
X0035985Y0125000D01*
X0038500Y0127515D01*
X0038500Y0132485D01*
X0035985Y0135000D01*
X0038500Y0137515D01*
X0038500Y0142485D01*
X0036127Y0144859D01*
X0038700Y0147432D01*
X0038700Y0150000D01*
X0038700Y0152100D01*
X0051299Y0152100D01*
X0051970Y0151429D02*
X0038700Y0151429D01*
X0038700Y0150000D02*
X0032500Y0150000D01*
X0032500Y0150000D01*
X0038700Y0150000D01*
X0038700Y0148430D02*
X0052100Y0148430D01*
X0052100Y0145432D02*
X0036700Y0145432D01*
X0038500Y0142433D02*
X0053466Y0142433D01*
X0057275Y0139434D02*
X0038500Y0139434D01*
X0037421Y0136436D02*
X0057951Y0136436D01*
X0056500Y0133437D02*
X0037548Y0133437D01*
X0038500Y0130439D02*
X0056859Y0130439D01*
X0058955Y0127440D02*
X0038426Y0127440D01*
X0036543Y0124442D02*
X0056810Y0124442D01*
X0056500Y0121443D02*
X0038500Y0121443D01*
X0038500Y0118445D02*
X0058070Y0118445D01*
X0057226Y0115446D02*
X0043655Y0115446D01*
X0046653Y0112448D02*
X0056500Y0112448D01*
X0057269Y0109449D02*
X0049652Y0109449D01*
X0052650Y0106451D02*
X0057966Y0106451D01*
X0056500Y0103452D02*
X0055649Y0103452D01*
X0065985Y0107500D02*
X0067587Y0105899D01*
X0068500Y0103693D01*
X0068500Y0101307D01*
X0067587Y0099101D01*
X0066385Y0097900D01*
X0068799Y0097900D01*
X0082100Y0111201D01*
X0082100Y0126299D01*
X0078799Y0129600D01*
X0077793Y0129600D01*
X0077587Y0129101D01*
X0075985Y0127500D01*
X0077587Y0125899D01*
X0078500Y0123693D01*
X0078500Y0121307D01*
X0077587Y0119101D01*
X0075899Y0117413D01*
X0073693Y0116500D01*
X0071307Y0116500D01*
X0069101Y0117413D01*
X0067515Y0119000D01*
X0067485Y0119000D01*
X0065985Y0117500D01*
X0067587Y0115899D01*
X0068500Y0113693D01*
X0068500Y0111307D01*
X0067587Y0109101D01*
X0065985Y0107500D01*
X0067034Y0106451D02*
X0077350Y0106451D01*
X0080348Y0109449D02*
X0067731Y0109449D01*
X0068500Y0112448D02*
X0082100Y0112448D01*
X0082100Y0115446D02*
X0067774Y0115446D01*
X0068070Y0118445D02*
X0066930Y0118445D01*
X0076045Y0127440D02*
X0080958Y0127440D01*
X0082100Y0124442D02*
X0078190Y0124442D01*
X0078500Y0121443D02*
X0082100Y0121443D01*
X0082100Y0118445D02*
X0076930Y0118445D01*
X0084600Y0132001D02*
X0081643Y0134958D01*
X0080577Y0135400D01*
X0079423Y0135400D01*
X0077793Y0135400D01*
X0077587Y0135899D01*
X0075985Y0137500D01*
X0077587Y0139101D01*
X0078500Y0141307D01*
X0078500Y0143693D01*
X0077587Y0145899D01*
X0075985Y0147500D01*
X0077587Y0149101D01*
X0077793Y0149600D01*
X0078799Y0149600D01*
X0084600Y0143799D01*
X0084600Y0132001D01*
X0084600Y0133437D02*
X0083164Y0133437D01*
X0084600Y0136436D02*
X0077049Y0136436D01*
X0077725Y0139434D02*
X0084600Y0139434D01*
X0084600Y0142433D02*
X0078500Y0142433D01*
X0077780Y0145432D02*
X0082967Y0145432D01*
X0079969Y0148430D02*
X0076915Y0148430D01*
X0082174Y0154427D02*
X0087100Y0154427D01*
X0087100Y0151429D02*
X0085173Y0151429D01*
X0087100Y0149501D02*
X0081643Y0154958D01*
X0080577Y0155400D01*
X0079423Y0155400D01*
X0077793Y0155400D01*
X0077587Y0155899D01*
X0075985Y0157500D01*
X0077587Y0159101D01*
X0078500Y0161307D01*
X0078500Y0163693D01*
X0077587Y0165899D01*
X0075985Y0167500D01*
X0077587Y0169101D01*
X0077793Y0169600D01*
X0081299Y0169600D01*
X0087100Y0163799D01*
X0087100Y0149501D01*
X0087100Y0157426D02*
X0076060Y0157426D01*
X0078134Y0160424D02*
X0087100Y0160424D01*
X0087100Y0163423D02*
X0078500Y0163423D01*
X0077064Y0166421D02*
X0084478Y0166421D01*
X0081479Y0169420D02*
X0077718Y0169420D01*
X0077786Y0175417D02*
X0091900Y0175417D01*
X0091900Y0178415D02*
X0076900Y0178415D01*
X0078500Y0181414D02*
X0091900Y0181414D01*
X0091900Y0184412D02*
X0078202Y0184412D01*
X0076075Y0187411D02*
X0091900Y0187411D01*
X0089361Y0190409D02*
X0078128Y0190409D01*
X0078500Y0193408D02*
X0088871Y0193408D01*
X0096129Y0193408D02*
X0136500Y0193408D01*
X0137921Y0196406D02*
X0077079Y0196406D01*
X0096756Y0192628D02*
X0096756Y0192628D01*
X0098100Y0190409D02*
X0136872Y0190409D01*
X0138925Y0187411D02*
X0098100Y0187411D01*
X0098100Y0184412D02*
X0136798Y0184412D01*
X0136500Y0181414D02*
X0098100Y0181414D01*
X0098100Y0178415D02*
X0138100Y0178415D01*
X0137214Y0175417D02*
X0098100Y0175417D01*
X0098100Y0172418D02*
X0136500Y0172418D01*
X0137282Y0169420D02*
X0098100Y0169420D01*
X0098100Y0166421D02*
X0137936Y0166421D01*
X0136500Y0163423D02*
X0098100Y0163423D01*
X0098100Y0160424D02*
X0136866Y0160424D01*
X0138940Y0157426D02*
X0098100Y0157426D01*
X0098100Y0154427D02*
X0122826Y0154427D01*
X0122541Y0154143D02*
X0122541Y0154143D01*
X0119827Y0151429D02*
X0098100Y0151429D01*
X0098100Y0148430D02*
X0118100Y0148430D01*
X0118100Y0145432D02*
X0098100Y0145432D01*
X0098100Y0142433D02*
X0118100Y0142433D01*
X0118100Y0139434D02*
X0098100Y0139434D01*
X0098100Y0136436D02*
X0118100Y0136436D01*
X0118100Y0133437D02*
X0098100Y0133437D01*
X0098100Y0130439D02*
X0117798Y0130439D01*
X0117434Y0127440D02*
X0098100Y0127440D01*
X0098100Y0124442D02*
X0136810Y0124442D01*
X0136500Y0123693D02*
X0136500Y0121307D01*
X0137413Y0119101D01*
X0139101Y0117413D01*
X0141307Y0116500D01*
X0143693Y0116500D01*
X0145899Y0117413D01*
X0147500Y0119015D01*
X0149015Y0117500D01*
X0147413Y0115899D01*
X0146500Y0113693D01*
X0146500Y0111307D01*
X0147413Y0109101D01*
X0149015Y0107500D01*
X0147413Y0105899D01*
X0146500Y0103693D01*
X0146500Y0101307D01*
X0147413Y0099101D01*
X0149101Y0097413D01*
X0151307Y0096500D01*
X0153693Y0096500D01*
X0155899Y0097413D01*
X0157587Y0099101D01*
X0158500Y0101307D01*
X0158500Y0103693D01*
X0157587Y0105899D01*
X0155985Y0107500D01*
X0157587Y0109101D01*
X0158500Y0111307D01*
X0158500Y0113693D01*
X0157587Y0115899D01*
X0155985Y0117500D01*
X0157587Y0119101D01*
X0158500Y0121307D01*
X0158500Y0123693D01*
X0157587Y0125899D01*
X0156061Y0127424D01*
X0156539Y0127771D01*
X0157229Y0128461D01*
X0157803Y0129250D01*
X0158246Y0130120D01*
X0158547Y0131048D01*
X0158700Y0132012D01*
X0158700Y0132500D01*
X0152500Y0132500D01*
X0152500Y0132500D01*
X0152500Y0132500D01*
X0142500Y0132500D01*
X0142500Y0132500D01*
X0142500Y0132500D01*
X0136300Y0132500D01*
X0136300Y0132012D01*
X0136453Y0131048D01*
X0136754Y0130120D01*
X0137197Y0129250D01*
X0137771Y0128461D01*
X0138461Y0127771D01*
X0138939Y0127424D01*
X0137413Y0125899D01*
X0136500Y0123693D01*
X0136500Y0121443D02*
X0098100Y0121443D01*
X0098613Y0118445D02*
X0138070Y0118445D01*
X0138916Y0127440D02*
X0124566Y0127440D01*
X0124202Y0130439D02*
X0136651Y0130439D01*
X0136371Y0133437D02*
X0123900Y0133437D01*
X0123900Y0136436D02*
X0137696Y0136436D01*
X0137275Y0139434D02*
X0123900Y0139434D01*
X0123900Y0142433D02*
X0136500Y0142433D01*
X0137220Y0145432D02*
X0123900Y0145432D01*
X0125031Y0148430D02*
X0138085Y0148430D01*
X0156915Y0148430D02*
X0159450Y0148430D01*
X0159450Y0151429D02*
X0158500Y0151429D01*
X0158196Y0154427D02*
X0159450Y0154427D01*
X0159450Y0157426D02*
X0156060Y0157426D01*
X0158134Y0160424D02*
X0159450Y0160424D01*
X0159450Y0163423D02*
X0158500Y0163423D01*
X0159450Y0166421D02*
X0157064Y0166421D01*
X0157718Y0169420D02*
X0159450Y0169420D01*
X0159450Y0172418D02*
X0158500Y0172418D01*
X0157786Y0175417D02*
X0159450Y0175417D01*
X0160201Y0178415D02*
X0156900Y0178415D01*
X0158500Y0181414D02*
X0162529Y0181414D01*
X0162940Y0181824D02*
X0162940Y0181824D01*
X0160676Y0179560D02*
X0160676Y0179560D01*
X0158202Y0184412D02*
X0178603Y0184412D01*
X0175988Y0187411D02*
X0156075Y0187411D01*
X0158128Y0190409D02*
X0172990Y0190409D01*
X0169991Y0193408D02*
X0158500Y0193408D01*
X0157079Y0196406D02*
X0166993Y0196406D01*
X0176500Y0208400D02*
X0141460Y0208400D01*
X0138540Y0208400D02*
X0057142Y0208400D01*
X0056842Y0205402D02*
X0136300Y0205402D01*
X0091900Y0172418D02*
X0086683Y0172418D01*
X0089682Y0169420D02*
X0091900Y0169420D01*
X0052500Y0208400D02*
X0052500Y0208400D01*
X0029600Y0178999D02*
X0029600Y0165585D01*
X0027500Y0163485D01*
X0024985Y0166000D01*
X0020015Y0166000D01*
X0017900Y0163885D01*
X0017900Y0167299D01*
X0029600Y0178999D01*
X0029600Y0178415D02*
X0029016Y0178415D01*
X0029600Y0175417D02*
X0026018Y0175417D01*
X0023019Y0172418D02*
X0029600Y0172418D01*
X0029600Y0169420D02*
X0020021Y0169420D01*
X0017900Y0166421D02*
X0029600Y0166421D01*
X0042500Y0169420D02*
X0042500Y0169420D01*
X0042500Y0172418D02*
X0042500Y0172418D01*
X0098154Y0115446D02*
X0147226Y0115446D01*
X0146500Y0112448D02*
X0098100Y0112448D01*
X0098100Y0109449D02*
X0147269Y0109449D01*
X0147966Y0106451D02*
X0098100Y0106451D01*
X0098100Y0103452D02*
X0146500Y0103452D01*
X0146853Y0100454D02*
X0098100Y0100454D01*
X0098100Y0097455D02*
X0149059Y0097455D01*
X0155941Y0097455D02*
X0159841Y0097455D01*
X0160676Y0095440D02*
X0160676Y0095440D01*
X0161659Y0094457D02*
X0098100Y0094457D01*
X0098100Y0091458D02*
X0201246Y0091458D01*
X0201950Y0088460D02*
X0098100Y0088460D01*
X0098100Y0085461D02*
X0201950Y0085461D01*
X0201950Y0082463D02*
X0098100Y0082463D01*
X0098100Y0079464D02*
X0177241Y0079464D01*
X0174348Y0076466D02*
X0095850Y0076466D01*
X0092851Y0073467D02*
X0173642Y0073467D01*
X0174279Y0070469D02*
X0075195Y0070469D01*
X0073927Y0067470D02*
X0176959Y0067470D01*
X0162940Y0093176D02*
X0162940Y0093176D01*
X0159450Y0100454D02*
X0158147Y0100454D01*
X0158500Y0103452D02*
X0159450Y0103452D01*
X0159450Y0106451D02*
X0157034Y0106451D01*
X0157731Y0109449D02*
X0159450Y0109449D01*
X0159450Y0112448D02*
X0158500Y0112448D01*
X0157774Y0115446D02*
X0159450Y0115446D01*
X0159450Y0118445D02*
X0156930Y0118445D01*
X0158500Y0121443D02*
X0159450Y0121443D01*
X0159450Y0124442D02*
X0158190Y0124442D01*
X0159450Y0127440D02*
X0156084Y0127440D01*
X0158349Y0130439D02*
X0159450Y0130439D01*
X0159450Y0133437D02*
X0158629Y0133437D01*
X0159450Y0136436D02*
X0157304Y0136436D01*
X0157725Y0139434D02*
X0159450Y0139434D01*
X0159450Y0142433D02*
X0158500Y0142433D01*
X0157780Y0145432D02*
X0159450Y0145432D01*
X0148070Y0118445D02*
X0146930Y0118445D01*
X0091900Y0102799D02*
X0091900Y0081284D01*
X0088216Y0077600D01*
X0075201Y0077600D01*
X0085401Y0087800D01*
X0085736Y0087800D01*
X0087096Y0088363D01*
X0088137Y0089404D01*
X0088700Y0090764D01*
X0088700Y0092236D01*
X0088137Y0093596D01*
X0087096Y0094637D01*
X0085736Y0095200D01*
X0084301Y0095200D01*
X0091900Y0102799D01*
X0091900Y0100454D02*
X0089555Y0100454D01*
X0091900Y0097455D02*
X0086557Y0097455D01*
X0087276Y0094457D02*
X0091900Y0094457D01*
X0091900Y0091458D02*
X0088700Y0091458D01*
X0087192Y0088460D02*
X0091900Y0088460D01*
X0091900Y0085461D02*
X0083063Y0085461D01*
X0080064Y0082463D02*
X0091900Y0082463D01*
X0090080Y0079464D02*
X0077065Y0079464D01*
X0074860Y0085461D02*
X0036729Y0085461D01*
X0038700Y0088460D02*
X0052439Y0088460D01*
X0049440Y0091458D02*
X0038700Y0091458D01*
X0038700Y0090000D02*
X0032500Y0090000D01*
X0032500Y0090000D01*
X0038700Y0090000D01*
X0036811Y0094457D02*
X0046442Y0094457D01*
X0032500Y0090000D02*
X0032500Y0083800D01*
X0032500Y0090000D01*
X0032500Y0090000D01*
X0032500Y0088460D02*
X0032500Y0088460D01*
X0032500Y0085461D02*
X0032500Y0085461D01*
X0028271Y0085461D02*
X0026447Y0085461D01*
X0027863Y0079464D02*
X0010550Y0079464D01*
X0010550Y0076466D02*
X0024865Y0076466D01*
X0020482Y0073467D02*
X0019781Y0073467D01*
X0015000Y0073467D02*
X0015000Y0073467D01*
X0015000Y0070469D02*
X0015000Y0070469D01*
X0015000Y0069500D02*
X0015000Y0063300D01*
X0015000Y0069500D01*
X0015000Y0069500D01*
X0015000Y0067470D02*
X0015000Y0067470D01*
X0015000Y0064472D02*
X0015000Y0064472D01*
X0018627Y0064472D02*
X0021543Y0064472D01*
X0028457Y0064472D02*
X0031543Y0064472D01*
X0034458Y0049479D02*
X0010550Y0049479D01*
X0010550Y0046481D02*
X0029739Y0046481D01*
X0027764Y0043482D02*
X0010550Y0043482D01*
X0010550Y0040484D02*
X0026913Y0040484D01*
X0026909Y0037550D02*
X0026953Y0037155D01*
X0027228Y0035950D01*
X0027636Y0034784D01*
X0028172Y0033671D01*
X0028830Y0032625D01*
X0029600Y0031659D01*
X0030474Y0030785D01*
X0031440Y0030015D01*
X0032486Y0029357D01*
X0033599Y0028821D01*
X0034765Y0028413D01*
X0035969Y0028138D01*
X0036365Y0028094D01*
X0036365Y0037550D01*
X0026909Y0037550D01*
X0026916Y0037485D02*
X0010550Y0037485D01*
X0010550Y0034487D02*
X0027779Y0034487D01*
X0029771Y0031488D02*
X0010550Y0031488D01*
X0010550Y0028490D02*
X0034547Y0028490D01*
X0036365Y0028490D02*
X0039265Y0028490D01*
X0041083Y0028490D02*
X0042063Y0028490D01*
X0039822Y0025491D02*
X0010550Y0025491D01*
X0010550Y0022493D02*
X0038799Y0022493D01*
X0039265Y0031488D02*
X0036365Y0031488D01*
X0036365Y0034487D02*
X0039265Y0034487D01*
X0039265Y0037485D02*
X0036365Y0037485D01*
X0036365Y0040484D02*
X0039265Y0040484D01*
X0039265Y0043482D02*
X0036365Y0043482D01*
X0036365Y0046481D02*
X0039265Y0046481D01*
X0039265Y0049479D02*
X0036365Y0049479D01*
X0041172Y0049479D02*
X0058818Y0049479D01*
X0053644Y0046481D02*
X0045891Y0046481D01*
X0047866Y0043482D02*
X0051554Y0043482D01*
X0050654Y0040484D02*
X0048717Y0040484D01*
X0048714Y0037485D02*
X0050662Y0037485D01*
X0051572Y0034487D02*
X0047850Y0034487D01*
X0045859Y0031488D02*
X0053675Y0031488D01*
X0051076Y0028490D02*
X0048176Y0028490D01*
X0048176Y0025491D02*
X0051076Y0025491D01*
X0057189Y0028490D02*
X0058934Y0028490D01*
X0092128Y0072744D02*
X0092128Y0072744D01*
X0077859Y0088460D02*
X0077561Y0088460D01*
X0080560Y0091458D02*
X0080857Y0091458D01*
X0071353Y0100454D02*
X0068147Y0100454D01*
X0068500Y0103452D02*
X0074351Y0103452D01*
X0011373Y0064472D02*
X0010550Y0064472D01*
X0116555Y0013497D02*
X0136845Y0013497D01*
X0136842Y0016496D02*
X0120973Y0016496D01*
X0122143Y0019494D02*
X0138792Y0019494D01*
X0137261Y0022493D02*
X0121997Y0022493D01*
X0196397Y0184412D02*
X0201827Y0184412D01*
X0201950Y0187411D02*
X0198336Y0187411D01*
X0198411Y0190409D02*
X0201950Y0190409D01*
X0201950Y0193408D02*
X0196578Y0193408D01*
X0198137Y0196406D02*
X0201950Y0196406D01*
X0201950Y0199405D02*
X0198700Y0199405D01*
X0198700Y0199000D02*
X0192500Y0199000D01*
X0192500Y0199000D01*
X0198700Y0199000D01*
X0197691Y0202403D02*
X0201950Y0202403D01*
X0201950Y0205402D02*
X0197387Y0205402D01*
X0198500Y0208400D02*
X0201950Y0208400D01*
X0201950Y0211399D02*
X0198001Y0211399D01*
X0195149Y0214397D02*
X0201505Y0214397D01*
X0189851Y0214397D02*
X0185149Y0214397D01*
D22*
X0152500Y0192500D02*
X0142500Y0192500D01*
X0142500Y0182500D02*
X0152500Y0182500D01*
X0152500Y0172500D02*
X0142500Y0172500D01*
X0142500Y0162500D02*
X0152500Y0162500D01*
X0152500Y0152500D02*
X0142500Y0152500D01*
X0142500Y0142500D02*
X0152500Y0142500D01*
X0152500Y0132500D02*
X0142500Y0132500D01*
X0072500Y0132500D02*
X0062500Y0132500D01*
X0062500Y0142500D02*
X0072500Y0142500D01*
X0072500Y0152500D02*
X0062500Y0152500D01*
X0062500Y0162500D02*
X0072500Y0162500D01*
X0072500Y0172500D02*
X0062500Y0172500D01*
X0062500Y0182500D02*
X0072500Y0182500D01*
X0072500Y0192500D02*
X0062500Y0192500D01*
X0062500Y0122500D02*
X0072500Y0122500D01*
D23*
X0075500Y0109500D03*
X0089500Y0099000D03*
X0085000Y0091500D03*
X0081000Y0078500D03*
X0113000Y0067000D03*
X0135000Y0097500D03*
X0153000Y0074500D03*
X0200000Y0065000D03*
X0200000Y0040000D03*
X0160000Y0017500D03*
X0095000Y0117500D03*
X0108000Y0124500D03*
X0115500Y0134500D03*
X0121000Y0128500D03*
X0084000Y0136000D03*
X0084000Y0161500D03*
X0086500Y0186500D03*
X0092500Y0192500D03*
X0104500Y0192500D03*
X0117500Y0187500D03*
X0140000Y0205000D03*
X0165500Y0212000D03*
X0200500Y0195500D03*
X0060500Y0207000D03*
X0053500Y0173000D03*
X0028500Y0175500D03*
X0027500Y0190000D03*
X0047500Y0145500D03*
X0054500Y0135000D03*
X0053000Y0112000D03*
X0043000Y0072000D03*
X0012500Y0078000D03*
X0020000Y0012500D03*
D24*
X0069843Y0069500D02*
X0074843Y0074500D01*
X0089500Y0074500D01*
X0095000Y0080000D01*
X0095000Y0117500D01*
X0095000Y0190000D01*
X0092500Y0192500D01*
D25*
X0082500Y0172500D02*
X0090000Y0165000D01*
X0090000Y0105000D01*
X0075000Y0090000D01*
X0055000Y0090000D01*
X0045000Y0100000D01*
X0032500Y0100000D01*
X0032500Y0110000D02*
X0040000Y0110000D01*
X0057500Y0092500D01*
X0072500Y0092500D01*
X0087500Y0107500D01*
X0087500Y0145000D01*
X0080000Y0152500D01*
X0062500Y0152500D01*
X0055000Y0152500D02*
X0055000Y0145000D01*
X0057500Y0142500D01*
X0062500Y0142500D01*
X0062500Y0132500D02*
X0080000Y0132500D01*
X0085000Y0127500D01*
X0085000Y0110000D01*
X0070000Y0095000D01*
X0060000Y0095000D01*
X0040000Y0115000D01*
X0027500Y0115000D01*
X0022500Y0110000D01*
X0022500Y0130000D02*
X0017500Y0130000D01*
X0015000Y0132500D01*
X0015000Y0168500D01*
X0048500Y0202000D01*
X0173000Y0202000D01*
X0176000Y0199000D01*
X0182500Y0199000D01*
X0178500Y0204000D02*
X0177500Y0205000D01*
X0140000Y0205000D01*
X0168000Y0199500D02*
X0178500Y0189000D01*
X0182500Y0189000D01*
X0178500Y0204000D02*
X0189000Y0204000D01*
X0192500Y0207500D01*
X0192500Y0209000D01*
X0168000Y0199500D02*
X0049500Y0199500D01*
X0032500Y0182500D01*
X0032500Y0160000D01*
X0027500Y0155000D02*
X0052500Y0155000D01*
X0055000Y0152500D01*
X0062500Y0172500D02*
X0082500Y0172500D01*
X0062500Y0182500D02*
X0055000Y0182500D01*
X0052500Y0185000D01*
X0052500Y0187657D01*
X0055000Y0182500D02*
X0042500Y0182500D01*
X0022500Y0160000D02*
X0027500Y0155000D01*
X0085000Y0091500D02*
X0071157Y0077657D01*
X0057657Y0077657D01*
X0030157Y0077657D01*
X0025000Y0072500D01*
X0025000Y0069500D01*
X0050157Y0069500D02*
X0050157Y0070157D01*
X0057657Y0077657D01*
X0121000Y0128500D02*
X0121000Y0148500D01*
X0125000Y0152500D01*
X0142500Y0152500D01*
M02*
