G75*
%MOIN*%
%OFA0B0*%
%FSLAX25Y25*%
%IPPOS*%
%LPD*%
%AMOC8*
5,1,8,0,0,1.08239X$1,22.5*
%
%ADD10C,0.00500*%
%ADD11C,0.01000*%
%ADD12C,0.00600*%
%ADD13C,0.00800*%
%ADD14C,0.00100*%
%ADD15C,0.01200*%
%ADD16C,0.01600*%
%ADD17R,0.02990X0.00250*%
%ADD18R,0.02010X0.00250*%
%ADD19R,0.01990X0.00250*%
%ADD20R,0.06250X0.00250*%
%ADD21R,0.02000X0.00250*%
%ADD22R,0.03990X0.00250*%
%ADD23R,0.04750X0.00250*%
%ADD24R,0.05000X0.00250*%
%ADD25R,0.06500X0.00250*%
%ADD26R,0.05240X0.00250*%
%ADD27R,0.02500X0.00250*%
%ADD28R,0.01490X0.00250*%
%ADD29R,0.02240X0.00250*%
%ADD30R,0.00750X0.00250*%
%ADD31R,0.03010X0.00250*%
%ADD32R,0.00500X0.00250*%
%ADD33R,0.02760X0.00250*%
%ADD34R,0.01750X0.00250*%
%ADD35R,0.02510X0.00250*%
%ADD36R,0.02490X0.00250*%
%ADD37R,0.02260X0.00250*%
%ADD38R,0.00250X0.00250*%
%ADD39R,0.00740X0.00250*%
%ADD40R,0.03000X0.00250*%
%ADD41R,0.02750X0.00250*%
%ADD42R,0.01740X0.00250*%
%ADD43R,0.04990X0.00250*%
%ADD44R,0.00760X0.00250*%
%ADD45R,0.04000X0.00250*%
%ADD46R,0.01260X0.00250*%
%ADD47R,0.03500X0.00250*%
%ADD48R,0.01760X0.00250*%
%ADD49R,0.03740X0.00250*%
%ADD50R,0.02740X0.00250*%
%ADD51R,0.01510X0.00250*%
%ADD52R,0.05750X0.00250*%
%ADD53R,0.05250X0.00250*%
%ADD54R,0.04250X0.00250*%
%ADD55R,0.03490X0.00250*%
%ADD56R,0.01250X0.00250*%
%ADD57R,0.01010X0.00250*%
%ADD58R,0.02250X0.00250*%
%ADD59R,0.01500X0.00250*%
%ADD60R,0.01000X0.00250*%
%ADD61R,0.06740X0.00250*%
%ADD62R,0.03750X0.00250*%
%ADD63R,0.08990X0.00250*%
%ADD64R,0.07490X0.00250*%
%ADD65R,0.09000X0.00250*%
%ADD66R,0.07740X0.00250*%
%ADD67R,0.04500X0.00250*%
%ADD68R,0.08750X0.00250*%
%ADD69R,0.08240X0.00250*%
%ADD70R,0.05010X0.00250*%
%ADD71R,0.08000X0.00250*%
%ADD72R,0.08510X0.00250*%
%ADD73R,0.05260X0.00250*%
%ADD74R,0.08250X0.00250*%
%ADD75R,0.08500X0.00250*%
%ADD76R,0.04260X0.00250*%
%ADD77R,0.09010X0.00250*%
%ADD78R,0.03250X0.00250*%
%ADD79R,0.01240X0.00250*%
%ADD80R,0.05490X0.00250*%
%ADD81R,0.04490X0.00250*%
%ADD82R,0.08740X0.00250*%
%ADD83R,0.08010X0.00250*%
%ADD84R,0.07750X0.00250*%
%ADD85R,0.07240X0.00250*%
%ADD86R,0.07000X0.00250*%
%ADD87R,0.06760X0.00250*%
%ADD88R,0.06000X0.00250*%
%ADD89R,0.07250X0.00250*%
%ADD90R,0.05500X0.00250*%
%ADD91R,0.06750X0.00250*%
%ADD92R,0.04740X0.00250*%
%ADD93R,0.03260X0.00250*%
%ADD94R,0.05510X0.00250*%
%ADD95R,0.04010X0.00250*%
%ADD96R,0.04510X0.00250*%
%ADD97R,0.06510X0.00250*%
%ADD98R,0.11010X0.00250*%
%ADD99R,0.10490X0.00250*%
%ADD100R,0.10000X0.00250*%
%ADD101R,0.10250X0.00250*%
%ADD102R,0.07260X0.00250*%
%ADD103R,0.06010X0.00250*%
%ADD104R,0.00510X0.00250*%
%ADD105R,0.03760X0.00250*%
%ADD106R,0.04240X0.00250*%
%ADD107R,0.04760X0.00250*%
%ADD108R,0.10260X0.00250*%
%ADD109R,0.09240X0.00250*%
%ADD110R,0.05740X0.00250*%
%ADD111C,0.00080*%
D10*
X0030298Y0012480D02*
X0030798Y0011979D01*
X0031799Y0011979D01*
X0032299Y0012480D01*
X0032299Y0013481D01*
X0031299Y0013481D01*
X0032299Y0014481D02*
X0031799Y0014982D01*
X0030798Y0014982D01*
X0030298Y0014481D01*
X0030298Y0012480D01*
X0033521Y0011979D02*
X0033521Y0014982D01*
X0035522Y0011979D01*
X0035522Y0014982D01*
X0036743Y0014982D02*
X0038245Y0014982D01*
X0038745Y0014481D01*
X0038745Y0012480D01*
X0038245Y0011979D01*
X0036743Y0011979D01*
X0036743Y0014982D01*
X0036021Y0046979D02*
X0036021Y0049982D01*
X0038022Y0046979D01*
X0038022Y0049982D01*
X0039243Y0049982D02*
X0040745Y0049982D01*
X0041245Y0049481D01*
X0041245Y0047480D01*
X0040745Y0046979D01*
X0039243Y0046979D01*
X0039243Y0049982D01*
X0034799Y0049481D02*
X0034299Y0049982D01*
X0033298Y0049982D01*
X0032798Y0049481D01*
X0032798Y0047480D01*
X0033298Y0046979D01*
X0034299Y0046979D01*
X0034799Y0047480D01*
X0034799Y0048481D01*
X0033799Y0048481D01*
X0039534Y0068521D02*
X0040535Y0068521D01*
X0041036Y0069021D01*
X0041036Y0070022D01*
X0040035Y0070022D01*
X0041036Y0071023D02*
X0040535Y0071523D01*
X0039534Y0071523D01*
X0039034Y0071023D01*
X0039034Y0069021D01*
X0039534Y0068521D01*
X0042257Y0068521D02*
X0042257Y0071523D01*
X0044258Y0068521D01*
X0044258Y0071523D01*
X0045479Y0071523D02*
X0045479Y0068521D01*
X0046981Y0068521D01*
X0047481Y0069021D01*
X0047481Y0071023D01*
X0046981Y0071523D01*
X0045479Y0071523D01*
X0045479Y0078521D02*
X0046981Y0078521D01*
X0047481Y0079021D01*
X0047481Y0079522D01*
X0046981Y0080022D01*
X0045479Y0080022D01*
X0045479Y0078521D02*
X0045479Y0081523D01*
X0046981Y0081523D01*
X0047481Y0081023D01*
X0047481Y0080522D01*
X0046981Y0080022D01*
X0044258Y0081523D02*
X0042257Y0081523D01*
X0043258Y0081523D02*
X0043258Y0078521D01*
X0041036Y0079021D02*
X0040535Y0078521D01*
X0039534Y0078521D01*
X0039034Y0079021D01*
X0039534Y0080022D02*
X0040535Y0080022D01*
X0041036Y0079522D01*
X0041036Y0079021D01*
X0039534Y0080022D02*
X0039034Y0080522D01*
X0039034Y0081023D01*
X0039534Y0081523D01*
X0040535Y0081523D01*
X0041036Y0081023D01*
X0041258Y0088521D02*
X0039757Y0088521D01*
X0039757Y0091523D01*
X0041258Y0091523D01*
X0041758Y0091023D01*
X0041758Y0089021D01*
X0041258Y0088521D01*
X0041258Y0098521D02*
X0039757Y0098521D01*
X0039757Y0101523D01*
X0041258Y0101523D01*
X0041758Y0101023D01*
X0041758Y0100522D01*
X0041258Y0100022D01*
X0039757Y0100022D01*
X0041258Y0100022D02*
X0041758Y0099522D01*
X0041758Y0099021D01*
X0041258Y0098521D01*
X0041277Y0103650D02*
X0041277Y0106352D01*
X0042628Y0106352D01*
X0043078Y0105902D01*
X0043078Y0105001D01*
X0042628Y0104551D01*
X0041277Y0104551D01*
X0039681Y0104100D02*
X0039231Y0103650D01*
X0038781Y0103650D01*
X0038330Y0104100D01*
X0039681Y0104100D02*
X0039681Y0106352D01*
X0039231Y0106352D02*
X0040132Y0106352D01*
X0044223Y0105452D02*
X0045124Y0106352D01*
X0045124Y0103650D01*
X0044223Y0103650D02*
X0046025Y0103650D01*
X0045758Y0108521D02*
X0043757Y0108521D01*
X0043757Y0111523D01*
X0045758Y0111523D01*
X0044758Y0110022D02*
X0043757Y0110022D01*
X0043868Y0118521D02*
X0045870Y0118521D01*
X0044869Y0118521D02*
X0044869Y0121523D01*
X0043868Y0120522D01*
X0042647Y0120022D02*
X0041646Y0120022D01*
X0042647Y0120022D02*
X0042647Y0119021D01*
X0042147Y0118521D01*
X0041146Y0118521D01*
X0040645Y0119021D01*
X0040645Y0121023D01*
X0041146Y0121523D01*
X0042147Y0121523D01*
X0042647Y0121023D01*
X0042257Y0128521D02*
X0042257Y0131523D01*
X0044258Y0128521D01*
X0044258Y0131523D01*
X0045479Y0131523D02*
X0046981Y0131523D01*
X0047481Y0131023D01*
X0047481Y0129021D01*
X0046981Y0128521D01*
X0045479Y0128521D01*
X0045479Y0131523D01*
X0041036Y0131023D02*
X0040535Y0131523D01*
X0039534Y0131523D01*
X0039034Y0131023D01*
X0039034Y0129021D01*
X0039534Y0128521D01*
X0040535Y0128521D01*
X0041036Y0129021D01*
X0041036Y0130022D01*
X0040035Y0130022D01*
X0041146Y0138521D02*
X0042147Y0138521D01*
X0042647Y0139021D01*
X0042647Y0140022D01*
X0041646Y0140022D01*
X0040645Y0141023D02*
X0040645Y0139021D01*
X0041146Y0138521D01*
X0040645Y0141023D02*
X0041146Y0141523D01*
X0042147Y0141523D01*
X0042647Y0141023D01*
X0043868Y0141023D02*
X0044369Y0141523D01*
X0045369Y0141523D01*
X0045870Y0141023D01*
X0043868Y0139021D01*
X0044369Y0138521D01*
X0045369Y0138521D01*
X0045870Y0139021D01*
X0045870Y0141023D01*
X0043868Y0141023D02*
X0043868Y0139021D01*
X0035400Y0155303D02*
X0033598Y0155303D01*
X0033148Y0155754D01*
X0033148Y0156655D01*
X0033598Y0157105D01*
X0034048Y0158250D02*
X0033148Y0159151D01*
X0035850Y0159151D01*
X0035850Y0158250D02*
X0035850Y0160052D01*
X0035400Y0157105D02*
X0035850Y0156655D01*
X0035850Y0155754D01*
X0035400Y0155303D01*
X0027100Y0168900D02*
X0021900Y0168900D01*
X0021731Y0168902D01*
X0021562Y0168908D01*
X0021393Y0168918D01*
X0021224Y0168933D01*
X0021056Y0168951D01*
X0020889Y0168973D01*
X0020722Y0169000D01*
X0020555Y0169030D01*
X0020390Y0169065D01*
X0020225Y0169103D01*
X0020061Y0169146D01*
X0019898Y0169192D01*
X0019737Y0169243D01*
X0019577Y0169297D01*
X0019418Y0169355D01*
X0019260Y0169417D01*
X0019104Y0169482D01*
X0018950Y0169552D01*
X0018798Y0169625D01*
X0018647Y0169702D01*
X0018498Y0169782D01*
X0018351Y0169866D01*
X0018207Y0169954D01*
X0018064Y0170045D01*
X0017924Y0170139D01*
X0017786Y0170237D01*
X0017650Y0170338D01*
X0017517Y0170442D01*
X0017386Y0170550D01*
X0017258Y0170660D01*
X0017133Y0170774D01*
X0017010Y0170891D01*
X0016891Y0171010D01*
X0016774Y0171133D01*
X0016660Y0171258D01*
X0016550Y0171386D01*
X0016442Y0171517D01*
X0016338Y0171650D01*
X0016237Y0171786D01*
X0016139Y0171924D01*
X0016045Y0172064D01*
X0015954Y0172207D01*
X0015866Y0172351D01*
X0015782Y0172498D01*
X0015702Y0172647D01*
X0015625Y0172798D01*
X0015552Y0172950D01*
X0015482Y0173104D01*
X0015417Y0173260D01*
X0015355Y0173418D01*
X0015297Y0173577D01*
X0015243Y0173737D01*
X0015192Y0173898D01*
X0015146Y0174061D01*
X0015103Y0174225D01*
X0015065Y0174390D01*
X0015030Y0174555D01*
X0015000Y0174722D01*
X0014973Y0174889D01*
X0014951Y0175056D01*
X0014933Y0175224D01*
X0014918Y0175393D01*
X0014908Y0175562D01*
X0014902Y0175731D01*
X0014900Y0175900D01*
X0014900Y0179100D01*
X0014902Y0179269D01*
X0014908Y0179438D01*
X0014918Y0179607D01*
X0014933Y0179776D01*
X0014951Y0179944D01*
X0014973Y0180111D01*
X0015000Y0180278D01*
X0015030Y0180445D01*
X0015065Y0180610D01*
X0015103Y0180775D01*
X0015146Y0180939D01*
X0015192Y0181102D01*
X0015243Y0181263D01*
X0015297Y0181423D01*
X0015355Y0181582D01*
X0015417Y0181740D01*
X0015482Y0181896D01*
X0015552Y0182050D01*
X0015625Y0182202D01*
X0015702Y0182353D01*
X0015782Y0182502D01*
X0015866Y0182649D01*
X0015954Y0182793D01*
X0016045Y0182936D01*
X0016139Y0183076D01*
X0016237Y0183214D01*
X0016338Y0183350D01*
X0016442Y0183483D01*
X0016550Y0183614D01*
X0016660Y0183742D01*
X0016774Y0183867D01*
X0016891Y0183990D01*
X0017010Y0184109D01*
X0017133Y0184226D01*
X0017258Y0184340D01*
X0017386Y0184450D01*
X0017517Y0184558D01*
X0017650Y0184662D01*
X0017786Y0184763D01*
X0017924Y0184861D01*
X0018064Y0184955D01*
X0018207Y0185046D01*
X0018351Y0185134D01*
X0018498Y0185218D01*
X0018647Y0185298D01*
X0018798Y0185375D01*
X0018950Y0185448D01*
X0019104Y0185518D01*
X0019260Y0185583D01*
X0019418Y0185645D01*
X0019577Y0185703D01*
X0019737Y0185757D01*
X0019898Y0185808D01*
X0020061Y0185854D01*
X0020225Y0185897D01*
X0020390Y0185935D01*
X0020555Y0185970D01*
X0020722Y0186000D01*
X0020889Y0186027D01*
X0021056Y0186049D01*
X0021224Y0186067D01*
X0021393Y0186082D01*
X0021562Y0186092D01*
X0021731Y0186098D01*
X0021900Y0186100D01*
X0027100Y0186100D01*
X0026552Y0192750D02*
X0024750Y0192750D01*
X0025651Y0192750D02*
X0025651Y0195452D01*
X0024750Y0194552D01*
X0027697Y0195002D02*
X0028147Y0195452D01*
X0029048Y0195452D01*
X0029498Y0195002D01*
X0027697Y0193200D01*
X0028147Y0192750D01*
X0029048Y0192750D01*
X0029498Y0193200D01*
X0029498Y0195002D01*
X0030643Y0195452D02*
X0030643Y0192750D01*
X0030643Y0193651D02*
X0032445Y0195452D01*
X0031093Y0194101D02*
X0032445Y0192750D01*
X0027697Y0193200D02*
X0027697Y0195002D01*
X0036598Y0181025D02*
X0036148Y0180574D01*
X0036148Y0179223D01*
X0038850Y0179223D01*
X0037949Y0179223D02*
X0037949Y0180574D01*
X0037499Y0181025D01*
X0036598Y0181025D01*
X0037949Y0180124D02*
X0038850Y0181025D01*
X0038400Y0178078D02*
X0036598Y0178078D01*
X0036148Y0177628D01*
X0036148Y0176277D01*
X0038850Y0176277D01*
X0038850Y0177628D01*
X0038400Y0178078D01*
X0038850Y0175132D02*
X0038850Y0173330D01*
X0036148Y0173330D01*
X0034100Y0175900D02*
X0034100Y0179100D01*
X0034098Y0179269D01*
X0034092Y0179438D01*
X0034082Y0179607D01*
X0034067Y0179776D01*
X0034049Y0179944D01*
X0034027Y0180111D01*
X0034000Y0180278D01*
X0033970Y0180445D01*
X0033935Y0180610D01*
X0033897Y0180775D01*
X0033854Y0180939D01*
X0033808Y0181102D01*
X0033757Y0181263D01*
X0033703Y0181423D01*
X0033645Y0181582D01*
X0033583Y0181740D01*
X0033518Y0181896D01*
X0033448Y0182050D01*
X0033375Y0182202D01*
X0033298Y0182353D01*
X0033218Y0182502D01*
X0033134Y0182649D01*
X0033046Y0182793D01*
X0032955Y0182936D01*
X0032861Y0183076D01*
X0032763Y0183214D01*
X0032662Y0183350D01*
X0032558Y0183483D01*
X0032450Y0183614D01*
X0032340Y0183742D01*
X0032226Y0183867D01*
X0032109Y0183990D01*
X0031990Y0184109D01*
X0031867Y0184226D01*
X0031742Y0184340D01*
X0031614Y0184450D01*
X0031483Y0184558D01*
X0031350Y0184662D01*
X0031214Y0184763D01*
X0031076Y0184861D01*
X0030936Y0184955D01*
X0030793Y0185046D01*
X0030649Y0185134D01*
X0030502Y0185218D01*
X0030353Y0185298D01*
X0030202Y0185375D01*
X0030050Y0185448D01*
X0029896Y0185518D01*
X0029740Y0185583D01*
X0029582Y0185645D01*
X0029423Y0185703D01*
X0029263Y0185757D01*
X0029102Y0185808D01*
X0028939Y0185854D01*
X0028775Y0185897D01*
X0028610Y0185935D01*
X0028445Y0185970D01*
X0028278Y0186000D01*
X0028111Y0186027D01*
X0027944Y0186049D01*
X0027776Y0186067D01*
X0027607Y0186082D01*
X0027438Y0186092D01*
X0027269Y0186098D01*
X0027100Y0186100D01*
X0034100Y0175900D02*
X0034098Y0175731D01*
X0034092Y0175562D01*
X0034082Y0175393D01*
X0034067Y0175224D01*
X0034049Y0175056D01*
X0034027Y0174889D01*
X0034000Y0174722D01*
X0033970Y0174555D01*
X0033935Y0174390D01*
X0033897Y0174225D01*
X0033854Y0174061D01*
X0033808Y0173898D01*
X0033757Y0173737D01*
X0033703Y0173577D01*
X0033645Y0173418D01*
X0033583Y0173260D01*
X0033518Y0173104D01*
X0033448Y0172950D01*
X0033375Y0172798D01*
X0033298Y0172647D01*
X0033218Y0172498D01*
X0033134Y0172351D01*
X0033046Y0172207D01*
X0032955Y0172064D01*
X0032861Y0171924D01*
X0032763Y0171786D01*
X0032662Y0171650D01*
X0032558Y0171517D01*
X0032450Y0171386D01*
X0032340Y0171258D01*
X0032226Y0171133D01*
X0032109Y0171010D01*
X0031990Y0170891D01*
X0031867Y0170774D01*
X0031742Y0170660D01*
X0031614Y0170550D01*
X0031483Y0170442D01*
X0031350Y0170338D01*
X0031214Y0170237D01*
X0031076Y0170139D01*
X0030936Y0170045D01*
X0030793Y0169954D01*
X0030649Y0169866D01*
X0030502Y0169782D01*
X0030353Y0169702D01*
X0030202Y0169625D01*
X0030050Y0169552D01*
X0029896Y0169482D01*
X0029740Y0169417D01*
X0029582Y0169355D01*
X0029423Y0169297D01*
X0029263Y0169243D01*
X0029102Y0169192D01*
X0028939Y0169146D01*
X0028775Y0169103D01*
X0028610Y0169065D01*
X0028445Y0169030D01*
X0028278Y0169000D01*
X0028111Y0168973D01*
X0027944Y0168951D01*
X0027776Y0168933D01*
X0027607Y0168918D01*
X0027438Y0168908D01*
X0027269Y0168902D01*
X0027100Y0168900D01*
X0014250Y0192250D02*
X0011548Y0192250D01*
X0011548Y0193601D01*
X0011998Y0194052D01*
X0012899Y0194052D01*
X0013349Y0193601D01*
X0013349Y0192250D01*
X0013349Y0193151D02*
X0014250Y0194052D01*
X0014250Y0195197D02*
X0014250Y0196998D01*
X0014250Y0196097D02*
X0011548Y0196097D01*
X0012448Y0195197D01*
X0012147Y0141523D02*
X0010645Y0141523D01*
X0010645Y0138521D01*
X0010645Y0139522D02*
X0012147Y0139522D01*
X0012647Y0140022D01*
X0012647Y0141023D01*
X0012147Y0141523D01*
X0013868Y0141023D02*
X0014369Y0141523D01*
X0015369Y0141523D01*
X0015870Y0141023D01*
X0013868Y0139021D01*
X0014369Y0138521D01*
X0015369Y0138521D01*
X0015870Y0139021D01*
X0015870Y0141023D01*
X0013868Y0141023D02*
X0013868Y0139021D01*
X0012647Y0138521D02*
X0011646Y0139522D01*
X0012147Y0131523D02*
X0010645Y0131523D01*
X0010645Y0128521D01*
X0012147Y0128521D01*
X0012647Y0129021D01*
X0012647Y0129522D01*
X0012147Y0130022D01*
X0010645Y0130022D01*
X0012147Y0130022D02*
X0012647Y0130522D01*
X0012647Y0131023D01*
X0012147Y0131523D01*
X0013868Y0131023D02*
X0013868Y0129021D01*
X0015870Y0131023D01*
X0015870Y0129021D01*
X0015369Y0128521D01*
X0014369Y0128521D01*
X0013868Y0129021D01*
X0013868Y0131023D02*
X0014369Y0131523D01*
X0015369Y0131523D01*
X0015870Y0131023D01*
X0014869Y0121523D02*
X0014869Y0118521D01*
X0013868Y0118521D02*
X0015870Y0118521D01*
X0013868Y0120522D02*
X0014869Y0121523D01*
X0012647Y0121023D02*
X0012647Y0120022D01*
X0012147Y0119522D01*
X0010645Y0119522D01*
X0011646Y0119522D02*
X0012647Y0118521D01*
X0010645Y0118521D02*
X0010645Y0121523D01*
X0012147Y0121523D01*
X0012647Y0121023D01*
X0012147Y0111523D02*
X0010645Y0111523D01*
X0010645Y0108521D01*
X0012147Y0108521D01*
X0012647Y0109021D01*
X0012647Y0109522D01*
X0012147Y0110022D01*
X0010645Y0110022D01*
X0012147Y0110022D02*
X0012647Y0110522D01*
X0012647Y0111023D01*
X0012147Y0111523D01*
X0013868Y0110522D02*
X0014869Y0111523D01*
X0014869Y0108521D01*
X0013868Y0108521D02*
X0015870Y0108521D01*
X0013258Y0101523D02*
X0014258Y0100522D01*
X0014258Y0098521D01*
X0014258Y0100022D02*
X0012257Y0100022D01*
X0012257Y0100522D02*
X0013258Y0101523D01*
X0012257Y0100522D02*
X0012257Y0098521D01*
X0012757Y0091523D02*
X0012257Y0091023D01*
X0012257Y0089021D01*
X0012757Y0088521D01*
X0013758Y0088521D01*
X0014258Y0089021D01*
X0014258Y0091023D02*
X0013758Y0091523D01*
X0012757Y0091523D01*
X0013368Y0081523D02*
X0013368Y0078521D01*
X0013368Y0079522D02*
X0015370Y0081523D01*
X0013869Y0080022D02*
X0015370Y0078521D01*
X0012147Y0079021D02*
X0011647Y0078521D01*
X0010646Y0078521D01*
X0010145Y0079021D01*
X0010145Y0081023D01*
X0010646Y0081523D01*
X0011647Y0081523D01*
X0012147Y0081023D01*
X0012147Y0071523D02*
X0011146Y0071523D01*
X0010645Y0071023D01*
X0010645Y0069021D01*
X0011146Y0068521D01*
X0012147Y0068521D01*
X0012647Y0069021D01*
X0012647Y0071023D01*
X0012147Y0071523D01*
X0013868Y0071523D02*
X0013868Y0068521D01*
X0015870Y0068521D01*
X0014869Y0070022D02*
X0013868Y0070022D01*
X0013868Y0071523D02*
X0015870Y0071523D01*
X0064477Y0052370D02*
X0066478Y0052370D01*
X0067479Y0051369D01*
X0066478Y0050368D01*
X0064477Y0050368D01*
X0064477Y0049147D02*
X0064477Y0047145D01*
X0065978Y0047145D01*
X0065478Y0048146D01*
X0065478Y0048647D01*
X0065978Y0049147D01*
X0066979Y0049147D01*
X0067479Y0048647D01*
X0067479Y0047646D01*
X0066979Y0047145D01*
X0075315Y0052185D02*
X0095000Y0052185D01*
X0095000Y0008878D01*
X0075315Y0008878D01*
X0075315Y0052185D01*
X0077283Y0048248D02*
X0077283Y0046280D01*
X0093031Y0046280D01*
X0093031Y0051004D01*
X0089094Y0051004D01*
X0089094Y0048248D01*
X0077283Y0048248D01*
X0095000Y0052185D02*
X0114685Y0052185D01*
X0114685Y0008878D01*
X0095000Y0008878D01*
X0089245Y0009480D02*
X0089245Y0011481D01*
X0088745Y0011982D01*
X0087243Y0011982D01*
X0087243Y0008979D01*
X0088745Y0008979D01*
X0089245Y0009480D01*
X0086022Y0008979D02*
X0086022Y0011982D01*
X0084021Y0011982D02*
X0084021Y0008979D01*
X0082799Y0009480D02*
X0082799Y0010481D01*
X0081799Y0010481D01*
X0082799Y0011481D02*
X0082299Y0011982D01*
X0081298Y0011982D01*
X0080798Y0011481D01*
X0080798Y0009480D01*
X0081298Y0008979D01*
X0082299Y0008979D01*
X0082799Y0009480D01*
X0084021Y0011982D02*
X0086022Y0008979D01*
X0091063Y0014783D02*
X0079252Y0014783D01*
X0079252Y0026594D01*
X0091063Y0026594D01*
X0091063Y0014783D01*
X0098937Y0014783D02*
X0098937Y0026594D01*
X0110748Y0026594D01*
X0110748Y0014783D01*
X0098937Y0014783D01*
X0102909Y0011982D02*
X0102909Y0010481D01*
X0103910Y0010981D01*
X0104410Y0010981D01*
X0104911Y0010481D01*
X0104911Y0009480D01*
X0104410Y0008979D01*
X0103410Y0008979D01*
X0102909Y0009480D01*
X0102909Y0011982D02*
X0104911Y0011982D01*
X0106132Y0011982D02*
X0106132Y0009980D01*
X0107133Y0008979D01*
X0108134Y0009980D01*
X0108134Y0011982D01*
X0116977Y0012145D02*
X0118478Y0012145D01*
X0117978Y0013146D01*
X0117978Y0013647D01*
X0118478Y0014147D01*
X0119479Y0014147D01*
X0119979Y0013647D01*
X0119979Y0012646D01*
X0119479Y0012145D01*
X0116977Y0012145D02*
X0116977Y0014147D01*
X0116977Y0015368D02*
X0118978Y0015368D01*
X0119979Y0016369D01*
X0118978Y0017370D01*
X0116977Y0017370D01*
X0116977Y0022145D02*
X0118478Y0022145D01*
X0117978Y0023146D01*
X0117978Y0023647D01*
X0118478Y0024147D01*
X0119479Y0024147D01*
X0119979Y0023647D01*
X0119979Y0022646D01*
X0119479Y0022145D01*
X0116977Y0022145D02*
X0116977Y0024147D01*
X0116977Y0025368D02*
X0118978Y0025368D01*
X0119979Y0026369D01*
X0118978Y0027370D01*
X0116977Y0027370D01*
X0117477Y0030534D02*
X0116977Y0031034D01*
X0116977Y0032035D01*
X0117477Y0032536D01*
X0118478Y0032536D02*
X0118478Y0031535D01*
X0118478Y0032536D02*
X0119479Y0032536D01*
X0119979Y0032035D01*
X0119979Y0031034D01*
X0119479Y0030534D01*
X0117477Y0030534D01*
X0116977Y0033757D02*
X0119979Y0035758D01*
X0116977Y0035758D01*
X0116977Y0036979D02*
X0116977Y0038481D01*
X0117477Y0038981D01*
X0119479Y0038981D01*
X0119979Y0038481D01*
X0119979Y0036979D01*
X0116977Y0036979D01*
X0116977Y0033757D02*
X0119979Y0033757D01*
X0119479Y0040534D02*
X0117477Y0040534D01*
X0116977Y0041034D01*
X0116977Y0042035D01*
X0117477Y0042536D01*
X0118478Y0042536D02*
X0118478Y0041535D01*
X0118478Y0042536D02*
X0119479Y0042536D01*
X0119979Y0042035D01*
X0119979Y0041034D01*
X0119479Y0040534D01*
X0119979Y0043757D02*
X0116977Y0043757D01*
X0119979Y0045758D01*
X0116977Y0045758D01*
X0116977Y0046979D02*
X0116977Y0048481D01*
X0117477Y0048981D01*
X0119479Y0048981D01*
X0119979Y0048481D01*
X0119979Y0046979D01*
X0116977Y0046979D01*
X0112717Y0046280D02*
X0112717Y0051004D01*
X0108780Y0051004D01*
X0108780Y0048248D01*
X0096969Y0048248D01*
X0096969Y0046280D01*
X0112717Y0046280D01*
X0112379Y0053448D02*
X0110577Y0053448D01*
X0110127Y0053899D01*
X0110127Y0054799D01*
X0110577Y0055250D01*
X0111478Y0055250D02*
X0111478Y0054349D01*
X0111478Y0055250D02*
X0112379Y0055250D01*
X0112829Y0054799D01*
X0112829Y0053899D01*
X0112379Y0053448D01*
X0112829Y0056395D02*
X0110127Y0056395D01*
X0112829Y0058196D01*
X0110127Y0058196D01*
X0110127Y0059341D02*
X0110127Y0060693D01*
X0110577Y0061143D01*
X0112379Y0061143D01*
X0112829Y0060693D01*
X0112829Y0059341D01*
X0110127Y0059341D01*
X0116937Y0069150D02*
X0118288Y0069150D01*
X0118739Y0069600D01*
X0118739Y0071402D01*
X0118288Y0071852D01*
X0116937Y0071852D01*
X0116937Y0069150D01*
X0119884Y0069600D02*
X0120334Y0069150D01*
X0121235Y0069150D01*
X0121685Y0069600D01*
X0121685Y0070051D01*
X0121235Y0070501D01*
X0120334Y0070501D01*
X0119884Y0070952D01*
X0119884Y0071402D01*
X0120334Y0071852D01*
X0121235Y0071852D01*
X0121685Y0071402D01*
X0122830Y0070952D02*
X0123731Y0071852D01*
X0123731Y0069150D01*
X0122830Y0069150D02*
X0124632Y0069150D01*
X0125777Y0069600D02*
X0125777Y0070051D01*
X0126227Y0070501D01*
X0127128Y0070501D01*
X0127578Y0070051D01*
X0127578Y0069600D01*
X0127128Y0069150D01*
X0126227Y0069150D01*
X0125777Y0069600D01*
X0126227Y0070501D02*
X0125777Y0070952D01*
X0125777Y0071402D01*
X0126227Y0071852D01*
X0127128Y0071852D01*
X0127578Y0071402D01*
X0127578Y0070952D01*
X0127128Y0070501D01*
X0128723Y0070501D02*
X0130074Y0070501D01*
X0130525Y0070051D01*
X0130525Y0069600D01*
X0130074Y0069150D01*
X0128723Y0069150D01*
X0128723Y0071852D01*
X0130074Y0071852D01*
X0130525Y0071402D01*
X0130525Y0070952D01*
X0130074Y0070501D01*
X0131670Y0071402D02*
X0132120Y0071852D01*
X0133021Y0071852D01*
X0133471Y0071402D01*
X0133471Y0070952D01*
X0131670Y0069150D01*
X0133471Y0069150D01*
X0134616Y0069600D02*
X0136418Y0071402D01*
X0136418Y0069600D01*
X0135967Y0069150D01*
X0135067Y0069150D01*
X0134616Y0069600D01*
X0134616Y0071402D01*
X0135067Y0071852D01*
X0135967Y0071852D01*
X0136418Y0071402D01*
X0129933Y0065381D02*
X0129933Y0063580D01*
X0129483Y0063129D01*
X0128582Y0063129D01*
X0128132Y0063580D01*
X0128132Y0065381D01*
X0128582Y0065832D01*
X0129483Y0065832D01*
X0129933Y0065381D01*
X0129033Y0064030D02*
X0129933Y0063129D01*
X0126987Y0063580D02*
X0126987Y0065381D01*
X0126537Y0065832D01*
X0125185Y0065832D01*
X0125185Y0063129D01*
X0126537Y0063129D01*
X0126987Y0063580D01*
X0142627Y0060693D02*
X0142627Y0059792D01*
X0143077Y0059341D01*
X0142627Y0058196D02*
X0144429Y0058196D01*
X0145329Y0057296D01*
X0144429Y0056395D01*
X0142627Y0056395D01*
X0143077Y0055250D02*
X0143528Y0055250D01*
X0143978Y0054799D01*
X0144429Y0055250D01*
X0144879Y0055250D01*
X0145329Y0054799D01*
X0145329Y0053899D01*
X0144879Y0053448D01*
X0143978Y0054349D02*
X0143978Y0054799D01*
X0143077Y0055250D02*
X0142627Y0054799D01*
X0142627Y0053899D01*
X0143077Y0053448D01*
X0144879Y0059341D02*
X0145329Y0059792D01*
X0145329Y0060693D01*
X0144879Y0061143D01*
X0144429Y0061143D01*
X0143978Y0060693D01*
X0143978Y0060242D01*
X0143978Y0060693D02*
X0143528Y0061143D01*
X0143077Y0061143D01*
X0142627Y0060693D01*
X0142285Y0040922D02*
X0144087Y0039121D01*
X0144537Y0039121D01*
X0144537Y0037976D02*
X0143186Y0036625D01*
X0143637Y0036174D02*
X0141835Y0037976D01*
X0141835Y0039121D02*
X0141835Y0040922D01*
X0142285Y0040922D01*
X0137611Y0040037D02*
X0137611Y0038235D01*
X0135809Y0040037D01*
X0135359Y0040037D01*
X0134908Y0039586D01*
X0134908Y0038685D01*
X0135359Y0038235D01*
X0135359Y0037090D02*
X0136259Y0037090D01*
X0136710Y0036640D01*
X0136710Y0035289D01*
X0136710Y0036189D02*
X0137611Y0037090D01*
X0137611Y0035289D02*
X0134908Y0035289D01*
X0134908Y0036640D01*
X0135359Y0037090D01*
X0141835Y0036174D02*
X0144537Y0036174D01*
X0144537Y0034579D02*
X0141835Y0034579D01*
X0143186Y0033228D01*
X0143186Y0035029D01*
X0126320Y0100257D02*
X0126771Y0100707D01*
X0126771Y0101608D01*
X0126320Y0102058D01*
X0125420Y0102058D01*
X0124969Y0101608D01*
X0124969Y0101158D01*
X0125420Y0100257D01*
X0124068Y0100257D01*
X0124068Y0102058D01*
X0124068Y0103203D02*
X0125870Y0103203D01*
X0126771Y0104104D01*
X0125870Y0105005D01*
X0124068Y0105005D01*
X0124686Y0108757D02*
X0126354Y0108757D01*
X0126771Y0109174D01*
X0126771Y0110008D01*
X0126354Y0110425D01*
X0125520Y0110425D01*
X0125520Y0109591D01*
X0124686Y0110425D02*
X0124269Y0110008D01*
X0124269Y0109174D01*
X0124686Y0108757D01*
X0124269Y0111519D02*
X0126771Y0113187D01*
X0124269Y0113187D01*
X0124269Y0114282D02*
X0124269Y0115533D01*
X0124686Y0115950D01*
X0126354Y0115950D01*
X0126771Y0115533D01*
X0126771Y0114282D01*
X0124269Y0114282D01*
X0124269Y0111519D02*
X0126771Y0111519D01*
X0126771Y0121632D02*
X0124769Y0123634D01*
X0124269Y0123634D01*
X0123768Y0123133D01*
X0123768Y0122132D01*
X0124269Y0121632D01*
X0126771Y0121632D02*
X0126771Y0123634D01*
X0125895Y0131757D02*
X0123894Y0131757D01*
X0123393Y0132257D01*
X0123393Y0133258D01*
X0123894Y0133759D01*
X0125895Y0131757D01*
X0126396Y0132257D01*
X0126396Y0133258D01*
X0125895Y0133759D01*
X0123894Y0133759D01*
X0125269Y0141757D02*
X0125269Y0143759D01*
X0123768Y0143258D02*
X0126771Y0143258D01*
X0125269Y0141757D02*
X0123768Y0143258D01*
X0123768Y0151632D02*
X0125269Y0151632D01*
X0124769Y0152633D01*
X0124769Y0153133D01*
X0125269Y0153634D01*
X0126270Y0153634D01*
X0126771Y0153133D01*
X0126771Y0152132D01*
X0126270Y0151632D01*
X0123768Y0151632D02*
X0123768Y0153634D01*
X0123768Y0159757D02*
X0123768Y0161258D01*
X0124269Y0161759D01*
X0125269Y0161759D01*
X0125770Y0161258D01*
X0125770Y0159757D01*
X0126771Y0159757D02*
X0123768Y0159757D01*
X0125770Y0160758D02*
X0126771Y0161759D01*
X0126771Y0162980D02*
X0123768Y0164981D01*
X0123768Y0162980D02*
X0126771Y0164981D01*
X0123768Y0169757D02*
X0123768Y0171759D01*
X0123768Y0170758D02*
X0126771Y0170758D01*
X0126771Y0172980D02*
X0123768Y0174981D01*
X0123768Y0172980D02*
X0126771Y0174981D01*
X0151977Y0186645D02*
X0151977Y0188147D01*
X0152477Y0188647D01*
X0153478Y0188647D01*
X0153978Y0188147D01*
X0153978Y0186645D01*
X0153978Y0187646D02*
X0154979Y0188647D01*
X0154979Y0189868D02*
X0154979Y0191870D01*
X0154979Y0190869D02*
X0151977Y0190869D01*
X0152978Y0189868D01*
X0151977Y0186645D02*
X0154979Y0186645D01*
X0155479Y0181370D02*
X0155479Y0179368D01*
X0155479Y0180369D02*
X0152477Y0180369D01*
X0153478Y0179368D01*
X0153478Y0178147D02*
X0153978Y0177647D01*
X0153978Y0176145D01*
X0152477Y0176145D02*
X0152477Y0177647D01*
X0152977Y0178147D01*
X0153478Y0178147D01*
X0153978Y0177647D02*
X0154478Y0178147D01*
X0154979Y0178147D01*
X0155479Y0177647D01*
X0155479Y0176145D01*
X0152477Y0176145D01*
X0152977Y0171370D02*
X0154979Y0169368D01*
X0155479Y0169869D01*
X0155479Y0170869D01*
X0154979Y0171370D01*
X0152977Y0171370D01*
X0152477Y0170869D01*
X0152477Y0169869D01*
X0152977Y0169368D01*
X0154979Y0169368D01*
X0154979Y0168147D02*
X0153978Y0168147D01*
X0153978Y0167146D01*
X0152977Y0166145D02*
X0154979Y0166145D01*
X0155479Y0166646D01*
X0155479Y0167647D01*
X0154979Y0168147D01*
X0152977Y0168147D02*
X0152477Y0167647D01*
X0152477Y0166646D01*
X0152977Y0166145D01*
X0178727Y0166145D02*
X0178727Y0167647D01*
X0179227Y0168147D01*
X0179728Y0168147D01*
X0180228Y0167647D01*
X0180228Y0166145D01*
X0181729Y0166145D02*
X0178727Y0166145D01*
X0180228Y0167647D02*
X0180728Y0168147D01*
X0181229Y0168147D01*
X0181729Y0167647D01*
X0181729Y0166145D01*
X0181229Y0169368D02*
X0179227Y0169368D01*
X0178727Y0169869D01*
X0178727Y0170869D01*
X0179227Y0171370D01*
X0181229Y0169368D01*
X0181729Y0169869D01*
X0181729Y0170869D01*
X0181229Y0171370D01*
X0179227Y0171370D01*
X0179227Y0186645D02*
X0181229Y0186645D01*
X0181729Y0187146D01*
X0181729Y0188147D01*
X0181229Y0188647D01*
X0180228Y0188647D01*
X0180228Y0187646D01*
X0179227Y0186645D02*
X0178727Y0187146D01*
X0178727Y0188147D01*
X0179227Y0188647D01*
X0179728Y0189868D02*
X0178727Y0190869D01*
X0181729Y0190869D01*
X0181729Y0189868D02*
X0181729Y0191870D01*
X0069771Y0175551D02*
X0067068Y0175551D01*
X0067068Y0176451D02*
X0067068Y0174650D01*
X0067519Y0173505D02*
X0067068Y0173055D01*
X0067068Y0172154D01*
X0067519Y0171703D01*
X0067969Y0171703D01*
X0068420Y0172154D01*
X0068420Y0173055D01*
X0068870Y0173505D01*
X0069320Y0173505D01*
X0069771Y0173055D01*
X0069771Y0172154D01*
X0069320Y0171703D01*
X0069771Y0170558D02*
X0068870Y0169658D01*
X0068870Y0170108D02*
X0068870Y0168757D01*
X0069771Y0168757D02*
X0067068Y0168757D01*
X0067068Y0170108D01*
X0067519Y0170558D01*
X0068420Y0170558D01*
X0068870Y0170108D01*
X0069770Y0165356D02*
X0067769Y0165356D01*
X0069770Y0163355D01*
X0070271Y0163855D01*
X0070271Y0164856D01*
X0069770Y0165356D01*
X0069770Y0163355D02*
X0067769Y0163355D01*
X0067268Y0163855D01*
X0067268Y0164856D01*
X0067769Y0165356D01*
X0068269Y0162134D02*
X0070271Y0162134D01*
X0068769Y0162134D02*
X0068769Y0160132D01*
X0068269Y0160132D02*
X0067268Y0161133D01*
X0068269Y0162134D01*
X0068269Y0160132D02*
X0070271Y0160132D01*
X0069770Y0154856D02*
X0069270Y0154856D01*
X0068769Y0154356D01*
X0068769Y0152855D01*
X0069770Y0152855D01*
X0070271Y0153355D01*
X0070271Y0154356D01*
X0069770Y0154856D01*
X0067769Y0153855D02*
X0068769Y0152855D01*
X0067769Y0153855D02*
X0067268Y0154856D01*
X0067268Y0150633D02*
X0070271Y0150633D01*
X0070271Y0149632D02*
X0070271Y0151634D01*
X0068269Y0149632D02*
X0067268Y0150633D01*
X0068769Y0144856D02*
X0068769Y0142855D01*
X0067268Y0144356D01*
X0070271Y0144356D01*
X0070271Y0141634D02*
X0070271Y0139632D01*
X0070271Y0140633D02*
X0067268Y0140633D01*
X0068269Y0139632D01*
X0068269Y0134856D02*
X0067769Y0134856D01*
X0067268Y0134356D01*
X0067268Y0133355D01*
X0067769Y0132855D01*
X0068269Y0134856D02*
X0070271Y0132855D01*
X0070271Y0134856D01*
X0070271Y0131634D02*
X0070271Y0129632D01*
X0070271Y0130633D02*
X0067268Y0130633D01*
X0068269Y0129632D01*
X0068269Y0125356D02*
X0068769Y0124856D01*
X0069270Y0125356D01*
X0069770Y0125356D01*
X0070271Y0124856D01*
X0070271Y0123855D01*
X0069770Y0123355D01*
X0070271Y0122134D02*
X0070271Y0120132D01*
X0070271Y0121133D02*
X0067268Y0121133D01*
X0068269Y0120132D01*
X0067769Y0123355D02*
X0067268Y0123855D01*
X0067268Y0124856D01*
X0067769Y0125356D01*
X0068269Y0125356D01*
X0068769Y0124856D02*
X0068769Y0124355D01*
X0068749Y0114974D02*
X0069750Y0114974D01*
X0070250Y0114474D01*
X0070250Y0113473D01*
X0069750Y0112973D01*
X0068749Y0112973D02*
X0068248Y0113974D01*
X0068248Y0114474D01*
X0068749Y0114974D01*
X0067247Y0114974D02*
X0067247Y0112973D01*
X0068749Y0112973D01*
X0070250Y0111752D02*
X0070250Y0109750D01*
X0070250Y0110751D02*
X0067247Y0110751D01*
X0068248Y0109750D01*
X0068469Y0106326D02*
X0068920Y0105876D01*
X0069370Y0106326D01*
X0069820Y0106326D01*
X0070271Y0105876D01*
X0070271Y0104975D01*
X0069820Y0104525D01*
X0069370Y0103380D02*
X0067568Y0103380D01*
X0068019Y0104525D02*
X0067568Y0104975D01*
X0067568Y0105876D01*
X0068019Y0106326D01*
X0068469Y0106326D01*
X0068920Y0105876D02*
X0068920Y0105426D01*
X0069370Y0103380D02*
X0070271Y0102479D01*
X0069370Y0101578D01*
X0067568Y0101578D01*
X0068019Y0100433D02*
X0068469Y0100433D01*
X0068920Y0099983D01*
X0069370Y0100433D01*
X0069820Y0100433D01*
X0070271Y0099983D01*
X0070271Y0099082D01*
X0069820Y0098632D01*
X0068920Y0099533D02*
X0068920Y0099983D01*
X0068019Y0100433D02*
X0067568Y0099983D01*
X0067568Y0099082D01*
X0068019Y0098632D01*
D11*
X0055000Y0092500D02*
X0055000Y0072500D01*
X0055002Y0072360D01*
X0055008Y0072220D01*
X0055018Y0072080D01*
X0055031Y0071940D01*
X0055049Y0071801D01*
X0055071Y0071662D01*
X0055096Y0071525D01*
X0055125Y0071387D01*
X0055158Y0071251D01*
X0055195Y0071116D01*
X0055236Y0070982D01*
X0055281Y0070849D01*
X0055329Y0070717D01*
X0055381Y0070587D01*
X0055436Y0070458D01*
X0055495Y0070331D01*
X0055558Y0070205D01*
X0055624Y0070081D01*
X0055693Y0069960D01*
X0055766Y0069840D01*
X0055843Y0069722D01*
X0055922Y0069607D01*
X0056005Y0069493D01*
X0056091Y0069383D01*
X0056180Y0069274D01*
X0056272Y0069168D01*
X0056367Y0069065D01*
X0056464Y0068964D01*
X0056565Y0068867D01*
X0056668Y0068772D01*
X0056774Y0068680D01*
X0056883Y0068591D01*
X0056993Y0068505D01*
X0057107Y0068422D01*
X0057222Y0068343D01*
X0057340Y0068266D01*
X0057460Y0068193D01*
X0057581Y0068124D01*
X0057705Y0068058D01*
X0057831Y0067995D01*
X0057958Y0067936D01*
X0058087Y0067881D01*
X0058217Y0067829D01*
X0058349Y0067781D01*
X0058482Y0067736D01*
X0058616Y0067695D01*
X0058751Y0067658D01*
X0058887Y0067625D01*
X0059025Y0067596D01*
X0059162Y0067571D01*
X0059301Y0067549D01*
X0059440Y0067531D01*
X0059580Y0067518D01*
X0059720Y0067508D01*
X0059860Y0067502D01*
X0060000Y0067500D01*
X0142500Y0067500D01*
X0142640Y0067502D01*
X0142780Y0067508D01*
X0142920Y0067518D01*
X0143060Y0067531D01*
X0143199Y0067549D01*
X0143338Y0067571D01*
X0143475Y0067596D01*
X0143613Y0067625D01*
X0143749Y0067658D01*
X0143884Y0067695D01*
X0144018Y0067736D01*
X0144151Y0067781D01*
X0144283Y0067829D01*
X0144413Y0067881D01*
X0144542Y0067936D01*
X0144669Y0067995D01*
X0144795Y0068058D01*
X0144919Y0068124D01*
X0145040Y0068193D01*
X0145160Y0068266D01*
X0145278Y0068343D01*
X0145393Y0068422D01*
X0145507Y0068505D01*
X0145617Y0068591D01*
X0145726Y0068680D01*
X0145832Y0068772D01*
X0145935Y0068867D01*
X0146036Y0068964D01*
X0146133Y0069065D01*
X0146228Y0069168D01*
X0146320Y0069274D01*
X0146409Y0069383D01*
X0146495Y0069493D01*
X0146578Y0069607D01*
X0146657Y0069722D01*
X0146734Y0069840D01*
X0146807Y0069960D01*
X0146876Y0070081D01*
X0146942Y0070205D01*
X0147005Y0070331D01*
X0147064Y0070458D01*
X0147119Y0070587D01*
X0147171Y0070717D01*
X0147219Y0070849D01*
X0147264Y0070982D01*
X0147305Y0071116D01*
X0147342Y0071251D01*
X0147375Y0071387D01*
X0147404Y0071525D01*
X0147429Y0071662D01*
X0147451Y0071801D01*
X0147469Y0071940D01*
X0147482Y0072080D01*
X0147492Y0072220D01*
X0147498Y0072360D01*
X0147500Y0072500D01*
X0147500Y0192500D01*
X0147498Y0192640D01*
X0147492Y0192780D01*
X0147482Y0192920D01*
X0147469Y0193060D01*
X0147451Y0193199D01*
X0147429Y0193338D01*
X0147404Y0193475D01*
X0147375Y0193613D01*
X0147342Y0193749D01*
X0147305Y0193884D01*
X0147264Y0194018D01*
X0147219Y0194151D01*
X0147171Y0194283D01*
X0147119Y0194413D01*
X0147064Y0194542D01*
X0147005Y0194669D01*
X0146942Y0194795D01*
X0146876Y0194919D01*
X0146807Y0195040D01*
X0146734Y0195160D01*
X0146657Y0195278D01*
X0146578Y0195393D01*
X0146495Y0195507D01*
X0146409Y0195617D01*
X0146320Y0195726D01*
X0146228Y0195832D01*
X0146133Y0195935D01*
X0146036Y0196036D01*
X0145935Y0196133D01*
X0145832Y0196228D01*
X0145726Y0196320D01*
X0145617Y0196409D01*
X0145507Y0196495D01*
X0145393Y0196578D01*
X0145278Y0196657D01*
X0145160Y0196734D01*
X0145040Y0196807D01*
X0144919Y0196876D01*
X0144795Y0196942D01*
X0144669Y0197005D01*
X0144542Y0197064D01*
X0144413Y0197119D01*
X0144283Y0197171D01*
X0144151Y0197219D01*
X0144018Y0197264D01*
X0143884Y0197305D01*
X0143749Y0197342D01*
X0143613Y0197375D01*
X0143475Y0197404D01*
X0143338Y0197429D01*
X0143199Y0197451D01*
X0143060Y0197469D01*
X0142920Y0197482D01*
X0142780Y0197492D01*
X0142640Y0197498D01*
X0142500Y0197500D01*
X0052500Y0197500D01*
X0052360Y0197498D01*
X0052220Y0197492D01*
X0052080Y0197482D01*
X0051940Y0197469D01*
X0051801Y0197451D01*
X0051662Y0197429D01*
X0051525Y0197404D01*
X0051387Y0197375D01*
X0051251Y0197342D01*
X0051116Y0197305D01*
X0050982Y0197264D01*
X0050849Y0197219D01*
X0050717Y0197171D01*
X0050587Y0197119D01*
X0050458Y0197064D01*
X0050331Y0197005D01*
X0050205Y0196942D01*
X0050081Y0196876D01*
X0049960Y0196807D01*
X0049840Y0196734D01*
X0049722Y0196657D01*
X0049607Y0196578D01*
X0049493Y0196495D01*
X0049383Y0196409D01*
X0049274Y0196320D01*
X0049168Y0196228D01*
X0049065Y0196133D01*
X0048964Y0196036D01*
X0048867Y0195935D01*
X0048772Y0195832D01*
X0048680Y0195726D01*
X0048591Y0195617D01*
X0048505Y0195507D01*
X0048422Y0195393D01*
X0048343Y0195278D01*
X0048266Y0195160D01*
X0048193Y0195040D01*
X0048124Y0194919D01*
X0048058Y0194795D01*
X0047995Y0194669D01*
X0047936Y0194542D01*
X0047881Y0194413D01*
X0047829Y0194283D01*
X0047781Y0194151D01*
X0047736Y0194018D01*
X0047695Y0193884D01*
X0047658Y0193749D01*
X0047625Y0193613D01*
X0047596Y0193475D01*
X0047571Y0193338D01*
X0047549Y0193199D01*
X0047531Y0193060D01*
X0047518Y0192920D01*
X0047508Y0192780D01*
X0047502Y0192640D01*
X0047500Y0192500D01*
X0047500Y0100000D01*
X0050000Y0097500D01*
X0055000Y0092500D01*
D12*
X0055000Y0087500D02*
X0051000Y0087500D01*
X0051000Y0077000D01*
X0055000Y0077000D01*
X0037500Y0077500D02*
X0035000Y0075000D01*
X0020000Y0075000D01*
X0017500Y0077500D01*
X0017500Y0082500D01*
X0020000Y0085000D01*
X0035000Y0085000D01*
X0037500Y0082500D01*
X0037500Y0077500D01*
X0035000Y0075000D02*
X0037500Y0072500D01*
X0037500Y0067500D01*
X0035000Y0065000D01*
X0020000Y0065000D01*
X0017500Y0067500D01*
X0017500Y0072500D01*
X0020000Y0075000D01*
X0020000Y0085000D02*
X0017500Y0087500D01*
X0017500Y0092500D01*
X0020000Y0095000D01*
X0035000Y0095000D01*
X0037500Y0092500D01*
X0037500Y0087500D01*
X0035000Y0085000D01*
X0035000Y0095000D02*
X0037500Y0097500D01*
X0037500Y0102500D01*
X0035000Y0105000D01*
X0020000Y0105000D01*
X0017500Y0102500D01*
X0017500Y0097500D01*
X0020000Y0095000D01*
X0020000Y0105000D02*
X0017500Y0107500D01*
X0017500Y0112500D01*
X0020000Y0115000D01*
X0035000Y0115000D01*
X0037500Y0112500D01*
X0037500Y0107500D01*
X0035000Y0105000D01*
X0035000Y0115000D02*
X0037500Y0117500D01*
X0037500Y0122500D01*
X0035000Y0125000D01*
X0020000Y0125000D01*
X0017500Y0122500D01*
X0017500Y0117500D01*
X0020000Y0115000D01*
X0020000Y0125000D02*
X0017500Y0127500D01*
X0017500Y0132500D01*
X0020000Y0135000D01*
X0035000Y0135000D01*
X0037500Y0132500D01*
X0037500Y0127500D01*
X0035000Y0125000D01*
X0035000Y0135000D02*
X0037500Y0137500D01*
X0037500Y0142500D01*
X0035000Y0145000D01*
X0020000Y0145000D01*
X0017500Y0142500D01*
X0017500Y0137500D01*
X0020000Y0135000D01*
X0017952Y0150686D02*
X0017952Y0154089D01*
X0019653Y0154089D01*
X0020220Y0153522D01*
X0020220Y0152388D01*
X0019653Y0151821D01*
X0017952Y0151821D01*
X0016537Y0151821D02*
X0016537Y0153522D01*
X0015970Y0154089D01*
X0014268Y0154089D01*
X0014268Y0151821D01*
X0012947Y0151821D02*
X0011813Y0151821D01*
X0012380Y0151821D02*
X0012380Y0155224D01*
X0011813Y0155224D02*
X0012947Y0155224D01*
X0021635Y0154089D02*
X0021635Y0152388D01*
X0022202Y0151821D01*
X0023903Y0151821D01*
X0023903Y0154089D01*
X0025318Y0154089D02*
X0026452Y0154089D01*
X0025885Y0154656D02*
X0025885Y0152388D01*
X0026452Y0151821D01*
X0070300Y0185867D02*
X0070867Y0185300D01*
X0072569Y0185300D01*
X0072569Y0184733D02*
X0072569Y0187569D01*
X0070867Y0187569D01*
X0070300Y0187001D01*
X0070300Y0185867D01*
X0071434Y0184166D02*
X0072001Y0184166D01*
X0072569Y0184733D01*
X0073983Y0185300D02*
X0075117Y0185300D01*
X0074550Y0185300D02*
X0074550Y0187569D01*
X0073983Y0187569D01*
X0074550Y0188703D02*
X0074550Y0189270D01*
X0076439Y0187569D02*
X0077573Y0187569D01*
X0077006Y0188136D02*
X0077006Y0185867D01*
X0077573Y0185300D01*
X0078894Y0185300D02*
X0078894Y0188703D01*
X0079461Y0187569D02*
X0078894Y0187001D01*
X0079461Y0187569D02*
X0080595Y0187569D01*
X0081163Y0187001D01*
X0081163Y0185300D01*
X0082577Y0185867D02*
X0083144Y0185300D01*
X0084846Y0185300D01*
X0084846Y0187569D01*
X0086260Y0187569D02*
X0087962Y0187569D01*
X0088529Y0187001D01*
X0088529Y0185867D01*
X0087962Y0185300D01*
X0086260Y0185300D01*
X0086260Y0188703D01*
X0082577Y0187569D02*
X0082577Y0185867D01*
X0089943Y0185867D02*
X0090511Y0185867D01*
X0090511Y0185300D01*
X0089943Y0185300D01*
X0089943Y0185867D01*
X0091785Y0185867D02*
X0091785Y0187001D01*
X0092352Y0187569D01*
X0094054Y0187569D01*
X0095468Y0187001D02*
X0095468Y0185867D01*
X0096035Y0185300D01*
X0097170Y0185300D01*
X0097737Y0185867D01*
X0097737Y0187001D01*
X0097170Y0187569D01*
X0096035Y0187569D01*
X0095468Y0187001D01*
X0094054Y0185300D02*
X0092352Y0185300D01*
X0091785Y0185867D01*
X0099151Y0185300D02*
X0099151Y0187569D01*
X0099718Y0187569D01*
X0100286Y0187001D01*
X0100853Y0187569D01*
X0101420Y0187001D01*
X0101420Y0185300D01*
X0100286Y0185300D02*
X0100286Y0187001D01*
X0102834Y0185300D02*
X0105103Y0188703D01*
X0106518Y0188703D02*
X0106518Y0185300D01*
X0106518Y0187001D02*
X0107085Y0187569D01*
X0108219Y0187569D01*
X0108786Y0187001D01*
X0108786Y0185300D01*
X0110201Y0185867D02*
X0110768Y0186434D01*
X0112469Y0186434D01*
X0112469Y0187001D02*
X0112469Y0185300D01*
X0110768Y0185300D01*
X0110201Y0185867D01*
X0110768Y0187569D02*
X0111902Y0187569D01*
X0112469Y0187001D01*
X0113884Y0185300D02*
X0115018Y0185300D01*
X0114451Y0185300D02*
X0114451Y0188703D01*
X0113884Y0188703D01*
X0116339Y0188703D02*
X0116906Y0188703D01*
X0116906Y0185300D01*
X0116339Y0185300D02*
X0117474Y0185300D01*
X0118795Y0185867D02*
X0119362Y0186434D01*
X0121063Y0186434D01*
X0121063Y0187001D02*
X0121063Y0185300D01*
X0119362Y0185300D01*
X0118795Y0185867D01*
X0119362Y0187569D02*
X0120496Y0187569D01*
X0121063Y0187001D01*
X0122478Y0186434D02*
X0123612Y0187569D01*
X0124179Y0187569D01*
X0125547Y0187001D02*
X0125547Y0185867D01*
X0126114Y0185300D01*
X0127816Y0185300D01*
X0127816Y0188703D01*
X0127816Y0187569D02*
X0126114Y0187569D01*
X0125547Y0187001D01*
X0122478Y0187569D02*
X0122478Y0185300D01*
X0148650Y0195888D02*
X0149217Y0195321D01*
X0150351Y0195321D01*
X0150918Y0195888D01*
X0150918Y0198156D01*
X0150351Y0198724D01*
X0149217Y0198724D01*
X0148650Y0198156D01*
X0148650Y0195888D01*
X0152333Y0195888D02*
X0152900Y0195321D01*
X0154601Y0195321D01*
X0154601Y0197589D01*
X0156016Y0197589D02*
X0157150Y0197589D01*
X0156583Y0198156D02*
X0156583Y0195888D01*
X0157150Y0195321D01*
X0158471Y0195321D02*
X0160173Y0195321D01*
X0160740Y0195888D01*
X0160740Y0197022D01*
X0160173Y0197589D01*
X0158471Y0197589D01*
X0158471Y0194186D01*
X0162155Y0195888D02*
X0162155Y0197589D01*
X0162155Y0195888D02*
X0162722Y0195321D01*
X0164423Y0195321D01*
X0164423Y0197589D01*
X0165838Y0197589D02*
X0166972Y0197589D01*
X0166405Y0198156D02*
X0166405Y0195888D01*
X0166972Y0195321D01*
X0152333Y0195888D02*
X0152333Y0197589D01*
X0152612Y0068028D02*
X0150344Y0068028D01*
X0149776Y0067461D01*
X0149776Y0065760D01*
X0153179Y0065760D01*
X0153179Y0067461D01*
X0152612Y0068028D01*
X0153179Y0064345D02*
X0149776Y0064345D01*
X0149776Y0062077D02*
X0153179Y0064345D01*
X0153179Y0062077D02*
X0149776Y0062077D01*
X0150344Y0060662D02*
X0149776Y0060095D01*
X0149776Y0058961D01*
X0150344Y0058393D01*
X0152612Y0058393D01*
X0153179Y0058961D01*
X0153179Y0060095D01*
X0152612Y0060662D01*
X0151478Y0060662D01*
X0151478Y0059528D01*
X0152612Y0052028D02*
X0150344Y0052028D01*
X0149776Y0051461D01*
X0149776Y0049760D01*
X0153179Y0049760D01*
X0153179Y0051461D01*
X0152612Y0052028D01*
X0153179Y0048345D02*
X0149776Y0048345D01*
X0149776Y0046077D02*
X0153179Y0048345D01*
X0153179Y0046077D02*
X0149776Y0046077D01*
X0150344Y0044662D02*
X0149776Y0044095D01*
X0149776Y0042961D01*
X0150344Y0042393D01*
X0152612Y0042393D01*
X0153179Y0042961D01*
X0153179Y0044095D01*
X0152612Y0044662D01*
X0151478Y0044662D01*
X0151478Y0043528D01*
X0152545Y0034687D02*
X0150276Y0034687D01*
X0150276Y0032418D02*
X0152545Y0032418D01*
X0153679Y0033552D01*
X0152545Y0034687D01*
X0151978Y0031004D02*
X0153112Y0031004D01*
X0153679Y0030436D01*
X0153679Y0029302D01*
X0153112Y0028735D01*
X0151978Y0028735D02*
X0151411Y0029869D01*
X0151411Y0030436D01*
X0151978Y0031004D01*
X0150276Y0031004D02*
X0150276Y0028735D01*
X0151978Y0028735D01*
X0152545Y0019687D02*
X0150276Y0019687D01*
X0150276Y0017418D02*
X0152545Y0017418D01*
X0153679Y0018552D01*
X0152545Y0019687D01*
X0151978Y0016004D02*
X0153112Y0016004D01*
X0153679Y0015436D01*
X0153679Y0014302D01*
X0153112Y0013735D01*
X0151978Y0013735D02*
X0151411Y0014869D01*
X0151411Y0015436D01*
X0151978Y0016004D01*
X0150276Y0016004D02*
X0150276Y0013735D01*
X0151978Y0013735D01*
D13*
X0158012Y0016594D02*
X0158012Y0009508D01*
X0181496Y0009508D01*
X0181496Y0070591D01*
X0158012Y0070591D01*
X0158012Y0063504D01*
X0162559Y0063504D01*
X0162559Y0016594D01*
X0158012Y0016594D01*
X0158012Y0063504D01*
X0146346Y0043602D02*
X0139654Y0043602D01*
X0139654Y0031398D01*
X0146346Y0031398D01*
X0146346Y0043602D01*
X0135746Y0051000D02*
X0119254Y0051000D01*
X0122500Y0047500D02*
X0125000Y0050000D01*
X0130000Y0050000D01*
X0132500Y0047500D01*
X0132500Y0042500D01*
X0130000Y0040000D01*
X0132500Y0037500D01*
X0132500Y0032500D01*
X0130000Y0030000D01*
X0132500Y0027500D01*
X0132500Y0022500D01*
X0130000Y0020000D01*
X0132500Y0017500D01*
X0132500Y0012500D01*
X0130000Y0010000D01*
X0125000Y0010000D01*
X0122500Y0012500D01*
X0122500Y0017500D01*
X0125000Y0020000D01*
X0122500Y0022500D01*
X0122500Y0027500D01*
X0125000Y0030000D01*
X0122500Y0032500D01*
X0122500Y0037500D01*
X0125000Y0040000D01*
X0122500Y0042500D01*
X0122500Y0047500D01*
X0120000Y0065000D02*
X0120216Y0065180D01*
X0120436Y0065355D01*
X0120660Y0065525D01*
X0120889Y0065689D01*
X0121121Y0065847D01*
X0121357Y0066000D01*
X0121597Y0066147D01*
X0121840Y0066288D01*
X0122087Y0066423D01*
X0122336Y0066552D01*
X0122589Y0066675D01*
X0122845Y0066792D01*
X0123104Y0066903D01*
X0123365Y0067007D01*
X0123629Y0067104D01*
X0123895Y0067196D01*
X0124163Y0067280D01*
X0124433Y0067358D01*
X0124705Y0067430D01*
X0124979Y0067495D01*
X0125254Y0067553D01*
X0125530Y0067604D01*
X0125808Y0067649D01*
X0126087Y0067687D01*
X0126366Y0067718D01*
X0126646Y0067742D01*
X0126927Y0067760D01*
X0127208Y0067770D01*
X0127489Y0067774D01*
X0127770Y0067771D01*
X0128051Y0067761D01*
X0128332Y0067744D01*
X0128612Y0067720D01*
X0128892Y0067690D01*
X0129170Y0067652D01*
X0129448Y0067608D01*
X0129725Y0067557D01*
X0130000Y0067500D01*
X0130275Y0067435D01*
X0130548Y0067364D01*
X0130819Y0067286D01*
X0131089Y0067201D01*
X0131356Y0067110D01*
X0131621Y0067012D01*
X0131883Y0066908D01*
X0132143Y0066797D01*
X0132400Y0066681D01*
X0132654Y0066557D01*
X0132905Y0066428D01*
X0133152Y0066293D01*
X0133397Y0066151D01*
X0133637Y0066004D01*
X0133874Y0065850D01*
X0134108Y0065691D01*
X0134337Y0065527D01*
X0134562Y0065356D01*
X0134783Y0065181D01*
X0135000Y0065000D01*
X0130000Y0067500D02*
X0129726Y0067557D01*
X0129451Y0067608D01*
X0129174Y0067652D01*
X0128897Y0067689D01*
X0128618Y0067720D01*
X0128339Y0067743D01*
X0128060Y0067760D01*
X0127780Y0067771D01*
X0127500Y0067774D01*
X0127220Y0067771D01*
X0126940Y0067760D01*
X0126661Y0067743D01*
X0126382Y0067720D01*
X0126103Y0067689D01*
X0125826Y0067652D01*
X0125549Y0067608D01*
X0125274Y0067557D01*
X0125000Y0067500D01*
X0104409Y0062854D02*
X0104409Y0058150D01*
X0102057Y0058150D01*
X0101273Y0058934D01*
X0101273Y0060502D01*
X0102057Y0061286D01*
X0104409Y0061286D01*
X0099465Y0058150D02*
X0097897Y0058150D01*
X0098681Y0058150D02*
X0098681Y0062854D01*
X0097897Y0062854D01*
X0095969Y0060502D02*
X0095969Y0059718D01*
X0092833Y0059718D01*
X0092833Y0058934D02*
X0092833Y0060502D01*
X0093617Y0061286D01*
X0095185Y0061286D01*
X0095969Y0060502D01*
X0095185Y0058150D02*
X0093617Y0058150D01*
X0092833Y0058934D01*
X0091025Y0058150D02*
X0089457Y0058150D01*
X0090241Y0058150D02*
X0090241Y0061286D01*
X0089457Y0061286D01*
X0090241Y0062854D02*
X0090241Y0063638D01*
X0087528Y0060502D02*
X0087528Y0058150D01*
X0087528Y0060502D02*
X0086744Y0061286D01*
X0085176Y0061286D01*
X0084392Y0060502D01*
X0082464Y0059718D02*
X0082464Y0058934D01*
X0081680Y0058150D01*
X0080112Y0058150D01*
X0079328Y0058934D01*
X0080112Y0060502D02*
X0081680Y0060502D01*
X0082464Y0059718D01*
X0082464Y0062070D02*
X0081680Y0062854D01*
X0080112Y0062854D01*
X0079328Y0062070D01*
X0079328Y0061286D01*
X0080112Y0060502D01*
X0084392Y0062854D02*
X0084392Y0058150D01*
X0072335Y0058150D02*
X0069199Y0061286D01*
X0066607Y0061286D02*
X0066607Y0058150D01*
X0065823Y0058150D02*
X0067391Y0058150D01*
X0069199Y0058150D02*
X0072335Y0061286D01*
X0066607Y0061286D02*
X0065823Y0061286D01*
X0066607Y0062854D02*
X0066607Y0063638D01*
X0063955Y0061286D02*
X0063171Y0061286D01*
X0061603Y0059718D01*
X0061603Y0058150D02*
X0061603Y0061286D01*
X0059795Y0061286D02*
X0058227Y0061286D01*
X0059011Y0062070D02*
X0059011Y0058934D01*
X0059795Y0058150D01*
X0056298Y0058150D02*
X0053946Y0058150D01*
X0053162Y0058934D01*
X0053946Y0059718D01*
X0056298Y0059718D01*
X0056298Y0060502D02*
X0056298Y0058150D01*
X0056298Y0060502D02*
X0055514Y0061286D01*
X0053946Y0061286D01*
X0051234Y0062854D02*
X0051234Y0058150D01*
X0049666Y0061286D02*
X0051234Y0062854D01*
X0049666Y0061286D02*
X0048098Y0062854D01*
X0048098Y0058150D01*
X0041105Y0058934D02*
X0040321Y0059718D01*
X0038753Y0059718D01*
X0037969Y0060502D01*
X0038753Y0061286D01*
X0041105Y0061286D01*
X0041105Y0058934D02*
X0040321Y0058150D01*
X0037969Y0058150D01*
X0036041Y0058934D02*
X0036041Y0060502D01*
X0035257Y0061286D01*
X0033689Y0061286D01*
X0032905Y0060502D01*
X0032905Y0058934D01*
X0033689Y0058150D01*
X0035257Y0058150D01*
X0036041Y0058934D01*
X0030977Y0058150D02*
X0030977Y0062854D01*
X0029409Y0061286D01*
X0027841Y0062854D01*
X0027841Y0058150D01*
X0025912Y0059718D02*
X0025912Y0060502D01*
X0025128Y0061286D01*
X0023560Y0061286D01*
X0022776Y0060502D01*
X0022776Y0058934D01*
X0023560Y0058150D01*
X0025128Y0058150D01*
X0025912Y0059718D02*
X0022776Y0059718D01*
X0020848Y0058150D02*
X0020848Y0062854D01*
X0017712Y0062854D02*
X0017712Y0058150D01*
X0019280Y0059718D01*
X0020848Y0058150D01*
X0019311Y0054217D02*
X0019311Y0018783D01*
X0040177Y0018783D01*
X0058681Y0018783D02*
X0061437Y0018783D01*
X0061437Y0027051D01*
X0061437Y0045949D02*
X0061437Y0054217D01*
X0019311Y0054217D01*
X0050000Y0097500D02*
X0070000Y0097500D01*
X0072500Y0100000D01*
X0072500Y0105000D01*
X0070000Y0107500D01*
X0047500Y0107500D01*
X0047500Y0100000D01*
X0047500Y0107500D02*
X0047500Y0117500D01*
X0070000Y0117500D01*
X0072500Y0115000D01*
X0072500Y0110000D01*
X0070000Y0107500D01*
X0070000Y0117500D02*
X0072500Y0120000D01*
X0072500Y0125000D01*
X0070000Y0127500D01*
X0047500Y0127500D01*
X0047500Y0137500D01*
X0070000Y0137500D01*
X0072500Y0135000D01*
X0072500Y0130000D01*
X0070000Y0127500D01*
X0070000Y0137500D02*
X0072500Y0140000D01*
X0072500Y0145000D01*
X0070000Y0147500D01*
X0047500Y0147500D01*
X0037500Y0147500D01*
X0037500Y0167500D01*
X0047500Y0167500D01*
X0047500Y0147500D01*
X0047500Y0157500D01*
X0070000Y0157500D01*
X0072500Y0155000D01*
X0072500Y0150000D01*
X0070000Y0147500D01*
X0070000Y0157500D02*
X0072500Y0160000D01*
X0072500Y0165000D01*
X0070000Y0167500D01*
X0047500Y0167500D01*
X0047500Y0177500D01*
X0070000Y0177500D01*
X0072500Y0175000D01*
X0072500Y0170000D01*
X0070000Y0167500D01*
X0047500Y0167500D02*
X0047500Y0157500D01*
X0045000Y0157500D02*
X0040000Y0157500D01*
X0047500Y0147500D02*
X0047500Y0137500D01*
X0047500Y0127500D02*
X0047500Y0117500D01*
X0028175Y0160650D02*
X0026607Y0160650D01*
X0025823Y0161434D01*
X0025823Y0163002D02*
X0027391Y0163786D01*
X0028175Y0163786D01*
X0028959Y0163002D01*
X0028959Y0161434D01*
X0028175Y0160650D01*
X0025823Y0163002D02*
X0025823Y0165354D01*
X0028959Y0165354D01*
X0024075Y0161434D02*
X0024075Y0160650D01*
X0023291Y0160650D01*
X0023291Y0161434D01*
X0024075Y0161434D01*
X0021363Y0160650D02*
X0018227Y0160650D01*
X0019795Y0160650D02*
X0019795Y0165354D01*
X0018227Y0163786D01*
X0016298Y0162218D02*
X0016298Y0165354D01*
X0016298Y0162218D02*
X0014730Y0160650D01*
X0013162Y0162218D01*
X0013162Y0165354D01*
X0022398Y0190654D02*
X0034602Y0190654D01*
X0034602Y0197346D01*
X0022398Y0197346D01*
X0022398Y0190654D01*
X0122500Y0175000D02*
X0122500Y0170000D01*
X0125000Y0167500D01*
X0147500Y0167500D01*
X0147500Y0117500D01*
X0147500Y0107500D01*
X0147500Y0097500D01*
X0125000Y0097500D01*
X0122500Y0100000D01*
X0122500Y0105000D01*
X0125000Y0107500D01*
X0122500Y0110000D01*
X0122500Y0115000D01*
X0125000Y0117500D01*
X0122500Y0120000D01*
X0122500Y0125000D01*
X0125000Y0127500D01*
X0147500Y0127500D01*
X0147500Y0117500D02*
X0125000Y0117500D01*
X0125000Y0107500D02*
X0147500Y0107500D01*
X0125000Y0127500D02*
X0122500Y0130000D01*
X0122500Y0135000D01*
X0125000Y0137500D01*
X0147500Y0137500D01*
X0147500Y0147500D02*
X0125000Y0147500D01*
X0122500Y0150000D01*
X0122500Y0155000D01*
X0125000Y0157500D01*
X0147500Y0157500D01*
X0147500Y0167500D02*
X0147500Y0177500D01*
X0125000Y0177500D01*
X0122500Y0175000D01*
X0125000Y0167500D02*
X0122500Y0165000D01*
X0122500Y0160000D01*
X0125000Y0157500D01*
X0125000Y0147500D02*
X0122500Y0145000D01*
X0122500Y0140000D01*
X0125000Y0137500D01*
X0157500Y0166500D02*
X0157500Y0171500D01*
X0160000Y0174000D01*
X0175000Y0174000D01*
X0177500Y0171500D01*
X0177500Y0166500D01*
X0175000Y0164000D01*
X0160000Y0164000D01*
X0157500Y0166500D01*
X0160000Y0174000D02*
X0157500Y0176500D01*
X0157500Y0181500D01*
X0160000Y0184000D01*
X0175000Y0184000D01*
X0177500Y0181500D01*
X0177500Y0176500D01*
X0175000Y0174000D01*
X0175000Y0184000D02*
X0177500Y0186500D01*
X0177500Y0191500D01*
X0175000Y0194000D01*
X0160000Y0194000D01*
X0157500Y0191500D01*
X0157500Y0186500D01*
X0160000Y0184000D01*
X0156181Y0186500D02*
X0156181Y0191500D01*
D14*
X0007500Y0192500D02*
X0007500Y0015000D01*
X0007502Y0014819D01*
X0007509Y0014638D01*
X0007520Y0014457D01*
X0007535Y0014276D01*
X0007555Y0014096D01*
X0007579Y0013916D01*
X0007607Y0013737D01*
X0007640Y0013559D01*
X0007677Y0013382D01*
X0007718Y0013205D01*
X0007763Y0013030D01*
X0007813Y0012855D01*
X0007867Y0012682D01*
X0007925Y0012511D01*
X0007987Y0012340D01*
X0008054Y0012172D01*
X0008124Y0012005D01*
X0008198Y0011839D01*
X0008277Y0011676D01*
X0008359Y0011515D01*
X0008445Y0011355D01*
X0008535Y0011198D01*
X0008629Y0011043D01*
X0008726Y0010890D01*
X0008828Y0010740D01*
X0008932Y0010592D01*
X0009041Y0010446D01*
X0009152Y0010304D01*
X0009268Y0010164D01*
X0009386Y0010027D01*
X0009508Y0009892D01*
X0009633Y0009761D01*
X0009761Y0009633D01*
X0009892Y0009508D01*
X0010027Y0009386D01*
X0010164Y0009268D01*
X0010304Y0009152D01*
X0010446Y0009041D01*
X0010592Y0008932D01*
X0010740Y0008828D01*
X0010890Y0008726D01*
X0011043Y0008629D01*
X0011198Y0008535D01*
X0011355Y0008445D01*
X0011515Y0008359D01*
X0011676Y0008277D01*
X0011839Y0008198D01*
X0012005Y0008124D01*
X0012172Y0008054D01*
X0012340Y0007987D01*
X0012511Y0007925D01*
X0012682Y0007867D01*
X0012855Y0007813D01*
X0013030Y0007763D01*
X0013205Y0007718D01*
X0013382Y0007677D01*
X0013559Y0007640D01*
X0013737Y0007607D01*
X0013916Y0007579D01*
X0014096Y0007555D01*
X0014276Y0007535D01*
X0014457Y0007520D01*
X0014638Y0007509D01*
X0014819Y0007502D01*
X0015000Y0007500D01*
X0177500Y0007500D01*
X0177681Y0007502D01*
X0177862Y0007509D01*
X0178043Y0007520D01*
X0178224Y0007535D01*
X0178404Y0007555D01*
X0178584Y0007579D01*
X0178763Y0007607D01*
X0178941Y0007640D01*
X0179118Y0007677D01*
X0179295Y0007718D01*
X0179470Y0007763D01*
X0179645Y0007813D01*
X0179818Y0007867D01*
X0179989Y0007925D01*
X0180160Y0007987D01*
X0180328Y0008054D01*
X0180495Y0008124D01*
X0180661Y0008198D01*
X0180824Y0008277D01*
X0180985Y0008359D01*
X0181145Y0008445D01*
X0181302Y0008535D01*
X0181457Y0008629D01*
X0181610Y0008726D01*
X0181760Y0008828D01*
X0181908Y0008932D01*
X0182054Y0009041D01*
X0182196Y0009152D01*
X0182336Y0009268D01*
X0182473Y0009386D01*
X0182608Y0009508D01*
X0182739Y0009633D01*
X0182867Y0009761D01*
X0182992Y0009892D01*
X0183114Y0010027D01*
X0183232Y0010164D01*
X0183348Y0010304D01*
X0183459Y0010446D01*
X0183568Y0010592D01*
X0183672Y0010740D01*
X0183774Y0010890D01*
X0183871Y0011043D01*
X0183965Y0011198D01*
X0184055Y0011355D01*
X0184141Y0011515D01*
X0184223Y0011676D01*
X0184302Y0011839D01*
X0184376Y0012005D01*
X0184446Y0012172D01*
X0184513Y0012340D01*
X0184575Y0012511D01*
X0184633Y0012682D01*
X0184687Y0012855D01*
X0184737Y0013030D01*
X0184782Y0013205D01*
X0184823Y0013382D01*
X0184860Y0013559D01*
X0184893Y0013737D01*
X0184921Y0013916D01*
X0184945Y0014096D01*
X0184965Y0014276D01*
X0184980Y0014457D01*
X0184991Y0014638D01*
X0184998Y0014819D01*
X0185000Y0015000D01*
X0185000Y0070000D01*
X0184998Y0070140D01*
X0184992Y0070280D01*
X0184982Y0070420D01*
X0184969Y0070560D01*
X0184951Y0070699D01*
X0184929Y0070838D01*
X0184904Y0070975D01*
X0184875Y0071113D01*
X0184842Y0071249D01*
X0184805Y0071384D01*
X0184764Y0071518D01*
X0184719Y0071651D01*
X0184671Y0071783D01*
X0184619Y0071913D01*
X0184564Y0072042D01*
X0184505Y0072169D01*
X0184442Y0072295D01*
X0184376Y0072419D01*
X0184307Y0072540D01*
X0184234Y0072660D01*
X0184157Y0072778D01*
X0184078Y0072893D01*
X0183995Y0073007D01*
X0183909Y0073117D01*
X0183820Y0073226D01*
X0183728Y0073332D01*
X0183633Y0073435D01*
X0183536Y0073536D01*
X0183435Y0073633D01*
X0183332Y0073728D01*
X0183226Y0073820D01*
X0183117Y0073909D01*
X0183007Y0073995D01*
X0182893Y0074078D01*
X0182778Y0074157D01*
X0182660Y0074234D01*
X0182540Y0074307D01*
X0182419Y0074376D01*
X0182295Y0074442D01*
X0182169Y0074505D01*
X0182042Y0074564D01*
X0181913Y0074619D01*
X0181783Y0074671D01*
X0181651Y0074719D01*
X0181518Y0074764D01*
X0181384Y0074805D01*
X0181249Y0074842D01*
X0181113Y0074875D01*
X0180975Y0074904D01*
X0180838Y0074929D01*
X0180699Y0074951D01*
X0180560Y0074969D01*
X0180420Y0074982D01*
X0180280Y0074992D01*
X0180140Y0074998D01*
X0180000Y0075000D01*
X0157500Y0075000D01*
X0157360Y0075002D01*
X0157220Y0075008D01*
X0157080Y0075018D01*
X0156940Y0075031D01*
X0156801Y0075049D01*
X0156662Y0075071D01*
X0156525Y0075096D01*
X0156387Y0075125D01*
X0156251Y0075158D01*
X0156116Y0075195D01*
X0155982Y0075236D01*
X0155849Y0075281D01*
X0155717Y0075329D01*
X0155587Y0075381D01*
X0155458Y0075436D01*
X0155331Y0075495D01*
X0155205Y0075558D01*
X0155081Y0075624D01*
X0154960Y0075693D01*
X0154840Y0075766D01*
X0154722Y0075843D01*
X0154607Y0075922D01*
X0154493Y0076005D01*
X0154383Y0076091D01*
X0154274Y0076180D01*
X0154168Y0076272D01*
X0154065Y0076367D01*
X0153964Y0076464D01*
X0153867Y0076565D01*
X0153772Y0076668D01*
X0153680Y0076774D01*
X0153591Y0076883D01*
X0153505Y0076993D01*
X0153422Y0077107D01*
X0153343Y0077222D01*
X0153266Y0077340D01*
X0153193Y0077460D01*
X0153124Y0077581D01*
X0153058Y0077705D01*
X0152995Y0077831D01*
X0152936Y0077958D01*
X0152881Y0078087D01*
X0152829Y0078217D01*
X0152781Y0078349D01*
X0152736Y0078482D01*
X0152695Y0078616D01*
X0152658Y0078751D01*
X0152625Y0078887D01*
X0152596Y0079025D01*
X0152571Y0079162D01*
X0152549Y0079301D01*
X0152531Y0079440D01*
X0152518Y0079580D01*
X0152508Y0079720D01*
X0152502Y0079860D01*
X0152500Y0080000D01*
X0152500Y0155000D01*
X0152502Y0155140D01*
X0152508Y0155280D01*
X0152518Y0155420D01*
X0152531Y0155560D01*
X0152549Y0155699D01*
X0152571Y0155838D01*
X0152596Y0155975D01*
X0152625Y0156113D01*
X0152658Y0156249D01*
X0152695Y0156384D01*
X0152736Y0156518D01*
X0152781Y0156651D01*
X0152829Y0156783D01*
X0152881Y0156913D01*
X0152936Y0157042D01*
X0152995Y0157169D01*
X0153058Y0157295D01*
X0153124Y0157419D01*
X0153193Y0157540D01*
X0153266Y0157660D01*
X0153343Y0157778D01*
X0153422Y0157893D01*
X0153505Y0158007D01*
X0153591Y0158117D01*
X0153680Y0158226D01*
X0153772Y0158332D01*
X0153867Y0158435D01*
X0153964Y0158536D01*
X0154065Y0158633D01*
X0154168Y0158728D01*
X0154274Y0158820D01*
X0154383Y0158909D01*
X0154493Y0158995D01*
X0154607Y0159078D01*
X0154722Y0159157D01*
X0154840Y0159234D01*
X0154960Y0159307D01*
X0155081Y0159376D01*
X0155205Y0159442D01*
X0155331Y0159505D01*
X0155458Y0159564D01*
X0155587Y0159619D01*
X0155717Y0159671D01*
X0155849Y0159719D01*
X0155982Y0159764D01*
X0156116Y0159805D01*
X0156251Y0159842D01*
X0156387Y0159875D01*
X0156525Y0159904D01*
X0156662Y0159929D01*
X0156801Y0159951D01*
X0156940Y0159969D01*
X0157080Y0159982D01*
X0157220Y0159992D01*
X0157360Y0159998D01*
X0157500Y0160000D01*
X0180000Y0160000D01*
X0180140Y0160002D01*
X0180280Y0160008D01*
X0180420Y0160018D01*
X0180560Y0160031D01*
X0180699Y0160049D01*
X0180838Y0160071D01*
X0180975Y0160096D01*
X0181113Y0160125D01*
X0181249Y0160158D01*
X0181384Y0160195D01*
X0181518Y0160236D01*
X0181651Y0160281D01*
X0181783Y0160329D01*
X0181913Y0160381D01*
X0182042Y0160436D01*
X0182169Y0160495D01*
X0182295Y0160558D01*
X0182419Y0160624D01*
X0182540Y0160693D01*
X0182660Y0160766D01*
X0182778Y0160843D01*
X0182893Y0160922D01*
X0183007Y0161005D01*
X0183117Y0161091D01*
X0183226Y0161180D01*
X0183332Y0161272D01*
X0183435Y0161367D01*
X0183536Y0161464D01*
X0183633Y0161565D01*
X0183728Y0161668D01*
X0183820Y0161774D01*
X0183909Y0161883D01*
X0183995Y0161993D01*
X0184078Y0162107D01*
X0184157Y0162222D01*
X0184234Y0162340D01*
X0184307Y0162460D01*
X0184376Y0162581D01*
X0184442Y0162705D01*
X0184505Y0162831D01*
X0184564Y0162958D01*
X0184619Y0163087D01*
X0184671Y0163217D01*
X0184719Y0163349D01*
X0184764Y0163482D01*
X0184805Y0163616D01*
X0184842Y0163751D01*
X0184875Y0163887D01*
X0184904Y0164025D01*
X0184929Y0164162D01*
X0184951Y0164301D01*
X0184969Y0164440D01*
X0184982Y0164580D01*
X0184992Y0164720D01*
X0184998Y0164860D01*
X0185000Y0165000D01*
X0185000Y0192500D01*
X0184998Y0192681D01*
X0184991Y0192862D01*
X0184980Y0193043D01*
X0184965Y0193224D01*
X0184945Y0193404D01*
X0184921Y0193584D01*
X0184893Y0193763D01*
X0184860Y0193941D01*
X0184823Y0194118D01*
X0184782Y0194295D01*
X0184737Y0194470D01*
X0184687Y0194645D01*
X0184633Y0194818D01*
X0184575Y0194989D01*
X0184513Y0195160D01*
X0184446Y0195328D01*
X0184376Y0195495D01*
X0184302Y0195661D01*
X0184223Y0195824D01*
X0184141Y0195985D01*
X0184055Y0196145D01*
X0183965Y0196302D01*
X0183871Y0196457D01*
X0183774Y0196610D01*
X0183672Y0196760D01*
X0183568Y0196908D01*
X0183459Y0197054D01*
X0183348Y0197196D01*
X0183232Y0197336D01*
X0183114Y0197473D01*
X0182992Y0197608D01*
X0182867Y0197739D01*
X0182739Y0197867D01*
X0182608Y0197992D01*
X0182473Y0198114D01*
X0182336Y0198232D01*
X0182196Y0198348D01*
X0182054Y0198459D01*
X0181908Y0198568D01*
X0181760Y0198672D01*
X0181610Y0198774D01*
X0181457Y0198871D01*
X0181302Y0198965D01*
X0181145Y0199055D01*
X0180985Y0199141D01*
X0180824Y0199223D01*
X0180661Y0199302D01*
X0180495Y0199376D01*
X0180328Y0199446D01*
X0180160Y0199513D01*
X0179989Y0199575D01*
X0179818Y0199633D01*
X0179645Y0199687D01*
X0179470Y0199737D01*
X0179295Y0199782D01*
X0179118Y0199823D01*
X0178941Y0199860D01*
X0178763Y0199893D01*
X0178584Y0199921D01*
X0178404Y0199945D01*
X0178224Y0199965D01*
X0178043Y0199980D01*
X0177862Y0199991D01*
X0177681Y0199998D01*
X0177500Y0200000D01*
X0015000Y0200000D01*
X0014819Y0199998D01*
X0014638Y0199991D01*
X0014457Y0199980D01*
X0014276Y0199965D01*
X0014096Y0199945D01*
X0013916Y0199921D01*
X0013737Y0199893D01*
X0013559Y0199860D01*
X0013382Y0199823D01*
X0013205Y0199782D01*
X0013030Y0199737D01*
X0012855Y0199687D01*
X0012682Y0199633D01*
X0012511Y0199575D01*
X0012340Y0199513D01*
X0012172Y0199446D01*
X0012005Y0199376D01*
X0011839Y0199302D01*
X0011676Y0199223D01*
X0011515Y0199141D01*
X0011355Y0199055D01*
X0011198Y0198965D01*
X0011043Y0198871D01*
X0010890Y0198774D01*
X0010740Y0198672D01*
X0010592Y0198568D01*
X0010446Y0198459D01*
X0010304Y0198348D01*
X0010164Y0198232D01*
X0010027Y0198114D01*
X0009892Y0197992D01*
X0009761Y0197867D01*
X0009633Y0197739D01*
X0009508Y0197608D01*
X0009386Y0197473D01*
X0009268Y0197336D01*
X0009152Y0197196D01*
X0009041Y0197054D01*
X0008932Y0196908D01*
X0008828Y0196760D01*
X0008726Y0196610D01*
X0008629Y0196457D01*
X0008535Y0196302D01*
X0008445Y0196145D01*
X0008359Y0195985D01*
X0008277Y0195824D01*
X0008198Y0195661D01*
X0008124Y0195495D01*
X0008054Y0195328D01*
X0007987Y0195160D01*
X0007925Y0194989D01*
X0007867Y0194818D01*
X0007813Y0194645D01*
X0007763Y0194470D01*
X0007718Y0194295D01*
X0007677Y0194118D01*
X0007640Y0193941D01*
X0007607Y0193763D01*
X0007579Y0193584D01*
X0007555Y0193404D01*
X0007535Y0193224D01*
X0007520Y0193043D01*
X0007509Y0192862D01*
X0007502Y0192681D01*
X0007500Y0192500D01*
D15*
X0028500Y0151500D02*
X0032000Y0149000D01*
X0028500Y0146500D01*
X0028500Y0151500D01*
X0029500Y0150000D02*
X0029500Y0148000D01*
X0030000Y0148000D02*
X0030000Y0149000D01*
X0030500Y0149000D02*
X0029500Y0150000D01*
X0178000Y0194000D02*
X0181500Y0196500D01*
X0178000Y0199000D01*
X0178000Y0194000D01*
X0179000Y0195500D02*
X0179000Y0197500D01*
X0180000Y0196500D01*
X0179500Y0196500D02*
X0179500Y0195500D01*
D16*
X0177500Y0196500D02*
X0171500Y0196500D01*
X0028000Y0149000D02*
X0022000Y0149000D01*
D17*
X0087875Y0104000D03*
X0090125Y0074000D03*
D18*
X0095625Y0074000D03*
X0095625Y0074250D03*
X0095625Y0074500D03*
X0095625Y0074750D03*
X0095625Y0075000D03*
X0095625Y0075250D03*
X0095625Y0075500D03*
X0095625Y0075750D03*
X0095625Y0076000D03*
X0095625Y0076250D03*
X0095625Y0076500D03*
X0095625Y0076750D03*
X0095625Y0077000D03*
X0095625Y0077250D03*
X0095625Y0077500D03*
X0095625Y0077750D03*
X0095625Y0078000D03*
X0095625Y0078250D03*
X0095625Y0078500D03*
X0095625Y0078750D03*
X0095625Y0079000D03*
X0095625Y0080500D03*
X0095625Y0080750D03*
X0095625Y0081000D03*
X0095625Y0081250D03*
X0095625Y0081500D03*
X0095625Y0081750D03*
X0095625Y0082000D03*
X0095625Y0082250D03*
X0095625Y0082500D03*
X0095625Y0082750D03*
X0095625Y0083000D03*
X0095625Y0083250D03*
X0095625Y0083500D03*
X0095625Y0083750D03*
X0095625Y0084000D03*
X0095625Y0084250D03*
X0095625Y0084500D03*
X0106125Y0089000D03*
X0106125Y0089250D03*
X0106125Y0089500D03*
X0106125Y0089750D03*
X0106125Y0090000D03*
X0106125Y0090250D03*
X0106125Y0090500D03*
X0106125Y0090750D03*
X0106125Y0091000D03*
X0106125Y0091250D03*
X0106125Y0091500D03*
X0106125Y0091750D03*
X0106125Y0092000D03*
X0106125Y0092250D03*
X0106125Y0092500D03*
X0106125Y0092750D03*
X0106125Y0093000D03*
X0106125Y0093250D03*
X0105875Y0093500D03*
X0105875Y0093750D03*
D19*
X0100875Y0093750D03*
X0100625Y0093500D03*
X0100625Y0093250D03*
X0100625Y0093000D03*
X0100625Y0092750D03*
X0100625Y0092500D03*
X0100625Y0092250D03*
X0100625Y0092000D03*
X0100625Y0091750D03*
X0100625Y0091500D03*
X0100625Y0091250D03*
X0100625Y0091000D03*
X0100625Y0090750D03*
X0100625Y0090500D03*
X0100625Y0090250D03*
X0100625Y0090000D03*
X0100625Y0089750D03*
X0100375Y0089000D03*
X0100375Y0079250D03*
X0100625Y0078750D03*
X0100625Y0078500D03*
X0100625Y0078250D03*
X0100625Y0078000D03*
X0100625Y0077750D03*
X0100625Y0077500D03*
X0100625Y0077250D03*
X0100625Y0077000D03*
X0100625Y0076750D03*
X0100625Y0076500D03*
X0100625Y0076250D03*
X0100625Y0076000D03*
X0100625Y0075750D03*
X0100625Y0075500D03*
X0100625Y0075250D03*
X0100625Y0075000D03*
X0100625Y0074750D03*
X0100625Y0074500D03*
X0100625Y0074250D03*
X0100625Y0074000D03*
X0109125Y0079500D03*
X0109375Y0079750D03*
X0109375Y0080000D03*
X0109375Y0080250D03*
X0109375Y0080500D03*
X0109375Y0080750D03*
X0078625Y0100000D03*
D20*
X0107245Y0074500D03*
X0107245Y0074250D03*
X0107245Y0074000D03*
X0115505Y0093250D03*
D21*
X0119880Y0091750D03*
X0113630Y0084250D03*
X0113630Y0084000D03*
X0113630Y0083500D03*
X0113630Y0081500D03*
X0113630Y0081250D03*
X0113630Y0081000D03*
X0113630Y0080750D03*
X0113630Y0080500D03*
X0113630Y0080250D03*
X0113630Y0080000D03*
X0113630Y0079750D03*
X0113630Y0079500D03*
X0113630Y0079250D03*
X0113630Y0079000D03*
X0113630Y0078750D03*
X0113630Y0078500D03*
X0113630Y0078250D03*
X0113630Y0078000D03*
X0113630Y0077750D03*
X0113630Y0077500D03*
X0113630Y0077250D03*
X0113630Y0077000D03*
X0113630Y0076750D03*
X0113630Y0076500D03*
X0113630Y0076250D03*
X0113630Y0076000D03*
X0113630Y0075750D03*
X0113630Y0075500D03*
X0113630Y0075250D03*
X0113630Y0075000D03*
X0113630Y0074750D03*
X0113630Y0074500D03*
X0113630Y0074250D03*
X0113630Y0074000D03*
X0095380Y0089750D03*
X0095380Y0090000D03*
X0095130Y0090250D03*
X0087880Y0079500D03*
X0087880Y0079250D03*
X0087630Y0079000D03*
X0087630Y0078750D03*
X0087630Y0078500D03*
X0087630Y0078250D03*
X0087630Y0078000D03*
X0087630Y0077750D03*
X0087630Y0077500D03*
X0087630Y0077250D03*
X0087630Y0077000D03*
X0087630Y0076750D03*
X0087630Y0076500D03*
X0087630Y0076250D03*
X0087880Y0075750D03*
D22*
X0090125Y0074250D03*
X0093125Y0093250D03*
X0092875Y0093500D03*
X0090375Y0096500D03*
D23*
X0092005Y0094250D03*
X0082755Y0094750D03*
X0090755Y0106250D03*
X0092005Y0107000D03*
X0093755Y0108000D03*
X0107245Y0108000D03*
X0109005Y0107000D03*
X0110255Y0106250D03*
X0107245Y0082000D03*
X0090245Y0080750D03*
X0090245Y0074500D03*
D24*
X0090120Y0074750D03*
X0090120Y0080500D03*
X0103380Y0095250D03*
X0082380Y0095750D03*
D25*
X0097870Y0080250D03*
X0097870Y0080000D03*
X0107120Y0075250D03*
X0107120Y0075000D03*
X0107120Y0074750D03*
X0103380Y0094500D03*
D26*
X0092500Y0086750D03*
X0090000Y0075000D03*
D27*
X0088380Y0075250D03*
X0094880Y0090750D03*
X0094880Y0091000D03*
X0094630Y0091250D03*
X0087630Y0103250D03*
X0087630Y0103500D03*
X0107630Y0077750D03*
X0107380Y0077500D03*
X0107130Y0077250D03*
X0106880Y0077000D03*
X0106630Y0076750D03*
X0119130Y0092250D03*
X0113380Y0103250D03*
X0113380Y0103500D03*
D28*
X0121125Y0090750D03*
X0121375Y0090500D03*
X0121625Y0090250D03*
X0121875Y0090000D03*
X0121875Y0089750D03*
X0122125Y0089500D03*
X0122375Y0089000D03*
X0116125Y0086000D03*
X0115875Y0086250D03*
X0091625Y0075250D03*
D29*
X0088000Y0075500D03*
X0088250Y0079750D03*
X0100250Y0079500D03*
X0100500Y0079000D03*
X0108750Y0079000D03*
X0109000Y0079250D03*
X0109250Y0081000D03*
X0109000Y0081250D03*
X0100250Y0088750D03*
X0100500Y0112500D03*
D30*
X0078005Y0100250D03*
X0091995Y0075500D03*
X0117245Y0082750D03*
X0120255Y0083500D03*
X0123245Y0084500D03*
D31*
X0118625Y0092500D03*
X0105375Y0075500D03*
X0096125Y0079750D03*
X0082375Y0093750D03*
D32*
X0092120Y0075750D03*
D33*
X0105500Y0075750D03*
X0105750Y0076000D03*
X0105250Y0081250D03*
D34*
X0113755Y0083250D03*
X0120505Y0091250D03*
X0120255Y0091500D03*
X0087755Y0076000D03*
D35*
X0095875Y0079500D03*
X0105125Y0081000D03*
X0106375Y0076500D03*
X0106125Y0076250D03*
X0082125Y0094000D03*
X0080125Y0097750D03*
D36*
X0080375Y0097500D03*
X0103375Y0095750D03*
X0114875Y0086750D03*
X0108625Y0078750D03*
X0108375Y0078500D03*
X0108125Y0078250D03*
X0107875Y0078000D03*
D37*
X0117250Y0089250D03*
X0095750Y0079250D03*
D38*
X0091995Y0079500D03*
X0104995Y0080000D03*
X0113755Y0082750D03*
X0100505Y0112750D03*
D39*
X0091750Y0079750D03*
D40*
X0098880Y0081000D03*
X0099870Y0079750D03*
X0094380Y0091750D03*
X0094120Y0092000D03*
X0091880Y0095500D03*
X0088130Y0104250D03*
X0080630Y0097250D03*
X0112880Y0104250D03*
X0113130Y0104000D03*
X0113880Y0090750D03*
X0113130Y0089250D03*
D41*
X0113255Y0089500D03*
X0116755Y0089500D03*
X0107255Y0082750D03*
X0094505Y0091500D03*
X0088505Y0080000D03*
X0113255Y0103750D03*
D42*
X0100500Y0089500D03*
X0100500Y0089250D03*
X0091500Y0080000D03*
X0115500Y0086500D03*
D43*
X0114875Y0090000D03*
X0089875Y0080250D03*
X0083625Y0093250D03*
D44*
X0105000Y0080250D03*
D45*
X0098880Y0080500D03*
X0083130Y0093500D03*
X0079880Y0099750D03*
X0088880Y0105000D03*
D46*
X0105000Y0080500D03*
X0117250Y0084250D03*
X0123250Y0084750D03*
X0123250Y0085000D03*
X0123250Y0085250D03*
X0123250Y0085500D03*
X0123250Y0085750D03*
X0123250Y0086000D03*
X0123250Y0086250D03*
X0123250Y0086500D03*
X0123250Y0086750D03*
X0123250Y0087000D03*
D47*
X0098880Y0080750D03*
X0092130Y0095000D03*
X0090870Y0096250D03*
X0081130Y0097000D03*
D48*
X0095500Y0089500D03*
X0105000Y0080750D03*
X0117750Y0089000D03*
X0118000Y0088750D03*
D49*
X0114250Y0090500D03*
X0093250Y0093000D03*
X0090250Y0081000D03*
X0081250Y0096750D03*
D50*
X0087750Y0103750D03*
X0090250Y0081250D03*
D51*
X0095875Y0088750D03*
X0095625Y0089000D03*
X0095625Y0089250D03*
X0098875Y0081250D03*
X0118375Y0088500D03*
X0123125Y0087250D03*
D52*
X0115255Y0093500D03*
X0107245Y0081500D03*
X0098245Y0088250D03*
X0098245Y0088500D03*
D53*
X0107245Y0081750D03*
X0100495Y0111750D03*
D54*
X0100495Y0112000D03*
X0089255Y0105250D03*
X0098005Y0087250D03*
X0107245Y0082250D03*
D55*
X0107375Y0082500D03*
D56*
X0107505Y0083000D03*
X0113755Y0083000D03*
X0116745Y0085250D03*
X0116495Y0085750D03*
X0119255Y0087500D03*
X0119505Y0087000D03*
X0119755Y0086750D03*
X0119755Y0086500D03*
X0120005Y0086250D03*
X0120005Y0086000D03*
X0120005Y0085750D03*
X0120255Y0085250D03*
X0120255Y0085000D03*
X0120255Y0084750D03*
X0120255Y0084500D03*
X0120255Y0084250D03*
X0120255Y0084000D03*
X0120255Y0083750D03*
X0122995Y0087500D03*
X0122995Y0087750D03*
X0122745Y0088250D03*
X0122495Y0088750D03*
D57*
X0117375Y0084000D03*
X0117375Y0083750D03*
X0117375Y0083500D03*
X0117375Y0083250D03*
X0117375Y0083000D03*
D58*
X0113755Y0083750D03*
X0113505Y0091000D03*
X0113505Y0091250D03*
X0113505Y0091500D03*
X0113505Y0091750D03*
X0113505Y0092000D03*
X0113505Y0092250D03*
X0113505Y0092500D03*
X0113505Y0094000D03*
X0113505Y0094250D03*
X0113505Y0094500D03*
X0113505Y0094750D03*
X0113505Y0095000D03*
X0113505Y0095250D03*
X0113505Y0095500D03*
X0113505Y0095750D03*
X0113505Y0096000D03*
X0113505Y0096250D03*
X0113505Y0096500D03*
X0113505Y0096750D03*
X0113505Y0097000D03*
X0113505Y0097250D03*
X0113505Y0097500D03*
X0113505Y0097750D03*
X0113505Y0098000D03*
X0113505Y0098250D03*
X0113505Y0098500D03*
X0113505Y0098750D03*
X0113505Y0099000D03*
X0113505Y0099250D03*
X0113505Y0099500D03*
X0113505Y0099750D03*
X0113505Y0100000D03*
X0113505Y0100250D03*
X0113505Y0100500D03*
X0113505Y0100750D03*
X0113505Y0101000D03*
X0113505Y0101250D03*
X0113505Y0101500D03*
X0113505Y0101750D03*
X0113505Y0102000D03*
X0113505Y0102250D03*
X0113505Y0102500D03*
X0113505Y0102750D03*
X0113505Y0103000D03*
X0119505Y0092000D03*
X0106505Y0088750D03*
X0095005Y0090500D03*
X0087505Y0099250D03*
X0087505Y0099500D03*
X0087505Y0099750D03*
X0087505Y0100000D03*
X0087505Y0100250D03*
X0087505Y0100500D03*
X0087505Y0100750D03*
X0087505Y0101000D03*
X0087505Y0101250D03*
X0087505Y0101500D03*
X0087505Y0101750D03*
X0087505Y0102000D03*
X0087505Y0102250D03*
X0087505Y0102500D03*
X0087505Y0102750D03*
X0087505Y0103000D03*
D59*
X0113630Y0084500D03*
X0118630Y0088250D03*
X0118880Y0088000D03*
X0119130Y0087750D03*
X0119380Y0087250D03*
X0122620Y0088500D03*
X0122870Y0088000D03*
X0120880Y0091000D03*
D60*
X0120130Y0085500D03*
X0117120Y0084750D03*
X0117120Y0084500D03*
X0116870Y0085000D03*
X0116620Y0085500D03*
X0113630Y0084750D03*
D61*
X0091500Y0087000D03*
X0100500Y0111250D03*
D62*
X0088505Y0104750D03*
X0082495Y0094500D03*
X0093495Y0092750D03*
X0097755Y0087000D03*
D63*
X0088125Y0090000D03*
X0087875Y0090250D03*
X0111375Y0087000D03*
D64*
X0091125Y0087250D03*
D65*
X0089380Y0088750D03*
X0088630Y0089500D03*
X0088380Y0089750D03*
X0109880Y0088500D03*
X0110880Y0087250D03*
D66*
X0090750Y0087500D03*
X0100500Y0111000D03*
D67*
X0104630Y0109500D03*
X0106870Y0108250D03*
X0109380Y0106750D03*
X0109880Y0106500D03*
X0110630Y0106000D03*
X0111130Y0105750D03*
X0095130Y0108750D03*
X0091130Y0106500D03*
X0089870Y0105750D03*
X0089870Y0096750D03*
X0091880Y0094750D03*
X0098130Y0087500D03*
D68*
X0089755Y0088500D03*
X0087495Y0090500D03*
X0110505Y0087500D03*
D69*
X0090500Y0087750D03*
D70*
X0098125Y0087750D03*
X0082625Y0095500D03*
D71*
X0109880Y0087750D03*
D72*
X0090125Y0088000D03*
D73*
X0091750Y0094500D03*
X0098250Y0088000D03*
D74*
X0109755Y0088000D03*
X0087005Y0091000D03*
X0086755Y0091250D03*
D75*
X0089880Y0088250D03*
X0109880Y0088250D03*
D76*
X0112250Y0088750D03*
X0111750Y0105250D03*
X0111500Y0105500D03*
D77*
X0089125Y0089000D03*
X0088875Y0089250D03*
D78*
X0093745Y0092500D03*
X0093995Y0092250D03*
X0092005Y0095250D03*
X0091505Y0095750D03*
X0091255Y0096000D03*
X0088255Y0104500D03*
X0100505Y0112250D03*
X0113005Y0089000D03*
D79*
X0122250Y0089250D03*
D80*
X0114875Y0089750D03*
D81*
X0114625Y0090250D03*
X0108125Y0107500D03*
X0107625Y0107750D03*
X0096375Y0109500D03*
X0095875Y0109250D03*
X0093375Y0107750D03*
X0092875Y0107500D03*
X0090375Y0106000D03*
X0082125Y0096000D03*
X0092625Y0093750D03*
D82*
X0087250Y0090750D03*
X0100500Y0110750D03*
D83*
X0086375Y0091500D03*
D84*
X0086005Y0091750D03*
X0086505Y0097750D03*
D85*
X0085750Y0092000D03*
D86*
X0085380Y0092250D03*
X0103380Y0094000D03*
D87*
X0085000Y0092500D03*
D88*
X0084620Y0092750D03*
X0103380Y0094750D03*
D89*
X0116005Y0092750D03*
D90*
X0103380Y0095000D03*
X0088380Y0097250D03*
X0084130Y0093000D03*
D91*
X0103255Y0094250D03*
X0115755Y0093000D03*
D92*
X0114750Y0093750D03*
X0108500Y0107250D03*
X0095500Y0109000D03*
X0092500Y0107250D03*
X0089250Y0097000D03*
X0092250Y0094000D03*
D93*
X0082250Y0094250D03*
X0112750Y0104500D03*
D94*
X0082875Y0095250D03*
X0082875Y0095000D03*
D95*
X0081625Y0096500D03*
X0103375Y0095500D03*
X0112125Y0105000D03*
D96*
X0106375Y0108500D03*
X0105875Y0108750D03*
X0105125Y0109250D03*
X0104125Y0109750D03*
X0096875Y0109750D03*
X0094625Y0108500D03*
X0094125Y0108250D03*
X0091625Y0106750D03*
X0081875Y0096250D03*
D97*
X0087625Y0097500D03*
D98*
X0084375Y0098000D03*
D99*
X0083875Y0098250D03*
D100*
X0083630Y0098500D03*
D101*
X0083505Y0098750D03*
X0083505Y0099000D03*
D102*
X0081750Y0099250D03*
D103*
X0081125Y0099500D03*
D104*
X0077625Y0100500D03*
D105*
X0112500Y0104750D03*
D106*
X0089500Y0105500D03*
D107*
X0097250Y0110000D03*
X0103750Y0110000D03*
X0105500Y0109000D03*
D108*
X0100500Y0110250D03*
D109*
X0100500Y0110500D03*
D110*
X0100500Y0111500D03*
D111*
X0124261Y0067865D02*
X0124473Y0067177D01*
X0124472Y0067177D02*
X0124237Y0067101D01*
X0124003Y0067018D01*
X0123771Y0066930D01*
X0123542Y0066836D01*
X0123315Y0066736D01*
X0123091Y0066631D01*
X0122869Y0066521D01*
X0122650Y0066405D01*
X0122433Y0066283D01*
X0122220Y0066157D01*
X0122010Y0066025D01*
X0121803Y0065889D01*
X0121600Y0065747D01*
X0121400Y0065600D01*
X0121204Y0065449D01*
X0121012Y0065292D01*
X0120823Y0065131D01*
X0120639Y0064966D01*
X0120458Y0064796D01*
X0120282Y0064622D01*
X0120110Y0064443D01*
X0119943Y0064261D01*
X0119780Y0064074D01*
X0119621Y0063883D01*
X0119468Y0063689D01*
X0119319Y0063490D01*
X0119175Y0063289D01*
X0119036Y0063083D01*
X0118902Y0062875D01*
X0118773Y0062663D01*
X0118649Y0062448D01*
X0118531Y0062230D01*
X0118418Y0062010D01*
X0118311Y0061786D01*
X0118209Y0061561D01*
X0118112Y0061332D01*
X0118021Y0061102D01*
X0117936Y0060869D01*
X0117857Y0060634D01*
X0117783Y0060397D01*
X0117715Y0060159D01*
X0117653Y0059919D01*
X0117597Y0059678D01*
X0117546Y0059435D01*
X0117502Y0059191D01*
X0117464Y0058946D01*
X0117431Y0058700D01*
X0117405Y0058454D01*
X0117385Y0058207D01*
X0117370Y0057960D01*
X0117362Y0057712D01*
X0117360Y0057464D01*
X0117364Y0057216D01*
X0117374Y0056968D01*
X0117390Y0056721D01*
X0117412Y0056474D01*
X0117440Y0056228D01*
X0117474Y0055982D01*
X0117514Y0055738D01*
X0117560Y0055494D01*
X0117612Y0055252D01*
X0117670Y0055011D01*
X0117734Y0054771D01*
X0117804Y0054534D01*
X0117879Y0054297D01*
X0117960Y0054063D01*
X0118047Y0053831D01*
X0118140Y0053601D01*
X0118238Y0053373D01*
X0118341Y0053148D01*
X0118450Y0052926D01*
X0118565Y0052706D01*
X0118685Y0052489D01*
X0118810Y0052275D01*
X0118940Y0052064D01*
X0119076Y0051857D01*
X0119216Y0051652D01*
X0119361Y0051452D01*
X0119512Y0051254D01*
X0118947Y0050809D01*
X0118946Y0050809D01*
X0118785Y0051020D01*
X0118629Y0051235D01*
X0118479Y0051454D01*
X0118334Y0051676D01*
X0118194Y0051902D01*
X0118060Y0052131D01*
X0117932Y0052363D01*
X0117809Y0052599D01*
X0117692Y0052837D01*
X0117581Y0053079D01*
X0117476Y0053322D01*
X0117377Y0053569D01*
X0117283Y0053817D01*
X0117196Y0054068D01*
X0117116Y0054321D01*
X0117041Y0054576D01*
X0116973Y0054833D01*
X0116911Y0055091D01*
X0116855Y0055350D01*
X0116805Y0055611D01*
X0116763Y0055873D01*
X0116726Y0056136D01*
X0116696Y0056400D01*
X0116672Y0056665D01*
X0116655Y0056930D01*
X0116644Y0057195D01*
X0116640Y0057460D01*
X0116642Y0057726D01*
X0116651Y0057991D01*
X0116666Y0058257D01*
X0116688Y0058521D01*
X0116716Y0058785D01*
X0116751Y0059048D01*
X0116792Y0059311D01*
X0116840Y0059572D01*
X0116893Y0059832D01*
X0116954Y0060091D01*
X0117020Y0060348D01*
X0117093Y0060603D01*
X0117172Y0060857D01*
X0117257Y0061108D01*
X0117348Y0061358D01*
X0117446Y0061605D01*
X0117549Y0061849D01*
X0117658Y0062091D01*
X0117773Y0062330D01*
X0117894Y0062567D01*
X0118021Y0062800D01*
X0118154Y0063030D01*
X0118292Y0063257D01*
X0118435Y0063481D01*
X0118584Y0063700D01*
X0118738Y0063917D01*
X0118898Y0064129D01*
X0119062Y0064337D01*
X0119232Y0064541D01*
X0119407Y0064741D01*
X0119586Y0064937D01*
X0119770Y0065128D01*
X0119959Y0065315D01*
X0120153Y0065497D01*
X0120350Y0065674D01*
X0120552Y0065847D01*
X0120758Y0066014D01*
X0120969Y0066176D01*
X0121183Y0066334D01*
X0121401Y0066485D01*
X0121622Y0066632D01*
X0121847Y0066773D01*
X0122075Y0066908D01*
X0122307Y0067038D01*
X0122542Y0067162D01*
X0122780Y0067280D01*
X0123020Y0067393D01*
X0123263Y0067500D01*
X0123509Y0067600D01*
X0123757Y0067695D01*
X0124008Y0067783D01*
X0124260Y0067865D01*
X0124282Y0067794D01*
X0124031Y0067712D01*
X0123783Y0067624D01*
X0123536Y0067530D01*
X0123292Y0067430D01*
X0123051Y0067325D01*
X0122812Y0067213D01*
X0122576Y0067095D01*
X0122343Y0066972D01*
X0122113Y0066843D01*
X0121886Y0066709D01*
X0121662Y0066569D01*
X0121443Y0066423D01*
X0121226Y0066272D01*
X0121014Y0066116D01*
X0120805Y0065955D01*
X0120600Y0065789D01*
X0120400Y0065618D01*
X0120203Y0065442D01*
X0120011Y0065261D01*
X0119824Y0065076D01*
X0119641Y0064886D01*
X0119463Y0064691D01*
X0119289Y0064493D01*
X0119121Y0064290D01*
X0118957Y0064083D01*
X0118799Y0063872D01*
X0118646Y0063658D01*
X0118498Y0063439D01*
X0118355Y0063217D01*
X0118218Y0062992D01*
X0118087Y0062763D01*
X0117961Y0062532D01*
X0117841Y0062297D01*
X0117726Y0062059D01*
X0117618Y0061819D01*
X0117515Y0061576D01*
X0117418Y0061331D01*
X0117328Y0061083D01*
X0117243Y0060834D01*
X0117165Y0060582D01*
X0117092Y0060328D01*
X0117026Y0060073D01*
X0116967Y0059816D01*
X0116913Y0059558D01*
X0116866Y0059298D01*
X0116825Y0059038D01*
X0116791Y0058776D01*
X0116763Y0058514D01*
X0116741Y0058251D01*
X0116726Y0057988D01*
X0116717Y0057725D01*
X0116715Y0057461D01*
X0116719Y0057197D01*
X0116730Y0056934D01*
X0116747Y0056671D01*
X0116770Y0056408D01*
X0116800Y0056146D01*
X0116837Y0055885D01*
X0116879Y0055625D01*
X0116928Y0055365D01*
X0116984Y0055108D01*
X0117045Y0054851D01*
X0117113Y0054596D01*
X0117187Y0054343D01*
X0117268Y0054092D01*
X0117354Y0053843D01*
X0117446Y0053596D01*
X0117545Y0053351D01*
X0117649Y0053109D01*
X0117760Y0052870D01*
X0117876Y0052633D01*
X0117998Y0052399D01*
X0118125Y0052168D01*
X0118258Y0051941D01*
X0118397Y0051716D01*
X0118541Y0051496D01*
X0118690Y0051278D01*
X0118845Y0051065D01*
X0119005Y0050855D01*
X0119064Y0050902D01*
X0118905Y0051110D01*
X0118752Y0051322D01*
X0118603Y0051538D01*
X0118460Y0051757D01*
X0118322Y0051980D01*
X0118190Y0052206D01*
X0118063Y0052435D01*
X0117942Y0052667D01*
X0117827Y0052902D01*
X0117718Y0053140D01*
X0117614Y0053380D01*
X0117516Y0053623D01*
X0117424Y0053869D01*
X0117339Y0054116D01*
X0117259Y0054365D01*
X0117185Y0054617D01*
X0117118Y0054870D01*
X0117057Y0055124D01*
X0117002Y0055380D01*
X0116953Y0055638D01*
X0116911Y0055896D01*
X0116875Y0056155D01*
X0116845Y0056416D01*
X0116822Y0056676D01*
X0116805Y0056938D01*
X0116794Y0057199D01*
X0116790Y0057461D01*
X0116792Y0057723D01*
X0116801Y0057985D01*
X0116816Y0058246D01*
X0116837Y0058507D01*
X0116865Y0058768D01*
X0116899Y0059027D01*
X0116940Y0059286D01*
X0116987Y0059544D01*
X0117040Y0059800D01*
X0117099Y0060055D01*
X0117165Y0060308D01*
X0117237Y0060560D01*
X0117314Y0060810D01*
X0117398Y0061058D01*
X0117488Y0061304D01*
X0117584Y0061548D01*
X0117686Y0061789D01*
X0117794Y0062028D01*
X0117908Y0062264D01*
X0118027Y0062497D01*
X0118152Y0062727D01*
X0118283Y0062954D01*
X0118419Y0063178D01*
X0118560Y0063398D01*
X0118707Y0063615D01*
X0118859Y0063828D01*
X0119016Y0064037D01*
X0119179Y0064243D01*
X0119346Y0064444D01*
X0119518Y0064641D01*
X0119695Y0064834D01*
X0119877Y0065023D01*
X0120063Y0065207D01*
X0120254Y0065387D01*
X0120449Y0065561D01*
X0120648Y0065731D01*
X0120851Y0065896D01*
X0121059Y0066056D01*
X0121270Y0066211D01*
X0121484Y0066361D01*
X0121703Y0066505D01*
X0121925Y0066644D01*
X0122150Y0066778D01*
X0122378Y0066906D01*
X0122610Y0067028D01*
X0122844Y0067145D01*
X0123082Y0067256D01*
X0123321Y0067361D01*
X0123564Y0067460D01*
X0123808Y0067554D01*
X0124055Y0067641D01*
X0124304Y0067722D01*
X0124326Y0067650D01*
X0124079Y0067570D01*
X0123834Y0067483D01*
X0123591Y0067391D01*
X0123350Y0067292D01*
X0123112Y0067188D01*
X0122877Y0067078D01*
X0122644Y0066962D01*
X0122414Y0066840D01*
X0122187Y0066713D01*
X0121964Y0066580D01*
X0121743Y0066442D01*
X0121526Y0066299D01*
X0121313Y0066150D01*
X0121104Y0065996D01*
X0120898Y0065837D01*
X0120696Y0065674D01*
X0120498Y0065505D01*
X0120304Y0065331D01*
X0120115Y0065153D01*
X0119930Y0064970D01*
X0119750Y0064783D01*
X0119574Y0064591D01*
X0119403Y0064395D01*
X0119237Y0064195D01*
X0119076Y0063991D01*
X0118920Y0063783D01*
X0118769Y0063572D01*
X0118623Y0063356D01*
X0118482Y0063138D01*
X0118347Y0062916D01*
X0118217Y0062690D01*
X0118093Y0062462D01*
X0117975Y0062230D01*
X0117862Y0061996D01*
X0117755Y0061759D01*
X0117654Y0061519D01*
X0117559Y0061278D01*
X0117469Y0061033D01*
X0117386Y0060787D01*
X0117308Y0060539D01*
X0117237Y0060289D01*
X0117172Y0060037D01*
X0117113Y0059784D01*
X0117060Y0059529D01*
X0117014Y0059273D01*
X0116974Y0059017D01*
X0116940Y0058759D01*
X0116912Y0058500D01*
X0116891Y0058241D01*
X0116876Y0057981D01*
X0116867Y0057722D01*
X0116865Y0057462D01*
X0116869Y0057202D01*
X0116880Y0056942D01*
X0116896Y0056682D01*
X0116920Y0056423D01*
X0116949Y0056165D01*
X0116985Y0055907D01*
X0117027Y0055651D01*
X0117075Y0055395D01*
X0117130Y0055141D01*
X0117191Y0054888D01*
X0117258Y0054637D01*
X0117331Y0054388D01*
X0117410Y0054140D01*
X0117495Y0053894D01*
X0117586Y0053651D01*
X0117683Y0053409D01*
X0117786Y0053171D01*
X0117895Y0052935D01*
X0118009Y0052701D01*
X0118129Y0052470D01*
X0118255Y0052243D01*
X0118387Y0052018D01*
X0118523Y0051797D01*
X0118665Y0051580D01*
X0118813Y0051365D01*
X0118965Y0051155D01*
X0119123Y0050948D01*
X0119182Y0050994D01*
X0119025Y0051200D01*
X0118874Y0051409D01*
X0118727Y0051622D01*
X0118586Y0051838D01*
X0118451Y0052057D01*
X0118320Y0052280D01*
X0118195Y0052506D01*
X0118076Y0052735D01*
X0117962Y0052967D01*
X0117854Y0053201D01*
X0117752Y0053438D01*
X0117656Y0053678D01*
X0117565Y0053920D01*
X0117481Y0054164D01*
X0117402Y0054410D01*
X0117330Y0054657D01*
X0117263Y0054907D01*
X0117203Y0055158D01*
X0117149Y0055410D01*
X0117101Y0055664D01*
X0117059Y0055919D01*
X0117024Y0056175D01*
X0116994Y0056431D01*
X0116971Y0056688D01*
X0116955Y0056946D01*
X0116944Y0057204D01*
X0116940Y0057462D01*
X0116942Y0057720D01*
X0116951Y0057978D01*
X0116966Y0058236D01*
X0116987Y0058493D01*
X0117014Y0058750D01*
X0117048Y0059006D01*
X0117088Y0059261D01*
X0117134Y0059515D01*
X0117186Y0059768D01*
X0117245Y0060019D01*
X0117310Y0060269D01*
X0117380Y0060517D01*
X0117457Y0060764D01*
X0117540Y0061008D01*
X0117629Y0061251D01*
X0117723Y0061491D01*
X0117824Y0061729D01*
X0117930Y0061964D01*
X0118042Y0062197D01*
X0118160Y0062427D01*
X0118283Y0062654D01*
X0118412Y0062877D01*
X0118546Y0063098D01*
X0118685Y0063315D01*
X0118830Y0063529D01*
X0118980Y0063739D01*
X0119135Y0063945D01*
X0119295Y0064148D01*
X0119460Y0064347D01*
X0119630Y0064541D01*
X0119804Y0064731D01*
X0119984Y0064917D01*
X0120167Y0065099D01*
X0120355Y0065276D01*
X0120547Y0065448D01*
X0120744Y0065616D01*
X0120944Y0065779D01*
X0121148Y0065936D01*
X0121357Y0066089D01*
X0121568Y0066237D01*
X0121784Y0066379D01*
X0122003Y0066516D01*
X0122225Y0066648D01*
X0122450Y0066774D01*
X0122678Y0066895D01*
X0122909Y0067010D01*
X0123143Y0067119D01*
X0123379Y0067223D01*
X0123618Y0067321D01*
X0123860Y0067413D01*
X0124103Y0067499D01*
X0124348Y0067579D01*
X0124371Y0067507D01*
X0124127Y0067428D01*
X0123885Y0067342D01*
X0123646Y0067251D01*
X0123408Y0067154D01*
X0123174Y0067051D01*
X0122942Y0066942D01*
X0122712Y0066828D01*
X0122485Y0066708D01*
X0122262Y0066583D01*
X0122041Y0066452D01*
X0121824Y0066316D01*
X0121610Y0066175D01*
X0121400Y0066028D01*
X0121193Y0065876D01*
X0120991Y0065720D01*
X0120792Y0065558D01*
X0120597Y0065392D01*
X0120406Y0065221D01*
X0120219Y0065045D01*
X0120037Y0064865D01*
X0119859Y0064680D01*
X0119686Y0064491D01*
X0119517Y0064298D01*
X0119353Y0064101D01*
X0119195Y0063900D01*
X0119041Y0063695D01*
X0118892Y0063486D01*
X0118748Y0063274D01*
X0118609Y0063058D01*
X0118476Y0062839D01*
X0118348Y0062617D01*
X0118226Y0062392D01*
X0118109Y0062163D01*
X0117998Y0061932D01*
X0117892Y0061699D01*
X0117793Y0061463D01*
X0117699Y0061224D01*
X0117611Y0060984D01*
X0117528Y0060741D01*
X0117452Y0060496D01*
X0117382Y0060250D01*
X0117318Y0060001D01*
X0117260Y0059752D01*
X0117208Y0059501D01*
X0117162Y0059248D01*
X0117122Y0058995D01*
X0117089Y0058741D01*
X0117061Y0058486D01*
X0117040Y0058231D01*
X0117026Y0057975D01*
X0117017Y0057719D01*
X0117015Y0057462D01*
X0117019Y0057206D01*
X0117029Y0056950D01*
X0117046Y0056694D01*
X0117069Y0056439D01*
X0117098Y0056184D01*
X0117133Y0055930D01*
X0117175Y0055677D01*
X0117222Y0055425D01*
X0117276Y0055175D01*
X0117336Y0054925D01*
X0117402Y0054678D01*
X0117474Y0054432D01*
X0117552Y0054188D01*
X0117636Y0053945D01*
X0117726Y0053705D01*
X0117821Y0053468D01*
X0117923Y0053232D01*
X0118030Y0052999D01*
X0118143Y0052769D01*
X0118261Y0052542D01*
X0118385Y0052317D01*
X0118515Y0052096D01*
X0118650Y0051878D01*
X0118790Y0051663D01*
X0118935Y0051452D01*
X0119085Y0051245D01*
X0119241Y0051041D01*
X0119300Y0051087D01*
X0119145Y0051290D01*
X0118996Y0051496D01*
X0118852Y0051705D01*
X0118713Y0051919D01*
X0118579Y0052135D01*
X0118450Y0052355D01*
X0118327Y0052577D01*
X0118210Y0052803D01*
X0118098Y0053032D01*
X0117991Y0053263D01*
X0117891Y0053497D01*
X0117796Y0053733D01*
X0117706Y0053971D01*
X0117623Y0054211D01*
X0117546Y0054454D01*
X0117474Y0054698D01*
X0117409Y0054944D01*
X0117349Y0055192D01*
X0117296Y0055440D01*
X0117248Y0055690D01*
X0117207Y0055942D01*
X0117172Y0056194D01*
X0117143Y0056446D01*
X0117121Y0056700D01*
X0117104Y0056954D01*
X0117094Y0057208D01*
X0117090Y0057463D01*
X0117092Y0057717D01*
X0117101Y0057971D01*
X0117115Y0058226D01*
X0117136Y0058479D01*
X0117163Y0058732D01*
X0117196Y0058985D01*
X0117236Y0059236D01*
X0117281Y0059486D01*
X0117333Y0059736D01*
X0117391Y0059983D01*
X0117454Y0060230D01*
X0117524Y0060475D01*
X0117600Y0060718D01*
X0117681Y0060959D01*
X0117769Y0061198D01*
X0117862Y0061434D01*
X0117961Y0061669D01*
X0118066Y0061901D01*
X0118176Y0062130D01*
X0118292Y0062357D01*
X0118414Y0062580D01*
X0118541Y0062801D01*
X0118673Y0063018D01*
X0118810Y0063232D01*
X0118953Y0063443D01*
X0119101Y0063650D01*
X0119254Y0063854D01*
X0119412Y0064053D01*
X0119574Y0064249D01*
X0119742Y0064441D01*
X0119914Y0064628D01*
X0120090Y0064812D01*
X0120271Y0064991D01*
X0120456Y0065165D01*
X0120646Y0065335D01*
X0120839Y0065500D01*
X0121037Y0065661D01*
X0121238Y0065816D01*
X0121444Y0065967D01*
X0121652Y0066112D01*
X0121865Y0066253D01*
X0122080Y0066388D01*
X0122299Y0066518D01*
X0122521Y0066642D01*
X0122746Y0066761D01*
X0122974Y0066875D01*
X0123204Y0066982D01*
X0123438Y0067085D01*
X0123673Y0067181D01*
X0123911Y0067272D01*
X0124151Y0067357D01*
X0124393Y0067435D01*
X0124415Y0067364D01*
X0124175Y0067285D01*
X0123936Y0067201D01*
X0123700Y0067111D01*
X0123467Y0067015D01*
X0123235Y0066914D01*
X0123006Y0066807D01*
X0122780Y0066694D01*
X0122557Y0066576D01*
X0122336Y0066453D01*
X0122119Y0066324D01*
X0121905Y0066190D01*
X0121694Y0066050D01*
X0121487Y0065906D01*
X0121283Y0065756D01*
X0121083Y0065602D01*
X0120887Y0065443D01*
X0120695Y0065279D01*
X0120507Y0065110D01*
X0120323Y0064937D01*
X0120143Y0064759D01*
X0119968Y0064577D01*
X0119797Y0064391D01*
X0119631Y0064200D01*
X0119470Y0064006D01*
X0119313Y0063808D01*
X0119161Y0063606D01*
X0119015Y0063400D01*
X0118873Y0063191D01*
X0118736Y0062978D01*
X0118605Y0062763D01*
X0118479Y0062544D01*
X0118359Y0062322D01*
X0118243Y0062097D01*
X0118134Y0061869D01*
X0118030Y0061639D01*
X0117932Y0061406D01*
X0117839Y0061171D01*
X0117752Y0060934D01*
X0117671Y0060694D01*
X0117596Y0060453D01*
X0117527Y0060210D01*
X0117463Y0059966D01*
X0117406Y0059720D01*
X0117355Y0059472D01*
X0117310Y0059224D01*
X0117271Y0058974D01*
X0117238Y0058723D01*
X0117211Y0058472D01*
X0117190Y0058220D01*
X0117176Y0057968D01*
X0117167Y0057716D01*
X0117165Y0057463D01*
X0117169Y0057210D01*
X0117179Y0056958D01*
X0117196Y0056706D01*
X0117218Y0056454D01*
X0117247Y0056203D01*
X0117281Y0055953D01*
X0117322Y0055704D01*
X0117369Y0055455D01*
X0117422Y0055208D01*
X0117481Y0054963D01*
X0117546Y0054718D01*
X0117617Y0054476D01*
X0117694Y0054235D01*
X0117777Y0053997D01*
X0117865Y0053760D01*
X0117960Y0053526D01*
X0118060Y0053294D01*
X0118165Y0053064D01*
X0118277Y0052837D01*
X0118393Y0052613D01*
X0118516Y0052392D01*
X0118643Y0052174D01*
X0118776Y0051959D01*
X0118914Y0051747D01*
X0119057Y0051539D01*
X0119205Y0051335D01*
X0119359Y0051134D01*
X0119417Y0051180D01*
X0119265Y0051380D01*
X0119118Y0051583D01*
X0118976Y0051789D01*
X0118839Y0051999D01*
X0118707Y0052213D01*
X0118581Y0052429D01*
X0118459Y0052649D01*
X0118343Y0052871D01*
X0118233Y0053096D01*
X0118128Y0053324D01*
X0118029Y0053555D01*
X0117935Y0053787D01*
X0117847Y0054022D01*
X0117765Y0054259D01*
X0117689Y0054498D01*
X0117619Y0054739D01*
X0117554Y0054981D01*
X0117495Y0055225D01*
X0117443Y0055470D01*
X0117396Y0055717D01*
X0117356Y0055964D01*
X0117321Y0056213D01*
X0117293Y0056462D01*
X0117270Y0056712D01*
X0117254Y0056962D01*
X0117244Y0057213D01*
X0117240Y0057463D01*
X0117242Y0057714D01*
X0117251Y0057965D01*
X0117265Y0058215D01*
X0117286Y0058465D01*
X0117312Y0058715D01*
X0117345Y0058963D01*
X0117384Y0059211D01*
X0117429Y0059458D01*
X0117479Y0059703D01*
X0117536Y0059948D01*
X0117599Y0060191D01*
X0117668Y0060432D01*
X0117742Y0060671D01*
X0117823Y0060909D01*
X0117909Y0061144D01*
X0118001Y0061378D01*
X0118099Y0061609D01*
X0118202Y0061837D01*
X0118311Y0062063D01*
X0118425Y0062287D01*
X0118545Y0062507D01*
X0118670Y0062724D01*
X0118800Y0062939D01*
X0118936Y0063150D01*
X0119076Y0063357D01*
X0119222Y0063561D01*
X0119373Y0063762D01*
X0119528Y0063959D01*
X0119688Y0064152D01*
X0119853Y0064341D01*
X0120023Y0064526D01*
X0120197Y0064706D01*
X0120375Y0064883D01*
X0120558Y0065055D01*
X0120744Y0065222D01*
X0120935Y0065385D01*
X0121130Y0065543D01*
X0121328Y0065696D01*
X0121531Y0065845D01*
X0121736Y0065988D01*
X0121945Y0066126D01*
X0122158Y0066260D01*
X0122374Y0066388D01*
X0122592Y0066510D01*
X0122814Y0066627D01*
X0123039Y0066739D01*
X0123266Y0066846D01*
X0123496Y0066946D01*
X0123728Y0067041D01*
X0123962Y0067131D01*
X0124199Y0067214D01*
X0124437Y0067292D01*
X0124459Y0067220D01*
X0124222Y0067143D01*
X0123988Y0067060D01*
X0123755Y0066971D01*
X0123525Y0066877D01*
X0123297Y0066777D01*
X0123071Y0066672D01*
X0122848Y0066561D01*
X0122628Y0066444D01*
X0122411Y0066322D01*
X0122197Y0066195D01*
X0121986Y0066063D01*
X0121778Y0065926D01*
X0121574Y0065784D01*
X0121373Y0065636D01*
X0121176Y0065484D01*
X0120983Y0065327D01*
X0120794Y0065165D01*
X0120608Y0064999D01*
X0120427Y0064829D01*
X0120250Y0064653D01*
X0120077Y0064474D01*
X0119909Y0064291D01*
X0119745Y0064103D01*
X0119586Y0063911D01*
X0119432Y0063716D01*
X0119282Y0063517D01*
X0119138Y0063314D01*
X0118998Y0063108D01*
X0118864Y0062899D01*
X0118734Y0062686D01*
X0118610Y0062470D01*
X0118491Y0062251D01*
X0118378Y0062030D01*
X0118270Y0061806D01*
X0118167Y0061579D01*
X0118070Y0061349D01*
X0117979Y0061118D01*
X0117894Y0060884D01*
X0117814Y0060648D01*
X0117740Y0060410D01*
X0117671Y0060171D01*
X0117609Y0059930D01*
X0117553Y0059687D01*
X0117502Y0059444D01*
X0117458Y0059199D01*
X0117419Y0058953D01*
X0117387Y0058706D01*
X0117360Y0058458D01*
X0117340Y0058210D01*
X0117325Y0057962D01*
X0117317Y0057713D01*
X0117315Y0057464D01*
X0117319Y0057215D01*
X0117329Y0056966D01*
X0117345Y0056718D01*
X0117367Y0056470D01*
X0117395Y0056222D01*
X0117430Y0055976D01*
X0117470Y0055730D01*
X0117516Y0055485D01*
X0117568Y0055242D01*
X0117627Y0055000D01*
X0117691Y0054759D01*
X0117761Y0054520D01*
X0117836Y0054283D01*
X0117918Y0054048D01*
X0118005Y0053815D01*
X0118098Y0053584D01*
X0118197Y0053355D01*
X0118301Y0053129D01*
X0118410Y0052905D01*
X0118525Y0052685D01*
X0118646Y0052467D01*
X0118771Y0052252D01*
X0118902Y0052040D01*
X0119038Y0051831D01*
X0119179Y0051626D01*
X0119325Y0051425D01*
X0119476Y0051227D01*
X0136053Y0050809D02*
X0135488Y0051255D01*
X0135488Y0051254D02*
X0135638Y0051451D01*
X0135784Y0051652D01*
X0135924Y0051856D01*
X0136060Y0052064D01*
X0136190Y0052275D01*
X0136315Y0052489D01*
X0136435Y0052706D01*
X0136550Y0052926D01*
X0136659Y0053148D01*
X0136762Y0053373D01*
X0136860Y0053601D01*
X0136953Y0053831D01*
X0137040Y0054063D01*
X0137121Y0054297D01*
X0137196Y0054533D01*
X0137266Y0054771D01*
X0137330Y0055011D01*
X0137388Y0055252D01*
X0137440Y0055494D01*
X0137486Y0055738D01*
X0137526Y0055982D01*
X0137560Y0056228D01*
X0137588Y0056474D01*
X0137610Y0056721D01*
X0137626Y0056968D01*
X0137636Y0057216D01*
X0137640Y0057464D01*
X0137638Y0057712D01*
X0137630Y0057959D01*
X0137615Y0058207D01*
X0137595Y0058454D01*
X0137569Y0058700D01*
X0137536Y0058946D01*
X0137498Y0059191D01*
X0137454Y0059435D01*
X0137403Y0059678D01*
X0137347Y0059919D01*
X0137285Y0060159D01*
X0137217Y0060397D01*
X0137144Y0060634D01*
X0137064Y0060869D01*
X0136979Y0061102D01*
X0136888Y0061332D01*
X0136792Y0061560D01*
X0136689Y0061786D01*
X0136582Y0062010D01*
X0136469Y0062230D01*
X0136351Y0062448D01*
X0136227Y0062663D01*
X0136098Y0062875D01*
X0135964Y0063083D01*
X0135825Y0063289D01*
X0135681Y0063490D01*
X0135533Y0063688D01*
X0135379Y0063883D01*
X0135221Y0064074D01*
X0135058Y0064260D01*
X0134890Y0064443D01*
X0134718Y0064622D01*
X0134542Y0064796D01*
X0134361Y0064966D01*
X0134177Y0065131D01*
X0133988Y0065292D01*
X0133796Y0065449D01*
X0133600Y0065600D01*
X0133400Y0065747D01*
X0133197Y0065889D01*
X0132990Y0066025D01*
X0132780Y0066157D01*
X0132567Y0066283D01*
X0132351Y0066405D01*
X0132131Y0066520D01*
X0131910Y0066631D01*
X0131685Y0066736D01*
X0131458Y0066836D01*
X0131229Y0066930D01*
X0130997Y0067018D01*
X0130763Y0067101D01*
X0130528Y0067177D01*
X0130740Y0067865D01*
X0130993Y0067783D01*
X0131243Y0067695D01*
X0131491Y0067600D01*
X0131737Y0067499D01*
X0131980Y0067393D01*
X0132221Y0067280D01*
X0132458Y0067162D01*
X0132693Y0067038D01*
X0132925Y0066908D01*
X0133153Y0066773D01*
X0133378Y0066632D01*
X0133600Y0066485D01*
X0133817Y0066333D01*
X0134031Y0066176D01*
X0134242Y0066014D01*
X0134448Y0065847D01*
X0134650Y0065674D01*
X0134848Y0065497D01*
X0135041Y0065315D01*
X0135230Y0065128D01*
X0135414Y0064937D01*
X0135593Y0064741D01*
X0135768Y0064541D01*
X0135938Y0064337D01*
X0136102Y0064129D01*
X0136262Y0063916D01*
X0136416Y0063700D01*
X0136565Y0063480D01*
X0136708Y0063257D01*
X0136846Y0063030D01*
X0136979Y0062800D01*
X0137106Y0062567D01*
X0137227Y0062330D01*
X0137342Y0062091D01*
X0137451Y0061849D01*
X0137555Y0061604D01*
X0137652Y0061357D01*
X0137743Y0061108D01*
X0137828Y0060857D01*
X0137907Y0060603D01*
X0137980Y0060348D01*
X0138046Y0060091D01*
X0138107Y0059832D01*
X0138161Y0059572D01*
X0138208Y0059311D01*
X0138249Y0059048D01*
X0138284Y0058785D01*
X0138312Y0058521D01*
X0138334Y0058256D01*
X0138349Y0057991D01*
X0138358Y0057726D01*
X0138360Y0057460D01*
X0138356Y0057195D01*
X0138345Y0056929D01*
X0138328Y0056665D01*
X0138304Y0056400D01*
X0138274Y0056136D01*
X0138237Y0055873D01*
X0138194Y0055611D01*
X0138145Y0055350D01*
X0138089Y0055091D01*
X0138027Y0054832D01*
X0137959Y0054576D01*
X0137884Y0054321D01*
X0137803Y0054068D01*
X0137716Y0053817D01*
X0137623Y0053569D01*
X0137524Y0053322D01*
X0137419Y0053078D01*
X0137308Y0052837D01*
X0137191Y0052599D01*
X0137068Y0052363D01*
X0136940Y0052131D01*
X0136806Y0051902D01*
X0136666Y0051676D01*
X0136521Y0051453D01*
X0136370Y0051235D01*
X0136215Y0051020D01*
X0136054Y0050809D01*
X0135995Y0050855D01*
X0136155Y0051065D01*
X0136309Y0051278D01*
X0136459Y0051495D01*
X0136603Y0051716D01*
X0136742Y0051941D01*
X0136875Y0052168D01*
X0137002Y0052399D01*
X0137124Y0052633D01*
X0137240Y0052870D01*
X0137351Y0053109D01*
X0137455Y0053351D01*
X0137554Y0053596D01*
X0137646Y0053843D01*
X0137732Y0054092D01*
X0137813Y0054343D01*
X0137887Y0054596D01*
X0137955Y0054851D01*
X0138016Y0055107D01*
X0138072Y0055365D01*
X0138121Y0055624D01*
X0138163Y0055885D01*
X0138200Y0056146D01*
X0138230Y0056408D01*
X0138253Y0056670D01*
X0138270Y0056934D01*
X0138281Y0057197D01*
X0138285Y0057461D01*
X0138283Y0057724D01*
X0138274Y0057988D01*
X0138259Y0058251D01*
X0138237Y0058514D01*
X0138209Y0058776D01*
X0138175Y0059038D01*
X0138134Y0059298D01*
X0138087Y0059558D01*
X0138033Y0059816D01*
X0137974Y0060073D01*
X0137908Y0060328D01*
X0137835Y0060582D01*
X0137757Y0060833D01*
X0137672Y0061083D01*
X0137582Y0061331D01*
X0137485Y0061576D01*
X0137382Y0061819D01*
X0137274Y0062059D01*
X0137159Y0062297D01*
X0137039Y0062532D01*
X0136913Y0062763D01*
X0136782Y0062992D01*
X0136645Y0063217D01*
X0136502Y0063439D01*
X0136355Y0063657D01*
X0136201Y0063872D01*
X0136043Y0064083D01*
X0135879Y0064290D01*
X0135711Y0064493D01*
X0135538Y0064691D01*
X0135359Y0064886D01*
X0135176Y0065076D01*
X0134989Y0065261D01*
X0134797Y0065442D01*
X0134601Y0065618D01*
X0134400Y0065789D01*
X0134195Y0065955D01*
X0133987Y0066116D01*
X0133774Y0066272D01*
X0133558Y0066423D01*
X0133338Y0066569D01*
X0133114Y0066709D01*
X0132887Y0066843D01*
X0132657Y0066972D01*
X0132424Y0067095D01*
X0132188Y0067213D01*
X0131949Y0067324D01*
X0131708Y0067430D01*
X0131464Y0067530D01*
X0131217Y0067624D01*
X0130969Y0067712D01*
X0130718Y0067794D01*
X0130696Y0067722D01*
X0130945Y0067641D01*
X0131192Y0067554D01*
X0131436Y0067460D01*
X0131679Y0067361D01*
X0131919Y0067256D01*
X0132156Y0067145D01*
X0132390Y0067028D01*
X0132622Y0066906D01*
X0132850Y0066778D01*
X0133075Y0066644D01*
X0133297Y0066505D01*
X0133516Y0066361D01*
X0133730Y0066211D01*
X0133942Y0066056D01*
X0134149Y0065896D01*
X0134352Y0065731D01*
X0134551Y0065561D01*
X0134746Y0065386D01*
X0134937Y0065207D01*
X0135123Y0065023D01*
X0135305Y0064834D01*
X0135482Y0064641D01*
X0135654Y0064444D01*
X0135821Y0064242D01*
X0135984Y0064037D01*
X0136141Y0063828D01*
X0136293Y0063615D01*
X0136440Y0063398D01*
X0136581Y0063177D01*
X0136717Y0062954D01*
X0136848Y0062727D01*
X0136973Y0062497D01*
X0137092Y0062264D01*
X0137206Y0062028D01*
X0137314Y0061789D01*
X0137416Y0061548D01*
X0137512Y0061304D01*
X0137602Y0061058D01*
X0137686Y0060810D01*
X0137764Y0060560D01*
X0137835Y0060308D01*
X0137901Y0060055D01*
X0137960Y0059800D01*
X0138013Y0059543D01*
X0138060Y0059286D01*
X0138101Y0059027D01*
X0138135Y0058767D01*
X0138163Y0058507D01*
X0138184Y0058246D01*
X0138199Y0057985D01*
X0138208Y0057723D01*
X0138210Y0057461D01*
X0138206Y0057199D01*
X0138195Y0056938D01*
X0138178Y0056676D01*
X0138155Y0056415D01*
X0138125Y0056155D01*
X0138089Y0055896D01*
X0138047Y0055638D01*
X0137998Y0055380D01*
X0137943Y0055124D01*
X0137882Y0054870D01*
X0137815Y0054617D01*
X0137741Y0054365D01*
X0137661Y0054116D01*
X0137575Y0053868D01*
X0137484Y0053623D01*
X0137386Y0053380D01*
X0137282Y0053140D01*
X0137173Y0052902D01*
X0137057Y0052667D01*
X0136936Y0052435D01*
X0136810Y0052205D01*
X0136678Y0051979D01*
X0136540Y0051757D01*
X0136397Y0051537D01*
X0136248Y0051322D01*
X0136095Y0051110D01*
X0135936Y0050901D01*
X0135877Y0050948D01*
X0136035Y0051155D01*
X0136187Y0051365D01*
X0136335Y0051579D01*
X0136477Y0051797D01*
X0136613Y0052018D01*
X0136745Y0052243D01*
X0136870Y0052470D01*
X0136991Y0052701D01*
X0137105Y0052934D01*
X0137214Y0053171D01*
X0137317Y0053409D01*
X0137414Y0053650D01*
X0137505Y0053894D01*
X0137590Y0054140D01*
X0137669Y0054387D01*
X0137742Y0054637D01*
X0137809Y0054888D01*
X0137870Y0055141D01*
X0137925Y0055395D01*
X0137973Y0055651D01*
X0138015Y0055907D01*
X0138051Y0056165D01*
X0138080Y0056423D01*
X0138104Y0056682D01*
X0138120Y0056942D01*
X0138131Y0057201D01*
X0138135Y0057461D01*
X0138133Y0057721D01*
X0138124Y0057981D01*
X0138109Y0058241D01*
X0138088Y0058500D01*
X0138060Y0058759D01*
X0138026Y0059016D01*
X0137986Y0059273D01*
X0137940Y0059529D01*
X0137887Y0059784D01*
X0137828Y0060037D01*
X0137763Y0060289D01*
X0137692Y0060539D01*
X0137614Y0060787D01*
X0137531Y0061033D01*
X0137442Y0061277D01*
X0137346Y0061519D01*
X0137245Y0061759D01*
X0137138Y0061996D01*
X0137025Y0062230D01*
X0136907Y0062462D01*
X0136783Y0062690D01*
X0136653Y0062915D01*
X0136518Y0063138D01*
X0136377Y0063356D01*
X0136231Y0063572D01*
X0136080Y0063783D01*
X0135924Y0063991D01*
X0135763Y0064195D01*
X0135597Y0064395D01*
X0135426Y0064591D01*
X0135250Y0064783D01*
X0135070Y0064970D01*
X0134885Y0065153D01*
X0134696Y0065331D01*
X0134502Y0065505D01*
X0134304Y0065673D01*
X0134102Y0065837D01*
X0133897Y0065996D01*
X0133687Y0066150D01*
X0133474Y0066299D01*
X0133257Y0066442D01*
X0133036Y0066580D01*
X0132813Y0066713D01*
X0132586Y0066840D01*
X0132356Y0066962D01*
X0132123Y0067077D01*
X0131888Y0067188D01*
X0131650Y0067292D01*
X0131409Y0067391D01*
X0131166Y0067483D01*
X0130921Y0067570D01*
X0130674Y0067650D01*
X0130652Y0067579D01*
X0130897Y0067499D01*
X0131140Y0067413D01*
X0131382Y0067321D01*
X0131621Y0067223D01*
X0131857Y0067119D01*
X0132091Y0067010D01*
X0132322Y0066895D01*
X0132550Y0066774D01*
X0132776Y0066648D01*
X0132998Y0066516D01*
X0133216Y0066379D01*
X0133432Y0066237D01*
X0133643Y0066089D01*
X0133852Y0065936D01*
X0134056Y0065778D01*
X0134256Y0065616D01*
X0134453Y0065448D01*
X0134645Y0065276D01*
X0134833Y0065099D01*
X0135017Y0064917D01*
X0135196Y0064731D01*
X0135370Y0064541D01*
X0135540Y0064346D01*
X0135705Y0064148D01*
X0135865Y0063945D01*
X0136020Y0063739D01*
X0136170Y0063529D01*
X0136315Y0063315D01*
X0136454Y0063098D01*
X0136588Y0062877D01*
X0136717Y0062653D01*
X0136840Y0062427D01*
X0136958Y0062197D01*
X0137070Y0061964D01*
X0137176Y0061729D01*
X0137277Y0061491D01*
X0137371Y0061251D01*
X0137460Y0061008D01*
X0137543Y0060764D01*
X0137620Y0060517D01*
X0137690Y0060269D01*
X0137755Y0060019D01*
X0137814Y0059768D01*
X0137866Y0059515D01*
X0137912Y0059261D01*
X0137952Y0059006D01*
X0137986Y0058750D01*
X0138013Y0058493D01*
X0138034Y0058236D01*
X0138049Y0057978D01*
X0138058Y0057720D01*
X0138060Y0057462D01*
X0138056Y0057204D01*
X0138045Y0056946D01*
X0138029Y0056688D01*
X0138006Y0056431D01*
X0137976Y0056174D01*
X0137941Y0055919D01*
X0137899Y0055664D01*
X0137851Y0055410D01*
X0137797Y0055158D01*
X0137737Y0054907D01*
X0137670Y0054657D01*
X0137598Y0054409D01*
X0137519Y0054164D01*
X0137435Y0053920D01*
X0137344Y0053678D01*
X0137248Y0053438D01*
X0137145Y0053201D01*
X0137037Y0052967D01*
X0136924Y0052735D01*
X0136804Y0052506D01*
X0136680Y0052280D01*
X0136549Y0052057D01*
X0136413Y0051838D01*
X0136272Y0051621D01*
X0136126Y0051409D01*
X0135975Y0051200D01*
X0135818Y0050994D01*
X0135759Y0051041D01*
X0135915Y0051245D01*
X0136065Y0051452D01*
X0136210Y0051663D01*
X0136350Y0051878D01*
X0136485Y0052096D01*
X0136615Y0052317D01*
X0136738Y0052542D01*
X0136857Y0052769D01*
X0136970Y0052999D01*
X0137077Y0053232D01*
X0137178Y0053467D01*
X0137274Y0053705D01*
X0137364Y0053945D01*
X0137448Y0054187D01*
X0137526Y0054432D01*
X0137598Y0054678D01*
X0137664Y0054925D01*
X0137724Y0055175D01*
X0137778Y0055425D01*
X0137825Y0055677D01*
X0137867Y0055930D01*
X0137902Y0056184D01*
X0137931Y0056439D01*
X0137954Y0056694D01*
X0137971Y0056950D01*
X0137981Y0057206D01*
X0137985Y0057462D01*
X0137983Y0057718D01*
X0137974Y0057975D01*
X0137960Y0058231D01*
X0137939Y0058486D01*
X0137911Y0058741D01*
X0137878Y0058995D01*
X0137838Y0059248D01*
X0137792Y0059501D01*
X0137740Y0059752D01*
X0137682Y0060001D01*
X0137618Y0060249D01*
X0137548Y0060496D01*
X0137472Y0060741D01*
X0137389Y0060983D01*
X0137301Y0061224D01*
X0137207Y0061463D01*
X0137108Y0061699D01*
X0137002Y0061932D01*
X0136891Y0062163D01*
X0136774Y0062391D01*
X0136652Y0062617D01*
X0136524Y0062839D01*
X0136391Y0063058D01*
X0136252Y0063274D01*
X0136108Y0063486D01*
X0135960Y0063695D01*
X0135806Y0063899D01*
X0135647Y0064101D01*
X0135483Y0064298D01*
X0135314Y0064491D01*
X0135141Y0064680D01*
X0134963Y0064864D01*
X0134781Y0065045D01*
X0134594Y0065220D01*
X0134404Y0065392D01*
X0134209Y0065558D01*
X0134010Y0065720D01*
X0133807Y0065876D01*
X0133600Y0066028D01*
X0133390Y0066174D01*
X0133176Y0066316D01*
X0132959Y0066452D01*
X0132738Y0066583D01*
X0132515Y0066708D01*
X0132288Y0066828D01*
X0132059Y0066942D01*
X0131826Y0067051D01*
X0131592Y0067154D01*
X0131354Y0067251D01*
X0131115Y0067342D01*
X0130873Y0067428D01*
X0130629Y0067507D01*
X0130607Y0067435D01*
X0130849Y0067356D01*
X0131089Y0067272D01*
X0131327Y0067181D01*
X0131563Y0067085D01*
X0131796Y0066982D01*
X0132026Y0066875D01*
X0132254Y0066761D01*
X0132479Y0066642D01*
X0132701Y0066518D01*
X0132920Y0066388D01*
X0133135Y0066253D01*
X0133348Y0066112D01*
X0133557Y0065967D01*
X0133762Y0065816D01*
X0133963Y0065661D01*
X0134161Y0065500D01*
X0134354Y0065335D01*
X0134544Y0065165D01*
X0134729Y0064991D01*
X0134910Y0064812D01*
X0135086Y0064628D01*
X0135258Y0064441D01*
X0135426Y0064249D01*
X0135588Y0064053D01*
X0135746Y0063854D01*
X0135899Y0063650D01*
X0136047Y0063443D01*
X0136190Y0063232D01*
X0136327Y0063018D01*
X0136459Y0062801D01*
X0136586Y0062580D01*
X0136708Y0062356D01*
X0136824Y0062130D01*
X0136934Y0061901D01*
X0137039Y0061669D01*
X0137138Y0061434D01*
X0137231Y0061197D01*
X0137319Y0060958D01*
X0137400Y0060717D01*
X0137476Y0060474D01*
X0137546Y0060230D01*
X0137609Y0059983D01*
X0137667Y0059735D01*
X0137719Y0059486D01*
X0137764Y0059236D01*
X0137804Y0058984D01*
X0137837Y0058732D01*
X0137864Y0058479D01*
X0137885Y0058225D01*
X0137899Y0057971D01*
X0137908Y0057717D01*
X0137910Y0057462D01*
X0137906Y0057208D01*
X0137896Y0056954D01*
X0137879Y0056700D01*
X0137857Y0056446D01*
X0137828Y0056193D01*
X0137793Y0055941D01*
X0137751Y0055690D01*
X0137704Y0055440D01*
X0137651Y0055191D01*
X0137591Y0054944D01*
X0137526Y0054698D01*
X0137454Y0054454D01*
X0137377Y0054211D01*
X0137294Y0053971D01*
X0137204Y0053732D01*
X0137109Y0053496D01*
X0137009Y0053263D01*
X0136902Y0053032D01*
X0136790Y0052803D01*
X0136673Y0052577D01*
X0136549Y0052355D01*
X0136421Y0052135D01*
X0136287Y0051918D01*
X0136148Y0051705D01*
X0136004Y0051496D01*
X0135855Y0051290D01*
X0135700Y0051087D01*
X0135641Y0051134D01*
X0135794Y0051334D01*
X0135943Y0051539D01*
X0136086Y0051747D01*
X0136224Y0051959D01*
X0136357Y0052174D01*
X0136484Y0052392D01*
X0136607Y0052613D01*
X0136723Y0052837D01*
X0136835Y0053064D01*
X0136940Y0053293D01*
X0137040Y0053525D01*
X0137134Y0053760D01*
X0137223Y0053996D01*
X0137306Y0054235D01*
X0137383Y0054476D01*
X0137454Y0054718D01*
X0137519Y0054962D01*
X0137578Y0055208D01*
X0137631Y0055455D01*
X0137678Y0055703D01*
X0137719Y0055953D01*
X0137753Y0056203D01*
X0137782Y0056454D01*
X0137804Y0056706D01*
X0137821Y0056958D01*
X0137831Y0057210D01*
X0137835Y0057463D01*
X0137833Y0057715D01*
X0137824Y0057968D01*
X0137810Y0058220D01*
X0137789Y0058472D01*
X0137762Y0058723D01*
X0137729Y0058974D01*
X0137690Y0059223D01*
X0137645Y0059472D01*
X0137594Y0059719D01*
X0137537Y0059965D01*
X0137473Y0060210D01*
X0137404Y0060453D01*
X0137329Y0060694D01*
X0137248Y0060934D01*
X0137161Y0061171D01*
X0137069Y0061406D01*
X0136970Y0061639D01*
X0136866Y0061869D01*
X0136757Y0062097D01*
X0136641Y0062321D01*
X0136521Y0062543D01*
X0136395Y0062762D01*
X0136264Y0062978D01*
X0136127Y0063191D01*
X0135985Y0063400D01*
X0135839Y0063606D01*
X0135687Y0063808D01*
X0135530Y0064006D01*
X0135369Y0064200D01*
X0135203Y0064391D01*
X0135032Y0064577D01*
X0134857Y0064759D01*
X0134677Y0064937D01*
X0134493Y0065110D01*
X0134305Y0065278D01*
X0134113Y0065442D01*
X0133917Y0065602D01*
X0133717Y0065756D01*
X0133513Y0065906D01*
X0133306Y0066050D01*
X0133095Y0066190D01*
X0132881Y0066324D01*
X0132664Y0066453D01*
X0132443Y0066576D01*
X0132220Y0066694D01*
X0131994Y0066807D01*
X0131765Y0066914D01*
X0131534Y0067015D01*
X0131300Y0067111D01*
X0131064Y0067201D01*
X0130825Y0067285D01*
X0130585Y0067364D01*
X0130563Y0067292D01*
X0130802Y0067214D01*
X0131038Y0067131D01*
X0131272Y0067041D01*
X0131505Y0066946D01*
X0131734Y0066846D01*
X0131961Y0066739D01*
X0132186Y0066627D01*
X0132408Y0066510D01*
X0132626Y0066388D01*
X0132842Y0066260D01*
X0133055Y0066126D01*
X0133264Y0065988D01*
X0133470Y0065845D01*
X0133672Y0065696D01*
X0133870Y0065543D01*
X0134065Y0065385D01*
X0134256Y0065222D01*
X0134442Y0065054D01*
X0134625Y0064882D01*
X0134803Y0064706D01*
X0134977Y0064525D01*
X0135147Y0064341D01*
X0135312Y0064152D01*
X0135472Y0063959D01*
X0135628Y0063762D01*
X0135778Y0063561D01*
X0135924Y0063357D01*
X0136064Y0063150D01*
X0136200Y0062938D01*
X0136330Y0062724D01*
X0136455Y0062507D01*
X0136575Y0062286D01*
X0136689Y0062063D01*
X0136798Y0061837D01*
X0136901Y0061609D01*
X0136999Y0061378D01*
X0137091Y0061144D01*
X0137177Y0060909D01*
X0137258Y0060671D01*
X0137332Y0060432D01*
X0137401Y0060190D01*
X0137464Y0059948D01*
X0137521Y0059703D01*
X0137571Y0059458D01*
X0137616Y0059211D01*
X0137655Y0058963D01*
X0137688Y0058714D01*
X0137715Y0058465D01*
X0137735Y0058215D01*
X0137749Y0057965D01*
X0137758Y0057714D01*
X0137760Y0057463D01*
X0137756Y0057212D01*
X0137746Y0056962D01*
X0137730Y0056712D01*
X0137707Y0056462D01*
X0137679Y0056213D01*
X0137644Y0055964D01*
X0137604Y0055717D01*
X0137557Y0055470D01*
X0137505Y0055225D01*
X0137446Y0054981D01*
X0137381Y0054739D01*
X0137311Y0054498D01*
X0137235Y0054259D01*
X0137153Y0054022D01*
X0137065Y0053787D01*
X0136971Y0053554D01*
X0136872Y0053324D01*
X0136767Y0053096D01*
X0136656Y0052871D01*
X0136541Y0052649D01*
X0136419Y0052429D01*
X0136293Y0052213D01*
X0136161Y0051999D01*
X0136024Y0051789D01*
X0135882Y0051583D01*
X0135734Y0051379D01*
X0135582Y0051180D01*
X0135523Y0051226D01*
X0135674Y0051424D01*
X0135821Y0051626D01*
X0135962Y0051831D01*
X0136098Y0052040D01*
X0136229Y0052251D01*
X0136354Y0052466D01*
X0136475Y0052684D01*
X0136590Y0052905D01*
X0136699Y0053129D01*
X0136803Y0053355D01*
X0136902Y0053583D01*
X0136995Y0053814D01*
X0137082Y0054048D01*
X0137164Y0054283D01*
X0137239Y0054520D01*
X0137309Y0054759D01*
X0137373Y0055000D01*
X0137431Y0055242D01*
X0137484Y0055485D01*
X0137530Y0055730D01*
X0137570Y0055975D01*
X0137605Y0056222D01*
X0137633Y0056469D01*
X0137655Y0056717D01*
X0137671Y0056966D01*
X0137681Y0057215D01*
X0137685Y0057464D01*
X0137683Y0057713D01*
X0137675Y0057961D01*
X0137660Y0058210D01*
X0137640Y0058458D01*
X0137613Y0058706D01*
X0137581Y0058952D01*
X0137542Y0059198D01*
X0137498Y0059443D01*
X0137447Y0059687D01*
X0137391Y0059930D01*
X0137329Y0060171D01*
X0137260Y0060410D01*
X0137186Y0060648D01*
X0137106Y0060884D01*
X0137021Y0061118D01*
X0136930Y0061349D01*
X0136833Y0061578D01*
X0136730Y0061805D01*
X0136622Y0062030D01*
X0136509Y0062251D01*
X0136390Y0062470D01*
X0136266Y0062686D01*
X0136136Y0062899D01*
X0136002Y0063108D01*
X0135862Y0063314D01*
X0135718Y0063517D01*
X0135568Y0063716D01*
X0135414Y0063911D01*
X0135255Y0064103D01*
X0135091Y0064290D01*
X0134923Y0064474D01*
X0134750Y0064653D01*
X0134573Y0064828D01*
X0134392Y0064999D01*
X0134206Y0065165D01*
X0134017Y0065327D01*
X0133824Y0065484D01*
X0133627Y0065636D01*
X0133426Y0065783D01*
X0133222Y0065926D01*
X0133014Y0066063D01*
X0132803Y0066195D01*
X0132589Y0066322D01*
X0132372Y0066444D01*
X0132152Y0066561D01*
X0131929Y0066672D01*
X0131704Y0066777D01*
X0131475Y0066877D01*
X0131245Y0066971D01*
X0131012Y0067060D01*
X0130778Y0067143D01*
X0130541Y0067220D01*
M02*
