G75*
%MOIN*%
%OFA0B0*%
%FSLAX25Y25*%
%IPPOS*%
%LPD*%
%AMOC8*
5,1,8,0,0,1.08239X$1,22.5*
%
%ADD10C,0.00100*%
D10*
X0007500Y0015000D02*
X0007500Y0192500D01*
X0007502Y0192681D01*
X0007509Y0192862D01*
X0007520Y0193043D01*
X0007535Y0193224D01*
X0007555Y0193404D01*
X0007579Y0193584D01*
X0007607Y0193763D01*
X0007640Y0193941D01*
X0007677Y0194118D01*
X0007718Y0194295D01*
X0007763Y0194470D01*
X0007813Y0194645D01*
X0007867Y0194818D01*
X0007925Y0194989D01*
X0007987Y0195160D01*
X0008054Y0195328D01*
X0008124Y0195495D01*
X0008198Y0195661D01*
X0008277Y0195824D01*
X0008359Y0195985D01*
X0008445Y0196145D01*
X0008535Y0196302D01*
X0008629Y0196457D01*
X0008726Y0196610D01*
X0008828Y0196760D01*
X0008932Y0196908D01*
X0009041Y0197054D01*
X0009152Y0197196D01*
X0009268Y0197336D01*
X0009386Y0197473D01*
X0009508Y0197608D01*
X0009633Y0197739D01*
X0009761Y0197867D01*
X0009892Y0197992D01*
X0010027Y0198114D01*
X0010164Y0198232D01*
X0010304Y0198348D01*
X0010446Y0198459D01*
X0010592Y0198568D01*
X0010740Y0198672D01*
X0010890Y0198774D01*
X0011043Y0198871D01*
X0011198Y0198965D01*
X0011355Y0199055D01*
X0011515Y0199141D01*
X0011676Y0199223D01*
X0011839Y0199302D01*
X0012005Y0199376D01*
X0012172Y0199446D01*
X0012340Y0199513D01*
X0012511Y0199575D01*
X0012682Y0199633D01*
X0012855Y0199687D01*
X0013030Y0199737D01*
X0013205Y0199782D01*
X0013382Y0199823D01*
X0013559Y0199860D01*
X0013737Y0199893D01*
X0013916Y0199921D01*
X0014096Y0199945D01*
X0014276Y0199965D01*
X0014457Y0199980D01*
X0014638Y0199991D01*
X0014819Y0199998D01*
X0015000Y0200000D01*
X0177500Y0200000D01*
X0177681Y0199998D01*
X0177862Y0199991D01*
X0178043Y0199980D01*
X0178224Y0199965D01*
X0178404Y0199945D01*
X0178584Y0199921D01*
X0178763Y0199893D01*
X0178941Y0199860D01*
X0179118Y0199823D01*
X0179295Y0199782D01*
X0179470Y0199737D01*
X0179645Y0199687D01*
X0179818Y0199633D01*
X0179989Y0199575D01*
X0180160Y0199513D01*
X0180328Y0199446D01*
X0180495Y0199376D01*
X0180661Y0199302D01*
X0180824Y0199223D01*
X0180985Y0199141D01*
X0181145Y0199055D01*
X0181302Y0198965D01*
X0181457Y0198871D01*
X0181610Y0198774D01*
X0181760Y0198672D01*
X0181908Y0198568D01*
X0182054Y0198459D01*
X0182196Y0198348D01*
X0182336Y0198232D01*
X0182473Y0198114D01*
X0182608Y0197992D01*
X0182739Y0197867D01*
X0182867Y0197739D01*
X0182992Y0197608D01*
X0183114Y0197473D01*
X0183232Y0197336D01*
X0183348Y0197196D01*
X0183459Y0197054D01*
X0183568Y0196908D01*
X0183672Y0196760D01*
X0183774Y0196610D01*
X0183871Y0196457D01*
X0183965Y0196302D01*
X0184055Y0196145D01*
X0184141Y0195985D01*
X0184223Y0195824D01*
X0184302Y0195661D01*
X0184376Y0195495D01*
X0184446Y0195328D01*
X0184513Y0195160D01*
X0184575Y0194989D01*
X0184633Y0194818D01*
X0184687Y0194645D01*
X0184737Y0194470D01*
X0184782Y0194295D01*
X0184823Y0194118D01*
X0184860Y0193941D01*
X0184893Y0193763D01*
X0184921Y0193584D01*
X0184945Y0193404D01*
X0184965Y0193224D01*
X0184980Y0193043D01*
X0184991Y0192862D01*
X0184998Y0192681D01*
X0185000Y0192500D01*
X0185000Y0165000D01*
X0184998Y0164860D01*
X0184992Y0164720D01*
X0184982Y0164580D01*
X0184969Y0164440D01*
X0184951Y0164301D01*
X0184929Y0164162D01*
X0184904Y0164025D01*
X0184875Y0163887D01*
X0184842Y0163751D01*
X0184805Y0163616D01*
X0184764Y0163482D01*
X0184719Y0163349D01*
X0184671Y0163217D01*
X0184619Y0163087D01*
X0184564Y0162958D01*
X0184505Y0162831D01*
X0184442Y0162705D01*
X0184376Y0162581D01*
X0184307Y0162460D01*
X0184234Y0162340D01*
X0184157Y0162222D01*
X0184078Y0162107D01*
X0183995Y0161993D01*
X0183909Y0161883D01*
X0183820Y0161774D01*
X0183728Y0161668D01*
X0183633Y0161565D01*
X0183536Y0161464D01*
X0183435Y0161367D01*
X0183332Y0161272D01*
X0183226Y0161180D01*
X0183117Y0161091D01*
X0183007Y0161005D01*
X0182893Y0160922D01*
X0182778Y0160843D01*
X0182660Y0160766D01*
X0182540Y0160693D01*
X0182419Y0160624D01*
X0182295Y0160558D01*
X0182169Y0160495D01*
X0182042Y0160436D01*
X0181913Y0160381D01*
X0181783Y0160329D01*
X0181651Y0160281D01*
X0181518Y0160236D01*
X0181384Y0160195D01*
X0181249Y0160158D01*
X0181113Y0160125D01*
X0180975Y0160096D01*
X0180838Y0160071D01*
X0180699Y0160049D01*
X0180560Y0160031D01*
X0180420Y0160018D01*
X0180280Y0160008D01*
X0180140Y0160002D01*
X0180000Y0160000D01*
X0157500Y0160000D01*
X0157360Y0159998D01*
X0157220Y0159992D01*
X0157080Y0159982D01*
X0156940Y0159969D01*
X0156801Y0159951D01*
X0156662Y0159929D01*
X0156525Y0159904D01*
X0156387Y0159875D01*
X0156251Y0159842D01*
X0156116Y0159805D01*
X0155982Y0159764D01*
X0155849Y0159719D01*
X0155717Y0159671D01*
X0155587Y0159619D01*
X0155458Y0159564D01*
X0155331Y0159505D01*
X0155205Y0159442D01*
X0155081Y0159376D01*
X0154960Y0159307D01*
X0154840Y0159234D01*
X0154722Y0159157D01*
X0154607Y0159078D01*
X0154493Y0158995D01*
X0154383Y0158909D01*
X0154274Y0158820D01*
X0154168Y0158728D01*
X0154065Y0158633D01*
X0153964Y0158536D01*
X0153867Y0158435D01*
X0153772Y0158332D01*
X0153680Y0158226D01*
X0153591Y0158117D01*
X0153505Y0158007D01*
X0153422Y0157893D01*
X0153343Y0157778D01*
X0153266Y0157660D01*
X0153193Y0157540D01*
X0153124Y0157419D01*
X0153058Y0157295D01*
X0152995Y0157169D01*
X0152936Y0157042D01*
X0152881Y0156913D01*
X0152829Y0156783D01*
X0152781Y0156651D01*
X0152736Y0156518D01*
X0152695Y0156384D01*
X0152658Y0156249D01*
X0152625Y0156113D01*
X0152596Y0155975D01*
X0152571Y0155838D01*
X0152549Y0155699D01*
X0152531Y0155560D01*
X0152518Y0155420D01*
X0152508Y0155280D01*
X0152502Y0155140D01*
X0152500Y0155000D01*
X0152500Y0080000D01*
X0152502Y0079860D01*
X0152508Y0079720D01*
X0152518Y0079580D01*
X0152531Y0079440D01*
X0152549Y0079301D01*
X0152571Y0079162D01*
X0152596Y0079025D01*
X0152625Y0078887D01*
X0152658Y0078751D01*
X0152695Y0078616D01*
X0152736Y0078482D01*
X0152781Y0078349D01*
X0152829Y0078217D01*
X0152881Y0078087D01*
X0152936Y0077958D01*
X0152995Y0077831D01*
X0153058Y0077705D01*
X0153124Y0077581D01*
X0153193Y0077460D01*
X0153266Y0077340D01*
X0153343Y0077222D01*
X0153422Y0077107D01*
X0153505Y0076993D01*
X0153591Y0076883D01*
X0153680Y0076774D01*
X0153772Y0076668D01*
X0153867Y0076565D01*
X0153964Y0076464D01*
X0154065Y0076367D01*
X0154168Y0076272D01*
X0154274Y0076180D01*
X0154383Y0076091D01*
X0154493Y0076005D01*
X0154607Y0075922D01*
X0154722Y0075843D01*
X0154840Y0075766D01*
X0154960Y0075693D01*
X0155081Y0075624D01*
X0155205Y0075558D01*
X0155331Y0075495D01*
X0155458Y0075436D01*
X0155587Y0075381D01*
X0155717Y0075329D01*
X0155849Y0075281D01*
X0155982Y0075236D01*
X0156116Y0075195D01*
X0156251Y0075158D01*
X0156387Y0075125D01*
X0156525Y0075096D01*
X0156662Y0075071D01*
X0156801Y0075049D01*
X0156940Y0075031D01*
X0157080Y0075018D01*
X0157220Y0075008D01*
X0157360Y0075002D01*
X0157500Y0075000D01*
X0180000Y0075000D01*
X0180140Y0074998D01*
X0180280Y0074992D01*
X0180420Y0074982D01*
X0180560Y0074969D01*
X0180699Y0074951D01*
X0180838Y0074929D01*
X0180975Y0074904D01*
X0181113Y0074875D01*
X0181249Y0074842D01*
X0181384Y0074805D01*
X0181518Y0074764D01*
X0181651Y0074719D01*
X0181783Y0074671D01*
X0181913Y0074619D01*
X0182042Y0074564D01*
X0182169Y0074505D01*
X0182295Y0074442D01*
X0182419Y0074376D01*
X0182540Y0074307D01*
X0182660Y0074234D01*
X0182778Y0074157D01*
X0182893Y0074078D01*
X0183007Y0073995D01*
X0183117Y0073909D01*
X0183226Y0073820D01*
X0183332Y0073728D01*
X0183435Y0073633D01*
X0183536Y0073536D01*
X0183633Y0073435D01*
X0183728Y0073332D01*
X0183820Y0073226D01*
X0183909Y0073117D01*
X0183995Y0073007D01*
X0184078Y0072893D01*
X0184157Y0072778D01*
X0184234Y0072660D01*
X0184307Y0072540D01*
X0184376Y0072419D01*
X0184442Y0072295D01*
X0184505Y0072169D01*
X0184564Y0072042D01*
X0184619Y0071913D01*
X0184671Y0071783D01*
X0184719Y0071651D01*
X0184764Y0071518D01*
X0184805Y0071384D01*
X0184842Y0071249D01*
X0184875Y0071113D01*
X0184904Y0070975D01*
X0184929Y0070838D01*
X0184951Y0070699D01*
X0184969Y0070560D01*
X0184982Y0070420D01*
X0184992Y0070280D01*
X0184998Y0070140D01*
X0185000Y0070000D01*
X0185000Y0015000D01*
X0184998Y0014819D01*
X0184991Y0014638D01*
X0184980Y0014457D01*
X0184965Y0014276D01*
X0184945Y0014096D01*
X0184921Y0013916D01*
X0184893Y0013737D01*
X0184860Y0013559D01*
X0184823Y0013382D01*
X0184782Y0013205D01*
X0184737Y0013030D01*
X0184687Y0012855D01*
X0184633Y0012682D01*
X0184575Y0012511D01*
X0184513Y0012340D01*
X0184446Y0012172D01*
X0184376Y0012005D01*
X0184302Y0011839D01*
X0184223Y0011676D01*
X0184141Y0011515D01*
X0184055Y0011355D01*
X0183965Y0011198D01*
X0183871Y0011043D01*
X0183774Y0010890D01*
X0183672Y0010740D01*
X0183568Y0010592D01*
X0183459Y0010446D01*
X0183348Y0010304D01*
X0183232Y0010164D01*
X0183114Y0010027D01*
X0182992Y0009892D01*
X0182867Y0009761D01*
X0182739Y0009633D01*
X0182608Y0009508D01*
X0182473Y0009386D01*
X0182336Y0009268D01*
X0182196Y0009152D01*
X0182054Y0009041D01*
X0181908Y0008932D01*
X0181760Y0008828D01*
X0181610Y0008726D01*
X0181457Y0008629D01*
X0181302Y0008535D01*
X0181145Y0008445D01*
X0180985Y0008359D01*
X0180824Y0008277D01*
X0180661Y0008198D01*
X0180495Y0008124D01*
X0180328Y0008054D01*
X0180160Y0007987D01*
X0179989Y0007925D01*
X0179818Y0007867D01*
X0179645Y0007813D01*
X0179470Y0007763D01*
X0179295Y0007718D01*
X0179118Y0007677D01*
X0178941Y0007640D01*
X0178763Y0007607D01*
X0178584Y0007579D01*
X0178404Y0007555D01*
X0178224Y0007535D01*
X0178043Y0007520D01*
X0177862Y0007509D01*
X0177681Y0007502D01*
X0177500Y0007500D01*
X0015000Y0007500D01*
X0014819Y0007502D01*
X0014638Y0007509D01*
X0014457Y0007520D01*
X0014276Y0007535D01*
X0014096Y0007555D01*
X0013916Y0007579D01*
X0013737Y0007607D01*
X0013559Y0007640D01*
X0013382Y0007677D01*
X0013205Y0007718D01*
X0013030Y0007763D01*
X0012855Y0007813D01*
X0012682Y0007867D01*
X0012511Y0007925D01*
X0012340Y0007987D01*
X0012172Y0008054D01*
X0012005Y0008124D01*
X0011839Y0008198D01*
X0011676Y0008277D01*
X0011515Y0008359D01*
X0011355Y0008445D01*
X0011198Y0008535D01*
X0011043Y0008629D01*
X0010890Y0008726D01*
X0010740Y0008828D01*
X0010592Y0008932D01*
X0010446Y0009041D01*
X0010304Y0009152D01*
X0010164Y0009268D01*
X0010027Y0009386D01*
X0009892Y0009508D01*
X0009761Y0009633D01*
X0009633Y0009761D01*
X0009508Y0009892D01*
X0009386Y0010027D01*
X0009268Y0010164D01*
X0009152Y0010304D01*
X0009041Y0010446D01*
X0008932Y0010592D01*
X0008828Y0010740D01*
X0008726Y0010890D01*
X0008629Y0011043D01*
X0008535Y0011198D01*
X0008445Y0011355D01*
X0008359Y0011515D01*
X0008277Y0011676D01*
X0008198Y0011839D01*
X0008124Y0012005D01*
X0008054Y0012172D01*
X0007987Y0012340D01*
X0007925Y0012511D01*
X0007867Y0012682D01*
X0007813Y0012855D01*
X0007763Y0013030D01*
X0007718Y0013205D01*
X0007677Y0013382D01*
X0007640Y0013559D01*
X0007607Y0013737D01*
X0007579Y0013916D01*
X0007555Y0014096D01*
X0007535Y0014276D01*
X0007520Y0014457D01*
X0007509Y0014638D01*
X0007502Y0014819D01*
X0007500Y0015000D01*
M02*
