G75*
%MOIN*%
%OFA0B0*%
%FSLAX25Y25*%
%IPPOS*%
%LPD*%
%AMOC8*
5,1,8,0,0,1.08239X$1,22.5*
%
%ADD10C,0.00100*%
%ADD11C,0.07400*%
%ADD12OC8,0.07400*%
%ADD13C,0.17000*%
%ADD14C,0.10000*%
%ADD15C,0.07000*%
%ADD16R,0.05500X0.05500*%
%ADD17C,0.05500*%
%ADD18C,0.04500*%
%ADD19C,0.06500*%
%ADD20R,0.02500X0.05000*%
%ADD21C,0.08858*%
%ADD22C,0.03000*%
%ADD23C,0.02800*%
%ADD24C,0.01600*%
%ADD25C,0.01200*%
%ADD26C,0.04000*%
%ADD27C,0.05600*%
%ADD28C,0.03200*%
%ADD29C,0.05000*%
D10*
X0007500Y0015000D02*
X0007500Y0192500D01*
X0007502Y0192681D01*
X0007509Y0192862D01*
X0007520Y0193043D01*
X0007535Y0193224D01*
X0007555Y0193404D01*
X0007579Y0193584D01*
X0007607Y0193763D01*
X0007640Y0193941D01*
X0007677Y0194118D01*
X0007718Y0194295D01*
X0007763Y0194470D01*
X0007813Y0194645D01*
X0007867Y0194818D01*
X0007925Y0194989D01*
X0007987Y0195160D01*
X0008054Y0195328D01*
X0008124Y0195495D01*
X0008198Y0195661D01*
X0008277Y0195824D01*
X0008359Y0195985D01*
X0008445Y0196145D01*
X0008535Y0196302D01*
X0008629Y0196457D01*
X0008726Y0196610D01*
X0008828Y0196760D01*
X0008932Y0196908D01*
X0009041Y0197054D01*
X0009152Y0197196D01*
X0009268Y0197336D01*
X0009386Y0197473D01*
X0009508Y0197608D01*
X0009633Y0197739D01*
X0009761Y0197867D01*
X0009892Y0197992D01*
X0010027Y0198114D01*
X0010164Y0198232D01*
X0010304Y0198348D01*
X0010446Y0198459D01*
X0010592Y0198568D01*
X0010740Y0198672D01*
X0010890Y0198774D01*
X0011043Y0198871D01*
X0011198Y0198965D01*
X0011355Y0199055D01*
X0011515Y0199141D01*
X0011676Y0199223D01*
X0011839Y0199302D01*
X0012005Y0199376D01*
X0012172Y0199446D01*
X0012340Y0199513D01*
X0012511Y0199575D01*
X0012682Y0199633D01*
X0012855Y0199687D01*
X0013030Y0199737D01*
X0013205Y0199782D01*
X0013382Y0199823D01*
X0013559Y0199860D01*
X0013737Y0199893D01*
X0013916Y0199921D01*
X0014096Y0199945D01*
X0014276Y0199965D01*
X0014457Y0199980D01*
X0014638Y0199991D01*
X0014819Y0199998D01*
X0015000Y0200000D01*
X0177500Y0200000D01*
X0177681Y0199998D01*
X0177862Y0199991D01*
X0178043Y0199980D01*
X0178224Y0199965D01*
X0178404Y0199945D01*
X0178584Y0199921D01*
X0178763Y0199893D01*
X0178941Y0199860D01*
X0179118Y0199823D01*
X0179295Y0199782D01*
X0179470Y0199737D01*
X0179645Y0199687D01*
X0179818Y0199633D01*
X0179989Y0199575D01*
X0180160Y0199513D01*
X0180328Y0199446D01*
X0180495Y0199376D01*
X0180661Y0199302D01*
X0180824Y0199223D01*
X0180985Y0199141D01*
X0181145Y0199055D01*
X0181302Y0198965D01*
X0181457Y0198871D01*
X0181610Y0198774D01*
X0181760Y0198672D01*
X0181908Y0198568D01*
X0182054Y0198459D01*
X0182196Y0198348D01*
X0182336Y0198232D01*
X0182473Y0198114D01*
X0182608Y0197992D01*
X0182739Y0197867D01*
X0182867Y0197739D01*
X0182992Y0197608D01*
X0183114Y0197473D01*
X0183232Y0197336D01*
X0183348Y0197196D01*
X0183459Y0197054D01*
X0183568Y0196908D01*
X0183672Y0196760D01*
X0183774Y0196610D01*
X0183871Y0196457D01*
X0183965Y0196302D01*
X0184055Y0196145D01*
X0184141Y0195985D01*
X0184223Y0195824D01*
X0184302Y0195661D01*
X0184376Y0195495D01*
X0184446Y0195328D01*
X0184513Y0195160D01*
X0184575Y0194989D01*
X0184633Y0194818D01*
X0184687Y0194645D01*
X0184737Y0194470D01*
X0184782Y0194295D01*
X0184823Y0194118D01*
X0184860Y0193941D01*
X0184893Y0193763D01*
X0184921Y0193584D01*
X0184945Y0193404D01*
X0184965Y0193224D01*
X0184980Y0193043D01*
X0184991Y0192862D01*
X0184998Y0192681D01*
X0185000Y0192500D01*
X0185000Y0165000D01*
X0184998Y0164860D01*
X0184992Y0164720D01*
X0184982Y0164580D01*
X0184969Y0164440D01*
X0184951Y0164301D01*
X0184929Y0164162D01*
X0184904Y0164025D01*
X0184875Y0163887D01*
X0184842Y0163751D01*
X0184805Y0163616D01*
X0184764Y0163482D01*
X0184719Y0163349D01*
X0184671Y0163217D01*
X0184619Y0163087D01*
X0184564Y0162958D01*
X0184505Y0162831D01*
X0184442Y0162705D01*
X0184376Y0162581D01*
X0184307Y0162460D01*
X0184234Y0162340D01*
X0184157Y0162222D01*
X0184078Y0162107D01*
X0183995Y0161993D01*
X0183909Y0161883D01*
X0183820Y0161774D01*
X0183728Y0161668D01*
X0183633Y0161565D01*
X0183536Y0161464D01*
X0183435Y0161367D01*
X0183332Y0161272D01*
X0183226Y0161180D01*
X0183117Y0161091D01*
X0183007Y0161005D01*
X0182893Y0160922D01*
X0182778Y0160843D01*
X0182660Y0160766D01*
X0182540Y0160693D01*
X0182419Y0160624D01*
X0182295Y0160558D01*
X0182169Y0160495D01*
X0182042Y0160436D01*
X0181913Y0160381D01*
X0181783Y0160329D01*
X0181651Y0160281D01*
X0181518Y0160236D01*
X0181384Y0160195D01*
X0181249Y0160158D01*
X0181113Y0160125D01*
X0180975Y0160096D01*
X0180838Y0160071D01*
X0180699Y0160049D01*
X0180560Y0160031D01*
X0180420Y0160018D01*
X0180280Y0160008D01*
X0180140Y0160002D01*
X0180000Y0160000D01*
X0157500Y0160000D01*
X0157360Y0159998D01*
X0157220Y0159992D01*
X0157080Y0159982D01*
X0156940Y0159969D01*
X0156801Y0159951D01*
X0156662Y0159929D01*
X0156525Y0159904D01*
X0156387Y0159875D01*
X0156251Y0159842D01*
X0156116Y0159805D01*
X0155982Y0159764D01*
X0155849Y0159719D01*
X0155717Y0159671D01*
X0155587Y0159619D01*
X0155458Y0159564D01*
X0155331Y0159505D01*
X0155205Y0159442D01*
X0155081Y0159376D01*
X0154960Y0159307D01*
X0154840Y0159234D01*
X0154722Y0159157D01*
X0154607Y0159078D01*
X0154493Y0158995D01*
X0154383Y0158909D01*
X0154274Y0158820D01*
X0154168Y0158728D01*
X0154065Y0158633D01*
X0153964Y0158536D01*
X0153867Y0158435D01*
X0153772Y0158332D01*
X0153680Y0158226D01*
X0153591Y0158117D01*
X0153505Y0158007D01*
X0153422Y0157893D01*
X0153343Y0157778D01*
X0153266Y0157660D01*
X0153193Y0157540D01*
X0153124Y0157419D01*
X0153058Y0157295D01*
X0152995Y0157169D01*
X0152936Y0157042D01*
X0152881Y0156913D01*
X0152829Y0156783D01*
X0152781Y0156651D01*
X0152736Y0156518D01*
X0152695Y0156384D01*
X0152658Y0156249D01*
X0152625Y0156113D01*
X0152596Y0155975D01*
X0152571Y0155838D01*
X0152549Y0155699D01*
X0152531Y0155560D01*
X0152518Y0155420D01*
X0152508Y0155280D01*
X0152502Y0155140D01*
X0152500Y0155000D01*
X0152500Y0080000D01*
X0152502Y0079860D01*
X0152508Y0079720D01*
X0152518Y0079580D01*
X0152531Y0079440D01*
X0152549Y0079301D01*
X0152571Y0079162D01*
X0152596Y0079025D01*
X0152625Y0078887D01*
X0152658Y0078751D01*
X0152695Y0078616D01*
X0152736Y0078482D01*
X0152781Y0078349D01*
X0152829Y0078217D01*
X0152881Y0078087D01*
X0152936Y0077958D01*
X0152995Y0077831D01*
X0153058Y0077705D01*
X0153124Y0077581D01*
X0153193Y0077460D01*
X0153266Y0077340D01*
X0153343Y0077222D01*
X0153422Y0077107D01*
X0153505Y0076993D01*
X0153591Y0076883D01*
X0153680Y0076774D01*
X0153772Y0076668D01*
X0153867Y0076565D01*
X0153964Y0076464D01*
X0154065Y0076367D01*
X0154168Y0076272D01*
X0154274Y0076180D01*
X0154383Y0076091D01*
X0154493Y0076005D01*
X0154607Y0075922D01*
X0154722Y0075843D01*
X0154840Y0075766D01*
X0154960Y0075693D01*
X0155081Y0075624D01*
X0155205Y0075558D01*
X0155331Y0075495D01*
X0155458Y0075436D01*
X0155587Y0075381D01*
X0155717Y0075329D01*
X0155849Y0075281D01*
X0155982Y0075236D01*
X0156116Y0075195D01*
X0156251Y0075158D01*
X0156387Y0075125D01*
X0156525Y0075096D01*
X0156662Y0075071D01*
X0156801Y0075049D01*
X0156940Y0075031D01*
X0157080Y0075018D01*
X0157220Y0075008D01*
X0157360Y0075002D01*
X0157500Y0075000D01*
X0180000Y0075000D01*
X0180140Y0074998D01*
X0180280Y0074992D01*
X0180420Y0074982D01*
X0180560Y0074969D01*
X0180699Y0074951D01*
X0180838Y0074929D01*
X0180975Y0074904D01*
X0181113Y0074875D01*
X0181249Y0074842D01*
X0181384Y0074805D01*
X0181518Y0074764D01*
X0181651Y0074719D01*
X0181783Y0074671D01*
X0181913Y0074619D01*
X0182042Y0074564D01*
X0182169Y0074505D01*
X0182295Y0074442D01*
X0182419Y0074376D01*
X0182540Y0074307D01*
X0182660Y0074234D01*
X0182778Y0074157D01*
X0182893Y0074078D01*
X0183007Y0073995D01*
X0183117Y0073909D01*
X0183226Y0073820D01*
X0183332Y0073728D01*
X0183435Y0073633D01*
X0183536Y0073536D01*
X0183633Y0073435D01*
X0183728Y0073332D01*
X0183820Y0073226D01*
X0183909Y0073117D01*
X0183995Y0073007D01*
X0184078Y0072893D01*
X0184157Y0072778D01*
X0184234Y0072660D01*
X0184307Y0072540D01*
X0184376Y0072419D01*
X0184442Y0072295D01*
X0184505Y0072169D01*
X0184564Y0072042D01*
X0184619Y0071913D01*
X0184671Y0071783D01*
X0184719Y0071651D01*
X0184764Y0071518D01*
X0184805Y0071384D01*
X0184842Y0071249D01*
X0184875Y0071113D01*
X0184904Y0070975D01*
X0184929Y0070838D01*
X0184951Y0070699D01*
X0184969Y0070560D01*
X0184982Y0070420D01*
X0184992Y0070280D01*
X0184998Y0070140D01*
X0185000Y0070000D01*
X0185000Y0015000D01*
X0184998Y0014819D01*
X0184991Y0014638D01*
X0184980Y0014457D01*
X0184965Y0014276D01*
X0184945Y0014096D01*
X0184921Y0013916D01*
X0184893Y0013737D01*
X0184860Y0013559D01*
X0184823Y0013382D01*
X0184782Y0013205D01*
X0184737Y0013030D01*
X0184687Y0012855D01*
X0184633Y0012682D01*
X0184575Y0012511D01*
X0184513Y0012340D01*
X0184446Y0012172D01*
X0184376Y0012005D01*
X0184302Y0011839D01*
X0184223Y0011676D01*
X0184141Y0011515D01*
X0184055Y0011355D01*
X0183965Y0011198D01*
X0183871Y0011043D01*
X0183774Y0010890D01*
X0183672Y0010740D01*
X0183568Y0010592D01*
X0183459Y0010446D01*
X0183348Y0010304D01*
X0183232Y0010164D01*
X0183114Y0010027D01*
X0182992Y0009892D01*
X0182867Y0009761D01*
X0182739Y0009633D01*
X0182608Y0009508D01*
X0182473Y0009386D01*
X0182336Y0009268D01*
X0182196Y0009152D01*
X0182054Y0009041D01*
X0181908Y0008932D01*
X0181760Y0008828D01*
X0181610Y0008726D01*
X0181457Y0008629D01*
X0181302Y0008535D01*
X0181145Y0008445D01*
X0180985Y0008359D01*
X0180824Y0008277D01*
X0180661Y0008198D01*
X0180495Y0008124D01*
X0180328Y0008054D01*
X0180160Y0007987D01*
X0179989Y0007925D01*
X0179818Y0007867D01*
X0179645Y0007813D01*
X0179470Y0007763D01*
X0179295Y0007718D01*
X0179118Y0007677D01*
X0178941Y0007640D01*
X0178763Y0007607D01*
X0178584Y0007579D01*
X0178404Y0007555D01*
X0178224Y0007535D01*
X0178043Y0007520D01*
X0177862Y0007509D01*
X0177681Y0007502D01*
X0177500Y0007500D01*
X0015000Y0007500D01*
X0014819Y0007502D01*
X0014638Y0007509D01*
X0014457Y0007520D01*
X0014276Y0007535D01*
X0014096Y0007555D01*
X0013916Y0007579D01*
X0013737Y0007607D01*
X0013559Y0007640D01*
X0013382Y0007677D01*
X0013205Y0007718D01*
X0013030Y0007763D01*
X0012855Y0007813D01*
X0012682Y0007867D01*
X0012511Y0007925D01*
X0012340Y0007987D01*
X0012172Y0008054D01*
X0012005Y0008124D01*
X0011839Y0008198D01*
X0011676Y0008277D01*
X0011515Y0008359D01*
X0011355Y0008445D01*
X0011198Y0008535D01*
X0011043Y0008629D01*
X0010890Y0008726D01*
X0010740Y0008828D01*
X0010592Y0008932D01*
X0010446Y0009041D01*
X0010304Y0009152D01*
X0010164Y0009268D01*
X0010027Y0009386D01*
X0009892Y0009508D01*
X0009761Y0009633D01*
X0009633Y0009761D01*
X0009508Y0009892D01*
X0009386Y0010027D01*
X0009268Y0010164D01*
X0009152Y0010304D01*
X0009041Y0010446D01*
X0008932Y0010592D01*
X0008828Y0010740D01*
X0008726Y0010890D01*
X0008629Y0011043D01*
X0008535Y0011198D01*
X0008445Y0011355D01*
X0008359Y0011515D01*
X0008277Y0011676D01*
X0008198Y0011839D01*
X0008124Y0012005D01*
X0008054Y0012172D01*
X0007987Y0012340D01*
X0007925Y0012511D01*
X0007867Y0012682D01*
X0007813Y0012855D01*
X0007763Y0013030D01*
X0007718Y0013205D01*
X0007677Y0013382D01*
X0007640Y0013559D01*
X0007607Y0013737D01*
X0007579Y0013916D01*
X0007555Y0014096D01*
X0007535Y0014276D01*
X0007520Y0014457D01*
X0007509Y0014638D01*
X0007502Y0014819D01*
X0007500Y0015000D01*
D11*
X0052500Y0102500D03*
X0052500Y0112500D03*
X0052500Y0122500D03*
X0052500Y0132500D03*
X0052500Y0142500D03*
X0052500Y0152500D03*
X0052500Y0162500D03*
X0052500Y0172500D03*
X0062500Y0172500D03*
X0062500Y0162500D03*
X0062500Y0152500D03*
X0062500Y0142500D03*
X0062500Y0132500D03*
X0062500Y0122500D03*
X0062500Y0112500D03*
X0062500Y0102500D03*
X0117500Y0057500D03*
X0127500Y0057500D03*
X0137500Y0057500D03*
X0132500Y0102500D03*
X0132500Y0112500D03*
X0132500Y0122500D03*
X0132500Y0132500D03*
X0132500Y0142500D03*
X0132500Y0152500D03*
X0132500Y0162500D03*
X0132500Y0172500D03*
X0142500Y0172500D03*
X0142500Y0162500D03*
X0142500Y0152500D03*
X0142500Y0142500D03*
X0142500Y0132500D03*
X0142500Y0122500D03*
X0142500Y0112500D03*
X0142500Y0102500D03*
X0162500Y0169000D03*
X0162500Y0179000D03*
X0162500Y0189000D03*
X0172500Y0189000D03*
X0172500Y0179000D03*
X0172500Y0169000D03*
D12*
X0032500Y0140000D03*
X0032500Y0130000D03*
X0032500Y0120000D03*
X0032500Y0110000D03*
X0032500Y0100000D03*
X0032500Y0090000D03*
X0032500Y0080000D03*
X0032500Y0070000D03*
X0022500Y0070000D03*
X0022500Y0080000D03*
X0022500Y0090000D03*
X0022500Y0100000D03*
X0022500Y0110000D03*
X0022500Y0120000D03*
X0022500Y0130000D03*
X0022500Y0140000D03*
D13*
X0037815Y0036500D03*
X0049626Y0017996D03*
X0061437Y0036500D03*
D14*
X0085157Y0040374D03*
X0085157Y0020689D03*
X0104843Y0020689D03*
X0104843Y0040374D03*
D15*
X0127500Y0045000D03*
X0127500Y0035000D03*
X0127500Y0025000D03*
X0127500Y0015000D03*
D16*
X0031000Y0177500D03*
D17*
X0018000Y0177500D03*
D18*
X0018657Y0194000D03*
X0038343Y0194000D03*
X0143000Y0047343D03*
X0143000Y0027657D03*
D19*
X0042500Y0152500D03*
X0042500Y0162500D03*
D20*
X0041600Y0110000D03*
X0038400Y0110000D03*
D21*
X0168071Y0063386D02*
X0176929Y0063386D01*
X0176929Y0047795D02*
X0168071Y0047795D01*
X0168071Y0032205D02*
X0176929Y0032205D01*
X0176929Y0016614D02*
X0168071Y0016614D01*
D22*
X0011853Y0011853D02*
X0011035Y0012980D01*
X0010605Y0014304D01*
X0010550Y0015000D01*
X0010550Y0117849D01*
X0010857Y0117541D01*
X0011923Y0117100D01*
X0015499Y0117100D01*
X0015041Y0116643D01*
X0012541Y0114143D01*
X0012100Y0113077D01*
X0012100Y0081923D01*
X0012541Y0080857D01*
X0013357Y0080041D01*
X0015857Y0077541D01*
X0016909Y0077106D01*
X0019015Y0075000D01*
X0016500Y0072485D01*
X0016500Y0067515D01*
X0020015Y0064000D01*
X0024985Y0064000D01*
X0027359Y0066373D01*
X0029932Y0063800D01*
X0032500Y0063800D01*
X0035068Y0063800D01*
X0038700Y0067432D01*
X0038700Y0070000D01*
X0038700Y0072100D01*
X0053077Y0072100D01*
X0054143Y0072541D01*
X0054958Y0073357D01*
X0061201Y0079600D01*
X0099970Y0079600D01*
X0079285Y0058914D01*
X0065659Y0058914D01*
X0063895Y0058183D01*
X0058718Y0053006D01*
X0057368Y0051656D01*
X0056637Y0049892D01*
X0056637Y0046199D01*
X0054806Y0045142D01*
X0052795Y0043131D01*
X0051373Y0040669D01*
X0050637Y0037922D01*
X0050637Y0035078D01*
X0051373Y0032331D01*
X0052795Y0029869D01*
X0054806Y0027858D01*
X0057268Y0026436D01*
X0060015Y0025700D01*
X0062859Y0025700D01*
X0065606Y0026436D01*
X0068068Y0027858D01*
X0070079Y0029869D01*
X0071501Y0032331D01*
X0072237Y0035078D01*
X0072237Y0037922D01*
X0071501Y0040669D01*
X0070079Y0043131D01*
X0068068Y0045142D01*
X0066237Y0046199D01*
X0066237Y0046949D01*
X0068602Y0049314D01*
X0095452Y0049314D01*
X0099372Y0045227D01*
X0098654Y0044509D01*
X0097543Y0041826D01*
X0097543Y0038922D01*
X0098654Y0036239D01*
X0099743Y0035150D01*
X0099743Y0025913D01*
X0098654Y0024824D01*
X0097543Y0022141D01*
X0097543Y0019237D01*
X0098654Y0016554D01*
X0100707Y0014500D01*
X0103390Y0013389D01*
X0106295Y0013389D01*
X0108978Y0014500D01*
X0110366Y0015889D01*
X0114144Y0015889D01*
X0115908Y0016620D01*
X0117258Y0017970D01*
X0119488Y0020200D01*
X0122700Y0020200D01*
X0122700Y0018402D01*
X0122583Y0018285D01*
X0121700Y0016154D01*
X0121700Y0013846D01*
X0122583Y0011715D01*
X0123748Y0010550D01*
X0057736Y0010550D01*
X0057841Y0010655D01*
X0058611Y0011621D01*
X0059269Y0012667D01*
X0059805Y0013780D01*
X0060213Y0014946D01*
X0060488Y0016151D01*
X0060532Y0016546D01*
X0051076Y0016546D01*
X0051076Y0019446D01*
X0060532Y0019446D01*
X0060488Y0019842D01*
X0060213Y0021046D01*
X0059805Y0022212D01*
X0059269Y0023325D01*
X0058611Y0024371D01*
X0057841Y0025337D01*
X0056967Y0026211D01*
X0056001Y0026981D01*
X0054955Y0027639D01*
X0053842Y0028175D01*
X0052676Y0028583D01*
X0051471Y0028858D01*
X0051076Y0028902D01*
X0051076Y0019446D01*
X0048176Y0019446D01*
X0048176Y0016546D01*
X0038720Y0016546D01*
X0038764Y0016151D01*
X0039039Y0014946D01*
X0039447Y0013780D01*
X0039983Y0012667D01*
X0040641Y0011621D01*
X0041411Y0010655D01*
X0041516Y0010550D01*
X0015000Y0010550D01*
X0014304Y0010605D01*
X0012980Y0011035D01*
X0011853Y0011853D01*
X0011389Y0012493D02*
X0040093Y0012493D01*
X0038915Y0015491D02*
X0010550Y0015491D01*
X0010550Y0018490D02*
X0048176Y0018490D01*
X0048176Y0019446D02*
X0038720Y0019446D01*
X0038764Y0019842D01*
X0039039Y0021046D01*
X0039447Y0022212D01*
X0039983Y0023325D01*
X0040641Y0024371D01*
X0041411Y0025337D01*
X0042285Y0026211D01*
X0043020Y0026798D01*
X0042031Y0026321D01*
X0040865Y0025913D01*
X0039660Y0025638D01*
X0039265Y0025594D01*
X0039265Y0035050D01*
X0039265Y0037950D01*
X0048721Y0037950D01*
X0048677Y0038345D01*
X0048402Y0039550D01*
X0047994Y0040716D01*
X0047458Y0041829D01*
X0046800Y0042875D01*
X0046030Y0043841D01*
X0045156Y0044715D01*
X0044190Y0045485D01*
X0043144Y0046143D01*
X0042031Y0046679D01*
X0040865Y0047087D01*
X0039660Y0047362D01*
X0039265Y0047406D01*
X0039265Y0037950D01*
X0036365Y0037950D01*
X0036365Y0047406D01*
X0035969Y0047362D01*
X0034765Y0047087D01*
X0033599Y0046679D01*
X0032486Y0046143D01*
X0031440Y0045485D01*
X0030474Y0044715D01*
X0029600Y0043841D01*
X0028830Y0042875D01*
X0028172Y0041829D01*
X0027636Y0040716D01*
X0027228Y0039550D01*
X0026953Y0038345D01*
X0026909Y0037950D01*
X0036365Y0037950D01*
X0036365Y0035050D01*
X0039265Y0035050D01*
X0048721Y0035050D01*
X0048677Y0034655D01*
X0048402Y0033450D01*
X0047994Y0032284D01*
X0047458Y0031171D01*
X0046800Y0030125D01*
X0046030Y0029159D01*
X0045156Y0028285D01*
X0044421Y0027698D01*
X0045410Y0028175D01*
X0046576Y0028583D01*
X0047780Y0028858D01*
X0048176Y0028902D01*
X0048176Y0019446D01*
X0048176Y0021488D02*
X0051076Y0021488D01*
X0051076Y0024487D02*
X0048176Y0024487D01*
X0048176Y0027485D02*
X0051076Y0027485D01*
X0052440Y0030484D02*
X0047026Y0030484D01*
X0048409Y0033482D02*
X0051065Y0033482D01*
X0050637Y0036481D02*
X0039265Y0036481D01*
X0039265Y0033482D02*
X0036365Y0033482D01*
X0036365Y0035050D02*
X0036365Y0025594D01*
X0035969Y0025638D01*
X0034765Y0025913D01*
X0033599Y0026321D01*
X0032486Y0026857D01*
X0031440Y0027515D01*
X0030474Y0028285D01*
X0029600Y0029159D01*
X0028830Y0030125D01*
X0028172Y0031171D01*
X0027636Y0032284D01*
X0027228Y0033450D01*
X0026953Y0034655D01*
X0026909Y0035050D01*
X0036365Y0035050D01*
X0036365Y0036481D02*
X0010550Y0036481D01*
X0010550Y0033482D02*
X0027221Y0033482D01*
X0028604Y0030484D02*
X0010550Y0030484D01*
X0010550Y0027485D02*
X0031487Y0027485D01*
X0036365Y0027485D02*
X0039265Y0027485D01*
X0039265Y0030484D02*
X0036365Y0030484D01*
X0040732Y0024487D02*
X0010550Y0024487D01*
X0010550Y0021488D02*
X0039194Y0021488D01*
X0051076Y0018490D02*
X0077982Y0018490D01*
X0078040Y0018273D02*
X0078416Y0017365D01*
X0078908Y0016513D01*
X0079507Y0015733D01*
X0080202Y0015038D01*
X0080982Y0014440D01*
X0081833Y0013948D01*
X0082741Y0013572D01*
X0083691Y0013317D01*
X0084666Y0013189D01*
X0085157Y0013189D01*
X0085157Y0020689D01*
X0085157Y0020689D01*
X0077657Y0020689D01*
X0077657Y0020197D01*
X0077786Y0019223D01*
X0078040Y0018273D01*
X0077657Y0020689D02*
X0085157Y0020689D01*
X0085157Y0028189D01*
X0084666Y0028189D01*
X0083691Y0028061D01*
X0082741Y0027806D01*
X0081833Y0027430D01*
X0080982Y0026938D01*
X0080202Y0026340D01*
X0079507Y0025645D01*
X0078908Y0024865D01*
X0078416Y0024013D01*
X0078040Y0023105D01*
X0077786Y0022155D01*
X0077657Y0021181D01*
X0077657Y0020689D01*
X0077698Y0021488D02*
X0060058Y0021488D01*
X0058519Y0024487D02*
X0078690Y0024487D01*
X0081966Y0027485D02*
X0067423Y0027485D01*
X0070434Y0030484D02*
X0099743Y0030484D01*
X0099743Y0027485D02*
X0088349Y0027485D01*
X0088482Y0027430D02*
X0087573Y0027806D01*
X0086624Y0028061D01*
X0085649Y0028189D01*
X0085158Y0028189D01*
X0085158Y0020689D01*
X0092657Y0020689D01*
X0092657Y0021181D01*
X0092529Y0022155D01*
X0092275Y0023105D01*
X0091898Y0024013D01*
X0091407Y0024865D01*
X0090808Y0025645D01*
X0090113Y0026340D01*
X0089333Y0026938D01*
X0088482Y0027430D01*
X0085158Y0027485D02*
X0085157Y0027485D01*
X0085157Y0024487D02*
X0085158Y0024487D01*
X0085157Y0021488D02*
X0085158Y0021488D01*
X0085158Y0020689D02*
X0085157Y0020689D01*
X0085158Y0020689D01*
X0085158Y0020689D01*
X0092657Y0020689D01*
X0092657Y0020197D01*
X0092529Y0019223D01*
X0092275Y0018273D01*
X0091898Y0017365D01*
X0091407Y0016513D01*
X0090808Y0015733D01*
X0090113Y0015038D01*
X0089333Y0014440D01*
X0088482Y0013948D01*
X0087573Y0013572D01*
X0086624Y0013317D01*
X0085649Y0013189D01*
X0085158Y0013189D01*
X0085158Y0020689D01*
X0085157Y0018490D02*
X0085158Y0018490D01*
X0085157Y0015491D02*
X0085158Y0015491D01*
X0090566Y0015491D02*
X0099717Y0015491D01*
X0097852Y0018490D02*
X0092333Y0018490D01*
X0092617Y0021488D02*
X0097543Y0021488D01*
X0098514Y0024487D02*
X0091625Y0024487D01*
X0087573Y0033257D02*
X0086624Y0033002D01*
X0085649Y0032874D01*
X0085158Y0032874D01*
X0085158Y0040374D01*
X0092657Y0040374D01*
X0092657Y0040866D01*
X0092529Y0041840D01*
X0092275Y0042790D01*
X0091898Y0043698D01*
X0091407Y0044550D01*
X0090808Y0045330D01*
X0090113Y0046025D01*
X0089333Y0046623D01*
X0088482Y0047115D01*
X0087573Y0047491D01*
X0086624Y0047746D01*
X0085649Y0047874D01*
X0085158Y0047874D01*
X0085158Y0040374D01*
X0085158Y0040374D01*
X0092657Y0040374D01*
X0092657Y0039882D01*
X0092529Y0038908D01*
X0092275Y0037958D01*
X0091898Y0037050D01*
X0091407Y0036198D01*
X0090808Y0035418D01*
X0090113Y0034723D01*
X0089333Y0034125D01*
X0088482Y0033633D01*
X0087573Y0033257D01*
X0088117Y0033482D02*
X0099743Y0033482D01*
X0098554Y0036481D02*
X0091570Y0036481D01*
X0092604Y0039479D02*
X0097543Y0039479D01*
X0097812Y0042478D02*
X0092358Y0042478D01*
X0090662Y0045476D02*
X0099133Y0045476D01*
X0096257Y0048475D02*
X0067763Y0048475D01*
X0067490Y0045476D02*
X0079653Y0045476D01*
X0079507Y0045330D02*
X0078908Y0044550D01*
X0078416Y0043698D01*
X0078040Y0042790D01*
X0077786Y0041840D01*
X0077657Y0040866D01*
X0077657Y0040374D01*
X0077657Y0039882D01*
X0077786Y0038908D01*
X0078040Y0037958D01*
X0078416Y0037050D01*
X0078908Y0036198D01*
X0079507Y0035418D01*
X0080202Y0034723D01*
X0080982Y0034125D01*
X0081833Y0033633D01*
X0082741Y0033257D01*
X0083691Y0033002D01*
X0084666Y0032874D01*
X0085157Y0032874D01*
X0085157Y0040374D01*
X0077657Y0040374D01*
X0085157Y0040374D01*
X0085157Y0040374D01*
X0085158Y0040374D01*
X0085157Y0040374D01*
X0085157Y0047874D01*
X0084666Y0047874D01*
X0083691Y0047746D01*
X0082741Y0047491D01*
X0081833Y0047115D01*
X0080982Y0046623D01*
X0080202Y0046025D01*
X0079507Y0045330D01*
X0077957Y0042478D02*
X0070457Y0042478D01*
X0071820Y0039479D02*
X0077711Y0039479D01*
X0078745Y0036481D02*
X0072237Y0036481D01*
X0071809Y0033482D02*
X0082197Y0033482D01*
X0085157Y0033482D02*
X0085158Y0033482D01*
X0085157Y0036481D02*
X0085158Y0036481D01*
X0085157Y0039479D02*
X0085158Y0039479D01*
X0085157Y0042478D02*
X0085158Y0042478D01*
X0085157Y0045476D02*
X0085158Y0045476D01*
X0090315Y0058914D02*
X0128958Y0097557D01*
X0129101Y0097413D01*
X0131307Y0096500D01*
X0133693Y0096500D01*
X0135899Y0097413D01*
X0137085Y0098600D01*
X0137915Y0098600D01*
X0139101Y0097413D01*
X0141307Y0096500D01*
X0143693Y0096500D01*
X0145899Y0097413D01*
X0147100Y0098615D01*
X0147100Y0071201D01*
X0146299Y0070400D01*
X0131923Y0070400D01*
X0130857Y0069958D01*
X0130041Y0069143D01*
X0125041Y0064143D01*
X0124600Y0063077D01*
X0124600Y0062793D01*
X0124101Y0062587D01*
X0122576Y0061061D01*
X0122229Y0061539D01*
X0121539Y0062229D01*
X0120750Y0062803D01*
X0119880Y0063246D01*
X0118952Y0063547D01*
X0117988Y0063700D01*
X0117500Y0063700D01*
X0117500Y0057500D01*
X0117500Y0057500D01*
X0117500Y0051300D01*
X0117988Y0051300D01*
X0118952Y0051453D01*
X0119880Y0051754D01*
X0120750Y0052197D01*
X0121539Y0052771D01*
X0122229Y0053461D01*
X0122576Y0053939D01*
X0124101Y0052413D01*
X0126307Y0051500D01*
X0128693Y0051500D01*
X0130899Y0052413D01*
X0132500Y0054015D01*
X0134101Y0052413D01*
X0136307Y0051500D01*
X0138693Y0051500D01*
X0138992Y0051624D01*
X0139900Y0050716D01*
X0139900Y0050677D01*
X0139143Y0049920D01*
X0138450Y0048248D01*
X0138450Y0046437D01*
X0139143Y0044765D01*
X0140423Y0043485D01*
X0142095Y0042793D01*
X0143905Y0042793D01*
X0145577Y0043485D01*
X0146857Y0044765D01*
X0147100Y0045351D01*
X0147100Y0035859D01*
X0143449Y0032207D01*
X0142095Y0032207D01*
X0140423Y0031515D01*
X0139143Y0030235D01*
X0138450Y0028563D01*
X0138450Y0026752D01*
X0139096Y0025192D01*
X0135219Y0029069D01*
X0133455Y0029800D01*
X0130902Y0029800D01*
X0130785Y0029917D01*
X0130738Y0029936D01*
X0131409Y0030423D01*
X0132077Y0031091D01*
X0132632Y0031855D01*
X0133060Y0032697D01*
X0133352Y0033595D01*
X0133500Y0034528D01*
X0133500Y0035000D01*
X0133500Y0035472D01*
X0133352Y0036405D01*
X0133060Y0037303D01*
X0132632Y0038145D01*
X0132077Y0038909D01*
X0131409Y0039577D01*
X0130826Y0040000D01*
X0131409Y0040423D01*
X0132077Y0041091D01*
X0132632Y0041855D01*
X0133060Y0042697D01*
X0133352Y0043595D01*
X0133500Y0044528D01*
X0133500Y0045000D01*
X0133500Y0045472D01*
X0133352Y0046405D01*
X0133060Y0047303D01*
X0132632Y0048145D01*
X0132077Y0048909D01*
X0131409Y0049577D01*
X0130645Y0050132D01*
X0129803Y0050560D01*
X0128905Y0050852D01*
X0127972Y0051000D01*
X0127500Y0051000D01*
X0127500Y0045000D01*
X0127500Y0045000D01*
X0133500Y0045000D01*
X0127500Y0045000D01*
X0127500Y0045000D01*
X0127500Y0045000D01*
X0121500Y0045000D01*
X0121500Y0045472D01*
X0121648Y0046405D01*
X0121940Y0047303D01*
X0122368Y0048145D01*
X0122923Y0048909D01*
X0123591Y0049577D01*
X0124355Y0050132D01*
X0125197Y0050560D01*
X0126095Y0050852D01*
X0127028Y0051000D01*
X0127500Y0051000D01*
X0127500Y0045000D01*
X0127500Y0039000D01*
X0127500Y0035000D01*
X0133500Y0035000D01*
X0127500Y0035000D01*
X0127500Y0035000D01*
X0127500Y0035000D01*
X0127500Y0035000D01*
X0121500Y0035000D01*
X0121500Y0035472D01*
X0121648Y0036405D01*
X0121940Y0037303D01*
X0122368Y0038145D01*
X0122923Y0038909D01*
X0123591Y0039577D01*
X0124174Y0040000D01*
X0123591Y0040423D01*
X0122923Y0041091D01*
X0122368Y0041855D01*
X0121940Y0042697D01*
X0121648Y0043595D01*
X0121500Y0044528D01*
X0121500Y0045000D01*
X0127500Y0045000D01*
X0127500Y0045000D01*
X0127500Y0035000D01*
X0121500Y0035000D01*
X0121500Y0034528D01*
X0121648Y0033595D01*
X0121940Y0032697D01*
X0122368Y0031855D01*
X0122923Y0031091D01*
X0123591Y0030423D01*
X0124262Y0029936D01*
X0124215Y0029917D01*
X0124098Y0029800D01*
X0116545Y0029800D01*
X0114781Y0029069D01*
X0111201Y0025489D01*
X0110366Y0025489D01*
X0109943Y0025913D01*
X0109943Y0035150D01*
X0111031Y0036239D01*
X0112143Y0038922D01*
X0112143Y0041826D01*
X0111031Y0044509D01*
X0109643Y0045898D01*
X0109643Y0046406D01*
X0109661Y0047310D01*
X0109643Y0047359D01*
X0109643Y0047411D01*
X0109296Y0048247D01*
X0108968Y0049090D01*
X0108932Y0049127D01*
X0108912Y0049176D01*
X0108272Y0049815D01*
X0101589Y0056785D01*
X0101569Y0056833D01*
X0100930Y0057472D01*
X0100304Y0058125D01*
X0100256Y0058146D01*
X0100219Y0058183D01*
X0099384Y0058529D01*
X0098555Y0058893D01*
X0098503Y0058894D01*
X0098455Y0058914D01*
X0097550Y0058914D01*
X0096646Y0058933D01*
X0096597Y0058914D01*
X0090315Y0058914D01*
X0091870Y0060469D02*
X0112054Y0060469D01*
X0112197Y0060750D02*
X0111754Y0059880D01*
X0111453Y0058952D01*
X0111300Y0057988D01*
X0111300Y0057500D01*
X0117500Y0057500D01*
X0117500Y0057500D01*
X0117500Y0057500D01*
X0117500Y0063700D01*
X0117012Y0063700D01*
X0116048Y0063547D01*
X0115120Y0063246D01*
X0114250Y0062803D01*
X0113461Y0062229D01*
X0112771Y0061539D01*
X0112197Y0060750D01*
X0111300Y0057500D02*
X0111300Y0057012D01*
X0111453Y0056048D01*
X0111754Y0055120D01*
X0112197Y0054250D01*
X0112771Y0053461D01*
X0113461Y0052771D01*
X0114250Y0052197D01*
X0115120Y0051754D01*
X0116048Y0051453D01*
X0117012Y0051300D01*
X0117500Y0051300D01*
X0117500Y0057500D01*
X0111300Y0057500D01*
X0111300Y0057470D02*
X0100932Y0057470D01*
X0103807Y0054472D02*
X0112085Y0054472D01*
X0115985Y0051473D02*
X0106682Y0051473D01*
X0109208Y0048475D02*
X0122608Y0048475D01*
X0121501Y0045476D02*
X0110064Y0045476D01*
X0111873Y0042478D02*
X0122051Y0042478D01*
X0123494Y0039479D02*
X0112143Y0039479D01*
X0111131Y0036481D02*
X0121672Y0036481D01*
X0121684Y0033482D02*
X0109943Y0033482D01*
X0109943Y0030484D02*
X0123531Y0030484D01*
X0127500Y0036481D02*
X0127500Y0036481D01*
X0127500Y0039479D02*
X0127500Y0039479D01*
X0127500Y0042478D02*
X0127500Y0042478D01*
X0127500Y0045476D02*
X0127500Y0045476D01*
X0127500Y0048475D02*
X0127500Y0048475D01*
X0132392Y0048475D02*
X0138544Y0048475D01*
X0139143Y0051473D02*
X0119015Y0051473D01*
X0117500Y0051473D02*
X0117500Y0051473D01*
X0117500Y0054472D02*
X0117500Y0054472D01*
X0117500Y0057470D02*
X0117500Y0057470D01*
X0117500Y0060469D02*
X0117500Y0060469D01*
X0117500Y0063467D02*
X0117500Y0063467D01*
X0119198Y0063467D02*
X0124762Y0063467D01*
X0127365Y0066466D02*
X0097867Y0066466D01*
X0100866Y0069464D02*
X0130363Y0069464D01*
X0115802Y0063467D02*
X0094868Y0063467D01*
X0089835Y0069464D02*
X0038700Y0069464D01*
X0038700Y0070000D02*
X0032500Y0070000D01*
X0038700Y0070000D01*
X0037734Y0066466D02*
X0086836Y0066466D01*
X0083838Y0063467D02*
X0010550Y0063467D01*
X0010550Y0060469D02*
X0080839Y0060469D01*
X0092833Y0072463D02*
X0053953Y0072463D01*
X0057063Y0075461D02*
X0095832Y0075461D01*
X0098830Y0078460D02*
X0060061Y0078460D01*
X0055499Y0082100D02*
X0051299Y0077900D01*
X0038500Y0077900D01*
X0038500Y0082485D01*
X0035985Y0085000D01*
X0038500Y0087515D01*
X0038500Y0092485D01*
X0035985Y0095000D01*
X0037192Y0096207D01*
X0050857Y0082541D01*
X0051923Y0082100D01*
X0055499Y0082100D01*
X0054857Y0081458D02*
X0038500Y0081458D01*
X0038500Y0078460D02*
X0051859Y0078460D01*
X0048942Y0084457D02*
X0036528Y0084457D01*
X0038441Y0087455D02*
X0045943Y0087455D01*
X0042945Y0090454D02*
X0038500Y0090454D01*
X0037533Y0093452D02*
X0039946Y0093452D01*
X0046619Y0103982D02*
X0044602Y0105999D01*
X0045150Y0106547D01*
X0045150Y0113453D01*
X0043940Y0114663D01*
X0047077Y0117514D01*
X0047143Y0117541D01*
X0047502Y0117901D01*
X0047878Y0118242D01*
X0047908Y0118307D01*
X0047958Y0118357D01*
X0048017Y0118498D01*
X0049015Y0117500D01*
X0047413Y0115899D01*
X0046500Y0113693D01*
X0046500Y0111307D01*
X0047413Y0109101D01*
X0049015Y0107500D01*
X0047413Y0105899D01*
X0046619Y0103982D01*
X0047226Y0105446D02*
X0045155Y0105446D01*
X0045150Y0108445D02*
X0048070Y0108445D01*
X0046500Y0111443D02*
X0045150Y0111443D01*
X0044161Y0114442D02*
X0046810Y0114442D01*
X0046996Y0117440D02*
X0048955Y0117440D01*
X0042600Y0121283D02*
X0041280Y0120083D01*
X0041664Y0120563D01*
X0041958Y0120857D01*
X0042022Y0121010D01*
X0042125Y0121139D01*
X0042241Y0121539D01*
X0042400Y0121923D01*
X0042400Y0122088D01*
X0042446Y0122247D01*
X0042400Y0122661D01*
X0042400Y0140799D01*
X0042600Y0140999D01*
X0042600Y0139923D01*
X0042600Y0121283D01*
X0041672Y0120439D02*
X0041565Y0120439D01*
X0042400Y0123437D02*
X0042600Y0123437D01*
X0042600Y0126436D02*
X0042400Y0126436D01*
X0042400Y0129434D02*
X0042600Y0129434D01*
X0042600Y0132433D02*
X0042400Y0132433D01*
X0042400Y0135432D02*
X0042600Y0135432D01*
X0042600Y0138430D02*
X0042400Y0138430D01*
X0037192Y0143793D02*
X0034985Y0146000D01*
X0030015Y0146000D01*
X0027500Y0143485D01*
X0024985Y0146000D01*
X0020015Y0146000D01*
X0016500Y0142485D01*
X0016500Y0137515D01*
X0019015Y0135000D01*
X0016915Y0132900D01*
X0016201Y0132900D01*
X0015400Y0133701D01*
X0015400Y0173111D01*
X0016995Y0172450D01*
X0019005Y0172450D01*
X0020861Y0173219D01*
X0022281Y0174639D01*
X0023050Y0176495D01*
X0023050Y0178166D01*
X0025950Y0181066D01*
X0025950Y0173797D01*
X0027297Y0172450D01*
X0028503Y0172450D01*
X0028541Y0172357D01*
X0037051Y0163848D01*
X0036950Y0163604D01*
X0036950Y0161396D01*
X0037795Y0159356D01*
X0039356Y0157795D01*
X0039836Y0157596D01*
X0039486Y0157418D01*
X0038754Y0156886D01*
X0038114Y0156246D01*
X0037582Y0155514D01*
X0037171Y0154707D01*
X0036892Y0153846D01*
X0036750Y0152953D01*
X0036750Y0152500D01*
X0042500Y0152500D01*
X0042500Y0152500D01*
X0036750Y0152500D01*
X0036750Y0152047D01*
X0036892Y0151154D01*
X0037171Y0150293D01*
X0037582Y0149486D01*
X0038114Y0148754D01*
X0038754Y0148114D01*
X0039486Y0147582D01*
X0040293Y0147171D01*
X0040502Y0147103D01*
X0037192Y0143793D01*
X0036558Y0144427D02*
X0037826Y0144427D01*
X0039794Y0147426D02*
X0015400Y0147426D01*
X0015400Y0150424D02*
X0037129Y0150424D01*
X0036824Y0153423D02*
X0015400Y0153423D01*
X0015400Y0156421D02*
X0038289Y0156421D01*
X0037769Y0159420D02*
X0015400Y0159420D01*
X0015400Y0162418D02*
X0036950Y0162418D01*
X0035482Y0165417D02*
X0015400Y0165417D01*
X0015400Y0168415D02*
X0032484Y0168415D01*
X0029485Y0171414D02*
X0015400Y0171414D01*
X0022054Y0174412D02*
X0025950Y0174412D01*
X0025950Y0177411D02*
X0023050Y0177411D01*
X0025293Y0180409D02*
X0025950Y0180409D01*
X0035853Y0181400D02*
X0069216Y0181400D01*
X0078800Y0171816D01*
X0078800Y0171764D01*
X0079363Y0170404D01*
X0080404Y0169363D01*
X0081764Y0168800D01*
X0083236Y0168800D01*
X0084596Y0169363D01*
X0085637Y0170404D01*
X0086200Y0171764D01*
X0086200Y0173236D01*
X0085637Y0174596D01*
X0084596Y0175637D01*
X0083236Y0176200D01*
X0083184Y0176200D01*
X0074284Y0185100D01*
X0125999Y0185100D01*
X0115857Y0174958D01*
X0115041Y0174143D01*
X0114600Y0173077D01*
X0114600Y0161201D01*
X0103799Y0150400D01*
X0068124Y0150400D01*
X0068500Y0151307D01*
X0068500Y0153693D01*
X0067587Y0155899D01*
X0065985Y0157500D01*
X0067587Y0159101D01*
X0068500Y0161307D01*
X0068500Y0163693D01*
X0067587Y0165899D01*
X0065985Y0167500D01*
X0067587Y0169101D01*
X0068500Y0171307D01*
X0068500Y0173693D01*
X0067587Y0175899D01*
X0065899Y0177587D01*
X0063693Y0178500D01*
X0061307Y0178500D01*
X0059101Y0177587D01*
X0057500Y0175985D01*
X0055899Y0177587D01*
X0053693Y0178500D01*
X0051307Y0178500D01*
X0049101Y0177587D01*
X0047413Y0175899D01*
X0046500Y0173693D01*
X0046500Y0171307D01*
X0047413Y0169101D01*
X0049015Y0167500D01*
X0047413Y0165899D01*
X0047256Y0165520D01*
X0047205Y0165644D01*
X0045644Y0167205D01*
X0043604Y0168050D01*
X0041396Y0168050D01*
X0041152Y0167949D01*
X0035677Y0173424D01*
X0036050Y0173797D01*
X0036050Y0181203D01*
X0035853Y0181400D01*
X0036050Y0180409D02*
X0070207Y0180409D01*
X0073205Y0177411D02*
X0066075Y0177411D01*
X0068202Y0174412D02*
X0076204Y0174412D01*
X0078945Y0171414D02*
X0068500Y0171414D01*
X0066900Y0168415D02*
X0114600Y0168415D01*
X0114600Y0171414D02*
X0086055Y0171414D01*
X0085713Y0174412D02*
X0115311Y0174412D01*
X0115857Y0174958D02*
X0115857Y0174958D01*
X0118309Y0177411D02*
X0081973Y0177411D01*
X0078975Y0180409D02*
X0121308Y0180409D01*
X0124306Y0183408D02*
X0075976Y0183408D01*
X0058925Y0177411D02*
X0056075Y0177411D01*
X0048925Y0177411D02*
X0036050Y0177411D01*
X0036050Y0174412D02*
X0046798Y0174412D01*
X0046500Y0171414D02*
X0037688Y0171414D01*
X0040686Y0168415D02*
X0048100Y0168415D01*
X0067064Y0156421D02*
X0109820Y0156421D01*
X0112818Y0159420D02*
X0067718Y0159420D01*
X0068500Y0162418D02*
X0114600Y0162418D01*
X0114600Y0165417D02*
X0067786Y0165417D01*
X0068500Y0153423D02*
X0106821Y0153423D01*
X0103823Y0150424D02*
X0068134Y0150424D01*
X0068124Y0144600D02*
X0105577Y0144600D01*
X0106643Y0145041D01*
X0107458Y0145857D01*
X0107458Y0145857D01*
X0119143Y0157541D01*
X0119958Y0158357D01*
X0120400Y0159423D01*
X0120400Y0171299D01*
X0130401Y0181300D01*
X0130736Y0181300D01*
X0132096Y0181863D01*
X0133137Y0182904D01*
X0133700Y0184264D01*
X0133700Y0185100D01*
X0140799Y0185100D01*
X0153541Y0172357D01*
X0154357Y0171541D01*
X0155423Y0171100D01*
X0156876Y0171100D01*
X0156500Y0170193D01*
X0156500Y0167807D01*
X0157413Y0165601D01*
X0159101Y0163913D01*
X0161186Y0163050D01*
X0155899Y0163050D01*
X0152940Y0161824D01*
X0150676Y0159560D01*
X0149450Y0156601D01*
X0149450Y0134651D01*
X0149143Y0134958D01*
X0148077Y0135400D01*
X0147793Y0135400D01*
X0147587Y0135899D01*
X0145985Y0137500D01*
X0147587Y0139101D01*
X0148500Y0141307D01*
X0148500Y0143693D01*
X0147587Y0145899D01*
X0145985Y0147500D01*
X0147587Y0149101D01*
X0148500Y0151307D01*
X0148500Y0153693D01*
X0147587Y0155899D01*
X0145985Y0157500D01*
X0147587Y0159101D01*
X0148500Y0161307D01*
X0148500Y0163693D01*
X0147587Y0165899D01*
X0145985Y0167500D01*
X0147587Y0169101D01*
X0148500Y0171307D01*
X0148500Y0173693D01*
X0147587Y0175899D01*
X0145899Y0177587D01*
X0143693Y0178500D01*
X0141307Y0178500D01*
X0139101Y0177587D01*
X0137500Y0175985D01*
X0135899Y0177587D01*
X0133693Y0178500D01*
X0131307Y0178500D01*
X0129101Y0177587D01*
X0127413Y0175899D01*
X0126500Y0173693D01*
X0126500Y0171307D01*
X0127413Y0169101D01*
X0129015Y0167500D01*
X0127413Y0165899D01*
X0126500Y0163693D01*
X0126500Y0161307D01*
X0127413Y0159101D01*
X0129015Y0157500D01*
X0127413Y0155899D01*
X0127207Y0155400D01*
X0119423Y0155400D01*
X0118357Y0154958D01*
X0117541Y0154143D01*
X0112541Y0149143D01*
X0112100Y0148077D01*
X0112100Y0127049D01*
X0111736Y0127200D01*
X0110264Y0127200D01*
X0108904Y0126637D01*
X0107863Y0125596D01*
X0107300Y0124236D01*
X0107300Y0122764D01*
X0107863Y0121404D01*
X0108100Y0121167D01*
X0108100Y0105201D01*
X0095799Y0092900D01*
X0057701Y0092900D01*
X0053982Y0096619D01*
X0055899Y0097413D01*
X0057500Y0099015D01*
X0059101Y0097413D01*
X0061307Y0096500D01*
X0063693Y0096500D01*
X0065899Y0097413D01*
X0067587Y0099101D01*
X0067710Y0099400D01*
X0092867Y0099400D01*
X0092904Y0099363D01*
X0094264Y0098800D01*
X0095736Y0098800D01*
X0097096Y0099363D01*
X0098137Y0100404D01*
X0098700Y0101764D01*
X0098700Y0103236D01*
X0098137Y0104596D01*
X0097096Y0105637D01*
X0095736Y0106200D01*
X0094264Y0106200D01*
X0092904Y0105637D01*
X0092867Y0105600D01*
X0067710Y0105600D01*
X0067587Y0105899D01*
X0065985Y0107500D01*
X0067587Y0109101D01*
X0068500Y0111307D01*
X0068500Y0113693D01*
X0067587Y0115899D01*
X0065985Y0117500D01*
X0067587Y0119101D01*
X0068500Y0121307D01*
X0068500Y0123693D01*
X0067587Y0125899D01*
X0065985Y0127500D01*
X0067587Y0129101D01*
X0068500Y0131307D01*
X0068500Y0133693D01*
X0067587Y0135899D01*
X0065985Y0137500D01*
X0067587Y0139101D01*
X0068500Y0141307D01*
X0068500Y0143693D01*
X0068124Y0144600D01*
X0068196Y0144427D02*
X0112100Y0144427D01*
X0112100Y0141429D02*
X0068500Y0141429D01*
X0066915Y0138430D02*
X0112100Y0138430D01*
X0112100Y0135432D02*
X0067780Y0135432D01*
X0068500Y0132433D02*
X0112100Y0132433D01*
X0112100Y0129434D02*
X0067725Y0129434D01*
X0067049Y0126436D02*
X0108703Y0126436D01*
X0107300Y0123437D02*
X0068500Y0123437D01*
X0068141Y0120439D02*
X0108100Y0120439D01*
X0108100Y0117440D02*
X0066045Y0117440D01*
X0068190Y0114442D02*
X0108100Y0114442D01*
X0108100Y0111443D02*
X0068500Y0111443D01*
X0066930Y0108445D02*
X0108100Y0108445D01*
X0108100Y0105446D02*
X0097286Y0105446D01*
X0098700Y0102448D02*
X0105347Y0102448D01*
X0102348Y0099449D02*
X0097182Y0099449D01*
X0099350Y0096451D02*
X0054150Y0096451D01*
X0057149Y0093452D02*
X0096351Y0093452D01*
X0109861Y0078460D02*
X0147100Y0078460D01*
X0147100Y0075461D02*
X0106863Y0075461D01*
X0103864Y0072463D02*
X0147100Y0072463D01*
X0152900Y0072463D02*
X0154661Y0072463D01*
X0155899Y0071950D02*
X0180000Y0071950D01*
X0180380Y0071913D01*
X0181083Y0071621D01*
X0181621Y0071083D01*
X0181913Y0070380D01*
X0181950Y0070000D01*
X0181950Y0068164D01*
X0181508Y0068607D01*
X0180787Y0069160D01*
X0180000Y0069614D01*
X0179161Y0069961D01*
X0178284Y0070196D01*
X0177383Y0070315D01*
X0172500Y0070315D01*
X0172500Y0063386D01*
X0172500Y0063386D01*
X0172500Y0070315D01*
X0167617Y0070315D01*
X0166716Y0070196D01*
X0165839Y0069961D01*
X0165000Y0069614D01*
X0164213Y0069160D01*
X0163492Y0068607D01*
X0162850Y0067964D01*
X0162297Y0067244D01*
X0161843Y0066457D01*
X0161495Y0065618D01*
X0161260Y0064741D01*
X0161142Y0063840D01*
X0161142Y0063386D01*
X0172500Y0063386D01*
X0172500Y0063386D01*
X0161142Y0063386D01*
X0161142Y0062932D01*
X0161260Y0062031D01*
X0161495Y0061154D01*
X0161843Y0060315D01*
X0162297Y0059528D01*
X0162850Y0058807D01*
X0163492Y0058165D01*
X0164213Y0057612D01*
X0165000Y0057158D01*
X0165839Y0056810D01*
X0166716Y0056575D01*
X0167617Y0056457D01*
X0172500Y0056457D01*
X0177383Y0056457D01*
X0178284Y0056575D01*
X0179161Y0056810D01*
X0180000Y0057158D01*
X0180787Y0057612D01*
X0181508Y0058165D01*
X0181950Y0058607D01*
X0181950Y0052574D01*
X0181508Y0053016D01*
X0180787Y0053569D01*
X0180000Y0054023D01*
X0179161Y0054371D01*
X0178284Y0054606D01*
X0177383Y0054724D01*
X0172500Y0054724D01*
X0167617Y0054724D01*
X0166716Y0054606D01*
X0165839Y0054371D01*
X0165000Y0054023D01*
X0164213Y0053569D01*
X0163492Y0053016D01*
X0162850Y0052374D01*
X0162297Y0051653D01*
X0161843Y0050867D01*
X0161495Y0050027D01*
X0161260Y0049150D01*
X0161142Y0048249D01*
X0161142Y0047795D01*
X0161142Y0047341D01*
X0161260Y0046441D01*
X0161495Y0045563D01*
X0161843Y0044724D01*
X0162297Y0043937D01*
X0162850Y0043217D01*
X0163492Y0042574D01*
X0164213Y0042022D01*
X0165000Y0041567D01*
X0165839Y0041220D01*
X0166716Y0040985D01*
X0167617Y0040866D01*
X0172500Y0040866D01*
X0177383Y0040866D01*
X0178284Y0040985D01*
X0179161Y0041220D01*
X0180000Y0041567D01*
X0180787Y0042022D01*
X0181508Y0042574D01*
X0181950Y0043017D01*
X0181950Y0036700D01*
X0180741Y0037909D01*
X0178268Y0038934D01*
X0166732Y0038934D01*
X0164259Y0037909D01*
X0162366Y0036016D01*
X0161342Y0033543D01*
X0161342Y0030866D01*
X0162366Y0028393D01*
X0164259Y0026500D01*
X0166732Y0025476D01*
X0167700Y0025476D01*
X0167700Y0023343D01*
X0166732Y0023343D01*
X0164259Y0022319D01*
X0163354Y0021414D01*
X0142874Y0021414D01*
X0140534Y0023754D01*
X0142095Y0023107D01*
X0143905Y0023107D01*
X0145577Y0023800D01*
X0146857Y0025080D01*
X0147550Y0026752D01*
X0147550Y0028106D01*
X0152458Y0033015D01*
X0152900Y0034081D01*
X0152900Y0070577D01*
X0152900Y0073216D01*
X0152940Y0073176D01*
X0155899Y0071950D01*
X0152940Y0073176D02*
X0152940Y0073176D01*
X0152900Y0069464D02*
X0164741Y0069464D01*
X0161848Y0066466D02*
X0152900Y0066466D01*
X0152900Y0063467D02*
X0161142Y0063467D01*
X0161779Y0060469D02*
X0152900Y0060469D01*
X0152900Y0057470D02*
X0164459Y0057470D01*
X0166216Y0054472D02*
X0152900Y0054472D01*
X0152900Y0051473D02*
X0162193Y0051473D01*
X0161171Y0048475D02*
X0152900Y0048475D01*
X0152900Y0045476D02*
X0161531Y0045476D01*
X0163619Y0042478D02*
X0152900Y0042478D01*
X0152900Y0039479D02*
X0181950Y0039479D01*
X0181950Y0042478D02*
X0181381Y0042478D01*
X0172500Y0042478D02*
X0172500Y0042478D01*
X0172500Y0040866D02*
X0172500Y0047795D01*
X0172500Y0047795D01*
X0172500Y0040866D01*
X0172500Y0045476D02*
X0172500Y0045476D01*
X0172500Y0047795D02*
X0161142Y0047795D01*
X0172500Y0047795D01*
X0172500Y0047795D01*
X0172500Y0054724D01*
X0172500Y0047795D01*
X0172500Y0047795D01*
X0172500Y0048475D02*
X0172500Y0048475D01*
X0172500Y0051473D02*
X0172500Y0051473D01*
X0172500Y0054472D02*
X0172500Y0054472D01*
X0172500Y0056457D02*
X0172500Y0063386D01*
X0172500Y0063386D01*
X0172500Y0056457D01*
X0172500Y0057470D02*
X0172500Y0057470D01*
X0172500Y0060469D02*
X0172500Y0060469D01*
X0172500Y0063467D02*
X0172500Y0063467D01*
X0172500Y0066466D02*
X0172500Y0066466D01*
X0172500Y0069464D02*
X0172500Y0069464D01*
X0180259Y0069464D02*
X0181950Y0069464D01*
X0181950Y0057470D02*
X0180541Y0057470D01*
X0181950Y0054472D02*
X0178784Y0054472D01*
X0162830Y0036481D02*
X0152900Y0036481D01*
X0152652Y0033482D02*
X0161342Y0033482D01*
X0161500Y0030484D02*
X0149927Y0030484D01*
X0147550Y0027485D02*
X0163274Y0027485D01*
X0167700Y0024487D02*
X0146264Y0024487D01*
X0142800Y0021488D02*
X0163428Y0021488D01*
X0163354Y0011814D02*
X0141841Y0011814D01*
X0139931Y0011814D01*
X0138167Y0012545D01*
X0132300Y0018412D01*
X0132300Y0018402D01*
X0132417Y0018285D01*
X0133300Y0016154D01*
X0133300Y0013846D01*
X0132417Y0011715D01*
X0131252Y0010550D01*
X0165127Y0010550D01*
X0164259Y0010909D01*
X0163354Y0011814D01*
X0144723Y0033482D02*
X0133316Y0033482D01*
X0133328Y0036481D02*
X0147100Y0036481D01*
X0147100Y0039479D02*
X0131506Y0039479D01*
X0132949Y0042478D02*
X0147100Y0042478D01*
X0138848Y0045476D02*
X0133499Y0045476D01*
X0131469Y0030484D02*
X0139391Y0030484D01*
X0138450Y0027485D02*
X0136803Y0027485D01*
X0135221Y0015491D02*
X0133300Y0015491D01*
X0132739Y0012493D02*
X0138293Y0012493D01*
X0122261Y0012493D02*
X0059159Y0012493D01*
X0060337Y0015491D02*
X0079749Y0015491D01*
X0055451Y0027485D02*
X0055200Y0027485D01*
X0051054Y0039479D02*
X0048418Y0039479D01*
X0047050Y0042478D02*
X0052417Y0042478D01*
X0055384Y0045476D02*
X0044202Y0045476D01*
X0039265Y0045476D02*
X0036365Y0045476D01*
X0036365Y0042478D02*
X0039265Y0042478D01*
X0039265Y0039479D02*
X0036365Y0039479D01*
X0031428Y0045476D02*
X0010550Y0045476D01*
X0010550Y0042478D02*
X0028580Y0042478D01*
X0027212Y0039479D02*
X0010550Y0039479D01*
X0010550Y0048475D02*
X0056637Y0048475D01*
X0057292Y0051473D02*
X0010550Y0051473D01*
X0010550Y0054472D02*
X0060184Y0054472D01*
X0063182Y0057470D02*
X0010550Y0057470D01*
X0010550Y0066466D02*
X0017549Y0066466D01*
X0016500Y0069464D02*
X0010550Y0069464D01*
X0010550Y0072463D02*
X0016500Y0072463D01*
X0018553Y0075461D02*
X0010550Y0075461D01*
X0010550Y0078460D02*
X0014939Y0078460D01*
X0012293Y0081458D02*
X0010550Y0081458D01*
X0010550Y0084457D02*
X0012100Y0084457D01*
X0012100Y0087455D02*
X0010550Y0087455D01*
X0010550Y0090454D02*
X0012100Y0090454D01*
X0012100Y0093452D02*
X0010550Y0093452D01*
X0010550Y0096451D02*
X0012100Y0096451D01*
X0012100Y0099449D02*
X0010550Y0099449D01*
X0010550Y0102448D02*
X0012100Y0102448D01*
X0012100Y0105446D02*
X0010550Y0105446D01*
X0010550Y0108445D02*
X0012100Y0108445D01*
X0012100Y0111443D02*
X0010550Y0111443D01*
X0010550Y0114442D02*
X0012841Y0114442D01*
X0011101Y0117440D02*
X0010550Y0117440D01*
X0015400Y0135432D02*
X0018583Y0135432D01*
X0016500Y0138430D02*
X0015400Y0138430D01*
X0015400Y0141429D02*
X0016500Y0141429D01*
X0015400Y0144427D02*
X0018442Y0144427D01*
X0026558Y0144427D02*
X0028442Y0144427D01*
X0010550Y0187151D02*
X0010550Y0192500D01*
X0010605Y0193196D01*
X0011035Y0194520D01*
X0011853Y0195647D01*
X0012980Y0196465D01*
X0014304Y0196895D01*
X0014925Y0196944D01*
X0014595Y0196490D01*
X0014255Y0195823D01*
X0014024Y0195112D01*
X0013907Y0194374D01*
X0013907Y0194000D01*
X0013907Y0193626D01*
X0014024Y0192888D01*
X0014255Y0192177D01*
X0014595Y0191510D01*
X0014727Y0191328D01*
X0010550Y0187151D01*
X0010550Y0189405D02*
X0012804Y0189405D01*
X0014182Y0192403D02*
X0010550Y0192403D01*
X0011675Y0195402D02*
X0014119Y0195402D01*
X0013907Y0194000D02*
X0018657Y0194000D01*
X0013907Y0194000D01*
X0018657Y0194000D02*
X0018657Y0194000D01*
X0018658Y0194000D02*
X0023407Y0194000D01*
X0018658Y0194000D01*
X0018658Y0194000D01*
X0022385Y0196950D02*
X0034858Y0196950D01*
X0034485Y0196577D01*
X0033793Y0194905D01*
X0033793Y0193095D01*
X0033873Y0192900D01*
X0023292Y0192900D01*
X0023407Y0193626D01*
X0023407Y0194000D01*
X0023407Y0194374D01*
X0023291Y0195112D01*
X0023059Y0195823D01*
X0022720Y0196490D01*
X0022385Y0196950D01*
X0023196Y0195402D02*
X0033998Y0195402D01*
X0041827Y0196950D02*
X0177500Y0196950D01*
X0178196Y0196895D01*
X0179520Y0196465D01*
X0180647Y0195647D01*
X0181465Y0194520D01*
X0181895Y0193196D01*
X0181950Y0192500D01*
X0181950Y0165000D01*
X0181913Y0164620D01*
X0181621Y0163917D01*
X0181083Y0163379D01*
X0180380Y0163087D01*
X0180000Y0163050D01*
X0173814Y0163050D01*
X0175899Y0163913D01*
X0177587Y0165601D01*
X0178500Y0167807D01*
X0178500Y0170193D01*
X0177587Y0172399D01*
X0176061Y0173924D01*
X0176539Y0174271D01*
X0177229Y0174961D01*
X0177803Y0175750D01*
X0178246Y0176620D01*
X0178547Y0177548D01*
X0178700Y0178512D01*
X0178700Y0179000D01*
X0178700Y0179488D01*
X0178547Y0180452D01*
X0178246Y0181380D01*
X0177803Y0182250D01*
X0177229Y0183039D01*
X0176539Y0183729D01*
X0176061Y0184076D01*
X0177587Y0185601D01*
X0178500Y0187807D01*
X0178500Y0190193D01*
X0177587Y0192399D01*
X0175899Y0194087D01*
X0173693Y0195000D01*
X0171307Y0195000D01*
X0169101Y0194087D01*
X0167500Y0192485D01*
X0165899Y0194087D01*
X0163693Y0195000D01*
X0161307Y0195000D01*
X0159101Y0194087D01*
X0157413Y0192399D01*
X0157207Y0191900D01*
X0154701Y0191900D01*
X0154143Y0192458D01*
X0153077Y0192900D01*
X0042812Y0192900D01*
X0042893Y0193095D01*
X0042893Y0194905D01*
X0042200Y0196577D01*
X0041827Y0196950D01*
X0042687Y0195402D02*
X0180825Y0195402D01*
X0181950Y0192403D02*
X0177582Y0192403D01*
X0178500Y0189405D02*
X0181950Y0189405D01*
X0181950Y0186406D02*
X0177920Y0186406D01*
X0176860Y0183408D02*
X0181950Y0183408D01*
X0181950Y0180409D02*
X0178554Y0180409D01*
X0178700Y0179000D02*
X0172500Y0179000D01*
X0172500Y0179000D01*
X0178700Y0179000D01*
X0178503Y0177411D02*
X0181950Y0177411D01*
X0181950Y0174412D02*
X0176680Y0174412D01*
X0177995Y0171414D02*
X0181950Y0171414D01*
X0181950Y0168415D02*
X0178500Y0168415D01*
X0177402Y0165417D02*
X0181950Y0165417D01*
X0157598Y0165417D02*
X0147786Y0165417D01*
X0148500Y0162418D02*
X0154373Y0162418D01*
X0152940Y0161824D02*
X0152940Y0161824D01*
X0150676Y0159560D02*
X0150676Y0159560D01*
X0150617Y0159420D02*
X0147718Y0159420D01*
X0147064Y0156421D02*
X0149450Y0156421D01*
X0149450Y0153423D02*
X0148500Y0153423D01*
X0148134Y0150424D02*
X0149450Y0150424D01*
X0149450Y0147426D02*
X0146060Y0147426D01*
X0148196Y0144427D02*
X0149450Y0144427D01*
X0149450Y0141429D02*
X0148500Y0141429D01*
X0149450Y0138430D02*
X0146915Y0138430D01*
X0147780Y0135432D02*
X0149450Y0135432D01*
X0142500Y0112500D02*
X0138700Y0112500D01*
X0132500Y0112500D01*
X0132500Y0112500D01*
X0132500Y0112500D01*
X0126300Y0112500D01*
X0126300Y0112988D01*
X0126453Y0113952D01*
X0126754Y0114880D01*
X0127197Y0115750D01*
X0127771Y0116539D01*
X0128461Y0117229D01*
X0128939Y0117576D01*
X0127413Y0119101D01*
X0127207Y0119600D01*
X0126201Y0119600D01*
X0122900Y0116299D01*
X0122900Y0102530D01*
X0126177Y0105806D01*
X0127610Y0106400D01*
X0127915Y0106400D01*
X0128939Y0107424D01*
X0128461Y0107771D01*
X0127771Y0108461D01*
X0127197Y0109250D01*
X0126754Y0110120D01*
X0126453Y0111048D01*
X0126300Y0112012D01*
X0126300Y0112500D01*
X0132500Y0112500D01*
X0142500Y0112500D01*
X0142500Y0112500D01*
X0128752Y0117440D02*
X0124042Y0117440D01*
X0122900Y0114442D02*
X0126612Y0114442D01*
X0126390Y0111443D02*
X0122900Y0111443D01*
X0122900Y0108445D02*
X0127787Y0108445D01*
X0125817Y0105446D02*
X0122900Y0105446D01*
X0127852Y0096451D02*
X0147100Y0096451D01*
X0147100Y0093452D02*
X0124854Y0093452D01*
X0121855Y0090454D02*
X0147100Y0090454D01*
X0147100Y0087455D02*
X0118857Y0087455D01*
X0115858Y0084457D02*
X0147100Y0084457D01*
X0147100Y0081458D02*
X0112860Y0081458D01*
X0113197Y0027485D02*
X0109943Y0027485D01*
X0117778Y0018490D02*
X0122700Y0018490D01*
X0121700Y0015491D02*
X0109968Y0015491D01*
X0032500Y0063800D02*
X0032500Y0070000D01*
X0032500Y0070000D01*
X0032500Y0070000D01*
X0032500Y0063800D01*
X0032500Y0066466D02*
X0032500Y0066466D01*
X0032500Y0069464D02*
X0032500Y0069464D01*
X0109027Y0147426D02*
X0112100Y0147426D01*
X0112025Y0150424D02*
X0113823Y0150424D01*
X0115024Y0153423D02*
X0116821Y0153423D01*
X0118022Y0156421D02*
X0127936Y0156421D01*
X0127282Y0159420D02*
X0120399Y0159420D01*
X0119143Y0157541D02*
X0119143Y0157541D01*
X0120400Y0162418D02*
X0126500Y0162418D01*
X0127214Y0165417D02*
X0120400Y0165417D01*
X0120400Y0168415D02*
X0128100Y0168415D01*
X0126500Y0171414D02*
X0120515Y0171414D01*
X0123513Y0174412D02*
X0126798Y0174412D01*
X0126512Y0177411D02*
X0128925Y0177411D01*
X0129510Y0180409D02*
X0145490Y0180409D01*
X0146075Y0177411D02*
X0148488Y0177411D01*
X0148202Y0174412D02*
X0151487Y0174412D01*
X0148500Y0171414D02*
X0154666Y0171414D01*
X0156500Y0168415D02*
X0146900Y0168415D01*
X0138925Y0177411D02*
X0136075Y0177411D01*
X0133345Y0183408D02*
X0142491Y0183408D01*
X0154198Y0192403D02*
X0157418Y0192403D01*
D23*
X0180500Y0175500D03*
X0130000Y0185000D03*
X0125500Y0194500D03*
X0107500Y0167500D03*
X0094500Y0172500D03*
X0082500Y0172500D03*
X0076500Y0166500D03*
X0074000Y0141500D03*
X0074000Y0116000D03*
X0057500Y0096500D03*
X0042500Y0085000D03*
X0052500Y0080500D03*
X0065000Y0072500D03*
X0095500Y0094500D03*
X0095000Y0102500D03*
X0105500Y0114500D03*
X0111000Y0123500D03*
X0127500Y0090000D03*
X0180000Y0040000D03*
X0152500Y0025000D03*
X0137500Y0012500D03*
X0044500Y0115000D03*
X0042500Y0123000D03*
X0017500Y0157500D03*
X0028500Y0158000D03*
X0062000Y0194000D03*
X0020000Y0012500D03*
D24*
X0062500Y0102500D02*
X0095000Y0102500D01*
X0137500Y0057500D02*
X0143000Y0052000D01*
X0143000Y0047343D01*
X0175000Y0162500D02*
X0180500Y0168000D01*
X0180500Y0175500D01*
X0082500Y0172500D02*
X0070500Y0184500D01*
X0025000Y0184500D01*
X0018000Y0177500D01*
D25*
X0012500Y0180000D02*
X0020500Y0188000D01*
X0142000Y0188000D01*
X0156000Y0174000D01*
X0167500Y0174000D01*
X0172500Y0169000D01*
X0162500Y0189000D02*
X0153500Y0189000D01*
X0152500Y0190000D01*
X0017500Y0190000D01*
X0010000Y0182500D01*
X0010000Y0122500D01*
X0012500Y0120000D01*
X0022500Y0120000D01*
X0017500Y0115000D02*
X0040000Y0115000D01*
X0045500Y0120000D01*
X0045500Y0140500D01*
X0047500Y0142500D01*
X0052500Y0142500D01*
X0045000Y0147500D02*
X0105000Y0147500D01*
X0117500Y0160000D01*
X0117500Y0172500D01*
X0130000Y0185000D01*
X0132500Y0152500D02*
X0120000Y0152500D01*
X0115000Y0147500D01*
X0115000Y0104000D01*
X0098500Y0087500D01*
X0054500Y0087500D01*
X0037000Y0105000D01*
X0027500Y0105000D01*
X0022500Y0100000D01*
X0032500Y0100000D02*
X0037500Y0100000D01*
X0052500Y0085000D01*
X0100000Y0085000D01*
X0117500Y0102500D01*
X0117500Y0137500D01*
X0122500Y0142500D01*
X0132500Y0142500D01*
X0142500Y0132500D02*
X0147500Y0132500D01*
X0150000Y0130000D01*
X0150000Y0070000D01*
X0147500Y0067500D01*
X0132500Y0067500D01*
X0127500Y0062500D01*
X0127500Y0057500D01*
X0150000Y0070000D02*
X0150000Y0034657D01*
X0143000Y0027657D01*
X0101500Y0082500D02*
X0060000Y0082500D01*
X0052500Y0075000D01*
X0027500Y0075000D01*
X0022500Y0070000D01*
X0022500Y0080000D02*
X0017500Y0080000D01*
X0015000Y0082500D01*
X0015000Y0112500D01*
X0017500Y0115000D01*
X0015000Y0130000D02*
X0022500Y0130000D01*
X0015000Y0130000D02*
X0012500Y0132500D01*
X0012500Y0180000D01*
X0031000Y0177500D02*
X0031000Y0174000D01*
X0042500Y0162500D01*
X0045000Y0147500D02*
X0039500Y0142000D01*
X0039500Y0122500D01*
X0037500Y0120000D01*
X0032500Y0120000D01*
X0032500Y0110000D02*
X0038400Y0110000D01*
X0041600Y0110000D02*
X0041600Y0105100D01*
X0041500Y0105000D01*
X0056500Y0090000D01*
X0097000Y0090000D01*
X0111000Y0104000D01*
X0111000Y0123500D01*
X0120000Y0117500D02*
X0125000Y0122500D01*
X0132500Y0122500D01*
X0120000Y0117500D02*
X0120000Y0101000D01*
X0101500Y0082500D01*
D26*
X0104311Y0020689D02*
X0104843Y0020689D01*
D27*
X0104843Y0040374D01*
X0105000Y0040531D01*
D28*
X0080000Y0054114D02*
X0128386Y0102500D01*
X0142500Y0102500D01*
X0132500Y0102500D01*
D29*
X0097500Y0054114D02*
X0104843Y0046457D01*
X0104843Y0040374D01*
X0097500Y0054114D02*
X0080000Y0054114D01*
X0066614Y0054114D01*
X0061437Y0048937D01*
X0061437Y0036500D01*
X0104843Y0020689D02*
X0113189Y0020689D01*
X0117500Y0025000D01*
X0127500Y0025000D01*
X0127500Y0015000D01*
X0127500Y0025000D02*
X0132500Y0025000D01*
X0140886Y0016614D01*
X0172500Y0016614D01*
X0172500Y0032205D01*
M02*
