%
M48
M72
T01C0.01400
T02C0.02756
T03C0.03000
T04C0.03200
T05C0.04000
T06C0.04724
T07C0.05906
T08C0.11800
%
T01
X200500Y195500
X20000Y12500
X43000Y72000
X12500Y78000
X53000Y112000
X54500Y135000
X47500Y145500
X53500Y173000
X28500Y175500
X27500Y190000
X60500Y207000
X86500Y186500
X92500Y192500
X104500Y192500
X117500Y187500
X140000Y205000
X165500Y212000
X115500Y134500
X121000Y128500
X108000Y124500
X95000Y117500
X89500Y99000
X85000Y91500
X81000Y78500
X75500Y109500
X84000Y136000
X84000Y161500
X135000Y97500
X153000Y74500
X113000Y67000
X160000Y17500
X200000Y40000
X200000Y65000
T02
X42500Y172500
X42500Y182500
T03
X50157Y69500
X69843Y69500
X52500Y187657
X52500Y207343
X33500Y202500
X20500Y202500
T04
X15000Y69500
X25000Y69500
X35000Y69500
T05
X192500Y189000
X192500Y199000
X192500Y209000
X182500Y209000
X182500Y199000
X182500Y189000
X22500Y90000
X22500Y100000
X22500Y110000
X22500Y120000
X22500Y130000
X22500Y140000
X22500Y150000
X22500Y160000
X32500Y160000
X32500Y150000
X32500Y140000
X32500Y130000
X32500Y120000
X32500Y110000
X32500Y100000
X32500Y90000
X62500Y102500
X62500Y112500
X62500Y122500
X62500Y132500
X62500Y142500
X62500Y152500
X62500Y162500
X62500Y172500
X62500Y182500
X62500Y192500
X72500Y192500
X72500Y182500
X72500Y172500
X72500Y162500
X72500Y152500
X72500Y142500
X72500Y132500
X72500Y122500
X142500Y122500
X152500Y122500
X152500Y112500
X152500Y102500
X152500Y132500
X152500Y142500
X142500Y142500
X142500Y132500
X142500Y152500
X142500Y162500
X142500Y172500
X152500Y172500
X152500Y162500
X152500Y152500
X152500Y182500
X152500Y192500
X142500Y192500
X142500Y182500
X142500Y45000
X142500Y35000
X142500Y25000
X142500Y15000
T06
X95157Y20689
X95157Y40374
X114843Y40374
X114843Y20689
T07
X185000Y26614
X185000Y42205
X185000Y57795
X185000Y73386
T08
X37815Y39000
X49626Y20496
X61437Y39000
M30
