G75*
%MOIN*%
%OFA0B0*%
%FSLAX25Y25*%
%IPPOS*%
%LPD*%
%AMOC8*
5,1,8,0,0,1.08239X$1,22.5*
%
%ADD10C,0.00100*%
%ADD11C,0.08000*%
%ADD12OC8,0.08000*%
%ADD13C,0.17600*%
%ADD14C,0.10600*%
%ADD15C,0.07600*%
%ADD16R,0.06100X0.06100*%
%ADD17C,0.06100*%
%ADD18C,0.05100*%
%ADD19C,0.07100*%
%ADD20C,0.09458*%
D10*
X0007500Y0015000D02*
X0007500Y0212500D01*
X0007502Y0212681D01*
X0007509Y0212862D01*
X0007520Y0213043D01*
X0007535Y0213224D01*
X0007555Y0213404D01*
X0007579Y0213584D01*
X0007607Y0213763D01*
X0007640Y0213941D01*
X0007677Y0214118D01*
X0007718Y0214295D01*
X0007763Y0214470D01*
X0007813Y0214645D01*
X0007867Y0214818D01*
X0007925Y0214989D01*
X0007987Y0215160D01*
X0008054Y0215328D01*
X0008124Y0215495D01*
X0008198Y0215661D01*
X0008277Y0215824D01*
X0008359Y0215985D01*
X0008445Y0216145D01*
X0008535Y0216302D01*
X0008629Y0216457D01*
X0008726Y0216610D01*
X0008828Y0216760D01*
X0008932Y0216908D01*
X0009041Y0217054D01*
X0009152Y0217196D01*
X0009268Y0217336D01*
X0009386Y0217473D01*
X0009508Y0217608D01*
X0009633Y0217739D01*
X0009761Y0217867D01*
X0009892Y0217992D01*
X0010027Y0218114D01*
X0010164Y0218232D01*
X0010304Y0218348D01*
X0010446Y0218459D01*
X0010592Y0218568D01*
X0010740Y0218672D01*
X0010890Y0218774D01*
X0011043Y0218871D01*
X0011198Y0218965D01*
X0011355Y0219055D01*
X0011515Y0219141D01*
X0011676Y0219223D01*
X0011839Y0219302D01*
X0012005Y0219376D01*
X0012172Y0219446D01*
X0012340Y0219513D01*
X0012511Y0219575D01*
X0012682Y0219633D01*
X0012855Y0219687D01*
X0013030Y0219737D01*
X0013205Y0219782D01*
X0013382Y0219823D01*
X0013559Y0219860D01*
X0013737Y0219893D01*
X0013916Y0219921D01*
X0014096Y0219945D01*
X0014276Y0219965D01*
X0014457Y0219980D01*
X0014638Y0219991D01*
X0014819Y0219998D01*
X0015000Y0220000D01*
X0197500Y0220000D01*
X0197681Y0219998D01*
X0197862Y0219991D01*
X0198043Y0219980D01*
X0198224Y0219965D01*
X0198404Y0219945D01*
X0198584Y0219921D01*
X0198763Y0219893D01*
X0198941Y0219860D01*
X0199118Y0219823D01*
X0199295Y0219782D01*
X0199470Y0219737D01*
X0199645Y0219687D01*
X0199818Y0219633D01*
X0199989Y0219575D01*
X0200160Y0219513D01*
X0200328Y0219446D01*
X0200495Y0219376D01*
X0200661Y0219302D01*
X0200824Y0219223D01*
X0200985Y0219141D01*
X0201145Y0219055D01*
X0201302Y0218965D01*
X0201457Y0218871D01*
X0201610Y0218774D01*
X0201760Y0218672D01*
X0201908Y0218568D01*
X0202054Y0218459D01*
X0202196Y0218348D01*
X0202336Y0218232D01*
X0202473Y0218114D01*
X0202608Y0217992D01*
X0202739Y0217867D01*
X0202867Y0217739D01*
X0202992Y0217608D01*
X0203114Y0217473D01*
X0203232Y0217336D01*
X0203348Y0217196D01*
X0203459Y0217054D01*
X0203568Y0216908D01*
X0203672Y0216760D01*
X0203774Y0216610D01*
X0203871Y0216457D01*
X0203965Y0216302D01*
X0204055Y0216145D01*
X0204141Y0215985D01*
X0204223Y0215824D01*
X0204302Y0215661D01*
X0204376Y0215495D01*
X0204446Y0215328D01*
X0204513Y0215160D01*
X0204575Y0214989D01*
X0204633Y0214818D01*
X0204687Y0214645D01*
X0204737Y0214470D01*
X0204782Y0214295D01*
X0204823Y0214118D01*
X0204860Y0213941D01*
X0204893Y0213763D01*
X0204921Y0213584D01*
X0204945Y0213404D01*
X0204965Y0213224D01*
X0204980Y0213043D01*
X0204991Y0212862D01*
X0204998Y0212681D01*
X0205000Y0212500D01*
X0205000Y0185000D01*
X0204998Y0184860D01*
X0204992Y0184720D01*
X0204982Y0184580D01*
X0204969Y0184440D01*
X0204951Y0184301D01*
X0204929Y0184162D01*
X0204904Y0184025D01*
X0204875Y0183887D01*
X0204842Y0183751D01*
X0204805Y0183616D01*
X0204764Y0183482D01*
X0204719Y0183349D01*
X0204671Y0183217D01*
X0204619Y0183087D01*
X0204564Y0182958D01*
X0204505Y0182831D01*
X0204442Y0182705D01*
X0204376Y0182581D01*
X0204307Y0182460D01*
X0204234Y0182340D01*
X0204157Y0182222D01*
X0204078Y0182107D01*
X0203995Y0181993D01*
X0203909Y0181883D01*
X0203820Y0181774D01*
X0203728Y0181668D01*
X0203633Y0181565D01*
X0203536Y0181464D01*
X0203435Y0181367D01*
X0203332Y0181272D01*
X0203226Y0181180D01*
X0203117Y0181091D01*
X0203007Y0181005D01*
X0202893Y0180922D01*
X0202778Y0180843D01*
X0202660Y0180766D01*
X0202540Y0180693D01*
X0202419Y0180624D01*
X0202295Y0180558D01*
X0202169Y0180495D01*
X0202042Y0180436D01*
X0201913Y0180381D01*
X0201783Y0180329D01*
X0201651Y0180281D01*
X0201518Y0180236D01*
X0201384Y0180195D01*
X0201249Y0180158D01*
X0201113Y0180125D01*
X0200975Y0180096D01*
X0200838Y0180071D01*
X0200699Y0180049D01*
X0200560Y0180031D01*
X0200420Y0180018D01*
X0200280Y0180008D01*
X0200140Y0180002D01*
X0200000Y0180000D01*
X0167500Y0180000D01*
X0167360Y0179998D01*
X0167220Y0179992D01*
X0167080Y0179982D01*
X0166940Y0179969D01*
X0166801Y0179951D01*
X0166662Y0179929D01*
X0166525Y0179904D01*
X0166387Y0179875D01*
X0166251Y0179842D01*
X0166116Y0179805D01*
X0165982Y0179764D01*
X0165849Y0179719D01*
X0165717Y0179671D01*
X0165587Y0179619D01*
X0165458Y0179564D01*
X0165331Y0179505D01*
X0165205Y0179442D01*
X0165081Y0179376D01*
X0164960Y0179307D01*
X0164840Y0179234D01*
X0164722Y0179157D01*
X0164607Y0179078D01*
X0164493Y0178995D01*
X0164383Y0178909D01*
X0164274Y0178820D01*
X0164168Y0178728D01*
X0164065Y0178633D01*
X0163964Y0178536D01*
X0163867Y0178435D01*
X0163772Y0178332D01*
X0163680Y0178226D01*
X0163591Y0178117D01*
X0163505Y0178007D01*
X0163422Y0177893D01*
X0163343Y0177778D01*
X0163266Y0177660D01*
X0163193Y0177540D01*
X0163124Y0177419D01*
X0163058Y0177295D01*
X0162995Y0177169D01*
X0162936Y0177042D01*
X0162881Y0176913D01*
X0162829Y0176783D01*
X0162781Y0176651D01*
X0162736Y0176518D01*
X0162695Y0176384D01*
X0162658Y0176249D01*
X0162625Y0176113D01*
X0162596Y0175975D01*
X0162571Y0175838D01*
X0162549Y0175699D01*
X0162531Y0175560D01*
X0162518Y0175420D01*
X0162508Y0175280D01*
X0162502Y0175140D01*
X0162500Y0175000D01*
X0162500Y0100000D01*
X0162502Y0099860D01*
X0162508Y0099720D01*
X0162518Y0099580D01*
X0162531Y0099440D01*
X0162549Y0099301D01*
X0162571Y0099162D01*
X0162596Y0099025D01*
X0162625Y0098887D01*
X0162658Y0098751D01*
X0162695Y0098616D01*
X0162736Y0098482D01*
X0162781Y0098349D01*
X0162829Y0098217D01*
X0162881Y0098087D01*
X0162936Y0097958D01*
X0162995Y0097831D01*
X0163058Y0097705D01*
X0163124Y0097581D01*
X0163193Y0097460D01*
X0163266Y0097340D01*
X0163343Y0097222D01*
X0163422Y0097107D01*
X0163505Y0096993D01*
X0163591Y0096883D01*
X0163680Y0096774D01*
X0163772Y0096668D01*
X0163867Y0096565D01*
X0163964Y0096464D01*
X0164065Y0096367D01*
X0164168Y0096272D01*
X0164274Y0096180D01*
X0164383Y0096091D01*
X0164493Y0096005D01*
X0164607Y0095922D01*
X0164722Y0095843D01*
X0164840Y0095766D01*
X0164960Y0095693D01*
X0165081Y0095624D01*
X0165205Y0095558D01*
X0165331Y0095495D01*
X0165458Y0095436D01*
X0165587Y0095381D01*
X0165717Y0095329D01*
X0165849Y0095281D01*
X0165982Y0095236D01*
X0166116Y0095195D01*
X0166251Y0095158D01*
X0166387Y0095125D01*
X0166525Y0095096D01*
X0166662Y0095071D01*
X0166801Y0095049D01*
X0166940Y0095031D01*
X0167080Y0095018D01*
X0167220Y0095008D01*
X0167360Y0095002D01*
X0167500Y0095000D01*
X0200000Y0095000D01*
X0200140Y0094998D01*
X0200280Y0094992D01*
X0200420Y0094982D01*
X0200560Y0094969D01*
X0200699Y0094951D01*
X0200838Y0094929D01*
X0200975Y0094904D01*
X0201113Y0094875D01*
X0201249Y0094842D01*
X0201384Y0094805D01*
X0201518Y0094764D01*
X0201651Y0094719D01*
X0201783Y0094671D01*
X0201913Y0094619D01*
X0202042Y0094564D01*
X0202169Y0094505D01*
X0202295Y0094442D01*
X0202419Y0094376D01*
X0202540Y0094307D01*
X0202660Y0094234D01*
X0202778Y0094157D01*
X0202893Y0094078D01*
X0203007Y0093995D01*
X0203117Y0093909D01*
X0203226Y0093820D01*
X0203332Y0093728D01*
X0203435Y0093633D01*
X0203536Y0093536D01*
X0203633Y0093435D01*
X0203728Y0093332D01*
X0203820Y0093226D01*
X0203909Y0093117D01*
X0203995Y0093007D01*
X0204078Y0092893D01*
X0204157Y0092778D01*
X0204234Y0092660D01*
X0204307Y0092540D01*
X0204376Y0092419D01*
X0204442Y0092295D01*
X0204505Y0092169D01*
X0204564Y0092042D01*
X0204619Y0091913D01*
X0204671Y0091783D01*
X0204719Y0091651D01*
X0204764Y0091518D01*
X0204805Y0091384D01*
X0204842Y0091249D01*
X0204875Y0091113D01*
X0204904Y0090975D01*
X0204929Y0090838D01*
X0204951Y0090699D01*
X0204969Y0090560D01*
X0204982Y0090420D01*
X0204992Y0090280D01*
X0204998Y0090140D01*
X0205000Y0090000D01*
X0205000Y0015000D01*
X0204998Y0014819D01*
X0204991Y0014638D01*
X0204980Y0014457D01*
X0204965Y0014276D01*
X0204945Y0014096D01*
X0204921Y0013916D01*
X0204893Y0013737D01*
X0204860Y0013559D01*
X0204823Y0013382D01*
X0204782Y0013205D01*
X0204737Y0013030D01*
X0204687Y0012855D01*
X0204633Y0012682D01*
X0204575Y0012511D01*
X0204513Y0012340D01*
X0204446Y0012172D01*
X0204376Y0012005D01*
X0204302Y0011839D01*
X0204223Y0011676D01*
X0204141Y0011515D01*
X0204055Y0011355D01*
X0203965Y0011198D01*
X0203871Y0011043D01*
X0203774Y0010890D01*
X0203672Y0010740D01*
X0203568Y0010592D01*
X0203459Y0010446D01*
X0203348Y0010304D01*
X0203232Y0010164D01*
X0203114Y0010027D01*
X0202992Y0009892D01*
X0202867Y0009761D01*
X0202739Y0009633D01*
X0202608Y0009508D01*
X0202473Y0009386D01*
X0202336Y0009268D01*
X0202196Y0009152D01*
X0202054Y0009041D01*
X0201908Y0008932D01*
X0201760Y0008828D01*
X0201610Y0008726D01*
X0201457Y0008629D01*
X0201302Y0008535D01*
X0201145Y0008445D01*
X0200985Y0008359D01*
X0200824Y0008277D01*
X0200661Y0008198D01*
X0200495Y0008124D01*
X0200328Y0008054D01*
X0200160Y0007987D01*
X0199989Y0007925D01*
X0199818Y0007867D01*
X0199645Y0007813D01*
X0199470Y0007763D01*
X0199295Y0007718D01*
X0199118Y0007677D01*
X0198941Y0007640D01*
X0198763Y0007607D01*
X0198584Y0007579D01*
X0198404Y0007555D01*
X0198224Y0007535D01*
X0198043Y0007520D01*
X0197862Y0007509D01*
X0197681Y0007502D01*
X0197500Y0007500D01*
X0015000Y0007500D01*
X0014819Y0007502D01*
X0014638Y0007509D01*
X0014457Y0007520D01*
X0014276Y0007535D01*
X0014096Y0007555D01*
X0013916Y0007579D01*
X0013737Y0007607D01*
X0013559Y0007640D01*
X0013382Y0007677D01*
X0013205Y0007718D01*
X0013030Y0007763D01*
X0012855Y0007813D01*
X0012682Y0007867D01*
X0012511Y0007925D01*
X0012340Y0007987D01*
X0012172Y0008054D01*
X0012005Y0008124D01*
X0011839Y0008198D01*
X0011676Y0008277D01*
X0011515Y0008359D01*
X0011355Y0008445D01*
X0011198Y0008535D01*
X0011043Y0008629D01*
X0010890Y0008726D01*
X0010740Y0008828D01*
X0010592Y0008932D01*
X0010446Y0009041D01*
X0010304Y0009152D01*
X0010164Y0009268D01*
X0010027Y0009386D01*
X0009892Y0009508D01*
X0009761Y0009633D01*
X0009633Y0009761D01*
X0009508Y0009892D01*
X0009386Y0010027D01*
X0009268Y0010164D01*
X0009152Y0010304D01*
X0009041Y0010446D01*
X0008932Y0010592D01*
X0008828Y0010740D01*
X0008726Y0010890D01*
X0008629Y0011043D01*
X0008535Y0011198D01*
X0008445Y0011355D01*
X0008359Y0011515D01*
X0008277Y0011676D01*
X0008198Y0011839D01*
X0008124Y0012005D01*
X0008054Y0012172D01*
X0007987Y0012340D01*
X0007925Y0012511D01*
X0007867Y0012682D01*
X0007813Y0012855D01*
X0007763Y0013030D01*
X0007718Y0013205D01*
X0007677Y0013382D01*
X0007640Y0013559D01*
X0007607Y0013737D01*
X0007579Y0013916D01*
X0007555Y0014096D01*
X0007535Y0014276D01*
X0007520Y0014457D01*
X0007509Y0014638D01*
X0007502Y0014819D01*
X0007500Y0015000D01*
D11*
X0015000Y0069500D03*
X0025000Y0069500D03*
X0035000Y0069500D03*
X0062500Y0102500D03*
X0062500Y0112500D03*
X0062500Y0122500D03*
X0062500Y0132500D03*
X0062500Y0142500D03*
X0062500Y0152500D03*
X0062500Y0162500D03*
X0062500Y0172500D03*
X0062500Y0182500D03*
X0062500Y0192500D03*
X0072500Y0192500D03*
X0072500Y0182500D03*
X0072500Y0172500D03*
X0072500Y0162500D03*
X0072500Y0152500D03*
X0072500Y0142500D03*
X0072500Y0132500D03*
X0072500Y0122500D03*
X0142500Y0122500D03*
X0152500Y0122500D03*
X0152500Y0112500D03*
X0152500Y0102500D03*
X0152500Y0132500D03*
X0152500Y0142500D03*
X0142500Y0142500D03*
X0142500Y0132500D03*
X0142500Y0152500D03*
X0142500Y0162500D03*
X0142500Y0172500D03*
X0152500Y0172500D03*
X0152500Y0162500D03*
X0152500Y0152500D03*
X0152500Y0182500D03*
X0152500Y0192500D03*
X0142500Y0192500D03*
X0142500Y0182500D03*
X0182500Y0189000D03*
X0182500Y0199000D03*
X0182500Y0209000D03*
X0192500Y0209000D03*
X0192500Y0199000D03*
X0192500Y0189000D03*
D12*
X0032500Y0160000D03*
X0032500Y0150000D03*
X0032500Y0140000D03*
X0032500Y0130000D03*
X0032500Y0120000D03*
X0032500Y0110000D03*
X0032500Y0100000D03*
X0032500Y0090000D03*
X0022500Y0090000D03*
X0022500Y0100000D03*
X0022500Y0110000D03*
X0022500Y0120000D03*
X0022500Y0130000D03*
X0022500Y0140000D03*
X0022500Y0150000D03*
X0022500Y0160000D03*
D13*
X0037815Y0039000D03*
X0049626Y0020496D03*
X0061437Y0039000D03*
D14*
X0095157Y0040374D03*
X0095157Y0020689D03*
X0114843Y0020689D03*
X0114843Y0040374D03*
D15*
X0142500Y0045000D03*
X0142500Y0035000D03*
X0142500Y0025000D03*
X0142500Y0015000D03*
D16*
X0033500Y0202500D03*
D17*
X0020500Y0202500D03*
D18*
X0052500Y0207343D03*
X0052500Y0187657D03*
X0050157Y0069500D03*
X0069843Y0069500D03*
D19*
X0042500Y0172500D03*
X0042500Y0182500D03*
D20*
X0180571Y0073386D02*
X0189429Y0073386D01*
X0189429Y0057795D02*
X0180571Y0057795D01*
X0180571Y0042205D02*
X0189429Y0042205D01*
X0189429Y0026614D02*
X0180571Y0026614D01*
M02*
