G75*
%MOIN*%
%OFA0B0*%
%FSLAX25Y25*%
%IPPOS*%
%LPD*%
%AMOC8*
5,1,8,0,0,1.08239X$1,22.5*
%
%ADD10C,0.00500*%
%ADD11C,0.00800*%
%ADD12C,0.00100*%
%ADD13C,0.00600*%
%ADD14R,0.02990X0.00250*%
%ADD15R,0.02010X0.00250*%
%ADD16R,0.01990X0.00250*%
%ADD17R,0.06250X0.00250*%
%ADD18R,0.02000X0.00250*%
%ADD19R,0.03990X0.00250*%
%ADD20R,0.04750X0.00250*%
%ADD21R,0.05000X0.00250*%
%ADD22R,0.06500X0.00250*%
%ADD23R,0.05240X0.00250*%
%ADD24R,0.02500X0.00250*%
%ADD25R,0.01490X0.00250*%
%ADD26R,0.02240X0.00250*%
%ADD27R,0.00750X0.00250*%
%ADD28R,0.03010X0.00250*%
%ADD29R,0.00500X0.00250*%
%ADD30R,0.02760X0.00250*%
%ADD31R,0.01750X0.00250*%
%ADD32R,0.02510X0.00250*%
%ADD33R,0.02490X0.00250*%
%ADD34R,0.02260X0.00250*%
%ADD35R,0.00250X0.00250*%
%ADD36R,0.00740X0.00250*%
%ADD37R,0.03000X0.00250*%
%ADD38R,0.02750X0.00250*%
%ADD39R,0.01740X0.00250*%
%ADD40R,0.04990X0.00250*%
%ADD41R,0.00760X0.00250*%
%ADD42R,0.04000X0.00250*%
%ADD43R,0.01260X0.00250*%
%ADD44R,0.03500X0.00250*%
%ADD45R,0.01760X0.00250*%
%ADD46R,0.03740X0.00250*%
%ADD47R,0.02740X0.00250*%
%ADD48R,0.01510X0.00250*%
%ADD49R,0.05750X0.00250*%
%ADD50R,0.05250X0.00250*%
%ADD51R,0.04250X0.00250*%
%ADD52R,0.03490X0.00250*%
%ADD53R,0.01250X0.00250*%
%ADD54R,0.01010X0.00250*%
%ADD55R,0.02250X0.00250*%
%ADD56R,0.01500X0.00250*%
%ADD57R,0.01000X0.00250*%
%ADD58R,0.06740X0.00250*%
%ADD59R,0.03750X0.00250*%
%ADD60R,0.08990X0.00250*%
%ADD61R,0.07490X0.00250*%
%ADD62R,0.09000X0.00250*%
%ADD63R,0.07740X0.00250*%
%ADD64R,0.04500X0.00250*%
%ADD65R,0.08750X0.00250*%
%ADD66R,0.08240X0.00250*%
%ADD67R,0.05010X0.00250*%
%ADD68R,0.08000X0.00250*%
%ADD69R,0.08510X0.00250*%
%ADD70R,0.05260X0.00250*%
%ADD71R,0.08250X0.00250*%
%ADD72R,0.08500X0.00250*%
%ADD73R,0.04260X0.00250*%
%ADD74R,0.09010X0.00250*%
%ADD75R,0.03250X0.00250*%
%ADD76R,0.01240X0.00250*%
%ADD77R,0.05490X0.00250*%
%ADD78R,0.04490X0.00250*%
%ADD79R,0.08740X0.00250*%
%ADD80R,0.08010X0.00250*%
%ADD81R,0.07750X0.00250*%
%ADD82R,0.07240X0.00250*%
%ADD83R,0.07000X0.00250*%
%ADD84R,0.06760X0.00250*%
%ADD85R,0.06000X0.00250*%
%ADD86R,0.07250X0.00250*%
%ADD87R,0.05500X0.00250*%
%ADD88R,0.06750X0.00250*%
%ADD89R,0.04740X0.00250*%
%ADD90R,0.03260X0.00250*%
%ADD91R,0.05510X0.00250*%
%ADD92R,0.04010X0.00250*%
%ADD93R,0.04510X0.00250*%
%ADD94R,0.06510X0.00250*%
%ADD95R,0.11010X0.00250*%
%ADD96R,0.10490X0.00250*%
%ADD97R,0.10000X0.00250*%
%ADD98R,0.10250X0.00250*%
%ADD99R,0.07260X0.00250*%
%ADD100R,0.06010X0.00250*%
%ADD101R,0.00510X0.00250*%
%ADD102R,0.03760X0.00250*%
%ADD103R,0.04240X0.00250*%
%ADD104R,0.04760X0.00250*%
%ADD105R,0.10260X0.00250*%
%ADD106R,0.09240X0.00250*%
%ADD107R,0.05740X0.00250*%
D10*
X0031519Y0011979D02*
X0031019Y0012480D01*
X0031019Y0014481D01*
X0031519Y0014982D01*
X0033021Y0014982D01*
X0033021Y0011979D01*
X0031519Y0011979D01*
X0034242Y0011979D02*
X0034242Y0014982D01*
X0036243Y0014982D02*
X0034242Y0011979D01*
X0036243Y0011979D02*
X0036243Y0014982D01*
X0037464Y0014481D02*
X0037965Y0014982D01*
X0038966Y0014982D01*
X0039466Y0014481D01*
X0039466Y0012480D01*
X0038966Y0011979D01*
X0037965Y0011979D01*
X0037464Y0012480D01*
X0037464Y0013481D01*
X0038465Y0013481D01*
X0038743Y0046979D02*
X0038743Y0049982D01*
X0036742Y0046979D01*
X0036742Y0049982D01*
X0035521Y0049982D02*
X0034019Y0049982D01*
X0033519Y0049481D01*
X0033519Y0047480D01*
X0034019Y0046979D01*
X0035521Y0046979D01*
X0035521Y0049982D01*
X0039964Y0049481D02*
X0040465Y0049982D01*
X0041466Y0049982D01*
X0041966Y0049481D01*
X0041966Y0047480D01*
X0041466Y0046979D01*
X0040465Y0046979D01*
X0039964Y0047480D01*
X0039964Y0048481D01*
X0040965Y0048481D01*
X0041007Y0068521D02*
X0039505Y0068521D01*
X0039005Y0069021D01*
X0039005Y0071023D01*
X0039505Y0071523D01*
X0041007Y0071523D01*
X0041007Y0068521D01*
X0042228Y0068521D02*
X0042228Y0071523D01*
X0044229Y0071523D02*
X0042228Y0068521D01*
X0044229Y0068521D02*
X0044229Y0071523D01*
X0045451Y0071023D02*
X0045951Y0071523D01*
X0046952Y0071523D01*
X0047452Y0071023D01*
X0047452Y0069021D01*
X0046952Y0068521D01*
X0045951Y0068521D01*
X0045451Y0069021D01*
X0045451Y0070022D01*
X0046451Y0070022D01*
X0045951Y0078521D02*
X0046952Y0078521D01*
X0047452Y0079021D01*
X0046952Y0080022D02*
X0045951Y0080022D01*
X0045451Y0079522D01*
X0045451Y0079021D01*
X0045951Y0078521D01*
X0046952Y0080022D02*
X0047452Y0080522D01*
X0047452Y0081023D01*
X0046952Y0081523D01*
X0045951Y0081523D01*
X0045451Y0081023D01*
X0044229Y0081523D02*
X0042228Y0081523D01*
X0043229Y0081523D02*
X0043229Y0078521D01*
X0041007Y0078521D02*
X0039505Y0078521D01*
X0039005Y0079021D01*
X0039005Y0079522D01*
X0039505Y0080022D01*
X0041007Y0080022D01*
X0041007Y0081523D02*
X0039505Y0081523D01*
X0039005Y0081023D01*
X0039005Y0080522D01*
X0039505Y0080022D01*
X0041007Y0078521D02*
X0041007Y0081523D01*
X0041729Y0088521D02*
X0040228Y0088521D01*
X0039728Y0089021D01*
X0039728Y0091023D01*
X0040228Y0091523D01*
X0041729Y0091523D01*
X0041729Y0088521D01*
X0041729Y0098521D02*
X0040228Y0098521D01*
X0039728Y0099021D01*
X0039728Y0099522D01*
X0040228Y0100022D01*
X0041729Y0100022D01*
X0040228Y0100022D02*
X0039728Y0100522D01*
X0039728Y0101023D01*
X0040228Y0101523D01*
X0041729Y0101523D01*
X0041729Y0098521D01*
X0041729Y0108521D02*
X0039728Y0108521D01*
X0040729Y0110022D02*
X0041729Y0110022D01*
X0041729Y0111523D02*
X0041729Y0108521D01*
X0041729Y0111523D02*
X0039728Y0111523D01*
X0040616Y0118521D02*
X0042618Y0118521D01*
X0041617Y0118521D02*
X0041617Y0121523D01*
X0042618Y0120522D01*
X0043839Y0120022D02*
X0044840Y0120022D01*
X0043839Y0120022D02*
X0043839Y0119021D01*
X0044340Y0118521D01*
X0045340Y0118521D01*
X0045841Y0119021D01*
X0045841Y0121023D01*
X0045340Y0121523D01*
X0044340Y0121523D01*
X0043839Y0121023D01*
X0044229Y0128521D02*
X0044229Y0131523D01*
X0042228Y0128521D01*
X0042228Y0131523D01*
X0041007Y0131523D02*
X0039505Y0131523D01*
X0039005Y0131023D01*
X0039005Y0129021D01*
X0039505Y0128521D01*
X0041007Y0128521D01*
X0041007Y0131523D01*
X0045451Y0131023D02*
X0045951Y0131523D01*
X0046952Y0131523D01*
X0047452Y0131023D01*
X0047452Y0129021D01*
X0046952Y0128521D01*
X0045951Y0128521D01*
X0045451Y0129021D01*
X0045451Y0130022D01*
X0046451Y0130022D01*
X0045340Y0138521D02*
X0044340Y0138521D01*
X0043839Y0139021D01*
X0043839Y0140022D01*
X0044840Y0140022D01*
X0045841Y0141023D02*
X0045841Y0139021D01*
X0045340Y0138521D01*
X0045841Y0141023D02*
X0045340Y0141523D01*
X0044340Y0141523D01*
X0043839Y0141023D01*
X0042618Y0141023D02*
X0042118Y0141523D01*
X0041117Y0141523D01*
X0040616Y0141023D01*
X0042618Y0139021D01*
X0042118Y0138521D01*
X0041117Y0138521D01*
X0040616Y0139021D01*
X0040616Y0141023D01*
X0042618Y0141023D02*
X0042618Y0139021D01*
X0015841Y0138521D02*
X0015841Y0141523D01*
X0014340Y0141523D01*
X0013839Y0141023D01*
X0013839Y0140022D01*
X0014340Y0139522D01*
X0015841Y0139522D01*
X0014840Y0139522D02*
X0013839Y0138521D01*
X0012618Y0139021D02*
X0012618Y0141023D01*
X0012118Y0141523D01*
X0011117Y0141523D01*
X0010616Y0141023D01*
X0012618Y0139021D01*
X0012118Y0138521D01*
X0011117Y0138521D01*
X0010616Y0139021D01*
X0010616Y0141023D01*
X0011117Y0131523D02*
X0010616Y0131023D01*
X0012618Y0129021D01*
X0012118Y0128521D01*
X0011117Y0128521D01*
X0010616Y0129021D01*
X0010616Y0131023D01*
X0011117Y0131523D02*
X0012118Y0131523D01*
X0012618Y0131023D01*
X0012618Y0129021D01*
X0013839Y0129021D02*
X0014340Y0128521D01*
X0015841Y0128521D01*
X0015841Y0131523D01*
X0014340Y0131523D01*
X0013839Y0131023D01*
X0013839Y0130522D01*
X0014340Y0130022D01*
X0015841Y0130022D01*
X0014340Y0130022D02*
X0013839Y0129522D01*
X0013839Y0129021D01*
X0014340Y0121523D02*
X0013839Y0121023D01*
X0013839Y0120022D01*
X0014340Y0119522D01*
X0015841Y0119522D01*
X0014840Y0119522D02*
X0013839Y0118521D01*
X0012618Y0118521D02*
X0010616Y0118521D01*
X0011617Y0118521D02*
X0011617Y0121523D01*
X0012618Y0120522D01*
X0014340Y0121523D02*
X0015841Y0121523D01*
X0015841Y0118521D01*
X0015841Y0111523D02*
X0014340Y0111523D01*
X0013839Y0111023D01*
X0013839Y0110522D01*
X0014340Y0110022D01*
X0015841Y0110022D01*
X0015841Y0108521D02*
X0015841Y0111523D01*
X0014340Y0110022D02*
X0013839Y0109522D01*
X0013839Y0109021D01*
X0014340Y0108521D01*
X0015841Y0108521D01*
X0012618Y0108521D02*
X0010616Y0108521D01*
X0011617Y0108521D02*
X0011617Y0111523D01*
X0012618Y0110522D01*
X0013229Y0101523D02*
X0012228Y0100522D01*
X0012228Y0098521D01*
X0012228Y0100022D02*
X0014229Y0100022D01*
X0014229Y0100522D02*
X0013229Y0101523D01*
X0014229Y0100522D02*
X0014229Y0098521D01*
X0013729Y0091523D02*
X0012728Y0091523D01*
X0012228Y0091023D01*
X0013729Y0091523D02*
X0014229Y0091023D01*
X0014229Y0089021D01*
X0013729Y0088521D01*
X0012728Y0088521D01*
X0012228Y0089021D01*
X0012118Y0081523D02*
X0012118Y0078521D01*
X0012118Y0079522D02*
X0010116Y0081523D01*
X0011618Y0080022D02*
X0010116Y0078521D01*
X0013339Y0079021D02*
X0013840Y0078521D01*
X0014840Y0078521D01*
X0015341Y0079021D01*
X0015341Y0081023D01*
X0014840Y0081523D01*
X0013840Y0081523D01*
X0013339Y0081023D01*
X0012618Y0071523D02*
X0010616Y0071523D01*
X0011617Y0070022D02*
X0012618Y0070022D01*
X0012618Y0071523D02*
X0012618Y0068521D01*
X0010616Y0068521D01*
X0013839Y0069021D02*
X0013839Y0071023D01*
X0014340Y0071523D01*
X0015340Y0071523D01*
X0015841Y0071023D01*
X0015841Y0069021D01*
X0015340Y0068521D01*
X0014340Y0068521D01*
X0013839Y0069021D01*
X0064479Y0051369D02*
X0065480Y0052370D01*
X0067482Y0052370D01*
X0067482Y0050368D02*
X0065480Y0050368D01*
X0064479Y0051369D01*
X0064980Y0049147D02*
X0064479Y0048647D01*
X0064479Y0047646D01*
X0064980Y0047145D01*
X0065981Y0047145D02*
X0066481Y0048146D01*
X0066481Y0048647D01*
X0065981Y0049147D01*
X0064980Y0049147D01*
X0065981Y0047145D02*
X0067482Y0047145D01*
X0067482Y0049147D01*
X0081019Y0049481D02*
X0081019Y0047480D01*
X0081519Y0046979D01*
X0083021Y0046979D01*
X0083021Y0049982D01*
X0081519Y0049982D01*
X0081019Y0049481D01*
X0084242Y0049982D02*
X0084242Y0046979D01*
X0086243Y0049982D01*
X0086243Y0046979D01*
X0087464Y0047480D02*
X0087464Y0048481D01*
X0088465Y0048481D01*
X0087464Y0049481D02*
X0087965Y0049982D01*
X0088966Y0049982D01*
X0089466Y0049481D01*
X0089466Y0047480D01*
X0088966Y0046979D01*
X0087965Y0046979D01*
X0087464Y0047480D01*
X0103130Y0047980D02*
X0103130Y0049982D01*
X0103130Y0047980D02*
X0104131Y0046979D01*
X0105132Y0047980D01*
X0105132Y0049982D01*
X0106353Y0049982D02*
X0108355Y0049982D01*
X0108355Y0048481D01*
X0107354Y0048981D01*
X0106853Y0048981D01*
X0106353Y0048481D01*
X0106353Y0047480D01*
X0106853Y0046979D01*
X0107854Y0046979D01*
X0108355Y0047480D01*
X0119479Y0046979D02*
X0119479Y0048481D01*
X0119980Y0048981D01*
X0121981Y0048981D01*
X0122482Y0048481D01*
X0122482Y0046979D01*
X0119479Y0046979D01*
X0119479Y0045758D02*
X0122482Y0045758D01*
X0122482Y0043757D02*
X0119479Y0043757D01*
X0119980Y0042536D02*
X0120981Y0042536D01*
X0120981Y0041535D01*
X0121981Y0042536D02*
X0122482Y0042035D01*
X0122482Y0041034D01*
X0121981Y0040534D01*
X0119980Y0040534D01*
X0119479Y0041034D01*
X0119479Y0042035D01*
X0119980Y0042536D01*
X0122482Y0043757D02*
X0119479Y0045758D01*
X0119980Y0038981D02*
X0121981Y0038981D01*
X0122482Y0038481D01*
X0122482Y0036979D01*
X0119479Y0036979D01*
X0119479Y0038481D01*
X0119980Y0038981D01*
X0119479Y0035758D02*
X0122482Y0035758D01*
X0122482Y0033757D02*
X0119479Y0033757D01*
X0119980Y0032536D02*
X0120981Y0032536D01*
X0120981Y0031535D01*
X0121981Y0032536D02*
X0122482Y0032035D01*
X0122482Y0031034D01*
X0121981Y0030534D01*
X0119980Y0030534D01*
X0119479Y0031034D01*
X0119479Y0032035D01*
X0119980Y0032536D01*
X0122482Y0033757D02*
X0119479Y0035758D01*
X0120480Y0027370D02*
X0122482Y0027370D01*
X0120480Y0027370D02*
X0119479Y0026369D01*
X0120480Y0025368D01*
X0122482Y0025368D01*
X0122482Y0024147D02*
X0122482Y0022145D01*
X0120981Y0022145D01*
X0121481Y0023146D01*
X0121481Y0023647D01*
X0120981Y0024147D01*
X0119980Y0024147D01*
X0119479Y0023647D01*
X0119479Y0022646D01*
X0119980Y0022145D01*
X0120480Y0017370D02*
X0122482Y0017370D01*
X0120480Y0017370D02*
X0119479Y0016369D01*
X0120480Y0015368D01*
X0122482Y0015368D01*
X0122482Y0014147D02*
X0122482Y0012145D01*
X0120981Y0012145D01*
X0121481Y0013146D01*
X0121481Y0013647D01*
X0120981Y0014147D01*
X0119980Y0014147D01*
X0119479Y0013647D01*
X0119479Y0012646D01*
X0119980Y0012145D01*
X0107855Y0012482D02*
X0107855Y0010981D01*
X0106854Y0011481D01*
X0106353Y0011481D01*
X0105853Y0010981D01*
X0105853Y0009980D01*
X0106353Y0009479D01*
X0107354Y0009479D01*
X0107855Y0009980D01*
X0107855Y0012482D02*
X0105853Y0012482D01*
X0104632Y0012482D02*
X0104632Y0010480D01*
X0103631Y0009479D01*
X0102630Y0010480D01*
X0102630Y0012482D01*
X0089966Y0011981D02*
X0089966Y0009980D01*
X0089466Y0009479D01*
X0088465Y0009479D01*
X0087964Y0009980D01*
X0087964Y0010981D01*
X0088965Y0010981D01*
X0087964Y0011981D02*
X0088465Y0012482D01*
X0089466Y0012482D01*
X0089966Y0011981D01*
X0086743Y0012482D02*
X0086743Y0009479D01*
X0084742Y0009479D02*
X0084742Y0012482D01*
X0083521Y0012482D02*
X0082019Y0012482D01*
X0081519Y0011981D01*
X0081519Y0009980D01*
X0082019Y0009479D01*
X0083521Y0009479D01*
X0083521Y0012482D01*
X0086743Y0012482D02*
X0084742Y0009479D01*
X0069773Y0098089D02*
X0070273Y0098589D01*
X0070273Y0099590D01*
X0069773Y0100090D01*
X0069272Y0100090D01*
X0068772Y0099590D01*
X0068272Y0100090D01*
X0067771Y0100090D01*
X0067271Y0099590D01*
X0067271Y0098589D01*
X0067771Y0098089D01*
X0068772Y0099089D02*
X0068772Y0099590D01*
X0068272Y0101311D02*
X0067271Y0102312D01*
X0068272Y0103313D01*
X0070273Y0103313D01*
X0069773Y0104534D02*
X0070273Y0105035D01*
X0070273Y0106035D01*
X0069773Y0106536D01*
X0069272Y0106536D01*
X0068772Y0106035D01*
X0068272Y0106536D01*
X0067771Y0106536D01*
X0067271Y0106035D01*
X0067271Y0105035D01*
X0067771Y0104534D01*
X0068772Y0105535D02*
X0068772Y0106035D01*
X0068272Y0101311D02*
X0070273Y0101311D01*
X0123771Y0100812D02*
X0124271Y0100311D01*
X0123771Y0100812D02*
X0123771Y0101813D01*
X0124271Y0102313D01*
X0125272Y0102313D01*
X0125772Y0101813D01*
X0125772Y0101312D01*
X0125272Y0100311D01*
X0126773Y0100311D01*
X0126773Y0102313D01*
X0126773Y0103534D02*
X0124772Y0103534D01*
X0123771Y0104535D01*
X0124772Y0105536D01*
X0126773Y0105536D01*
X0177979Y0165645D02*
X0177979Y0167147D01*
X0178480Y0167647D01*
X0178980Y0167647D01*
X0179481Y0167147D01*
X0179481Y0165645D01*
X0180982Y0165645D02*
X0180982Y0167147D01*
X0180481Y0167647D01*
X0179981Y0167647D01*
X0179481Y0167147D01*
X0178480Y0168868D02*
X0180481Y0168868D01*
X0180982Y0169369D01*
X0180982Y0170369D01*
X0180481Y0170870D01*
X0178480Y0168868D01*
X0177979Y0169369D01*
X0177979Y0170369D01*
X0178480Y0170870D01*
X0180481Y0170870D01*
X0180982Y0165645D02*
X0177979Y0165645D01*
X0178480Y0186145D02*
X0177979Y0186646D01*
X0177979Y0187647D01*
X0178480Y0188147D01*
X0179481Y0188147D01*
X0179481Y0187146D01*
X0180481Y0186145D02*
X0178480Y0186145D01*
X0180481Y0186145D02*
X0180982Y0186646D01*
X0180982Y0187647D01*
X0180481Y0188147D01*
X0179981Y0189368D02*
X0180982Y0190369D01*
X0177979Y0190369D01*
X0177979Y0189368D02*
X0177979Y0191370D01*
X0156982Y0180369D02*
X0153979Y0180369D01*
X0153979Y0179368D02*
X0153979Y0181370D01*
X0155981Y0179368D02*
X0156982Y0180369D01*
X0156481Y0178147D02*
X0155981Y0178147D01*
X0155481Y0177647D01*
X0155481Y0176145D01*
X0156982Y0176145D02*
X0156982Y0177647D01*
X0156481Y0178147D01*
X0155481Y0177647D02*
X0154980Y0178147D01*
X0154480Y0178147D01*
X0153979Y0177647D01*
X0153979Y0176145D01*
X0156982Y0176145D01*
X0156481Y0171370D02*
X0154480Y0171370D01*
X0153979Y0170869D01*
X0153979Y0169869D01*
X0154480Y0169368D01*
X0156481Y0171370D01*
X0156982Y0170869D01*
X0156982Y0169869D01*
X0156481Y0169368D01*
X0154480Y0169368D01*
X0154480Y0168147D02*
X0155481Y0168147D01*
X0155481Y0167146D01*
X0156481Y0166145D02*
X0154480Y0166145D01*
X0153979Y0166646D01*
X0153979Y0167647D01*
X0154480Y0168147D01*
X0156481Y0168147D02*
X0156982Y0167647D01*
X0156982Y0166646D01*
X0156481Y0166145D01*
X0154982Y0186645D02*
X0151979Y0186645D01*
X0152980Y0186645D02*
X0152980Y0188147D01*
X0153481Y0188647D01*
X0154481Y0188647D01*
X0154982Y0188147D01*
X0154982Y0186645D01*
X0152980Y0187646D02*
X0151979Y0188647D01*
X0151979Y0189868D02*
X0151979Y0191870D01*
X0151979Y0190869D02*
X0154982Y0190869D01*
X0153981Y0189868D01*
X0070273Y0176536D02*
X0070273Y0174534D01*
X0070273Y0175535D02*
X0067271Y0175535D01*
X0067771Y0173313D02*
X0067271Y0172813D01*
X0067271Y0171812D01*
X0067771Y0171311D01*
X0068772Y0171812D02*
X0068772Y0172813D01*
X0068272Y0173313D01*
X0067771Y0173313D01*
X0068772Y0171812D02*
X0069272Y0171311D01*
X0069773Y0171311D01*
X0070273Y0171812D01*
X0070273Y0172813D01*
X0069773Y0173313D01*
X0069773Y0170090D02*
X0068772Y0170090D01*
X0068272Y0169590D01*
X0068272Y0168089D01*
X0068272Y0169089D02*
X0067271Y0170090D01*
X0067271Y0168089D02*
X0070273Y0168089D01*
X0070273Y0169590D01*
X0069773Y0170090D01*
D11*
X0069793Y0185275D02*
X0068225Y0185275D01*
X0069009Y0185275D02*
X0069009Y0188411D01*
X0069793Y0188411D01*
X0069009Y0189979D02*
X0069009Y0190763D01*
X0066417Y0187627D02*
X0065633Y0188411D01*
X0064065Y0188411D01*
X0063281Y0187627D01*
X0063281Y0186843D01*
X0066417Y0186843D01*
X0066417Y0186059D02*
X0066417Y0187627D01*
X0066417Y0186059D02*
X0065633Y0185275D01*
X0064065Y0185275D01*
X0061353Y0185275D02*
X0059785Y0185275D01*
X0060569Y0185275D02*
X0060569Y0189979D01*
X0061353Y0189979D01*
X0057977Y0187627D02*
X0057193Y0188411D01*
X0054841Y0188411D01*
X0054841Y0189979D02*
X0054841Y0185275D01*
X0057193Y0185275D01*
X0057977Y0186059D01*
X0057977Y0187627D01*
X0071722Y0187627D02*
X0071722Y0185275D01*
X0071722Y0187627D02*
X0072506Y0188411D01*
X0074074Y0188411D01*
X0074858Y0187627D01*
X0076786Y0186843D02*
X0076786Y0186059D01*
X0077570Y0185275D01*
X0079138Y0185275D01*
X0079922Y0186059D01*
X0079138Y0187627D02*
X0077570Y0187627D01*
X0076786Y0186843D01*
X0076786Y0189195D02*
X0077570Y0189979D01*
X0079138Y0189979D01*
X0079922Y0189195D01*
X0079922Y0188411D01*
X0079138Y0187627D01*
X0074858Y0189979D02*
X0074858Y0185275D01*
X0086915Y0185275D02*
X0090051Y0188411D01*
X0090051Y0185275D02*
X0086915Y0188411D01*
X0091859Y0185275D02*
X0093427Y0185275D01*
X0092643Y0185275D02*
X0092643Y0188411D01*
X0093427Y0188411D01*
X0092643Y0189979D02*
X0092643Y0190763D01*
X0095295Y0188411D02*
X0096079Y0188411D01*
X0097647Y0186843D01*
X0097647Y0185275D02*
X0097647Y0188411D01*
X0099455Y0188411D02*
X0101023Y0188411D01*
X0100239Y0189195D02*
X0100239Y0186059D01*
X0099455Y0185275D01*
X0102952Y0185275D02*
X0105304Y0185275D01*
X0106088Y0186059D01*
X0105304Y0186843D01*
X0102952Y0186843D01*
X0102952Y0187627D02*
X0102952Y0185275D01*
X0102952Y0187627D02*
X0103736Y0188411D01*
X0105304Y0188411D01*
X0108016Y0189979D02*
X0108016Y0185275D01*
X0111152Y0185275D02*
X0111152Y0189979D01*
X0109584Y0188411D01*
X0108016Y0189979D01*
X0106088Y0181729D02*
X0106088Y0178593D01*
X0104520Y0177025D01*
X0102952Y0178593D01*
X0102952Y0181729D01*
X0101023Y0180161D02*
X0099455Y0181729D01*
X0099455Y0177025D01*
X0101023Y0177025D02*
X0097887Y0177025D01*
X0095959Y0177025D02*
X0095175Y0177025D01*
X0095175Y0177809D01*
X0095959Y0177809D01*
X0095959Y0177025D01*
X0093427Y0177809D02*
X0092643Y0177025D01*
X0091075Y0177025D01*
X0090291Y0177809D01*
X0090291Y0179377D01*
X0091075Y0180161D01*
X0091859Y0180161D01*
X0093427Y0179377D01*
X0093427Y0181729D01*
X0090291Y0181729D01*
X0118145Y0186059D02*
X0118929Y0186843D01*
X0120497Y0186843D01*
X0121281Y0187627D01*
X0120497Y0188411D01*
X0118145Y0188411D01*
X0118145Y0186059D02*
X0118929Y0185275D01*
X0121281Y0185275D01*
X0123209Y0186059D02*
X0123209Y0187627D01*
X0123993Y0188411D01*
X0125561Y0188411D01*
X0126345Y0187627D01*
X0126345Y0186059D01*
X0125561Y0185275D01*
X0123993Y0185275D01*
X0123209Y0186059D01*
X0128273Y0185275D02*
X0128273Y0189979D01*
X0129841Y0188411D01*
X0131409Y0189979D01*
X0131409Y0185275D01*
X0133338Y0186843D02*
X0136474Y0186843D01*
X0136474Y0187627D02*
X0135690Y0188411D01*
X0134122Y0188411D01*
X0133338Y0187627D01*
X0133338Y0186843D01*
X0134122Y0185275D02*
X0135690Y0185275D01*
X0136474Y0186059D01*
X0136474Y0187627D01*
X0138402Y0185275D02*
X0138402Y0189979D01*
X0139970Y0186843D02*
X0138402Y0185275D01*
X0139970Y0186843D02*
X0141538Y0185275D01*
X0141538Y0189979D01*
X0156181Y0191500D02*
X0156181Y0186500D01*
D12*
X0007500Y0192500D02*
X0007500Y0015000D01*
X0007502Y0014819D01*
X0007509Y0014638D01*
X0007520Y0014457D01*
X0007535Y0014276D01*
X0007555Y0014096D01*
X0007579Y0013916D01*
X0007607Y0013737D01*
X0007640Y0013559D01*
X0007677Y0013382D01*
X0007718Y0013205D01*
X0007763Y0013030D01*
X0007813Y0012855D01*
X0007867Y0012682D01*
X0007925Y0012511D01*
X0007987Y0012340D01*
X0008054Y0012172D01*
X0008124Y0012005D01*
X0008198Y0011839D01*
X0008277Y0011676D01*
X0008359Y0011515D01*
X0008445Y0011355D01*
X0008535Y0011198D01*
X0008629Y0011043D01*
X0008726Y0010890D01*
X0008828Y0010740D01*
X0008932Y0010592D01*
X0009041Y0010446D01*
X0009152Y0010304D01*
X0009268Y0010164D01*
X0009386Y0010027D01*
X0009508Y0009892D01*
X0009633Y0009761D01*
X0009761Y0009633D01*
X0009892Y0009508D01*
X0010027Y0009386D01*
X0010164Y0009268D01*
X0010304Y0009152D01*
X0010446Y0009041D01*
X0010592Y0008932D01*
X0010740Y0008828D01*
X0010890Y0008726D01*
X0011043Y0008629D01*
X0011198Y0008535D01*
X0011355Y0008445D01*
X0011515Y0008359D01*
X0011676Y0008277D01*
X0011839Y0008198D01*
X0012005Y0008124D01*
X0012172Y0008054D01*
X0012340Y0007987D01*
X0012511Y0007925D01*
X0012682Y0007867D01*
X0012855Y0007813D01*
X0013030Y0007763D01*
X0013205Y0007718D01*
X0013382Y0007677D01*
X0013559Y0007640D01*
X0013737Y0007607D01*
X0013916Y0007579D01*
X0014096Y0007555D01*
X0014276Y0007535D01*
X0014457Y0007520D01*
X0014638Y0007509D01*
X0014819Y0007502D01*
X0015000Y0007500D01*
X0177500Y0007500D01*
X0177681Y0007502D01*
X0177862Y0007509D01*
X0178043Y0007520D01*
X0178224Y0007535D01*
X0178404Y0007555D01*
X0178584Y0007579D01*
X0178763Y0007607D01*
X0178941Y0007640D01*
X0179118Y0007677D01*
X0179295Y0007718D01*
X0179470Y0007763D01*
X0179645Y0007813D01*
X0179818Y0007867D01*
X0179989Y0007925D01*
X0180160Y0007987D01*
X0180328Y0008054D01*
X0180495Y0008124D01*
X0180661Y0008198D01*
X0180824Y0008277D01*
X0180985Y0008359D01*
X0181145Y0008445D01*
X0181302Y0008535D01*
X0181457Y0008629D01*
X0181610Y0008726D01*
X0181760Y0008828D01*
X0181908Y0008932D01*
X0182054Y0009041D01*
X0182196Y0009152D01*
X0182336Y0009268D01*
X0182473Y0009386D01*
X0182608Y0009508D01*
X0182739Y0009633D01*
X0182867Y0009761D01*
X0182992Y0009892D01*
X0183114Y0010027D01*
X0183232Y0010164D01*
X0183348Y0010304D01*
X0183459Y0010446D01*
X0183568Y0010592D01*
X0183672Y0010740D01*
X0183774Y0010890D01*
X0183871Y0011043D01*
X0183965Y0011198D01*
X0184055Y0011355D01*
X0184141Y0011515D01*
X0184223Y0011676D01*
X0184302Y0011839D01*
X0184376Y0012005D01*
X0184446Y0012172D01*
X0184513Y0012340D01*
X0184575Y0012511D01*
X0184633Y0012682D01*
X0184687Y0012855D01*
X0184737Y0013030D01*
X0184782Y0013205D01*
X0184823Y0013382D01*
X0184860Y0013559D01*
X0184893Y0013737D01*
X0184921Y0013916D01*
X0184945Y0014096D01*
X0184965Y0014276D01*
X0184980Y0014457D01*
X0184991Y0014638D01*
X0184998Y0014819D01*
X0185000Y0015000D01*
X0185000Y0070000D01*
X0184998Y0070140D01*
X0184992Y0070280D01*
X0184982Y0070420D01*
X0184969Y0070560D01*
X0184951Y0070699D01*
X0184929Y0070838D01*
X0184904Y0070975D01*
X0184875Y0071113D01*
X0184842Y0071249D01*
X0184805Y0071384D01*
X0184764Y0071518D01*
X0184719Y0071651D01*
X0184671Y0071783D01*
X0184619Y0071913D01*
X0184564Y0072042D01*
X0184505Y0072169D01*
X0184442Y0072295D01*
X0184376Y0072419D01*
X0184307Y0072540D01*
X0184234Y0072660D01*
X0184157Y0072778D01*
X0184078Y0072893D01*
X0183995Y0073007D01*
X0183909Y0073117D01*
X0183820Y0073226D01*
X0183728Y0073332D01*
X0183633Y0073435D01*
X0183536Y0073536D01*
X0183435Y0073633D01*
X0183332Y0073728D01*
X0183226Y0073820D01*
X0183117Y0073909D01*
X0183007Y0073995D01*
X0182893Y0074078D01*
X0182778Y0074157D01*
X0182660Y0074234D01*
X0182540Y0074307D01*
X0182419Y0074376D01*
X0182295Y0074442D01*
X0182169Y0074505D01*
X0182042Y0074564D01*
X0181913Y0074619D01*
X0181783Y0074671D01*
X0181651Y0074719D01*
X0181518Y0074764D01*
X0181384Y0074805D01*
X0181249Y0074842D01*
X0181113Y0074875D01*
X0180975Y0074904D01*
X0180838Y0074929D01*
X0180699Y0074951D01*
X0180560Y0074969D01*
X0180420Y0074982D01*
X0180280Y0074992D01*
X0180140Y0074998D01*
X0180000Y0075000D01*
X0157500Y0075000D01*
X0157360Y0075002D01*
X0157220Y0075008D01*
X0157080Y0075018D01*
X0156940Y0075031D01*
X0156801Y0075049D01*
X0156662Y0075071D01*
X0156525Y0075096D01*
X0156387Y0075125D01*
X0156251Y0075158D01*
X0156116Y0075195D01*
X0155982Y0075236D01*
X0155849Y0075281D01*
X0155717Y0075329D01*
X0155587Y0075381D01*
X0155458Y0075436D01*
X0155331Y0075495D01*
X0155205Y0075558D01*
X0155081Y0075624D01*
X0154960Y0075693D01*
X0154840Y0075766D01*
X0154722Y0075843D01*
X0154607Y0075922D01*
X0154493Y0076005D01*
X0154383Y0076091D01*
X0154274Y0076180D01*
X0154168Y0076272D01*
X0154065Y0076367D01*
X0153964Y0076464D01*
X0153867Y0076565D01*
X0153772Y0076668D01*
X0153680Y0076774D01*
X0153591Y0076883D01*
X0153505Y0076993D01*
X0153422Y0077107D01*
X0153343Y0077222D01*
X0153266Y0077340D01*
X0153193Y0077460D01*
X0153124Y0077581D01*
X0153058Y0077705D01*
X0152995Y0077831D01*
X0152936Y0077958D01*
X0152881Y0078087D01*
X0152829Y0078217D01*
X0152781Y0078349D01*
X0152736Y0078482D01*
X0152695Y0078616D01*
X0152658Y0078751D01*
X0152625Y0078887D01*
X0152596Y0079025D01*
X0152571Y0079162D01*
X0152549Y0079301D01*
X0152531Y0079440D01*
X0152518Y0079580D01*
X0152508Y0079720D01*
X0152502Y0079860D01*
X0152500Y0080000D01*
X0152500Y0155000D01*
X0152502Y0155140D01*
X0152508Y0155280D01*
X0152518Y0155420D01*
X0152531Y0155560D01*
X0152549Y0155699D01*
X0152571Y0155838D01*
X0152596Y0155975D01*
X0152625Y0156113D01*
X0152658Y0156249D01*
X0152695Y0156384D01*
X0152736Y0156518D01*
X0152781Y0156651D01*
X0152829Y0156783D01*
X0152881Y0156913D01*
X0152936Y0157042D01*
X0152995Y0157169D01*
X0153058Y0157295D01*
X0153124Y0157419D01*
X0153193Y0157540D01*
X0153266Y0157660D01*
X0153343Y0157778D01*
X0153422Y0157893D01*
X0153505Y0158007D01*
X0153591Y0158117D01*
X0153680Y0158226D01*
X0153772Y0158332D01*
X0153867Y0158435D01*
X0153964Y0158536D01*
X0154065Y0158633D01*
X0154168Y0158728D01*
X0154274Y0158820D01*
X0154383Y0158909D01*
X0154493Y0158995D01*
X0154607Y0159078D01*
X0154722Y0159157D01*
X0154840Y0159234D01*
X0154960Y0159307D01*
X0155081Y0159376D01*
X0155205Y0159442D01*
X0155331Y0159505D01*
X0155458Y0159564D01*
X0155587Y0159619D01*
X0155717Y0159671D01*
X0155849Y0159719D01*
X0155982Y0159764D01*
X0156116Y0159805D01*
X0156251Y0159842D01*
X0156387Y0159875D01*
X0156525Y0159904D01*
X0156662Y0159929D01*
X0156801Y0159951D01*
X0156940Y0159969D01*
X0157080Y0159982D01*
X0157220Y0159992D01*
X0157360Y0159998D01*
X0157500Y0160000D01*
X0180000Y0160000D01*
X0180140Y0160002D01*
X0180280Y0160008D01*
X0180420Y0160018D01*
X0180560Y0160031D01*
X0180699Y0160049D01*
X0180838Y0160071D01*
X0180975Y0160096D01*
X0181113Y0160125D01*
X0181249Y0160158D01*
X0181384Y0160195D01*
X0181518Y0160236D01*
X0181651Y0160281D01*
X0181783Y0160329D01*
X0181913Y0160381D01*
X0182042Y0160436D01*
X0182169Y0160495D01*
X0182295Y0160558D01*
X0182419Y0160624D01*
X0182540Y0160693D01*
X0182660Y0160766D01*
X0182778Y0160843D01*
X0182893Y0160922D01*
X0183007Y0161005D01*
X0183117Y0161091D01*
X0183226Y0161180D01*
X0183332Y0161272D01*
X0183435Y0161367D01*
X0183536Y0161464D01*
X0183633Y0161565D01*
X0183728Y0161668D01*
X0183820Y0161774D01*
X0183909Y0161883D01*
X0183995Y0161993D01*
X0184078Y0162107D01*
X0184157Y0162222D01*
X0184234Y0162340D01*
X0184307Y0162460D01*
X0184376Y0162581D01*
X0184442Y0162705D01*
X0184505Y0162831D01*
X0184564Y0162958D01*
X0184619Y0163087D01*
X0184671Y0163217D01*
X0184719Y0163349D01*
X0184764Y0163482D01*
X0184805Y0163616D01*
X0184842Y0163751D01*
X0184875Y0163887D01*
X0184904Y0164025D01*
X0184929Y0164162D01*
X0184951Y0164301D01*
X0184969Y0164440D01*
X0184982Y0164580D01*
X0184992Y0164720D01*
X0184998Y0164860D01*
X0185000Y0165000D01*
X0185000Y0192500D01*
X0184998Y0192681D01*
X0184991Y0192862D01*
X0184980Y0193043D01*
X0184965Y0193224D01*
X0184945Y0193404D01*
X0184921Y0193584D01*
X0184893Y0193763D01*
X0184860Y0193941D01*
X0184823Y0194118D01*
X0184782Y0194295D01*
X0184737Y0194470D01*
X0184687Y0194645D01*
X0184633Y0194818D01*
X0184575Y0194989D01*
X0184513Y0195160D01*
X0184446Y0195328D01*
X0184376Y0195495D01*
X0184302Y0195661D01*
X0184223Y0195824D01*
X0184141Y0195985D01*
X0184055Y0196145D01*
X0183965Y0196302D01*
X0183871Y0196457D01*
X0183774Y0196610D01*
X0183672Y0196760D01*
X0183568Y0196908D01*
X0183459Y0197054D01*
X0183348Y0197196D01*
X0183232Y0197336D01*
X0183114Y0197473D01*
X0182992Y0197608D01*
X0182867Y0197739D01*
X0182739Y0197867D01*
X0182608Y0197992D01*
X0182473Y0198114D01*
X0182336Y0198232D01*
X0182196Y0198348D01*
X0182054Y0198459D01*
X0181908Y0198568D01*
X0181760Y0198672D01*
X0181610Y0198774D01*
X0181457Y0198871D01*
X0181302Y0198965D01*
X0181145Y0199055D01*
X0180985Y0199141D01*
X0180824Y0199223D01*
X0180661Y0199302D01*
X0180495Y0199376D01*
X0180328Y0199446D01*
X0180160Y0199513D01*
X0179989Y0199575D01*
X0179818Y0199633D01*
X0179645Y0199687D01*
X0179470Y0199737D01*
X0179295Y0199782D01*
X0179118Y0199823D01*
X0178941Y0199860D01*
X0178763Y0199893D01*
X0178584Y0199921D01*
X0178404Y0199945D01*
X0178224Y0199965D01*
X0178043Y0199980D01*
X0177862Y0199991D01*
X0177681Y0199998D01*
X0177500Y0200000D01*
X0015000Y0200000D01*
X0014819Y0199998D01*
X0014638Y0199991D01*
X0014457Y0199980D01*
X0014276Y0199965D01*
X0014096Y0199945D01*
X0013916Y0199921D01*
X0013737Y0199893D01*
X0013559Y0199860D01*
X0013382Y0199823D01*
X0013205Y0199782D01*
X0013030Y0199737D01*
X0012855Y0199687D01*
X0012682Y0199633D01*
X0012511Y0199575D01*
X0012340Y0199513D01*
X0012172Y0199446D01*
X0012005Y0199376D01*
X0011839Y0199302D01*
X0011676Y0199223D01*
X0011515Y0199141D01*
X0011355Y0199055D01*
X0011198Y0198965D01*
X0011043Y0198871D01*
X0010890Y0198774D01*
X0010740Y0198672D01*
X0010592Y0198568D01*
X0010446Y0198459D01*
X0010304Y0198348D01*
X0010164Y0198232D01*
X0010027Y0198114D01*
X0009892Y0197992D01*
X0009761Y0197867D01*
X0009633Y0197739D01*
X0009508Y0197608D01*
X0009386Y0197473D01*
X0009268Y0197336D01*
X0009152Y0197196D01*
X0009041Y0197054D01*
X0008932Y0196908D01*
X0008828Y0196760D01*
X0008726Y0196610D01*
X0008629Y0196457D01*
X0008535Y0196302D01*
X0008445Y0196145D01*
X0008359Y0195985D01*
X0008277Y0195824D01*
X0008198Y0195661D01*
X0008124Y0195495D01*
X0008054Y0195328D01*
X0007987Y0195160D01*
X0007925Y0194989D01*
X0007867Y0194818D01*
X0007813Y0194645D01*
X0007763Y0194470D01*
X0007718Y0194295D01*
X0007677Y0194118D01*
X0007640Y0193941D01*
X0007607Y0193763D01*
X0007579Y0193584D01*
X0007555Y0193404D01*
X0007535Y0193224D01*
X0007520Y0193043D01*
X0007509Y0192862D01*
X0007502Y0192681D01*
X0007500Y0192500D01*
D13*
X0017500Y0145000D02*
X0017500Y0065000D01*
X0027500Y0065000D01*
X0027500Y0145000D01*
X0037500Y0145000D01*
X0037500Y0065000D01*
X0027500Y0065000D01*
X0075903Y0111800D02*
X0078172Y0111800D01*
X0075903Y0114069D01*
X0075903Y0114636D01*
X0076470Y0115203D01*
X0077605Y0115203D01*
X0078172Y0114636D01*
X0079586Y0114636D02*
X0079586Y0112367D01*
X0080154Y0111800D01*
X0081288Y0111800D01*
X0081855Y0112367D01*
X0081855Y0114636D01*
X0081288Y0115203D01*
X0080154Y0115203D01*
X0079586Y0114636D01*
X0080154Y0117800D02*
X0079586Y0118367D01*
X0079586Y0120636D01*
X0080154Y0121203D01*
X0081288Y0121203D01*
X0081855Y0120636D01*
X0081855Y0118367D01*
X0081288Y0117800D01*
X0080154Y0117800D01*
X0078172Y0117800D02*
X0075903Y0117800D01*
X0077038Y0117800D02*
X0077038Y0121203D01*
X0078172Y0120069D01*
X0074489Y0119501D02*
X0072787Y0119501D01*
X0072220Y0118934D01*
X0072220Y0118367D01*
X0072787Y0117800D01*
X0073922Y0117800D01*
X0074489Y0118367D01*
X0074489Y0119501D01*
X0073354Y0120636D01*
X0072220Y0121203D01*
X0072787Y0123800D02*
X0072787Y0127203D01*
X0074489Y0125501D01*
X0072220Y0125501D01*
X0075903Y0123800D02*
X0078172Y0123800D01*
X0077038Y0123800D02*
X0077038Y0127203D01*
X0078172Y0126069D01*
X0079586Y0126636D02*
X0079586Y0124367D01*
X0080154Y0123800D01*
X0081288Y0123800D01*
X0081855Y0124367D01*
X0081855Y0126636D01*
X0081288Y0127203D01*
X0080154Y0127203D01*
X0079586Y0126636D01*
X0080154Y0129800D02*
X0079586Y0130367D01*
X0079586Y0132636D01*
X0080154Y0133203D01*
X0081288Y0133203D01*
X0081855Y0132636D01*
X0081855Y0130367D01*
X0081288Y0129800D01*
X0080154Y0129800D01*
X0078172Y0129800D02*
X0075903Y0129800D01*
X0077038Y0129800D02*
X0077038Y0133203D01*
X0078172Y0132069D01*
X0074489Y0132636D02*
X0073922Y0133203D01*
X0072787Y0133203D01*
X0072220Y0132636D01*
X0072220Y0132069D01*
X0074489Y0129800D01*
X0072220Y0129800D01*
X0072787Y0135800D02*
X0073922Y0135800D01*
X0074489Y0136367D01*
X0074489Y0137501D02*
X0073354Y0138069D01*
X0072787Y0138069D01*
X0072220Y0137501D01*
X0072220Y0136367D01*
X0072787Y0135800D01*
X0074489Y0137501D02*
X0074489Y0139203D01*
X0072220Y0139203D01*
X0076470Y0141800D02*
X0076470Y0145203D01*
X0078172Y0143501D01*
X0075903Y0143501D01*
X0079586Y0142367D02*
X0079586Y0144636D01*
X0080154Y0145203D01*
X0081288Y0145203D01*
X0081855Y0144636D01*
X0081855Y0142367D01*
X0081288Y0141800D01*
X0080154Y0141800D01*
X0079586Y0142367D01*
X0080154Y0139203D02*
X0079586Y0138636D01*
X0079586Y0136367D01*
X0080154Y0135800D01*
X0081288Y0135800D01*
X0081855Y0136367D01*
X0081855Y0138636D01*
X0081288Y0139203D01*
X0080154Y0139203D01*
X0078172Y0138069D02*
X0077038Y0139203D01*
X0077038Y0135800D01*
X0078172Y0135800D02*
X0075903Y0135800D01*
X0083176Y0135800D02*
X0084310Y0135800D01*
X0083743Y0135800D02*
X0083743Y0139203D01*
X0084310Y0139203D02*
X0083176Y0139203D01*
X0083176Y0141800D02*
X0084310Y0141800D01*
X0083743Y0141800D02*
X0083743Y0145203D01*
X0084310Y0145203D02*
X0083176Y0145203D01*
X0085725Y0144636D02*
X0085725Y0143501D01*
X0086292Y0142934D01*
X0087994Y0142934D01*
X0087994Y0141800D02*
X0087994Y0145203D01*
X0086292Y0145203D01*
X0085725Y0144636D01*
X0084310Y0147800D02*
X0083176Y0147800D01*
X0083743Y0147800D02*
X0083743Y0151203D01*
X0084310Y0151203D02*
X0083176Y0151203D01*
X0081855Y0150636D02*
X0081855Y0148367D01*
X0081288Y0147800D01*
X0080154Y0147800D01*
X0079586Y0148367D01*
X0079586Y0150636D01*
X0080154Y0151203D01*
X0081288Y0151203D01*
X0081855Y0150636D01*
X0081288Y0153800D02*
X0080154Y0153800D01*
X0079586Y0154367D01*
X0079586Y0156636D01*
X0080154Y0157203D01*
X0081288Y0157203D01*
X0081855Y0156636D01*
X0081855Y0154367D01*
X0081288Y0153800D01*
X0083176Y0153800D02*
X0084310Y0153800D01*
X0083743Y0153800D02*
X0083743Y0157203D01*
X0084310Y0157203D02*
X0083176Y0157203D01*
X0085725Y0156636D02*
X0085725Y0155501D01*
X0086292Y0154934D01*
X0087994Y0154934D01*
X0087994Y0153800D02*
X0087994Y0157203D01*
X0086292Y0157203D01*
X0085725Y0156636D01*
X0084310Y0159800D02*
X0083176Y0159800D01*
X0083743Y0159800D02*
X0083743Y0163203D01*
X0084310Y0163203D02*
X0083176Y0163203D01*
X0081855Y0162636D02*
X0081855Y0160367D01*
X0081288Y0159800D01*
X0080154Y0159800D01*
X0079586Y0160367D01*
X0079586Y0162636D01*
X0080154Y0163203D01*
X0081288Y0163203D01*
X0081855Y0162636D01*
X0078172Y0162069D02*
X0077038Y0163203D01*
X0077038Y0159800D01*
X0078172Y0159800D02*
X0075903Y0159800D01*
X0074489Y0160367D02*
X0073922Y0159800D01*
X0072787Y0159800D01*
X0072220Y0160367D01*
X0072220Y0160934D01*
X0072787Y0161501D01*
X0073354Y0161501D01*
X0072787Y0161501D02*
X0072220Y0162069D01*
X0072220Y0162636D01*
X0072787Y0163203D01*
X0073922Y0163203D01*
X0074489Y0162636D01*
X0076470Y0157203D02*
X0075903Y0156636D01*
X0078172Y0154367D01*
X0077605Y0153800D01*
X0076470Y0153800D01*
X0075903Y0154367D01*
X0075903Y0156636D01*
X0076470Y0157203D02*
X0077605Y0157203D01*
X0078172Y0156636D01*
X0078172Y0154367D01*
X0078172Y0151203D02*
X0075903Y0151203D01*
X0076470Y0150069D02*
X0075903Y0149501D01*
X0075903Y0148367D01*
X0076470Y0147800D01*
X0077605Y0147800D01*
X0078172Y0148367D01*
X0078172Y0149501D02*
X0077038Y0150069D01*
X0076470Y0150069D01*
X0078172Y0149501D02*
X0078172Y0151203D01*
X0085725Y0150636D02*
X0085725Y0149501D01*
X0086292Y0148934D01*
X0087994Y0148934D01*
X0087994Y0147800D02*
X0087994Y0151203D01*
X0086292Y0151203D01*
X0085725Y0150636D01*
X0089408Y0150636D02*
X0089975Y0151203D01*
X0091110Y0151203D01*
X0091677Y0150636D01*
X0091677Y0148367D01*
X0091110Y0147800D01*
X0089975Y0147800D01*
X0089408Y0148367D01*
X0089408Y0149501D01*
X0090542Y0149501D01*
X0093091Y0151203D02*
X0095360Y0147800D01*
X0096774Y0147800D02*
X0099043Y0147800D01*
X0097909Y0147800D02*
X0097909Y0151203D01*
X0099043Y0150069D01*
X0100458Y0150636D02*
X0100458Y0148367D01*
X0101025Y0147800D01*
X0102726Y0147800D01*
X0102726Y0151203D01*
X0101025Y0151203D01*
X0100458Y0150636D01*
X0101025Y0153800D02*
X0100458Y0154367D01*
X0100458Y0156636D01*
X0101025Y0157203D01*
X0102726Y0157203D01*
X0102726Y0153800D01*
X0101025Y0153800D01*
X0099043Y0154367D02*
X0098476Y0153800D01*
X0097342Y0153800D01*
X0096774Y0154367D01*
X0096774Y0154934D01*
X0097342Y0155501D01*
X0097909Y0155501D01*
X0097342Y0155501D02*
X0096774Y0156069D01*
X0096774Y0156636D01*
X0097342Y0157203D01*
X0098476Y0157203D01*
X0099043Y0156636D01*
X0099043Y0159800D02*
X0099043Y0160367D01*
X0096774Y0162636D01*
X0096774Y0163203D01*
X0099043Y0163203D01*
X0100458Y0162636D02*
X0100458Y0160367D01*
X0101025Y0159800D01*
X0102726Y0159800D01*
X0102726Y0163203D01*
X0101025Y0163203D01*
X0100458Y0162636D01*
X0095360Y0159800D02*
X0093091Y0163203D01*
X0091677Y0162636D02*
X0091677Y0160367D01*
X0091110Y0159800D01*
X0089975Y0159800D01*
X0089408Y0160367D01*
X0089408Y0161501D01*
X0090542Y0161501D01*
X0089408Y0162636D02*
X0089975Y0163203D01*
X0091110Y0163203D01*
X0091677Y0162636D01*
X0087994Y0163203D02*
X0087994Y0159800D01*
X0087994Y0160934D02*
X0086292Y0160934D01*
X0085725Y0161501D01*
X0085725Y0162636D01*
X0086292Y0163203D01*
X0087994Y0163203D01*
X0089975Y0157203D02*
X0091110Y0157203D01*
X0091677Y0156636D01*
X0091677Y0154367D01*
X0091110Y0153800D01*
X0089975Y0153800D01*
X0089408Y0154367D01*
X0089408Y0155501D01*
X0090542Y0155501D01*
X0089408Y0156636D02*
X0089975Y0157203D01*
X0093091Y0157203D02*
X0095360Y0153800D01*
X0097342Y0145203D02*
X0098476Y0145203D01*
X0099043Y0144636D01*
X0100458Y0144636D02*
X0100458Y0142367D01*
X0101025Y0141800D01*
X0102726Y0141800D01*
X0102726Y0145203D01*
X0101025Y0145203D01*
X0100458Y0144636D01*
X0099043Y0141800D02*
X0096774Y0144069D01*
X0096774Y0144636D01*
X0097342Y0145203D01*
X0096774Y0141800D02*
X0099043Y0141800D01*
X0098476Y0139203D02*
X0097342Y0139203D01*
X0096774Y0138636D01*
X0096774Y0138069D01*
X0097342Y0137501D01*
X0098476Y0137501D01*
X0099043Y0138069D01*
X0099043Y0138636D01*
X0098476Y0139203D01*
X0098476Y0137501D02*
X0099043Y0136934D01*
X0099043Y0136367D01*
X0098476Y0135800D01*
X0097342Y0135800D01*
X0096774Y0136367D01*
X0096774Y0136934D01*
X0097342Y0137501D01*
X0095360Y0135800D02*
X0093091Y0139203D01*
X0091677Y0138636D02*
X0091677Y0136367D01*
X0091110Y0135800D01*
X0089975Y0135800D01*
X0089408Y0136367D01*
X0089408Y0137501D01*
X0090542Y0137501D01*
X0089408Y0138636D02*
X0089975Y0139203D01*
X0091110Y0139203D01*
X0091677Y0138636D01*
X0091110Y0141800D02*
X0089975Y0141800D01*
X0089408Y0142367D01*
X0089408Y0143501D01*
X0090542Y0143501D01*
X0091677Y0142367D02*
X0091677Y0144636D01*
X0091110Y0145203D01*
X0089975Y0145203D01*
X0089408Y0144636D01*
X0091677Y0142367D02*
X0091110Y0141800D01*
X0093091Y0145203D02*
X0095360Y0141800D01*
X0100458Y0138636D02*
X0100458Y0136367D01*
X0101025Y0135800D01*
X0102726Y0135800D01*
X0102726Y0139203D01*
X0101025Y0139203D01*
X0100458Y0138636D01*
X0101025Y0133203D02*
X0102726Y0133203D01*
X0102726Y0129800D01*
X0101025Y0129800D01*
X0100458Y0130367D01*
X0100458Y0132636D01*
X0101025Y0133203D01*
X0099043Y0131501D02*
X0097342Y0131501D01*
X0096774Y0130934D01*
X0096774Y0130367D01*
X0097342Y0129800D01*
X0098476Y0129800D01*
X0099043Y0130367D01*
X0099043Y0131501D01*
X0097909Y0132636D01*
X0096774Y0133203D01*
X0093091Y0133203D02*
X0095360Y0129800D01*
X0096774Y0127203D02*
X0099043Y0127203D01*
X0099043Y0125501D01*
X0097909Y0126069D01*
X0097342Y0126069D01*
X0096774Y0125501D01*
X0096774Y0124367D01*
X0097342Y0123800D01*
X0098476Y0123800D01*
X0099043Y0124367D01*
X0100458Y0124367D02*
X0100458Y0126636D01*
X0101025Y0127203D01*
X0102726Y0127203D01*
X0102726Y0123800D01*
X0101025Y0123800D01*
X0100458Y0124367D01*
X0101025Y0121203D02*
X0102726Y0121203D01*
X0102726Y0117800D01*
X0101025Y0117800D01*
X0100458Y0118367D01*
X0100458Y0120636D01*
X0101025Y0121203D01*
X0099043Y0120636D02*
X0099043Y0118367D01*
X0096774Y0120636D01*
X0096774Y0118367D01*
X0097342Y0117800D01*
X0098476Y0117800D01*
X0099043Y0118367D01*
X0099043Y0120636D02*
X0098476Y0121203D01*
X0097342Y0121203D01*
X0096774Y0120636D01*
X0095360Y0123800D02*
X0093091Y0127203D01*
X0091677Y0126636D02*
X0091677Y0124367D01*
X0091110Y0123800D01*
X0089975Y0123800D01*
X0089408Y0124367D01*
X0089408Y0125501D01*
X0090542Y0125501D01*
X0089408Y0126636D02*
X0089975Y0127203D01*
X0091110Y0127203D01*
X0091677Y0126636D01*
X0091110Y0129800D02*
X0089975Y0129800D01*
X0089408Y0130367D01*
X0089408Y0131501D01*
X0090542Y0131501D01*
X0091677Y0130367D02*
X0091677Y0132636D01*
X0091110Y0133203D01*
X0089975Y0133203D01*
X0089408Y0132636D01*
X0087994Y0133203D02*
X0087994Y0129800D01*
X0087994Y0130934D02*
X0086292Y0130934D01*
X0085725Y0131501D01*
X0085725Y0132636D01*
X0086292Y0133203D01*
X0087994Y0133203D01*
X0087994Y0135800D02*
X0087994Y0139203D01*
X0086292Y0139203D01*
X0085725Y0138636D01*
X0085725Y0137501D01*
X0086292Y0136934D01*
X0087994Y0136934D01*
X0084310Y0133203D02*
X0083176Y0133203D01*
X0083743Y0133203D02*
X0083743Y0129800D01*
X0084310Y0129800D02*
X0083176Y0129800D01*
X0083176Y0127203D02*
X0084310Y0127203D01*
X0083743Y0127203D02*
X0083743Y0123800D01*
X0084310Y0123800D02*
X0083176Y0123800D01*
X0083176Y0121203D02*
X0084310Y0121203D01*
X0083743Y0121203D02*
X0083743Y0117800D01*
X0084310Y0117800D02*
X0083176Y0117800D01*
X0083176Y0115203D02*
X0084310Y0115203D01*
X0083743Y0115203D02*
X0083743Y0111800D01*
X0084310Y0111800D02*
X0083176Y0111800D01*
X0085725Y0113501D02*
X0086292Y0112934D01*
X0087994Y0112934D01*
X0087994Y0111800D02*
X0087994Y0115203D01*
X0086292Y0115203D01*
X0085725Y0114636D01*
X0085725Y0113501D01*
X0089408Y0113501D02*
X0090542Y0113501D01*
X0089408Y0113501D02*
X0089408Y0112367D01*
X0089975Y0111800D01*
X0091110Y0111800D01*
X0091677Y0112367D01*
X0091677Y0114636D01*
X0091110Y0115203D01*
X0089975Y0115203D01*
X0089408Y0114636D01*
X0089975Y0117800D02*
X0089408Y0118367D01*
X0089408Y0119501D01*
X0090542Y0119501D01*
X0091677Y0118367D02*
X0091110Y0117800D01*
X0089975Y0117800D01*
X0091677Y0118367D02*
X0091677Y0120636D01*
X0091110Y0121203D01*
X0089975Y0121203D01*
X0089408Y0120636D01*
X0087994Y0121203D02*
X0086292Y0121203D01*
X0085725Y0120636D01*
X0085725Y0119501D01*
X0086292Y0118934D01*
X0087994Y0118934D01*
X0087994Y0117800D02*
X0087994Y0121203D01*
X0087994Y0123800D02*
X0087994Y0127203D01*
X0086292Y0127203D01*
X0085725Y0126636D01*
X0085725Y0125501D01*
X0086292Y0124934D01*
X0087994Y0124934D01*
X0091110Y0129800D02*
X0091677Y0130367D01*
X0093091Y0121203D02*
X0095360Y0117800D01*
X0097342Y0115203D02*
X0099043Y0113501D01*
X0096774Y0113501D01*
X0097342Y0111800D02*
X0097342Y0115203D01*
X0100458Y0114636D02*
X0100458Y0112367D01*
X0101025Y0111800D01*
X0102726Y0111800D01*
X0102726Y0115203D01*
X0101025Y0115203D01*
X0100458Y0114636D01*
X0095360Y0111800D02*
X0093091Y0115203D01*
X0107824Y0113501D02*
X0110092Y0113501D01*
X0111507Y0113501D02*
X0113776Y0113501D01*
X0115757Y0117800D02*
X0117459Y0117800D01*
X0117459Y0121203D01*
X0115757Y0121203D01*
X0115190Y0120636D01*
X0115190Y0120069D01*
X0115757Y0119501D01*
X0117459Y0119501D01*
X0115757Y0119501D02*
X0115190Y0118934D01*
X0115190Y0118367D01*
X0115757Y0117800D01*
X0118873Y0115203D02*
X0121142Y0115203D01*
X0121142Y0111800D01*
X0118873Y0111800D01*
X0120008Y0113501D02*
X0121142Y0113501D01*
X0122556Y0112367D02*
X0123124Y0111800D01*
X0124258Y0111800D01*
X0124825Y0112367D01*
X0124825Y0114636D01*
X0124258Y0115203D01*
X0123124Y0115203D01*
X0122556Y0114636D01*
X0122556Y0112367D01*
X0123124Y0117800D02*
X0124258Y0117800D01*
X0124825Y0118367D01*
X0124258Y0119501D02*
X0123124Y0119501D01*
X0122556Y0118934D01*
X0122556Y0118367D01*
X0123124Y0117800D01*
X0124258Y0119501D02*
X0124825Y0120069D01*
X0124825Y0120636D01*
X0124258Y0121203D01*
X0123124Y0121203D01*
X0122556Y0120636D01*
X0121142Y0121203D02*
X0118873Y0121203D01*
X0120008Y0121203D02*
X0120008Y0117800D01*
X0121142Y0123800D02*
X0118873Y0123800D01*
X0117459Y0123800D02*
X0117459Y0127203D01*
X0116892Y0125501D02*
X0115190Y0123800D01*
X0117459Y0124934D02*
X0115190Y0127203D01*
X0115190Y0131501D02*
X0117459Y0131501D01*
X0113776Y0131501D02*
X0111507Y0131501D01*
X0110092Y0131501D02*
X0107824Y0131501D01*
X0107824Y0125501D02*
X0110092Y0125501D01*
X0110092Y0119501D02*
X0107824Y0119501D01*
X0121142Y0123800D02*
X0121142Y0127203D01*
X0122556Y0126636D02*
X0123124Y0127203D01*
X0124258Y0127203D01*
X0124825Y0126636D01*
X0124825Y0124367D01*
X0124258Y0123800D01*
X0123124Y0123800D01*
X0122556Y0124367D01*
X0123124Y0129800D02*
X0122556Y0130367D01*
X0122556Y0132636D01*
X0123124Y0133203D01*
X0124825Y0133203D01*
X0124825Y0129800D01*
X0123124Y0129800D01*
X0123124Y0135800D02*
X0122556Y0136367D01*
X0123124Y0135800D02*
X0124258Y0135800D01*
X0124825Y0136367D01*
X0124825Y0138636D01*
X0124258Y0139203D01*
X0123124Y0139203D01*
X0122556Y0138636D01*
X0123124Y0141800D02*
X0124825Y0141800D01*
X0124825Y0145203D01*
X0123124Y0145203D01*
X0122556Y0144636D01*
X0122556Y0144069D01*
X0123124Y0143501D01*
X0124825Y0143501D01*
X0123124Y0143501D02*
X0122556Y0142934D01*
X0122556Y0142367D01*
X0123124Y0141800D01*
X0117459Y0143501D02*
X0115190Y0143501D01*
X0113776Y0143501D02*
X0111507Y0143501D01*
X0110092Y0143501D02*
X0107824Y0143501D01*
X0107824Y0137501D02*
X0110092Y0137501D01*
X0111507Y0137501D02*
X0113776Y0137501D01*
X0115190Y0137501D02*
X0117459Y0137501D01*
X0122556Y0147800D02*
X0122556Y0150069D01*
X0123691Y0151203D01*
X0124825Y0150069D01*
X0124825Y0147800D01*
X0124825Y0149501D02*
X0122556Y0149501D01*
X0122556Y0153800D02*
X0124825Y0153800D01*
X0124825Y0157203D01*
X0122556Y0157203D01*
X0123691Y0155501D02*
X0124825Y0155501D01*
X0124825Y0159800D02*
X0124825Y0163203D01*
X0123124Y0163203D01*
X0122556Y0162636D01*
X0122556Y0161501D01*
X0123124Y0160934D01*
X0124825Y0160934D01*
X0123691Y0160934D02*
X0122556Y0159800D01*
X0121142Y0160367D02*
X0121142Y0162636D01*
X0120575Y0163203D01*
X0119440Y0163203D01*
X0118873Y0162636D01*
X0121142Y0160367D01*
X0120575Y0159800D01*
X0119440Y0159800D01*
X0118873Y0160367D01*
X0118873Y0162636D01*
X0113776Y0161501D02*
X0111507Y0161501D01*
X0110092Y0161501D02*
X0107824Y0161501D01*
X0111507Y0157203D02*
X0113776Y0153800D01*
X0115190Y0155501D02*
X0117459Y0155501D01*
X0117459Y0149501D02*
X0115190Y0149501D01*
X0113776Y0149501D02*
X0111507Y0149501D01*
X0110092Y0149501D02*
X0107824Y0149501D01*
X0107824Y0155501D02*
X0110092Y0155501D01*
X0156846Y0068028D02*
X0159115Y0068028D01*
X0159682Y0067461D01*
X0159682Y0065760D01*
X0156279Y0065760D01*
X0156279Y0067461D01*
X0156846Y0068028D01*
X0156279Y0064345D02*
X0159682Y0064345D01*
X0159682Y0062077D02*
X0156279Y0064345D01*
X0156279Y0062077D02*
X0159682Y0062077D01*
X0159115Y0060662D02*
X0159682Y0060095D01*
X0159682Y0058961D01*
X0159115Y0058393D01*
X0156846Y0058393D01*
X0156279Y0058961D01*
X0156279Y0060095D01*
X0156846Y0060662D01*
X0157981Y0060662D01*
X0157981Y0059528D01*
X0156846Y0052028D02*
X0159115Y0052028D01*
X0159682Y0051461D01*
X0159682Y0049760D01*
X0156279Y0049760D01*
X0156279Y0051461D01*
X0156846Y0052028D01*
X0156279Y0048345D02*
X0159682Y0048345D01*
X0159682Y0046077D02*
X0156279Y0046077D01*
X0156846Y0044662D02*
X0157981Y0044662D01*
X0157981Y0043528D01*
X0159115Y0044662D02*
X0159682Y0044095D01*
X0159682Y0042961D01*
X0159115Y0042393D01*
X0156846Y0042393D01*
X0156279Y0042961D01*
X0156279Y0044095D01*
X0156846Y0044662D01*
X0159682Y0046077D02*
X0156279Y0048345D01*
X0157414Y0034687D02*
X0159682Y0034687D01*
X0157414Y0034687D02*
X0156279Y0033552D01*
X0157414Y0032418D01*
X0159682Y0032418D01*
X0159682Y0031004D02*
X0159682Y0028735D01*
X0157981Y0028735D01*
X0158548Y0029869D01*
X0158548Y0030436D01*
X0157981Y0031004D01*
X0156846Y0031004D01*
X0156279Y0030436D01*
X0156279Y0029302D01*
X0156846Y0028735D01*
X0157414Y0019687D02*
X0159682Y0019687D01*
X0157414Y0019687D02*
X0156279Y0018552D01*
X0157414Y0017418D01*
X0159682Y0017418D01*
X0159682Y0016004D02*
X0159682Y0013735D01*
X0157981Y0013735D01*
X0158548Y0014869D01*
X0158548Y0015436D01*
X0157981Y0016004D01*
X0156846Y0016004D01*
X0156279Y0015436D01*
X0156279Y0014302D01*
X0156846Y0013735D01*
X0027500Y0145000D02*
X0017500Y0145000D01*
D14*
X0102875Y0061000D03*
X0105125Y0091000D03*
D15*
X0087125Y0080750D03*
X0087125Y0080500D03*
X0086875Y0080250D03*
X0086875Y0080000D03*
X0086875Y0079750D03*
X0086875Y0079500D03*
X0086875Y0079250D03*
X0086875Y0079000D03*
X0086875Y0078750D03*
X0086875Y0078500D03*
X0086875Y0078250D03*
X0086875Y0078000D03*
X0086875Y0077750D03*
X0086875Y0077500D03*
X0086875Y0077250D03*
X0086875Y0077000D03*
X0086875Y0076750D03*
X0086875Y0076500D03*
X0086875Y0076250D03*
X0086875Y0076000D03*
X0097375Y0071500D03*
X0097375Y0071250D03*
X0097375Y0071000D03*
X0097375Y0070750D03*
X0097375Y0070500D03*
X0097375Y0070250D03*
X0097375Y0070000D03*
X0097375Y0069750D03*
X0097375Y0069500D03*
X0097375Y0069250D03*
X0097375Y0069000D03*
X0097375Y0068750D03*
X0097375Y0068500D03*
X0097375Y0068250D03*
X0097375Y0068000D03*
X0097375Y0067750D03*
X0097375Y0067500D03*
X0097375Y0066000D03*
X0097375Y0065750D03*
X0097375Y0065500D03*
X0097375Y0065250D03*
X0097375Y0065000D03*
X0097375Y0064750D03*
X0097375Y0064500D03*
X0097375Y0064250D03*
X0097375Y0064000D03*
X0097375Y0063750D03*
X0097375Y0063500D03*
X0097375Y0063250D03*
X0097375Y0063000D03*
X0097375Y0062750D03*
X0097375Y0062500D03*
X0097375Y0062250D03*
X0097375Y0062000D03*
X0097375Y0061750D03*
X0097375Y0061500D03*
X0097375Y0061250D03*
X0097375Y0061000D03*
D16*
X0092625Y0066250D03*
X0092375Y0065750D03*
X0092375Y0065500D03*
X0092375Y0065250D03*
X0092375Y0065000D03*
X0092375Y0064750D03*
X0092375Y0064500D03*
X0092375Y0064250D03*
X0092375Y0064000D03*
X0092375Y0063750D03*
X0092375Y0063500D03*
X0092375Y0063250D03*
X0092375Y0063000D03*
X0092375Y0062750D03*
X0092375Y0062500D03*
X0092375Y0062250D03*
X0092375Y0062000D03*
X0092375Y0061750D03*
X0092375Y0061500D03*
X0092375Y0061250D03*
X0092375Y0061000D03*
X0083875Y0066500D03*
X0083625Y0066750D03*
X0083625Y0067000D03*
X0083625Y0067250D03*
X0083625Y0067500D03*
X0083625Y0067750D03*
X0092375Y0076750D03*
X0092375Y0077000D03*
X0092375Y0077250D03*
X0092375Y0077500D03*
X0092375Y0077750D03*
X0092375Y0078000D03*
X0092375Y0078250D03*
X0092375Y0078500D03*
X0092375Y0078750D03*
X0092375Y0079000D03*
X0092375Y0079250D03*
X0092375Y0079500D03*
X0092375Y0079750D03*
X0092375Y0080000D03*
X0092375Y0080250D03*
X0092375Y0080500D03*
X0092125Y0080750D03*
X0092625Y0076000D03*
X0114375Y0087000D03*
D17*
X0085755Y0061500D03*
X0085755Y0061250D03*
X0085755Y0061000D03*
X0077495Y0080250D03*
D18*
X0073120Y0078750D03*
X0079370Y0071250D03*
X0079370Y0071000D03*
X0079370Y0070500D03*
X0079370Y0068500D03*
X0079370Y0068250D03*
X0079370Y0068000D03*
X0079370Y0067750D03*
X0079370Y0067500D03*
X0079370Y0067250D03*
X0079370Y0067000D03*
X0079370Y0066750D03*
X0079370Y0066500D03*
X0079370Y0066250D03*
X0079370Y0066000D03*
X0079370Y0065750D03*
X0079370Y0065500D03*
X0079370Y0065250D03*
X0079370Y0065000D03*
X0079370Y0064750D03*
X0079370Y0064500D03*
X0079370Y0064250D03*
X0079370Y0064000D03*
X0079370Y0063750D03*
X0079370Y0063500D03*
X0079370Y0063250D03*
X0079370Y0063000D03*
X0079370Y0062750D03*
X0079370Y0062500D03*
X0079370Y0062250D03*
X0079370Y0062000D03*
X0079370Y0061750D03*
X0079370Y0061500D03*
X0079370Y0061250D03*
X0079370Y0061000D03*
X0097620Y0076750D03*
X0097620Y0077000D03*
X0097870Y0077250D03*
X0105120Y0066500D03*
X0105120Y0066250D03*
X0105370Y0066000D03*
X0105370Y0065750D03*
X0105370Y0065500D03*
X0105370Y0065250D03*
X0105370Y0065000D03*
X0105370Y0064750D03*
X0105370Y0064500D03*
X0105370Y0064250D03*
X0105370Y0064000D03*
X0105370Y0063750D03*
X0105370Y0063500D03*
X0105370Y0063250D03*
X0105120Y0062750D03*
D19*
X0102875Y0061250D03*
X0099875Y0080250D03*
X0100125Y0080500D03*
X0102625Y0083500D03*
D20*
X0100995Y0081250D03*
X0110245Y0081750D03*
X0102245Y0093250D03*
X0100995Y0094000D03*
X0099245Y0095000D03*
X0085755Y0095000D03*
X0083995Y0094000D03*
X0082745Y0093250D03*
X0085755Y0069000D03*
X0102755Y0067750D03*
X0102755Y0061500D03*
D21*
X0102880Y0061750D03*
X0102880Y0067500D03*
X0110620Y0082750D03*
X0089620Y0082250D03*
D22*
X0089620Y0081500D03*
X0095130Y0067250D03*
X0095130Y0067000D03*
X0085880Y0062250D03*
X0085880Y0062000D03*
X0085880Y0061750D03*
D23*
X0100500Y0073750D03*
X0103000Y0062000D03*
D24*
X0104620Y0062250D03*
X0098120Y0077750D03*
X0098120Y0078000D03*
X0098370Y0078250D03*
X0105370Y0090250D03*
X0105370Y0090500D03*
X0085370Y0064750D03*
X0085620Y0064500D03*
X0085870Y0064250D03*
X0086120Y0064000D03*
X0086370Y0063750D03*
X0073870Y0079250D03*
X0079620Y0090250D03*
X0079620Y0090500D03*
D25*
X0071875Y0077750D03*
X0071625Y0077500D03*
X0071375Y0077250D03*
X0071125Y0077000D03*
X0071125Y0076750D03*
X0070875Y0076500D03*
X0070625Y0076000D03*
X0076875Y0073000D03*
X0077125Y0073250D03*
X0101375Y0062250D03*
D26*
X0105000Y0062500D03*
X0104750Y0066750D03*
X0092750Y0066500D03*
X0092500Y0066000D03*
X0084250Y0066000D03*
X0084000Y0066250D03*
X0083750Y0068000D03*
X0084000Y0068250D03*
X0092750Y0075750D03*
X0092500Y0099500D03*
D27*
X0114995Y0087250D03*
X0101005Y0062500D03*
X0075755Y0069750D03*
X0072745Y0070500D03*
X0069755Y0071500D03*
D28*
X0074375Y0079500D03*
X0087625Y0062500D03*
X0096875Y0066750D03*
X0110625Y0080750D03*
D29*
X0100880Y0062750D03*
D30*
X0087500Y0062750D03*
X0087250Y0063000D03*
X0087750Y0068250D03*
D31*
X0079245Y0070250D03*
X0072495Y0078250D03*
X0072745Y0078500D03*
X0105245Y0063000D03*
D32*
X0097125Y0066500D03*
X0087875Y0068000D03*
X0086625Y0063500D03*
X0086875Y0063250D03*
X0110875Y0081000D03*
X0112875Y0084750D03*
D33*
X0112625Y0084500D03*
X0089625Y0082750D03*
X0078125Y0073750D03*
X0084375Y0065750D03*
X0084625Y0065500D03*
X0084875Y0065250D03*
X0085125Y0065000D03*
D34*
X0075750Y0076250D03*
X0097250Y0066250D03*
D35*
X0101005Y0066500D03*
X0088005Y0067000D03*
X0079245Y0069750D03*
X0092495Y0099750D03*
D36*
X0101250Y0066750D03*
D37*
X0094120Y0068000D03*
X0093130Y0066750D03*
X0098620Y0078750D03*
X0098880Y0079000D03*
X0101120Y0082500D03*
X0104870Y0091250D03*
X0112370Y0084250D03*
X0080120Y0091250D03*
X0079870Y0091000D03*
X0079120Y0077750D03*
X0079870Y0076250D03*
D38*
X0079745Y0076500D03*
X0076245Y0076500D03*
X0085745Y0069750D03*
X0098495Y0078500D03*
X0104495Y0067000D03*
X0079745Y0090750D03*
D39*
X0092500Y0076500D03*
X0092500Y0076250D03*
X0101500Y0067000D03*
X0077500Y0073500D03*
D40*
X0078125Y0077000D03*
X0103125Y0067250D03*
X0109375Y0080250D03*
D41*
X0088000Y0067250D03*
D42*
X0094120Y0067500D03*
X0109870Y0080500D03*
X0113120Y0086750D03*
X0104120Y0092000D03*
D43*
X0088000Y0067500D03*
X0075750Y0071250D03*
X0069750Y0071750D03*
X0069750Y0072000D03*
X0069750Y0072250D03*
X0069750Y0072500D03*
X0069750Y0072750D03*
X0069750Y0073000D03*
X0069750Y0073250D03*
X0069750Y0073500D03*
X0069750Y0073750D03*
X0069750Y0074000D03*
D44*
X0094120Y0067750D03*
X0100870Y0082000D03*
X0102130Y0083250D03*
X0111870Y0084000D03*
D45*
X0097500Y0076500D03*
X0088000Y0067750D03*
X0075250Y0076000D03*
X0075000Y0075750D03*
D46*
X0078750Y0077500D03*
X0099750Y0080000D03*
X0102750Y0068000D03*
X0111750Y0083750D03*
D47*
X0105250Y0090750D03*
X0102750Y0068250D03*
D48*
X0097125Y0075750D03*
X0097375Y0076000D03*
X0097375Y0076250D03*
X0094125Y0068250D03*
X0074625Y0075500D03*
X0069875Y0074250D03*
D49*
X0077745Y0080500D03*
X0085755Y0068500D03*
X0094755Y0075250D03*
X0094755Y0075500D03*
D50*
X0085755Y0068750D03*
X0092505Y0098750D03*
D51*
X0092505Y0099000D03*
X0103745Y0092250D03*
X0094995Y0074250D03*
X0085755Y0069250D03*
D52*
X0085625Y0069500D03*
D53*
X0085495Y0070000D03*
X0079245Y0070000D03*
X0076255Y0072250D03*
X0076505Y0072750D03*
X0073495Y0074000D03*
X0073245Y0073750D03*
X0073245Y0073500D03*
X0072995Y0073250D03*
X0072995Y0073000D03*
X0072995Y0072750D03*
X0072745Y0072250D03*
X0072745Y0072000D03*
X0072745Y0071750D03*
X0072745Y0071500D03*
X0072745Y0071250D03*
X0072745Y0071000D03*
X0072745Y0070750D03*
X0073745Y0074500D03*
X0070505Y0075750D03*
X0070255Y0075250D03*
X0070005Y0074750D03*
X0070005Y0074500D03*
D54*
X0075625Y0071000D03*
X0075625Y0070750D03*
X0075625Y0070500D03*
X0075625Y0070250D03*
X0075625Y0070000D03*
D55*
X0079245Y0070750D03*
X0079495Y0078000D03*
X0079495Y0078250D03*
X0079495Y0078500D03*
X0079495Y0078750D03*
X0079495Y0079000D03*
X0079495Y0079250D03*
X0079495Y0079500D03*
X0079495Y0081000D03*
X0079495Y0081250D03*
X0079495Y0081500D03*
X0079495Y0081750D03*
X0079495Y0082000D03*
X0079495Y0082250D03*
X0079495Y0082500D03*
X0079495Y0082750D03*
X0079495Y0083000D03*
X0079495Y0083250D03*
X0079495Y0083500D03*
X0079495Y0083750D03*
X0079495Y0084000D03*
X0079495Y0084250D03*
X0079495Y0084500D03*
X0079495Y0084750D03*
X0079495Y0085000D03*
X0079495Y0085250D03*
X0079495Y0085500D03*
X0079495Y0085750D03*
X0079495Y0086000D03*
X0079495Y0086250D03*
X0079495Y0086500D03*
X0079495Y0086750D03*
X0079495Y0087000D03*
X0079495Y0087250D03*
X0079495Y0087500D03*
X0079495Y0087750D03*
X0079495Y0088000D03*
X0079495Y0088250D03*
X0079495Y0088500D03*
X0079495Y0088750D03*
X0079495Y0089000D03*
X0079495Y0089250D03*
X0079495Y0089500D03*
X0079495Y0089750D03*
X0079495Y0090000D03*
X0073495Y0079000D03*
X0086495Y0075750D03*
X0097995Y0077500D03*
X0105495Y0086250D03*
X0105495Y0086500D03*
X0105495Y0086750D03*
X0105495Y0087000D03*
X0105495Y0087250D03*
X0105495Y0087500D03*
X0105495Y0087750D03*
X0105495Y0088000D03*
X0105495Y0088250D03*
X0105495Y0088500D03*
X0105495Y0088750D03*
X0105495Y0089000D03*
X0105495Y0089250D03*
X0105495Y0089500D03*
X0105495Y0089750D03*
X0105495Y0090000D03*
D56*
X0079370Y0071500D03*
X0074370Y0075250D03*
X0074120Y0075000D03*
X0073870Y0074750D03*
X0073620Y0074250D03*
X0070380Y0075500D03*
X0070130Y0075000D03*
X0072120Y0078000D03*
D57*
X0072870Y0072500D03*
X0075880Y0071750D03*
X0075880Y0071500D03*
X0076130Y0072000D03*
X0076380Y0072500D03*
X0079370Y0071750D03*
D58*
X0101500Y0074000D03*
X0092500Y0098250D03*
D59*
X0104495Y0091750D03*
X0110505Y0081500D03*
X0099505Y0079750D03*
X0095245Y0074000D03*
D60*
X0104875Y0077000D03*
X0105125Y0077250D03*
X0081625Y0074000D03*
D61*
X0101875Y0074250D03*
D62*
X0103620Y0075750D03*
X0104370Y0076500D03*
X0104620Y0076750D03*
X0083120Y0075500D03*
X0082120Y0074250D03*
D63*
X0102250Y0074500D03*
X0092500Y0098000D03*
D64*
X0097870Y0095750D03*
X0101870Y0093500D03*
X0103130Y0092750D03*
X0103130Y0083750D03*
X0101120Y0081750D03*
X0094870Y0074500D03*
X0082370Y0093000D03*
X0081870Y0092750D03*
X0083120Y0093500D03*
X0083620Y0093750D03*
X0086130Y0095250D03*
X0088370Y0096500D03*
D65*
X0105505Y0077500D03*
X0103245Y0075500D03*
X0082495Y0074500D03*
D66*
X0102500Y0074750D03*
D67*
X0094875Y0074750D03*
X0110375Y0082500D03*
D68*
X0083120Y0074750D03*
D69*
X0102875Y0075000D03*
D70*
X0101250Y0081500D03*
X0094750Y0075000D03*
D71*
X0083245Y0075000D03*
X0105995Y0078000D03*
X0106245Y0078250D03*
D72*
X0103120Y0075250D03*
X0083120Y0075250D03*
D73*
X0080750Y0075750D03*
X0081250Y0092250D03*
X0081500Y0092500D03*
D74*
X0103875Y0076000D03*
X0104125Y0076250D03*
D75*
X0099255Y0079500D03*
X0099005Y0079250D03*
X0100995Y0082250D03*
X0101495Y0082750D03*
X0101745Y0083000D03*
X0104745Y0091500D03*
X0092495Y0099250D03*
X0079995Y0076000D03*
D76*
X0070750Y0076250D03*
D77*
X0078125Y0076750D03*
D78*
X0078375Y0077250D03*
X0084875Y0094500D03*
X0085375Y0094750D03*
X0096625Y0096500D03*
X0097125Y0096250D03*
X0099625Y0094750D03*
X0100125Y0094500D03*
X0102625Y0093000D03*
X0110875Y0083000D03*
X0100375Y0080750D03*
D79*
X0105750Y0077750D03*
X0092500Y0097750D03*
D80*
X0106625Y0078500D03*
D81*
X0106995Y0078750D03*
X0106495Y0084750D03*
D82*
X0107250Y0079000D03*
D83*
X0107620Y0079250D03*
X0089620Y0081000D03*
D84*
X0108000Y0079500D03*
D85*
X0108380Y0079750D03*
X0089620Y0081750D03*
D86*
X0076995Y0079750D03*
D87*
X0089620Y0082000D03*
X0104620Y0084250D03*
X0108870Y0080000D03*
D88*
X0089745Y0081250D03*
X0077245Y0080000D03*
D89*
X0078250Y0080750D03*
X0084500Y0094250D03*
X0097500Y0096000D03*
X0100500Y0094250D03*
X0103750Y0084000D03*
X0100750Y0081000D03*
D90*
X0110750Y0081250D03*
X0080250Y0091500D03*
D91*
X0110125Y0082250D03*
X0110125Y0082000D03*
D92*
X0111375Y0083500D03*
X0089625Y0082500D03*
X0080875Y0092000D03*
D93*
X0086625Y0095500D03*
X0087125Y0095750D03*
X0087875Y0096250D03*
X0088875Y0096750D03*
X0096125Y0096750D03*
X0098375Y0095500D03*
X0098875Y0095250D03*
X0101375Y0093750D03*
X0111125Y0083250D03*
D94*
X0105375Y0084500D03*
D95*
X0108625Y0085000D03*
D96*
X0109125Y0085250D03*
D97*
X0109370Y0085500D03*
D98*
X0109495Y0085750D03*
X0109495Y0086000D03*
D99*
X0111250Y0086250D03*
D100*
X0111875Y0086500D03*
D101*
X0115375Y0087500D03*
D102*
X0080500Y0091750D03*
D103*
X0103500Y0092500D03*
D104*
X0095750Y0097000D03*
X0089250Y0097000D03*
X0087500Y0096000D03*
D105*
X0092500Y0097250D03*
D106*
X0092500Y0097500D03*
D107*
X0092500Y0098500D03*
M02*
