G75*
%MOIN*%
%OFA0B0*%
%FSLAX25Y25*%
%IPPOS*%
%LPD*%
%AMOC8*
5,1,8,0,0,1.08239X$1,22.5*
%
%ADD10C,0.00500*%
%ADD11C,0.00800*%
%ADD12C,0.00100*%
%ADD13C,0.00600*%
%ADD14R,0.02990X0.00250*%
%ADD15R,0.02010X0.00250*%
%ADD16R,0.01990X0.00250*%
%ADD17R,0.06250X0.00250*%
%ADD18R,0.02000X0.00250*%
%ADD19R,0.03990X0.00250*%
%ADD20R,0.04750X0.00250*%
%ADD21R,0.05000X0.00250*%
%ADD22R,0.06500X0.00250*%
%ADD23R,0.05240X0.00250*%
%ADD24R,0.02500X0.00250*%
%ADD25R,0.01490X0.00250*%
%ADD26R,0.02240X0.00250*%
%ADD27R,0.00750X0.00250*%
%ADD28R,0.03010X0.00250*%
%ADD29R,0.00500X0.00250*%
%ADD30R,0.02760X0.00250*%
%ADD31R,0.01750X0.00250*%
%ADD32R,0.02510X0.00250*%
%ADD33R,0.02490X0.00250*%
%ADD34R,0.02260X0.00250*%
%ADD35R,0.00250X0.00250*%
%ADD36R,0.00740X0.00250*%
%ADD37R,0.03000X0.00250*%
%ADD38R,0.02750X0.00250*%
%ADD39R,0.01740X0.00250*%
%ADD40R,0.04990X0.00250*%
%ADD41R,0.00760X0.00250*%
%ADD42R,0.04000X0.00250*%
%ADD43R,0.01260X0.00250*%
%ADD44R,0.03500X0.00250*%
%ADD45R,0.01760X0.00250*%
%ADD46R,0.03740X0.00250*%
%ADD47R,0.02740X0.00250*%
%ADD48R,0.01510X0.00250*%
%ADD49R,0.05750X0.00250*%
%ADD50R,0.05250X0.00250*%
%ADD51R,0.04250X0.00250*%
%ADD52R,0.03490X0.00250*%
%ADD53R,0.01250X0.00250*%
%ADD54R,0.01010X0.00250*%
%ADD55R,0.02250X0.00250*%
%ADD56R,0.01500X0.00250*%
%ADD57R,0.01000X0.00250*%
%ADD58R,0.06740X0.00250*%
%ADD59R,0.03750X0.00250*%
%ADD60R,0.08990X0.00250*%
%ADD61R,0.07490X0.00250*%
%ADD62R,0.09000X0.00250*%
%ADD63R,0.07740X0.00250*%
%ADD64R,0.04500X0.00250*%
%ADD65R,0.08750X0.00250*%
%ADD66R,0.08240X0.00250*%
%ADD67R,0.05010X0.00250*%
%ADD68R,0.08000X0.00250*%
%ADD69R,0.08510X0.00250*%
%ADD70R,0.05260X0.00250*%
%ADD71R,0.08250X0.00250*%
%ADD72R,0.08500X0.00250*%
%ADD73R,0.04260X0.00250*%
%ADD74R,0.09010X0.00250*%
%ADD75R,0.03250X0.00250*%
%ADD76R,0.01240X0.00250*%
%ADD77R,0.05490X0.00250*%
%ADD78R,0.04490X0.00250*%
%ADD79R,0.08740X0.00250*%
%ADD80R,0.08010X0.00250*%
%ADD81R,0.07750X0.00250*%
%ADD82R,0.07240X0.00250*%
%ADD83R,0.07000X0.00250*%
%ADD84R,0.06760X0.00250*%
%ADD85R,0.06000X0.00250*%
%ADD86R,0.07250X0.00250*%
%ADD87R,0.05500X0.00250*%
%ADD88R,0.06750X0.00250*%
%ADD89R,0.04740X0.00250*%
%ADD90R,0.03260X0.00250*%
%ADD91R,0.05510X0.00250*%
%ADD92R,0.04010X0.00250*%
%ADD93R,0.04510X0.00250*%
%ADD94R,0.06510X0.00250*%
%ADD95R,0.11010X0.00250*%
%ADD96R,0.10490X0.00250*%
%ADD97R,0.10000X0.00250*%
%ADD98R,0.10250X0.00250*%
%ADD99R,0.07260X0.00250*%
%ADD100R,0.06010X0.00250*%
%ADD101R,0.00510X0.00250*%
%ADD102R,0.03760X0.00250*%
%ADD103R,0.04240X0.00250*%
%ADD104R,0.04760X0.00250*%
%ADD105R,0.10260X0.00250*%
%ADD106R,0.09240X0.00250*%
%ADD107R,0.05740X0.00250*%
D10*
X0031019Y0017480D02*
X0031019Y0019481D01*
X0031519Y0019982D01*
X0033021Y0019982D01*
X0033021Y0016979D01*
X0031519Y0016979D01*
X0031019Y0017480D01*
X0034242Y0016979D02*
X0034242Y0019982D01*
X0036243Y0019982D02*
X0034242Y0016979D01*
X0036243Y0016979D02*
X0036243Y0019982D01*
X0037464Y0019481D02*
X0037965Y0019982D01*
X0038966Y0019982D01*
X0039466Y0019481D01*
X0039466Y0017480D01*
X0038966Y0016979D01*
X0037965Y0016979D01*
X0037464Y0017480D01*
X0037464Y0018481D01*
X0038465Y0018481D01*
X0038743Y0049479D02*
X0038743Y0052482D01*
X0036742Y0049479D01*
X0036742Y0052482D01*
X0035521Y0052482D02*
X0034019Y0052482D01*
X0033519Y0051981D01*
X0033519Y0049980D01*
X0034019Y0049479D01*
X0035521Y0049479D01*
X0035521Y0052482D01*
X0039964Y0051981D02*
X0040465Y0052482D01*
X0041466Y0052482D01*
X0041966Y0051981D01*
X0041966Y0049980D01*
X0041466Y0049479D01*
X0040465Y0049479D01*
X0039964Y0049980D01*
X0039964Y0050981D01*
X0040965Y0050981D01*
X0071979Y0038869D02*
X0072980Y0039870D01*
X0074982Y0039870D01*
X0074982Y0037868D02*
X0072980Y0037868D01*
X0071979Y0038869D01*
X0072480Y0036647D02*
X0071979Y0036147D01*
X0071979Y0035146D01*
X0072480Y0034645D01*
X0073481Y0034645D02*
X0073981Y0035646D01*
X0073981Y0036147D01*
X0073481Y0036647D01*
X0072480Y0036647D01*
X0073481Y0034645D02*
X0074982Y0034645D01*
X0074982Y0036647D01*
X0091019Y0047480D02*
X0091019Y0049481D01*
X0091519Y0049982D01*
X0093021Y0049982D01*
X0093021Y0046979D01*
X0091519Y0046979D01*
X0091019Y0047480D01*
X0094242Y0046979D02*
X0094242Y0049982D01*
X0096243Y0049982D02*
X0094242Y0046979D01*
X0096243Y0046979D02*
X0096243Y0049982D01*
X0097464Y0049481D02*
X0097965Y0049982D01*
X0098966Y0049982D01*
X0099466Y0049481D01*
X0099466Y0047480D01*
X0098966Y0046979D01*
X0097965Y0046979D01*
X0097464Y0047480D01*
X0097464Y0048481D01*
X0098465Y0048481D01*
X0113130Y0047980D02*
X0114131Y0046979D01*
X0115132Y0047980D01*
X0115132Y0049982D01*
X0116353Y0049982D02*
X0118355Y0049982D01*
X0118355Y0048481D01*
X0117354Y0048981D01*
X0116853Y0048981D01*
X0116353Y0048481D01*
X0116353Y0047480D01*
X0116853Y0046979D01*
X0117854Y0046979D01*
X0118355Y0047480D01*
X0113130Y0047980D02*
X0113130Y0049982D01*
X0134479Y0048481D02*
X0134479Y0046979D01*
X0137482Y0046979D01*
X0137482Y0048481D01*
X0136981Y0048981D01*
X0134980Y0048981D01*
X0134479Y0048481D01*
X0134479Y0045758D02*
X0137482Y0045758D01*
X0137482Y0043757D02*
X0134479Y0043757D01*
X0134980Y0042536D02*
X0135981Y0042536D01*
X0135981Y0041535D01*
X0136981Y0042536D02*
X0137482Y0042035D01*
X0137482Y0041034D01*
X0136981Y0040534D01*
X0134980Y0040534D01*
X0134479Y0041034D01*
X0134479Y0042035D01*
X0134980Y0042536D01*
X0137482Y0043757D02*
X0134479Y0045758D01*
X0134980Y0038981D02*
X0136981Y0038981D01*
X0137482Y0038481D01*
X0137482Y0036979D01*
X0134479Y0036979D01*
X0134479Y0038481D01*
X0134980Y0038981D01*
X0134479Y0035758D02*
X0137482Y0035758D01*
X0137482Y0033757D02*
X0134479Y0033757D01*
X0134980Y0032536D02*
X0135981Y0032536D01*
X0135981Y0031535D01*
X0136981Y0032536D02*
X0137482Y0032035D01*
X0137482Y0031034D01*
X0136981Y0030534D01*
X0134980Y0030534D01*
X0134479Y0031034D01*
X0134479Y0032035D01*
X0134980Y0032536D01*
X0137482Y0033757D02*
X0134479Y0035758D01*
X0135480Y0027370D02*
X0137482Y0027370D01*
X0135480Y0027370D02*
X0134479Y0026369D01*
X0135480Y0025368D01*
X0137482Y0025368D01*
X0137482Y0024147D02*
X0137482Y0022145D01*
X0135981Y0022145D01*
X0136481Y0023146D01*
X0136481Y0023647D01*
X0135981Y0024147D01*
X0134980Y0024147D01*
X0134479Y0023647D01*
X0134479Y0022646D01*
X0134980Y0022145D01*
X0135480Y0017370D02*
X0137482Y0017370D01*
X0135480Y0017370D02*
X0134479Y0016369D01*
X0135480Y0015368D01*
X0137482Y0015368D01*
X0137482Y0014147D02*
X0137482Y0012145D01*
X0135981Y0012145D01*
X0136481Y0013146D01*
X0136481Y0013647D01*
X0135981Y0014147D01*
X0134980Y0014147D01*
X0134479Y0013647D01*
X0134479Y0012646D01*
X0134980Y0012145D01*
X0117855Y0012482D02*
X0117855Y0010981D01*
X0116854Y0011481D01*
X0116353Y0011481D01*
X0115853Y0010981D01*
X0115853Y0009980D01*
X0116353Y0009479D01*
X0117354Y0009479D01*
X0117855Y0009980D01*
X0117855Y0012482D02*
X0115853Y0012482D01*
X0114632Y0012482D02*
X0114632Y0010480D01*
X0113631Y0009479D01*
X0112630Y0010480D01*
X0112630Y0012482D01*
X0099966Y0011981D02*
X0099966Y0009980D01*
X0099466Y0009479D01*
X0098465Y0009479D01*
X0097964Y0009980D01*
X0097964Y0010981D01*
X0098965Y0010981D01*
X0097964Y0011981D02*
X0098465Y0012482D01*
X0099466Y0012482D01*
X0099966Y0011981D01*
X0096743Y0012482D02*
X0096743Y0009479D01*
X0094742Y0009479D02*
X0094742Y0012482D01*
X0093521Y0012482D02*
X0092019Y0012482D01*
X0091519Y0011981D01*
X0091519Y0009980D01*
X0092019Y0009479D01*
X0093521Y0009479D01*
X0093521Y0012482D01*
X0096743Y0012482D02*
X0094742Y0009479D01*
X0046952Y0088521D02*
X0045951Y0088521D01*
X0045451Y0089021D01*
X0045451Y0090022D01*
X0046451Y0090022D01*
X0045451Y0091023D02*
X0045951Y0091523D01*
X0046952Y0091523D01*
X0047452Y0091023D01*
X0047452Y0089021D01*
X0046952Y0088521D01*
X0044229Y0088521D02*
X0044229Y0091523D01*
X0042228Y0088521D01*
X0042228Y0091523D01*
X0041007Y0091523D02*
X0039505Y0091523D01*
X0039005Y0091023D01*
X0039005Y0089021D01*
X0039505Y0088521D01*
X0041007Y0088521D01*
X0041007Y0091523D01*
X0041007Y0098521D02*
X0039505Y0098521D01*
X0039005Y0099021D01*
X0039005Y0099522D01*
X0039505Y0100022D01*
X0041007Y0100022D01*
X0041007Y0098521D02*
X0041007Y0101523D01*
X0039505Y0101523D01*
X0039005Y0101023D01*
X0039005Y0100522D01*
X0039505Y0100022D01*
X0042228Y0101523D02*
X0044229Y0101523D01*
X0043229Y0101523D02*
X0043229Y0098521D01*
X0045451Y0099021D02*
X0045951Y0098521D01*
X0046952Y0098521D01*
X0047452Y0099021D01*
X0046952Y0100022D02*
X0045951Y0100022D01*
X0045451Y0099522D01*
X0045451Y0099021D01*
X0046952Y0100022D02*
X0047452Y0100522D01*
X0047452Y0101023D01*
X0046952Y0101523D01*
X0045951Y0101523D01*
X0045451Y0101023D01*
X0041729Y0108521D02*
X0040228Y0108521D01*
X0039728Y0109021D01*
X0039728Y0111023D01*
X0040228Y0111523D01*
X0041729Y0111523D01*
X0041729Y0108521D01*
X0041729Y0118521D02*
X0040228Y0118521D01*
X0039728Y0119021D01*
X0039728Y0119522D01*
X0040228Y0120022D01*
X0041729Y0120022D01*
X0040228Y0120022D02*
X0039728Y0120522D01*
X0039728Y0121023D01*
X0040228Y0121523D01*
X0041729Y0121523D01*
X0041729Y0118521D01*
X0041729Y0128521D02*
X0039728Y0128521D01*
X0040729Y0130022D02*
X0041729Y0130022D01*
X0041729Y0131523D02*
X0041729Y0128521D01*
X0041729Y0131523D02*
X0039728Y0131523D01*
X0040616Y0138521D02*
X0042618Y0138521D01*
X0041617Y0138521D02*
X0041617Y0141523D01*
X0042618Y0140522D01*
X0043839Y0140022D02*
X0044840Y0140022D01*
X0043839Y0140022D02*
X0043839Y0139021D01*
X0044340Y0138521D01*
X0045340Y0138521D01*
X0045841Y0139021D01*
X0045841Y0141023D01*
X0045340Y0141523D01*
X0044340Y0141523D01*
X0043839Y0141023D01*
X0044229Y0148521D02*
X0044229Y0151523D01*
X0042228Y0148521D01*
X0042228Y0151523D01*
X0041007Y0151523D02*
X0039505Y0151523D01*
X0039005Y0151023D01*
X0039005Y0149021D01*
X0039505Y0148521D01*
X0041007Y0148521D01*
X0041007Y0151523D01*
X0045451Y0151023D02*
X0045951Y0151523D01*
X0046952Y0151523D01*
X0047452Y0151023D01*
X0047452Y0149021D01*
X0046952Y0148521D01*
X0045951Y0148521D01*
X0045451Y0149021D01*
X0045451Y0150022D01*
X0046451Y0150022D01*
X0045340Y0158521D02*
X0044340Y0158521D01*
X0043839Y0159021D01*
X0043839Y0160022D01*
X0044840Y0160022D01*
X0045841Y0161023D02*
X0045841Y0159021D01*
X0045340Y0158521D01*
X0045841Y0161023D02*
X0045340Y0161523D01*
X0044340Y0161523D01*
X0043839Y0161023D01*
X0042618Y0161023D02*
X0042118Y0161523D01*
X0041117Y0161523D01*
X0040616Y0161023D01*
X0042618Y0159021D01*
X0042118Y0158521D01*
X0041117Y0158521D01*
X0040616Y0159021D01*
X0040616Y0161023D01*
X0042618Y0161023D02*
X0042618Y0159021D01*
X0015841Y0158521D02*
X0015841Y0161523D01*
X0014340Y0161523D01*
X0013839Y0161023D01*
X0013839Y0160022D01*
X0014340Y0159522D01*
X0015841Y0159522D01*
X0014840Y0159522D02*
X0013839Y0158521D01*
X0012618Y0159021D02*
X0012618Y0161023D01*
X0012118Y0161523D01*
X0011117Y0161523D01*
X0010616Y0161023D01*
X0012618Y0159021D01*
X0012118Y0158521D01*
X0011117Y0158521D01*
X0010616Y0159021D01*
X0010616Y0161023D01*
X0011117Y0151523D02*
X0010616Y0151023D01*
X0012618Y0149021D01*
X0012118Y0148521D01*
X0011117Y0148521D01*
X0010616Y0149021D01*
X0010616Y0151023D01*
X0011117Y0151523D02*
X0012118Y0151523D01*
X0012618Y0151023D01*
X0012618Y0149021D01*
X0013839Y0149021D02*
X0014340Y0148521D01*
X0015841Y0148521D01*
X0015841Y0151523D01*
X0014340Y0151523D01*
X0013839Y0151023D01*
X0013839Y0150522D01*
X0014340Y0150022D01*
X0015841Y0150022D01*
X0014340Y0150022D02*
X0013839Y0149522D01*
X0013839Y0149021D01*
X0014340Y0141523D02*
X0013839Y0141023D01*
X0013839Y0140022D01*
X0014340Y0139522D01*
X0015841Y0139522D01*
X0014840Y0139522D02*
X0013839Y0138521D01*
X0012618Y0138521D02*
X0010616Y0138521D01*
X0011617Y0138521D02*
X0011617Y0141523D01*
X0012618Y0140522D01*
X0014340Y0141523D02*
X0015841Y0141523D01*
X0015841Y0138521D01*
X0015841Y0131523D02*
X0014340Y0131523D01*
X0013839Y0131023D01*
X0013839Y0130522D01*
X0014340Y0130022D01*
X0015841Y0130022D01*
X0015841Y0128521D02*
X0015841Y0131523D01*
X0014340Y0130022D02*
X0013839Y0129522D01*
X0013839Y0129021D01*
X0014340Y0128521D01*
X0015841Y0128521D01*
X0012618Y0128521D02*
X0010616Y0128521D01*
X0011617Y0128521D02*
X0011617Y0131523D01*
X0012618Y0130522D01*
X0013229Y0121523D02*
X0012228Y0120522D01*
X0012228Y0118521D01*
X0012228Y0120022D02*
X0014229Y0120022D01*
X0014229Y0120522D02*
X0013229Y0121523D01*
X0014229Y0120522D02*
X0014229Y0118521D01*
X0013729Y0111523D02*
X0012728Y0111523D01*
X0012228Y0111023D01*
X0013729Y0111523D02*
X0014229Y0111023D01*
X0014229Y0109021D01*
X0013729Y0108521D01*
X0012728Y0108521D01*
X0012228Y0109021D01*
X0012118Y0101523D02*
X0012118Y0098521D01*
X0012118Y0099522D02*
X0010116Y0101523D01*
X0011618Y0100022D02*
X0010116Y0098521D01*
X0013339Y0099021D02*
X0013840Y0098521D01*
X0014840Y0098521D01*
X0015341Y0099021D01*
X0015341Y0101023D01*
X0014840Y0101523D01*
X0013840Y0101523D01*
X0013339Y0101023D01*
X0012618Y0091523D02*
X0010616Y0091523D01*
X0011617Y0090022D02*
X0012618Y0090022D01*
X0012618Y0091523D02*
X0012618Y0088521D01*
X0010616Y0088521D01*
X0013839Y0089021D02*
X0013839Y0091023D01*
X0014340Y0091523D01*
X0015340Y0091523D01*
X0015841Y0091023D01*
X0015841Y0089021D01*
X0015340Y0088521D01*
X0014340Y0088521D01*
X0013839Y0089021D01*
X0077271Y0118589D02*
X0077771Y0118089D01*
X0077271Y0118589D02*
X0077271Y0119590D01*
X0077771Y0120090D01*
X0078272Y0120090D01*
X0078772Y0119590D01*
X0078772Y0119089D01*
X0078772Y0119590D02*
X0079272Y0120090D01*
X0079773Y0120090D01*
X0080273Y0119590D01*
X0080273Y0118589D01*
X0079773Y0118089D01*
X0080273Y0121311D02*
X0078272Y0121311D01*
X0077271Y0122312D01*
X0078272Y0123313D01*
X0080273Y0123313D01*
X0079773Y0124534D02*
X0080273Y0125035D01*
X0080273Y0126035D01*
X0079773Y0126536D01*
X0079272Y0126536D01*
X0078772Y0126035D01*
X0078272Y0126536D01*
X0077771Y0126536D01*
X0077271Y0126035D01*
X0077271Y0125035D01*
X0077771Y0124534D01*
X0078772Y0125535D02*
X0078772Y0126035D01*
X0133771Y0124535D02*
X0134772Y0125536D01*
X0136773Y0125536D01*
X0136773Y0123534D02*
X0134772Y0123534D01*
X0133771Y0124535D01*
X0134271Y0122313D02*
X0133771Y0121813D01*
X0133771Y0120812D01*
X0134271Y0120311D01*
X0135272Y0120311D02*
X0135772Y0121312D01*
X0135772Y0121813D01*
X0135272Y0122313D01*
X0134271Y0122313D01*
X0135272Y0120311D02*
X0136773Y0120311D01*
X0136773Y0122313D01*
X0174480Y0186145D02*
X0173979Y0186646D01*
X0173979Y0187647D01*
X0174480Y0188147D01*
X0175481Y0188147D01*
X0175481Y0187146D01*
X0176481Y0186145D02*
X0174480Y0186145D01*
X0176481Y0186145D02*
X0176982Y0186646D01*
X0176982Y0187647D01*
X0176481Y0188147D01*
X0176481Y0189368D02*
X0174480Y0189368D01*
X0176481Y0191370D01*
X0174480Y0191370D01*
X0173979Y0190869D01*
X0173979Y0189869D01*
X0174480Y0189368D01*
X0176481Y0189368D02*
X0176982Y0189869D01*
X0176982Y0190869D01*
X0176481Y0191370D01*
X0176982Y0196145D02*
X0173979Y0196145D01*
X0173979Y0197647D01*
X0174480Y0198147D01*
X0174980Y0198147D01*
X0175481Y0197647D01*
X0175481Y0196145D01*
X0176982Y0196145D02*
X0176982Y0197647D01*
X0176481Y0198147D01*
X0175981Y0198147D01*
X0175481Y0197647D01*
X0175981Y0199368D02*
X0176982Y0200369D01*
X0173979Y0200369D01*
X0173979Y0199368D02*
X0173979Y0201370D01*
X0172980Y0206645D02*
X0172980Y0208147D01*
X0173481Y0208647D01*
X0174481Y0208647D01*
X0174982Y0208147D01*
X0174982Y0206645D01*
X0171979Y0206645D01*
X0172980Y0207646D02*
X0171979Y0208647D01*
X0171979Y0209868D02*
X0171979Y0211870D01*
X0171979Y0210869D02*
X0174982Y0210869D01*
X0173981Y0209868D01*
X0197979Y0209368D02*
X0197979Y0211370D01*
X0197979Y0210369D02*
X0200982Y0210369D01*
X0199981Y0209368D01*
X0199481Y0208147D02*
X0199481Y0207146D01*
X0199481Y0208147D02*
X0198480Y0208147D01*
X0197979Y0207647D01*
X0197979Y0206646D01*
X0198480Y0206145D01*
X0200481Y0206145D01*
X0200982Y0206646D01*
X0200982Y0207647D01*
X0200481Y0208147D01*
X0200481Y0190870D02*
X0198480Y0188868D01*
X0197979Y0189369D01*
X0197979Y0190369D01*
X0198480Y0190870D01*
X0200481Y0190870D01*
X0200982Y0190369D01*
X0200982Y0189369D01*
X0200481Y0188868D01*
X0198480Y0188868D01*
X0198480Y0187647D02*
X0197979Y0187147D01*
X0197979Y0185645D01*
X0200982Y0185645D01*
X0200982Y0187147D01*
X0200481Y0187647D01*
X0199981Y0187647D01*
X0199481Y0187147D01*
X0199481Y0185645D01*
X0199481Y0187147D02*
X0198980Y0187647D01*
X0198480Y0187647D01*
X0080273Y0188089D02*
X0080273Y0189590D01*
X0079773Y0190090D01*
X0078772Y0190090D01*
X0078272Y0189590D01*
X0078272Y0188089D01*
X0078272Y0189089D02*
X0077271Y0190090D01*
X0077771Y0191311D02*
X0077271Y0191812D01*
X0077271Y0192813D01*
X0077771Y0193313D01*
X0078272Y0193313D01*
X0078772Y0192813D01*
X0078772Y0191812D01*
X0079272Y0191311D01*
X0079773Y0191311D01*
X0080273Y0191812D01*
X0080273Y0192813D01*
X0079773Y0193313D01*
X0080273Y0194534D02*
X0080273Y0196536D01*
X0080273Y0195535D02*
X0077271Y0195535D01*
X0077271Y0188089D02*
X0080273Y0188089D01*
D11*
X0079793Y0205275D02*
X0078225Y0205275D01*
X0079009Y0205275D02*
X0079009Y0208411D01*
X0079793Y0208411D01*
X0079009Y0209979D02*
X0079009Y0210763D01*
X0081722Y0207627D02*
X0081722Y0205275D01*
X0081722Y0207627D02*
X0082506Y0208411D01*
X0084074Y0208411D01*
X0084858Y0207627D01*
X0086786Y0206843D02*
X0086786Y0206059D01*
X0087570Y0205275D01*
X0089138Y0205275D01*
X0089922Y0206059D01*
X0089138Y0207627D02*
X0087570Y0207627D01*
X0086786Y0206843D01*
X0086786Y0209195D02*
X0087570Y0209979D01*
X0089138Y0209979D01*
X0089922Y0209195D01*
X0089922Y0208411D01*
X0089138Y0207627D01*
X0084858Y0209979D02*
X0084858Y0205275D01*
X0076417Y0206059D02*
X0076417Y0207627D01*
X0075633Y0208411D01*
X0074065Y0208411D01*
X0073281Y0207627D01*
X0073281Y0206843D01*
X0076417Y0206843D01*
X0076417Y0206059D02*
X0075633Y0205275D01*
X0074065Y0205275D01*
X0071353Y0205275D02*
X0069785Y0205275D01*
X0070569Y0205275D02*
X0070569Y0209979D01*
X0071353Y0209979D01*
X0067977Y0207627D02*
X0067977Y0206059D01*
X0067193Y0205275D01*
X0064841Y0205275D01*
X0064841Y0209979D01*
X0064841Y0208411D02*
X0067193Y0208411D01*
X0067977Y0207627D01*
X0096915Y0208411D02*
X0100051Y0205275D01*
X0101859Y0205275D02*
X0103427Y0205275D01*
X0102643Y0205275D02*
X0102643Y0208411D01*
X0103427Y0208411D01*
X0102643Y0209979D02*
X0102643Y0210763D01*
X0100051Y0208411D02*
X0096915Y0205275D01*
X0100291Y0201729D02*
X0101859Y0200945D01*
X0103427Y0199377D01*
X0101075Y0199377D01*
X0100291Y0198593D01*
X0100291Y0197809D01*
X0101075Y0197025D01*
X0102643Y0197025D01*
X0103427Y0197809D01*
X0103427Y0199377D01*
X0105175Y0197809D02*
X0105175Y0197025D01*
X0105959Y0197025D01*
X0105959Y0197809D01*
X0105175Y0197809D01*
X0107887Y0197025D02*
X0111023Y0197025D01*
X0109455Y0197025D02*
X0109455Y0201729D01*
X0111023Y0200161D01*
X0112952Y0198593D02*
X0114520Y0197025D01*
X0116088Y0198593D01*
X0116088Y0201729D01*
X0112952Y0201729D02*
X0112952Y0198593D01*
X0112952Y0205275D02*
X0115304Y0205275D01*
X0116088Y0206059D01*
X0115304Y0206843D01*
X0112952Y0206843D01*
X0112952Y0207627D02*
X0112952Y0205275D01*
X0112952Y0207627D02*
X0113736Y0208411D01*
X0115304Y0208411D01*
X0118016Y0209979D02*
X0118016Y0205275D01*
X0119584Y0208411D02*
X0118016Y0209979D01*
X0119584Y0208411D02*
X0121152Y0209979D01*
X0121152Y0205275D01*
X0128145Y0206059D02*
X0128929Y0206843D01*
X0130497Y0206843D01*
X0131281Y0207627D01*
X0130497Y0208411D01*
X0128145Y0208411D01*
X0128145Y0206059D02*
X0128929Y0205275D01*
X0131281Y0205275D01*
X0133209Y0206059D02*
X0133209Y0207627D01*
X0133993Y0208411D01*
X0135561Y0208411D01*
X0136345Y0207627D01*
X0136345Y0206059D01*
X0135561Y0205275D01*
X0133993Y0205275D01*
X0133209Y0206059D01*
X0138273Y0205275D02*
X0138273Y0209979D01*
X0139841Y0208411D01*
X0141409Y0209979D01*
X0141409Y0205275D01*
X0143338Y0206843D02*
X0143338Y0207627D01*
X0144122Y0208411D01*
X0145690Y0208411D01*
X0146474Y0207627D01*
X0146474Y0206059D01*
X0145690Y0205275D01*
X0144122Y0205275D01*
X0143338Y0206843D02*
X0146474Y0206843D01*
X0148402Y0205275D02*
X0148402Y0209979D01*
X0151538Y0209979D02*
X0151538Y0205275D01*
X0149970Y0206843D01*
X0148402Y0205275D01*
X0176181Y0206500D02*
X0176181Y0211500D01*
X0111023Y0208411D02*
X0109455Y0208411D01*
X0110239Y0209195D02*
X0110239Y0206059D01*
X0109455Y0205275D01*
X0107647Y0205275D02*
X0107647Y0208411D01*
X0107647Y0206843D02*
X0106079Y0208411D01*
X0105295Y0208411D01*
D12*
X0007500Y0212500D02*
X0007500Y0015000D01*
X0007502Y0014819D01*
X0007509Y0014638D01*
X0007520Y0014457D01*
X0007535Y0014276D01*
X0007555Y0014096D01*
X0007579Y0013916D01*
X0007607Y0013737D01*
X0007640Y0013559D01*
X0007677Y0013382D01*
X0007718Y0013205D01*
X0007763Y0013030D01*
X0007813Y0012855D01*
X0007867Y0012682D01*
X0007925Y0012511D01*
X0007987Y0012340D01*
X0008054Y0012172D01*
X0008124Y0012005D01*
X0008198Y0011839D01*
X0008277Y0011676D01*
X0008359Y0011515D01*
X0008445Y0011355D01*
X0008535Y0011198D01*
X0008629Y0011043D01*
X0008726Y0010890D01*
X0008828Y0010740D01*
X0008932Y0010592D01*
X0009041Y0010446D01*
X0009152Y0010304D01*
X0009268Y0010164D01*
X0009386Y0010027D01*
X0009508Y0009892D01*
X0009633Y0009761D01*
X0009761Y0009633D01*
X0009892Y0009508D01*
X0010027Y0009386D01*
X0010164Y0009268D01*
X0010304Y0009152D01*
X0010446Y0009041D01*
X0010592Y0008932D01*
X0010740Y0008828D01*
X0010890Y0008726D01*
X0011043Y0008629D01*
X0011198Y0008535D01*
X0011355Y0008445D01*
X0011515Y0008359D01*
X0011676Y0008277D01*
X0011839Y0008198D01*
X0012005Y0008124D01*
X0012172Y0008054D01*
X0012340Y0007987D01*
X0012511Y0007925D01*
X0012682Y0007867D01*
X0012855Y0007813D01*
X0013030Y0007763D01*
X0013205Y0007718D01*
X0013382Y0007677D01*
X0013559Y0007640D01*
X0013737Y0007607D01*
X0013916Y0007579D01*
X0014096Y0007555D01*
X0014276Y0007535D01*
X0014457Y0007520D01*
X0014638Y0007509D01*
X0014819Y0007502D01*
X0015000Y0007500D01*
X0197500Y0007500D01*
X0197681Y0007502D01*
X0197862Y0007509D01*
X0198043Y0007520D01*
X0198224Y0007535D01*
X0198404Y0007555D01*
X0198584Y0007579D01*
X0198763Y0007607D01*
X0198941Y0007640D01*
X0199118Y0007677D01*
X0199295Y0007718D01*
X0199470Y0007763D01*
X0199645Y0007813D01*
X0199818Y0007867D01*
X0199989Y0007925D01*
X0200160Y0007987D01*
X0200328Y0008054D01*
X0200495Y0008124D01*
X0200661Y0008198D01*
X0200824Y0008277D01*
X0200985Y0008359D01*
X0201145Y0008445D01*
X0201302Y0008535D01*
X0201457Y0008629D01*
X0201610Y0008726D01*
X0201760Y0008828D01*
X0201908Y0008932D01*
X0202054Y0009041D01*
X0202196Y0009152D01*
X0202336Y0009268D01*
X0202473Y0009386D01*
X0202608Y0009508D01*
X0202739Y0009633D01*
X0202867Y0009761D01*
X0202992Y0009892D01*
X0203114Y0010027D01*
X0203232Y0010164D01*
X0203348Y0010304D01*
X0203459Y0010446D01*
X0203568Y0010592D01*
X0203672Y0010740D01*
X0203774Y0010890D01*
X0203871Y0011043D01*
X0203965Y0011198D01*
X0204055Y0011355D01*
X0204141Y0011515D01*
X0204223Y0011676D01*
X0204302Y0011839D01*
X0204376Y0012005D01*
X0204446Y0012172D01*
X0204513Y0012340D01*
X0204575Y0012511D01*
X0204633Y0012682D01*
X0204687Y0012855D01*
X0204737Y0013030D01*
X0204782Y0013205D01*
X0204823Y0013382D01*
X0204860Y0013559D01*
X0204893Y0013737D01*
X0204921Y0013916D01*
X0204945Y0014096D01*
X0204965Y0014276D01*
X0204980Y0014457D01*
X0204991Y0014638D01*
X0204998Y0014819D01*
X0205000Y0015000D01*
X0205000Y0090000D01*
X0204998Y0090140D01*
X0204992Y0090280D01*
X0204982Y0090420D01*
X0204969Y0090560D01*
X0204951Y0090699D01*
X0204929Y0090838D01*
X0204904Y0090975D01*
X0204875Y0091113D01*
X0204842Y0091249D01*
X0204805Y0091384D01*
X0204764Y0091518D01*
X0204719Y0091651D01*
X0204671Y0091783D01*
X0204619Y0091913D01*
X0204564Y0092042D01*
X0204505Y0092169D01*
X0204442Y0092295D01*
X0204376Y0092419D01*
X0204307Y0092540D01*
X0204234Y0092660D01*
X0204157Y0092778D01*
X0204078Y0092893D01*
X0203995Y0093007D01*
X0203909Y0093117D01*
X0203820Y0093226D01*
X0203728Y0093332D01*
X0203633Y0093435D01*
X0203536Y0093536D01*
X0203435Y0093633D01*
X0203332Y0093728D01*
X0203226Y0093820D01*
X0203117Y0093909D01*
X0203007Y0093995D01*
X0202893Y0094078D01*
X0202778Y0094157D01*
X0202660Y0094234D01*
X0202540Y0094307D01*
X0202419Y0094376D01*
X0202295Y0094442D01*
X0202169Y0094505D01*
X0202042Y0094564D01*
X0201913Y0094619D01*
X0201783Y0094671D01*
X0201651Y0094719D01*
X0201518Y0094764D01*
X0201384Y0094805D01*
X0201249Y0094842D01*
X0201113Y0094875D01*
X0200975Y0094904D01*
X0200838Y0094929D01*
X0200699Y0094951D01*
X0200560Y0094969D01*
X0200420Y0094982D01*
X0200280Y0094992D01*
X0200140Y0094998D01*
X0200000Y0095000D01*
X0167500Y0095000D01*
X0167360Y0095002D01*
X0167220Y0095008D01*
X0167080Y0095018D01*
X0166940Y0095031D01*
X0166801Y0095049D01*
X0166662Y0095071D01*
X0166525Y0095096D01*
X0166387Y0095125D01*
X0166251Y0095158D01*
X0166116Y0095195D01*
X0165982Y0095236D01*
X0165849Y0095281D01*
X0165717Y0095329D01*
X0165587Y0095381D01*
X0165458Y0095436D01*
X0165331Y0095495D01*
X0165205Y0095558D01*
X0165081Y0095624D01*
X0164960Y0095693D01*
X0164840Y0095766D01*
X0164722Y0095843D01*
X0164607Y0095922D01*
X0164493Y0096005D01*
X0164383Y0096091D01*
X0164274Y0096180D01*
X0164168Y0096272D01*
X0164065Y0096367D01*
X0163964Y0096464D01*
X0163867Y0096565D01*
X0163772Y0096668D01*
X0163680Y0096774D01*
X0163591Y0096883D01*
X0163505Y0096993D01*
X0163422Y0097107D01*
X0163343Y0097222D01*
X0163266Y0097340D01*
X0163193Y0097460D01*
X0163124Y0097581D01*
X0163058Y0097705D01*
X0162995Y0097831D01*
X0162936Y0097958D01*
X0162881Y0098087D01*
X0162829Y0098217D01*
X0162781Y0098349D01*
X0162736Y0098482D01*
X0162695Y0098616D01*
X0162658Y0098751D01*
X0162625Y0098887D01*
X0162596Y0099025D01*
X0162571Y0099162D01*
X0162549Y0099301D01*
X0162531Y0099440D01*
X0162518Y0099580D01*
X0162508Y0099720D01*
X0162502Y0099860D01*
X0162500Y0100000D01*
X0162500Y0175000D01*
X0162502Y0175140D01*
X0162508Y0175280D01*
X0162518Y0175420D01*
X0162531Y0175560D01*
X0162549Y0175699D01*
X0162571Y0175838D01*
X0162596Y0175975D01*
X0162625Y0176113D01*
X0162658Y0176249D01*
X0162695Y0176384D01*
X0162736Y0176518D01*
X0162781Y0176651D01*
X0162829Y0176783D01*
X0162881Y0176913D01*
X0162936Y0177042D01*
X0162995Y0177169D01*
X0163058Y0177295D01*
X0163124Y0177419D01*
X0163193Y0177540D01*
X0163266Y0177660D01*
X0163343Y0177778D01*
X0163422Y0177893D01*
X0163505Y0178007D01*
X0163591Y0178117D01*
X0163680Y0178226D01*
X0163772Y0178332D01*
X0163867Y0178435D01*
X0163964Y0178536D01*
X0164065Y0178633D01*
X0164168Y0178728D01*
X0164274Y0178820D01*
X0164383Y0178909D01*
X0164493Y0178995D01*
X0164607Y0179078D01*
X0164722Y0179157D01*
X0164840Y0179234D01*
X0164960Y0179307D01*
X0165081Y0179376D01*
X0165205Y0179442D01*
X0165331Y0179505D01*
X0165458Y0179564D01*
X0165587Y0179619D01*
X0165717Y0179671D01*
X0165849Y0179719D01*
X0165982Y0179764D01*
X0166116Y0179805D01*
X0166251Y0179842D01*
X0166387Y0179875D01*
X0166525Y0179904D01*
X0166662Y0179929D01*
X0166801Y0179951D01*
X0166940Y0179969D01*
X0167080Y0179982D01*
X0167220Y0179992D01*
X0167360Y0179998D01*
X0167500Y0180000D01*
X0200000Y0180000D01*
X0200140Y0180002D01*
X0200280Y0180008D01*
X0200420Y0180018D01*
X0200560Y0180031D01*
X0200699Y0180049D01*
X0200838Y0180071D01*
X0200975Y0180096D01*
X0201113Y0180125D01*
X0201249Y0180158D01*
X0201384Y0180195D01*
X0201518Y0180236D01*
X0201651Y0180281D01*
X0201783Y0180329D01*
X0201913Y0180381D01*
X0202042Y0180436D01*
X0202169Y0180495D01*
X0202295Y0180558D01*
X0202419Y0180624D01*
X0202540Y0180693D01*
X0202660Y0180766D01*
X0202778Y0180843D01*
X0202893Y0180922D01*
X0203007Y0181005D01*
X0203117Y0181091D01*
X0203226Y0181180D01*
X0203332Y0181272D01*
X0203435Y0181367D01*
X0203536Y0181464D01*
X0203633Y0181565D01*
X0203728Y0181668D01*
X0203820Y0181774D01*
X0203909Y0181883D01*
X0203995Y0181993D01*
X0204078Y0182107D01*
X0204157Y0182222D01*
X0204234Y0182340D01*
X0204307Y0182460D01*
X0204376Y0182581D01*
X0204442Y0182705D01*
X0204505Y0182831D01*
X0204564Y0182958D01*
X0204619Y0183087D01*
X0204671Y0183217D01*
X0204719Y0183349D01*
X0204764Y0183482D01*
X0204805Y0183616D01*
X0204842Y0183751D01*
X0204875Y0183887D01*
X0204904Y0184025D01*
X0204929Y0184162D01*
X0204951Y0184301D01*
X0204969Y0184440D01*
X0204982Y0184580D01*
X0204992Y0184720D01*
X0204998Y0184860D01*
X0205000Y0185000D01*
X0205000Y0212500D01*
X0204998Y0212681D01*
X0204991Y0212862D01*
X0204980Y0213043D01*
X0204965Y0213224D01*
X0204945Y0213404D01*
X0204921Y0213584D01*
X0204893Y0213763D01*
X0204860Y0213941D01*
X0204823Y0214118D01*
X0204782Y0214295D01*
X0204737Y0214470D01*
X0204687Y0214645D01*
X0204633Y0214818D01*
X0204575Y0214989D01*
X0204513Y0215160D01*
X0204446Y0215328D01*
X0204376Y0215495D01*
X0204302Y0215661D01*
X0204223Y0215824D01*
X0204141Y0215985D01*
X0204055Y0216145D01*
X0203965Y0216302D01*
X0203871Y0216457D01*
X0203774Y0216610D01*
X0203672Y0216760D01*
X0203568Y0216908D01*
X0203459Y0217054D01*
X0203348Y0217196D01*
X0203232Y0217336D01*
X0203114Y0217473D01*
X0202992Y0217608D01*
X0202867Y0217739D01*
X0202739Y0217867D01*
X0202608Y0217992D01*
X0202473Y0218114D01*
X0202336Y0218232D01*
X0202196Y0218348D01*
X0202054Y0218459D01*
X0201908Y0218568D01*
X0201760Y0218672D01*
X0201610Y0218774D01*
X0201457Y0218871D01*
X0201302Y0218965D01*
X0201145Y0219055D01*
X0200985Y0219141D01*
X0200824Y0219223D01*
X0200661Y0219302D01*
X0200495Y0219376D01*
X0200328Y0219446D01*
X0200160Y0219513D01*
X0199989Y0219575D01*
X0199818Y0219633D01*
X0199645Y0219687D01*
X0199470Y0219737D01*
X0199295Y0219782D01*
X0199118Y0219823D01*
X0198941Y0219860D01*
X0198763Y0219893D01*
X0198584Y0219921D01*
X0198404Y0219945D01*
X0198224Y0219965D01*
X0198043Y0219980D01*
X0197862Y0219991D01*
X0197681Y0219998D01*
X0197500Y0220000D01*
X0015000Y0220000D01*
X0014819Y0219998D01*
X0014638Y0219991D01*
X0014457Y0219980D01*
X0014276Y0219965D01*
X0014096Y0219945D01*
X0013916Y0219921D01*
X0013737Y0219893D01*
X0013559Y0219860D01*
X0013382Y0219823D01*
X0013205Y0219782D01*
X0013030Y0219737D01*
X0012855Y0219687D01*
X0012682Y0219633D01*
X0012511Y0219575D01*
X0012340Y0219513D01*
X0012172Y0219446D01*
X0012005Y0219376D01*
X0011839Y0219302D01*
X0011676Y0219223D01*
X0011515Y0219141D01*
X0011355Y0219055D01*
X0011198Y0218965D01*
X0011043Y0218871D01*
X0010890Y0218774D01*
X0010740Y0218672D01*
X0010592Y0218568D01*
X0010446Y0218459D01*
X0010304Y0218348D01*
X0010164Y0218232D01*
X0010027Y0218114D01*
X0009892Y0217992D01*
X0009761Y0217867D01*
X0009633Y0217739D01*
X0009508Y0217608D01*
X0009386Y0217473D01*
X0009268Y0217336D01*
X0009152Y0217196D01*
X0009041Y0217054D01*
X0008932Y0216908D01*
X0008828Y0216760D01*
X0008726Y0216610D01*
X0008629Y0216457D01*
X0008535Y0216302D01*
X0008445Y0216145D01*
X0008359Y0215985D01*
X0008277Y0215824D01*
X0008198Y0215661D01*
X0008124Y0215495D01*
X0008054Y0215328D01*
X0007987Y0215160D01*
X0007925Y0214989D01*
X0007867Y0214818D01*
X0007813Y0214645D01*
X0007763Y0214470D01*
X0007718Y0214295D01*
X0007677Y0214118D01*
X0007640Y0213941D01*
X0007607Y0213763D01*
X0007579Y0213584D01*
X0007555Y0213404D01*
X0007535Y0213224D01*
X0007520Y0213043D01*
X0007509Y0212862D01*
X0007502Y0212681D01*
X0007500Y0212500D01*
D13*
X0017500Y0165000D02*
X0017500Y0085000D01*
X0027500Y0085000D01*
X0027500Y0165000D01*
X0037500Y0165000D01*
X0037500Y0085000D01*
X0027500Y0085000D01*
X0082220Y0138367D02*
X0082220Y0138934D01*
X0082787Y0139501D01*
X0084489Y0139501D01*
X0084489Y0138367D01*
X0083922Y0137800D01*
X0082787Y0137800D01*
X0082220Y0138367D01*
X0083354Y0140636D02*
X0084489Y0139501D01*
X0083354Y0140636D02*
X0082220Y0141203D01*
X0082787Y0143800D02*
X0082787Y0147203D01*
X0084489Y0145501D01*
X0082220Y0145501D01*
X0085903Y0143800D02*
X0088172Y0143800D01*
X0087038Y0143800D02*
X0087038Y0147203D01*
X0088172Y0146069D01*
X0089586Y0146636D02*
X0089586Y0144367D01*
X0090154Y0143800D01*
X0091288Y0143800D01*
X0091855Y0144367D01*
X0091855Y0146636D01*
X0091288Y0147203D01*
X0090154Y0147203D01*
X0089586Y0146636D01*
X0090154Y0149800D02*
X0089586Y0150367D01*
X0089586Y0152636D01*
X0090154Y0153203D01*
X0091288Y0153203D01*
X0091855Y0152636D01*
X0091855Y0150367D01*
X0091288Y0149800D01*
X0090154Y0149800D01*
X0088172Y0149800D02*
X0085903Y0149800D01*
X0087038Y0149800D02*
X0087038Y0153203D01*
X0088172Y0152069D01*
X0084489Y0152636D02*
X0083922Y0153203D01*
X0082787Y0153203D01*
X0082220Y0152636D01*
X0082220Y0152069D01*
X0084489Y0149800D01*
X0082220Y0149800D01*
X0082787Y0155800D02*
X0083922Y0155800D01*
X0084489Y0156367D01*
X0084489Y0157501D02*
X0083354Y0158069D01*
X0082787Y0158069D01*
X0082220Y0157501D01*
X0082220Y0156367D01*
X0082787Y0155800D01*
X0084489Y0157501D02*
X0084489Y0159203D01*
X0082220Y0159203D01*
X0087038Y0159203D02*
X0087038Y0155800D01*
X0088172Y0155800D02*
X0085903Y0155800D01*
X0088172Y0158069D02*
X0087038Y0159203D01*
X0089586Y0158636D02*
X0089586Y0156367D01*
X0090154Y0155800D01*
X0091288Y0155800D01*
X0091855Y0156367D01*
X0091855Y0158636D01*
X0091288Y0159203D01*
X0090154Y0159203D01*
X0089586Y0158636D01*
X0093176Y0159203D02*
X0094310Y0159203D01*
X0093743Y0159203D02*
X0093743Y0155800D01*
X0094310Y0155800D02*
X0093176Y0155800D01*
X0093176Y0153203D02*
X0094310Y0153203D01*
X0093743Y0153203D02*
X0093743Y0149800D01*
X0094310Y0149800D02*
X0093176Y0149800D01*
X0093176Y0147203D02*
X0094310Y0147203D01*
X0093743Y0147203D02*
X0093743Y0143800D01*
X0094310Y0143800D02*
X0093176Y0143800D01*
X0093176Y0141203D02*
X0094310Y0141203D01*
X0093743Y0141203D02*
X0093743Y0137800D01*
X0094310Y0137800D02*
X0093176Y0137800D01*
X0091855Y0138367D02*
X0091288Y0137800D01*
X0090154Y0137800D01*
X0089586Y0138367D01*
X0089586Y0140636D01*
X0090154Y0141203D01*
X0091288Y0141203D01*
X0091855Y0140636D01*
X0091855Y0138367D01*
X0091288Y0135203D02*
X0091855Y0134636D01*
X0091855Y0132367D01*
X0091288Y0131800D01*
X0090154Y0131800D01*
X0089586Y0132367D01*
X0089586Y0134636D01*
X0090154Y0135203D01*
X0091288Y0135203D01*
X0093176Y0135203D02*
X0094310Y0135203D01*
X0093743Y0135203D02*
X0093743Y0131800D01*
X0094310Y0131800D02*
X0093176Y0131800D01*
X0095725Y0133501D02*
X0095725Y0134636D01*
X0096292Y0135203D01*
X0097994Y0135203D01*
X0097994Y0131800D01*
X0097994Y0132934D02*
X0096292Y0132934D01*
X0095725Y0133501D01*
X0099408Y0133501D02*
X0100542Y0133501D01*
X0099408Y0133501D02*
X0099408Y0132367D01*
X0099975Y0131800D01*
X0101110Y0131800D01*
X0101677Y0132367D01*
X0101677Y0134636D01*
X0101110Y0135203D01*
X0099975Y0135203D01*
X0099408Y0134636D01*
X0099975Y0137800D02*
X0099408Y0138367D01*
X0099408Y0139501D01*
X0100542Y0139501D01*
X0101677Y0138367D02*
X0101677Y0140636D01*
X0101110Y0141203D01*
X0099975Y0141203D01*
X0099408Y0140636D01*
X0097994Y0141203D02*
X0096292Y0141203D01*
X0095725Y0140636D01*
X0095725Y0139501D01*
X0096292Y0138934D01*
X0097994Y0138934D01*
X0097994Y0137800D02*
X0097994Y0141203D01*
X0097994Y0143800D02*
X0097994Y0147203D01*
X0096292Y0147203D01*
X0095725Y0146636D01*
X0095725Y0145501D01*
X0096292Y0144934D01*
X0097994Y0144934D01*
X0099408Y0144367D02*
X0099408Y0145501D01*
X0100542Y0145501D01*
X0099408Y0144367D02*
X0099975Y0143800D01*
X0101110Y0143800D01*
X0101677Y0144367D01*
X0101677Y0146636D01*
X0101110Y0147203D01*
X0099975Y0147203D01*
X0099408Y0146636D01*
X0099975Y0149800D02*
X0099408Y0150367D01*
X0099408Y0151501D01*
X0100542Y0151501D01*
X0101677Y0150367D02*
X0101110Y0149800D01*
X0099975Y0149800D01*
X0101677Y0150367D02*
X0101677Y0152636D01*
X0101110Y0153203D01*
X0099975Y0153203D01*
X0099408Y0152636D01*
X0097994Y0153203D02*
X0096292Y0153203D01*
X0095725Y0152636D01*
X0095725Y0151501D01*
X0096292Y0150934D01*
X0097994Y0150934D01*
X0097994Y0149800D02*
X0097994Y0153203D01*
X0097994Y0155800D02*
X0097994Y0159203D01*
X0096292Y0159203D01*
X0095725Y0158636D01*
X0095725Y0157501D01*
X0096292Y0156934D01*
X0097994Y0156934D01*
X0099408Y0156367D02*
X0099408Y0157501D01*
X0100542Y0157501D01*
X0099408Y0156367D02*
X0099975Y0155800D01*
X0101110Y0155800D01*
X0101677Y0156367D01*
X0101677Y0158636D01*
X0101110Y0159203D01*
X0099975Y0159203D01*
X0099408Y0158636D01*
X0099975Y0161800D02*
X0099408Y0162367D01*
X0099408Y0163501D01*
X0100542Y0163501D01*
X0101677Y0162367D02*
X0101110Y0161800D01*
X0099975Y0161800D01*
X0101677Y0162367D02*
X0101677Y0164636D01*
X0101110Y0165203D01*
X0099975Y0165203D01*
X0099408Y0164636D01*
X0097994Y0165203D02*
X0096292Y0165203D01*
X0095725Y0164636D01*
X0095725Y0163501D01*
X0096292Y0162934D01*
X0097994Y0162934D01*
X0097994Y0161800D02*
X0097994Y0165203D01*
X0097994Y0167800D02*
X0097994Y0171203D01*
X0096292Y0171203D01*
X0095725Y0170636D01*
X0095725Y0169501D01*
X0096292Y0168934D01*
X0097994Y0168934D01*
X0099408Y0168367D02*
X0099408Y0169501D01*
X0100542Y0169501D01*
X0099408Y0168367D02*
X0099975Y0167800D01*
X0101110Y0167800D01*
X0101677Y0168367D01*
X0101677Y0170636D01*
X0101110Y0171203D01*
X0099975Y0171203D01*
X0099408Y0170636D01*
X0099975Y0173800D02*
X0099408Y0174367D01*
X0099408Y0175501D01*
X0100542Y0175501D01*
X0101677Y0174367D02*
X0101677Y0176636D01*
X0101110Y0177203D01*
X0099975Y0177203D01*
X0099408Y0176636D01*
X0097994Y0177203D02*
X0096292Y0177203D01*
X0095725Y0176636D01*
X0095725Y0175501D01*
X0096292Y0174934D01*
X0097994Y0174934D01*
X0097994Y0173800D02*
X0097994Y0177203D01*
X0099975Y0173800D02*
X0101110Y0173800D01*
X0101677Y0174367D01*
X0103091Y0177203D02*
X0105360Y0173800D01*
X0106774Y0174367D02*
X0107342Y0173800D01*
X0108476Y0173800D01*
X0109043Y0174367D01*
X0110458Y0174367D02*
X0110458Y0176636D01*
X0111025Y0177203D01*
X0112726Y0177203D01*
X0112726Y0173800D01*
X0111025Y0173800D01*
X0110458Y0174367D01*
X0109043Y0176636D02*
X0108476Y0177203D01*
X0107342Y0177203D01*
X0106774Y0176636D01*
X0106774Y0176069D01*
X0107342Y0175501D01*
X0106774Y0174934D01*
X0106774Y0174367D01*
X0107342Y0175501D02*
X0107909Y0175501D01*
X0107909Y0171203D02*
X0107909Y0167800D01*
X0109043Y0167800D02*
X0106774Y0167800D01*
X0105360Y0167800D02*
X0103091Y0171203D01*
X0107909Y0171203D02*
X0109043Y0170069D01*
X0110458Y0170636D02*
X0110458Y0168367D01*
X0111025Y0167800D01*
X0112726Y0167800D01*
X0112726Y0171203D01*
X0111025Y0171203D01*
X0110458Y0170636D01*
X0111025Y0165203D02*
X0110458Y0164636D01*
X0110458Y0162367D01*
X0111025Y0161800D01*
X0112726Y0161800D01*
X0112726Y0165203D01*
X0111025Y0165203D01*
X0109043Y0164636D02*
X0108476Y0165203D01*
X0107342Y0165203D01*
X0106774Y0164636D01*
X0106774Y0164069D01*
X0109043Y0161800D01*
X0106774Y0161800D01*
X0105360Y0161800D02*
X0103091Y0165203D01*
X0103091Y0159203D02*
X0105360Y0155800D01*
X0106774Y0156367D02*
X0107342Y0155800D01*
X0108476Y0155800D01*
X0109043Y0156367D01*
X0109043Y0156934D01*
X0108476Y0157501D01*
X0107342Y0157501D01*
X0106774Y0156934D01*
X0106774Y0156367D01*
X0107342Y0157501D02*
X0106774Y0158069D01*
X0106774Y0158636D01*
X0107342Y0159203D01*
X0108476Y0159203D01*
X0109043Y0158636D01*
X0109043Y0158069D01*
X0108476Y0157501D01*
X0110458Y0156367D02*
X0110458Y0158636D01*
X0111025Y0159203D01*
X0112726Y0159203D01*
X0112726Y0155800D01*
X0111025Y0155800D01*
X0110458Y0156367D01*
X0111025Y0153203D02*
X0110458Y0152636D01*
X0110458Y0150367D01*
X0111025Y0149800D01*
X0112726Y0149800D01*
X0112726Y0153203D01*
X0111025Y0153203D01*
X0109043Y0151501D02*
X0107342Y0151501D01*
X0106774Y0150934D01*
X0106774Y0150367D01*
X0107342Y0149800D01*
X0108476Y0149800D01*
X0109043Y0150367D01*
X0109043Y0151501D01*
X0107909Y0152636D01*
X0106774Y0153203D01*
X0103091Y0153203D02*
X0105360Y0149800D01*
X0106774Y0147203D02*
X0109043Y0147203D01*
X0109043Y0145501D01*
X0107909Y0146069D01*
X0107342Y0146069D01*
X0106774Y0145501D01*
X0106774Y0144367D01*
X0107342Y0143800D01*
X0108476Y0143800D01*
X0109043Y0144367D01*
X0110458Y0144367D02*
X0110458Y0146636D01*
X0111025Y0147203D01*
X0112726Y0147203D01*
X0112726Y0143800D01*
X0111025Y0143800D01*
X0110458Y0144367D01*
X0111025Y0141203D02*
X0112726Y0141203D01*
X0112726Y0137800D01*
X0111025Y0137800D01*
X0110458Y0138367D01*
X0110458Y0140636D01*
X0111025Y0141203D01*
X0109043Y0140636D02*
X0108476Y0141203D01*
X0107342Y0141203D01*
X0106774Y0140636D01*
X0109043Y0138367D01*
X0108476Y0137800D01*
X0107342Y0137800D01*
X0106774Y0138367D01*
X0106774Y0140636D01*
X0109043Y0140636D02*
X0109043Y0138367D01*
X0107342Y0135203D02*
X0109043Y0133501D01*
X0106774Y0133501D01*
X0107342Y0131800D02*
X0107342Y0135203D01*
X0110458Y0134636D02*
X0110458Y0132367D01*
X0111025Y0131800D01*
X0112726Y0131800D01*
X0112726Y0135203D01*
X0111025Y0135203D01*
X0110458Y0134636D01*
X0105360Y0131800D02*
X0103091Y0135203D01*
X0101110Y0137800D02*
X0099975Y0137800D01*
X0101110Y0137800D02*
X0101677Y0138367D01*
X0103091Y0141203D02*
X0105360Y0137800D01*
X0105360Y0143800D02*
X0103091Y0147203D01*
X0117824Y0145501D02*
X0120092Y0145501D01*
X0125190Y0143800D02*
X0126892Y0145501D01*
X0127459Y0144934D02*
X0125190Y0147203D01*
X0127459Y0147203D02*
X0127459Y0143800D01*
X0128873Y0143800D02*
X0131142Y0143800D01*
X0131142Y0147203D01*
X0132556Y0146636D02*
X0133124Y0147203D01*
X0134258Y0147203D01*
X0134825Y0146636D01*
X0134825Y0144367D01*
X0134258Y0143800D01*
X0133124Y0143800D01*
X0132556Y0144367D01*
X0133124Y0141203D02*
X0134258Y0141203D01*
X0134825Y0140636D01*
X0134825Y0140069D01*
X0134258Y0139501D01*
X0133124Y0139501D01*
X0132556Y0138934D01*
X0132556Y0138367D01*
X0133124Y0137800D01*
X0134258Y0137800D01*
X0134825Y0138367D01*
X0132556Y0140636D02*
X0133124Y0141203D01*
X0131142Y0141203D02*
X0128873Y0141203D01*
X0130008Y0141203D02*
X0130008Y0137800D01*
X0131142Y0135203D02*
X0128873Y0135203D01*
X0130008Y0133501D02*
X0131142Y0133501D01*
X0131142Y0131800D02*
X0128873Y0131800D01*
X0131142Y0131800D02*
X0131142Y0135203D01*
X0132556Y0134636D02*
X0132556Y0132367D01*
X0133124Y0131800D01*
X0134258Y0131800D01*
X0134825Y0132367D01*
X0134825Y0134636D01*
X0134258Y0135203D01*
X0133124Y0135203D01*
X0132556Y0134636D01*
X0127459Y0137800D02*
X0127459Y0141203D01*
X0125757Y0141203D01*
X0125190Y0140636D01*
X0125190Y0140069D01*
X0125757Y0139501D01*
X0127459Y0139501D01*
X0127459Y0137800D02*
X0125757Y0137800D01*
X0125190Y0138367D01*
X0125190Y0138934D01*
X0125757Y0139501D01*
X0120092Y0139501D02*
X0117824Y0139501D01*
X0117824Y0133501D02*
X0120092Y0133501D01*
X0121507Y0133501D02*
X0123776Y0133501D01*
X0133124Y0149800D02*
X0132556Y0150367D01*
X0132556Y0152636D01*
X0133124Y0153203D01*
X0134825Y0153203D01*
X0134825Y0149800D01*
X0133124Y0149800D01*
X0127459Y0151501D02*
X0125190Y0151501D01*
X0123776Y0151501D02*
X0121507Y0151501D01*
X0120092Y0151501D02*
X0117824Y0151501D01*
X0117824Y0157501D02*
X0120092Y0157501D01*
X0121507Y0157501D02*
X0123776Y0157501D01*
X0125190Y0157501D02*
X0127459Y0157501D01*
X0127459Y0163501D02*
X0125190Y0163501D01*
X0123776Y0163501D02*
X0121507Y0163501D01*
X0120092Y0163501D02*
X0117824Y0163501D01*
X0117824Y0169501D02*
X0120092Y0169501D01*
X0121507Y0169501D02*
X0123776Y0169501D01*
X0125190Y0169501D02*
X0127459Y0169501D01*
X0123776Y0173800D02*
X0121507Y0177203D01*
X0120092Y0175501D02*
X0117824Y0175501D01*
X0117824Y0181501D02*
X0120092Y0181501D01*
X0121507Y0181501D02*
X0123776Y0181501D01*
X0128873Y0180367D02*
X0129440Y0179800D01*
X0130575Y0179800D01*
X0131142Y0180367D01*
X0128873Y0182636D01*
X0128873Y0180367D01*
X0128873Y0182636D02*
X0129440Y0183203D01*
X0130575Y0183203D01*
X0131142Y0182636D01*
X0131142Y0180367D01*
X0132556Y0179800D02*
X0133691Y0180934D01*
X0133124Y0180934D02*
X0134825Y0180934D01*
X0134825Y0179800D02*
X0134825Y0183203D01*
X0133124Y0183203D01*
X0132556Y0182636D01*
X0132556Y0181501D01*
X0133124Y0180934D01*
X0132556Y0177203D02*
X0134825Y0177203D01*
X0134825Y0173800D01*
X0132556Y0173800D01*
X0133691Y0175501D02*
X0134825Y0175501D01*
X0133691Y0171203D02*
X0132556Y0170069D01*
X0132556Y0167800D01*
X0132556Y0169501D02*
X0134825Y0169501D01*
X0134825Y0170069D02*
X0133691Y0171203D01*
X0134825Y0170069D02*
X0134825Y0167800D01*
X0134825Y0165203D02*
X0133124Y0165203D01*
X0132556Y0164636D01*
X0132556Y0164069D01*
X0133124Y0163501D01*
X0134825Y0163501D01*
X0134825Y0161800D02*
X0133124Y0161800D01*
X0132556Y0162367D01*
X0132556Y0162934D01*
X0133124Y0163501D01*
X0134825Y0161800D02*
X0134825Y0165203D01*
X0134258Y0159203D02*
X0133124Y0159203D01*
X0132556Y0158636D01*
X0134258Y0159203D02*
X0134825Y0158636D01*
X0134825Y0156367D01*
X0134258Y0155800D01*
X0133124Y0155800D01*
X0132556Y0156367D01*
X0127459Y0175501D02*
X0125190Y0175501D01*
X0112726Y0179800D02*
X0111025Y0179800D01*
X0110458Y0180367D01*
X0110458Y0182636D01*
X0111025Y0183203D01*
X0112726Y0183203D01*
X0112726Y0179800D01*
X0109043Y0179800D02*
X0109043Y0180367D01*
X0106774Y0182636D01*
X0106774Y0183203D01*
X0109043Y0183203D01*
X0105360Y0179800D02*
X0103091Y0183203D01*
X0101677Y0182636D02*
X0101677Y0180367D01*
X0101110Y0179800D01*
X0099975Y0179800D01*
X0099408Y0180367D01*
X0099408Y0181501D01*
X0100542Y0181501D01*
X0099408Y0182636D02*
X0099975Y0183203D01*
X0101110Y0183203D01*
X0101677Y0182636D01*
X0097994Y0183203D02*
X0097994Y0179800D01*
X0097994Y0180934D02*
X0096292Y0180934D01*
X0095725Y0181501D01*
X0095725Y0182636D01*
X0096292Y0183203D01*
X0097994Y0183203D01*
X0094310Y0183203D02*
X0093176Y0183203D01*
X0093743Y0183203D02*
X0093743Y0179800D01*
X0094310Y0179800D02*
X0093176Y0179800D01*
X0091855Y0180367D02*
X0091288Y0179800D01*
X0090154Y0179800D01*
X0089586Y0180367D01*
X0089586Y0182636D01*
X0090154Y0183203D01*
X0091288Y0183203D01*
X0091855Y0182636D01*
X0091855Y0180367D01*
X0091288Y0177203D02*
X0091855Y0176636D01*
X0091855Y0174367D01*
X0091288Y0173800D01*
X0090154Y0173800D01*
X0089586Y0174367D01*
X0089586Y0176636D01*
X0090154Y0177203D01*
X0091288Y0177203D01*
X0093176Y0177203D02*
X0094310Y0177203D01*
X0093743Y0177203D02*
X0093743Y0173800D01*
X0094310Y0173800D02*
X0093176Y0173800D01*
X0093176Y0171203D02*
X0094310Y0171203D01*
X0093743Y0171203D02*
X0093743Y0167800D01*
X0094310Y0167800D02*
X0093176Y0167800D01*
X0091855Y0168367D02*
X0091288Y0167800D01*
X0090154Y0167800D01*
X0089586Y0168367D01*
X0089586Y0170636D01*
X0090154Y0171203D01*
X0091288Y0171203D01*
X0091855Y0170636D01*
X0091855Y0168367D01*
X0091288Y0165203D02*
X0091855Y0164636D01*
X0091855Y0162367D01*
X0091288Y0161800D01*
X0090154Y0161800D01*
X0089586Y0162367D01*
X0089586Y0164636D01*
X0090154Y0165203D01*
X0091288Y0165203D01*
X0093176Y0165203D02*
X0094310Y0165203D01*
X0093743Y0165203D02*
X0093743Y0161800D01*
X0094310Y0161800D02*
X0093176Y0161800D01*
X0088172Y0163501D02*
X0085903Y0163501D01*
X0086470Y0161800D02*
X0086470Y0165203D01*
X0088172Y0163501D01*
X0087605Y0167800D02*
X0086470Y0167800D01*
X0085903Y0168367D01*
X0085903Y0169501D01*
X0086470Y0170069D01*
X0087038Y0170069D01*
X0088172Y0169501D01*
X0088172Y0171203D01*
X0085903Y0171203D01*
X0086470Y0173800D02*
X0087605Y0173800D01*
X0088172Y0174367D01*
X0085903Y0176636D01*
X0085903Y0174367D01*
X0086470Y0173800D01*
X0088172Y0174367D02*
X0088172Y0176636D01*
X0087605Y0177203D01*
X0086470Y0177203D01*
X0085903Y0176636D01*
X0085903Y0179800D02*
X0088172Y0179800D01*
X0087038Y0179800D02*
X0087038Y0183203D01*
X0088172Y0182069D01*
X0084489Y0182636D02*
X0083922Y0183203D01*
X0082787Y0183203D01*
X0082220Y0182636D01*
X0082220Y0182069D01*
X0082787Y0181501D01*
X0082220Y0180934D01*
X0082220Y0180367D01*
X0082787Y0179800D01*
X0083922Y0179800D01*
X0084489Y0180367D01*
X0083354Y0181501D02*
X0082787Y0181501D01*
X0088172Y0168367D02*
X0087605Y0167800D01*
X0087038Y0141203D02*
X0087038Y0137800D01*
X0088172Y0137800D02*
X0085903Y0137800D01*
X0086470Y0135203D02*
X0087605Y0135203D01*
X0088172Y0134636D01*
X0086470Y0135203D02*
X0085903Y0134636D01*
X0085903Y0134069D01*
X0088172Y0131800D01*
X0085903Y0131800D01*
X0088172Y0140069D02*
X0087038Y0141203D01*
X0027500Y0165000D02*
X0017500Y0165000D01*
X0168779Y0077461D02*
X0168779Y0075760D01*
X0172182Y0075760D01*
X0172182Y0077461D01*
X0171615Y0078028D01*
X0169346Y0078028D01*
X0168779Y0077461D01*
X0168779Y0074345D02*
X0172182Y0074345D01*
X0172182Y0072077D02*
X0168779Y0074345D01*
X0168779Y0072077D02*
X0172182Y0072077D01*
X0171615Y0070662D02*
X0172182Y0070095D01*
X0172182Y0068961D01*
X0171615Y0068393D01*
X0169346Y0068393D01*
X0168779Y0068961D01*
X0168779Y0070095D01*
X0169346Y0070662D01*
X0170481Y0070662D01*
X0170481Y0069528D01*
X0169346Y0062028D02*
X0171615Y0062028D01*
X0172182Y0061461D01*
X0172182Y0059760D01*
X0168779Y0059760D01*
X0168779Y0061461D01*
X0169346Y0062028D01*
X0168779Y0058345D02*
X0172182Y0058345D01*
X0172182Y0056077D02*
X0168779Y0058345D01*
X0168779Y0056077D02*
X0172182Y0056077D01*
X0171615Y0054662D02*
X0172182Y0054095D01*
X0172182Y0052961D01*
X0171615Y0052393D01*
X0169346Y0052393D01*
X0168779Y0052961D01*
X0168779Y0054095D01*
X0169346Y0054662D01*
X0170481Y0054662D01*
X0170481Y0053528D01*
X0169914Y0044687D02*
X0172182Y0044687D01*
X0172182Y0042418D02*
X0169914Y0042418D01*
X0168779Y0043552D01*
X0169914Y0044687D01*
X0170481Y0041004D02*
X0169346Y0041004D01*
X0168779Y0040436D01*
X0168779Y0039302D01*
X0169346Y0038735D01*
X0170481Y0038735D02*
X0171048Y0039869D01*
X0171048Y0040436D01*
X0170481Y0041004D01*
X0172182Y0041004D02*
X0172182Y0038735D01*
X0170481Y0038735D01*
X0169914Y0029687D02*
X0172182Y0029687D01*
X0172182Y0027418D02*
X0169914Y0027418D01*
X0168779Y0028552D01*
X0169914Y0029687D01*
X0170481Y0026004D02*
X0169346Y0026004D01*
X0168779Y0025436D01*
X0168779Y0024302D01*
X0169346Y0023735D01*
X0170481Y0023735D02*
X0171048Y0024869D01*
X0171048Y0025436D01*
X0170481Y0026004D01*
X0172182Y0026004D02*
X0172182Y0023735D01*
X0170481Y0023735D01*
D14*
X0117875Y0068500D03*
X0120125Y0098500D03*
D15*
X0102125Y0088250D03*
X0102125Y0088000D03*
X0101875Y0087750D03*
X0101875Y0087500D03*
X0101875Y0087250D03*
X0101875Y0087000D03*
X0101875Y0086750D03*
X0101875Y0086500D03*
X0101875Y0086250D03*
X0101875Y0086000D03*
X0101875Y0085750D03*
X0101875Y0085500D03*
X0101875Y0085250D03*
X0101875Y0085000D03*
X0101875Y0084750D03*
X0101875Y0084500D03*
X0101875Y0084250D03*
X0101875Y0084000D03*
X0101875Y0083750D03*
X0101875Y0083500D03*
X0112375Y0079000D03*
X0112375Y0078750D03*
X0112375Y0078500D03*
X0112375Y0078250D03*
X0112375Y0078000D03*
X0112375Y0077750D03*
X0112375Y0077500D03*
X0112375Y0077250D03*
X0112375Y0077000D03*
X0112375Y0076750D03*
X0112375Y0076500D03*
X0112375Y0076250D03*
X0112375Y0076000D03*
X0112375Y0075750D03*
X0112375Y0075500D03*
X0112375Y0075250D03*
X0112375Y0075000D03*
X0112375Y0073500D03*
X0112375Y0073250D03*
X0112375Y0073000D03*
X0112375Y0072750D03*
X0112375Y0072500D03*
X0112375Y0072250D03*
X0112375Y0072000D03*
X0112375Y0071750D03*
X0112375Y0071500D03*
X0112375Y0071250D03*
X0112375Y0071000D03*
X0112375Y0070750D03*
X0112375Y0070500D03*
X0112375Y0070250D03*
X0112375Y0070000D03*
X0112375Y0069750D03*
X0112375Y0069500D03*
X0112375Y0069250D03*
X0112375Y0069000D03*
X0112375Y0068750D03*
X0112375Y0068500D03*
D16*
X0107375Y0068500D03*
X0107375Y0068750D03*
X0107375Y0069000D03*
X0107375Y0069250D03*
X0107375Y0069500D03*
X0107375Y0069750D03*
X0107375Y0070000D03*
X0107375Y0070250D03*
X0107375Y0070500D03*
X0107375Y0070750D03*
X0107375Y0071000D03*
X0107375Y0071250D03*
X0107375Y0071500D03*
X0107375Y0071750D03*
X0107375Y0072000D03*
X0107375Y0072250D03*
X0107375Y0072500D03*
X0107375Y0072750D03*
X0107375Y0073000D03*
X0107375Y0073250D03*
X0107625Y0073750D03*
X0098875Y0074000D03*
X0098625Y0074250D03*
X0098625Y0074500D03*
X0098625Y0074750D03*
X0098625Y0075000D03*
X0098625Y0075250D03*
X0107625Y0083500D03*
X0107375Y0084250D03*
X0107375Y0084500D03*
X0107375Y0084750D03*
X0107375Y0085000D03*
X0107375Y0085250D03*
X0107375Y0085500D03*
X0107375Y0085750D03*
X0107375Y0086000D03*
X0107375Y0086250D03*
X0107375Y0086500D03*
X0107375Y0086750D03*
X0107375Y0087000D03*
X0107375Y0087250D03*
X0107375Y0087500D03*
X0107375Y0087750D03*
X0107375Y0088000D03*
X0107125Y0088250D03*
X0129375Y0094500D03*
D17*
X0100755Y0069000D03*
X0100755Y0068750D03*
X0100755Y0068500D03*
X0092495Y0087750D03*
D18*
X0088120Y0086250D03*
X0094370Y0078750D03*
X0094370Y0078500D03*
X0094370Y0078000D03*
X0094370Y0076000D03*
X0094370Y0075750D03*
X0094370Y0075500D03*
X0094370Y0075250D03*
X0094370Y0075000D03*
X0094370Y0074750D03*
X0094370Y0074500D03*
X0094370Y0074250D03*
X0094370Y0074000D03*
X0094370Y0073750D03*
X0094370Y0073500D03*
X0094370Y0073250D03*
X0094370Y0073000D03*
X0094370Y0072750D03*
X0094370Y0072500D03*
X0094370Y0072250D03*
X0094370Y0072000D03*
X0094370Y0071750D03*
X0094370Y0071500D03*
X0094370Y0071250D03*
X0094370Y0071000D03*
X0094370Y0070750D03*
X0094370Y0070500D03*
X0094370Y0070250D03*
X0094370Y0070000D03*
X0094370Y0069750D03*
X0094370Y0069500D03*
X0094370Y0069250D03*
X0094370Y0069000D03*
X0094370Y0068750D03*
X0094370Y0068500D03*
X0112620Y0084250D03*
X0112620Y0084500D03*
X0112870Y0084750D03*
X0120120Y0074000D03*
X0120120Y0073750D03*
X0120370Y0073500D03*
X0120370Y0073250D03*
X0120370Y0073000D03*
X0120370Y0072750D03*
X0120370Y0072500D03*
X0120370Y0072250D03*
X0120370Y0072000D03*
X0120370Y0071750D03*
X0120370Y0071500D03*
X0120370Y0071250D03*
X0120370Y0071000D03*
X0120370Y0070750D03*
X0120120Y0070250D03*
D19*
X0117875Y0068750D03*
X0114875Y0087750D03*
X0115125Y0088000D03*
X0117625Y0091000D03*
D20*
X0115995Y0088750D03*
X0125245Y0089250D03*
X0117245Y0100750D03*
X0115995Y0101500D03*
X0114245Y0102500D03*
X0100755Y0102500D03*
X0098995Y0101500D03*
X0097745Y0100750D03*
X0100755Y0076500D03*
X0117755Y0075250D03*
X0117755Y0069000D03*
D21*
X0117880Y0069250D03*
X0117880Y0075000D03*
X0125620Y0090250D03*
X0104620Y0089750D03*
D22*
X0104620Y0089000D03*
X0110130Y0074750D03*
X0110130Y0074500D03*
X0100880Y0069750D03*
X0100880Y0069500D03*
X0100880Y0069250D03*
D23*
X0115500Y0081250D03*
X0118000Y0069500D03*
D24*
X0119620Y0069750D03*
X0113120Y0085250D03*
X0113120Y0085500D03*
X0113370Y0085750D03*
X0120370Y0097750D03*
X0120370Y0098000D03*
X0094620Y0098000D03*
X0094620Y0097750D03*
X0088870Y0086750D03*
X0100370Y0072250D03*
X0100620Y0072000D03*
X0100870Y0071750D03*
X0101120Y0071500D03*
X0101370Y0071250D03*
D25*
X0091875Y0080500D03*
X0092125Y0080750D03*
X0086875Y0085250D03*
X0086625Y0085000D03*
X0086375Y0084750D03*
X0086125Y0084500D03*
X0086125Y0084250D03*
X0085875Y0084000D03*
X0085625Y0083500D03*
X0116375Y0069750D03*
D26*
X0120000Y0070000D03*
X0119750Y0074250D03*
X0107750Y0074000D03*
X0107500Y0073500D03*
X0099250Y0073500D03*
X0099000Y0073750D03*
X0098750Y0075500D03*
X0099000Y0075750D03*
X0107750Y0083250D03*
X0107500Y0107000D03*
D27*
X0129995Y0094750D03*
X0116005Y0070000D03*
X0090755Y0077250D03*
X0087745Y0078000D03*
X0084755Y0079000D03*
D28*
X0089375Y0087000D03*
X0102625Y0070000D03*
X0111875Y0074250D03*
X0125625Y0088250D03*
D29*
X0115880Y0070250D03*
D30*
X0102500Y0070250D03*
X0102250Y0070500D03*
X0102750Y0075750D03*
D31*
X0094245Y0077750D03*
X0087495Y0085750D03*
X0087745Y0086000D03*
X0120245Y0070500D03*
D32*
X0112125Y0074000D03*
X0102875Y0075500D03*
X0101625Y0071000D03*
X0101875Y0070750D03*
X0125875Y0088500D03*
X0127875Y0092250D03*
D33*
X0127625Y0092000D03*
X0104625Y0090250D03*
X0093125Y0081250D03*
X0099375Y0073250D03*
X0099625Y0073000D03*
X0099875Y0072750D03*
X0100125Y0072500D03*
D34*
X0112250Y0073750D03*
X0090750Y0083750D03*
D35*
X0094245Y0077250D03*
X0103005Y0074500D03*
X0116005Y0074000D03*
X0107495Y0107250D03*
D36*
X0116250Y0074250D03*
D37*
X0109120Y0075500D03*
X0108130Y0074250D03*
X0113620Y0086250D03*
X0113880Y0086500D03*
X0116120Y0090000D03*
X0119870Y0098750D03*
X0127370Y0091750D03*
X0095120Y0098750D03*
X0094870Y0098500D03*
X0094120Y0085250D03*
X0094870Y0083750D03*
D38*
X0094745Y0084000D03*
X0091245Y0084000D03*
X0100745Y0077250D03*
X0113495Y0086000D03*
X0119495Y0074500D03*
X0094745Y0098250D03*
D39*
X0107500Y0084000D03*
X0107500Y0083750D03*
X0116500Y0074500D03*
X0092500Y0081000D03*
D40*
X0093125Y0084500D03*
X0118125Y0074750D03*
X0124375Y0087750D03*
D41*
X0103000Y0074750D03*
D42*
X0109120Y0075000D03*
X0124870Y0088000D03*
X0128120Y0094250D03*
X0119120Y0099500D03*
D43*
X0103000Y0075000D03*
X0090750Y0078750D03*
X0084750Y0079250D03*
X0084750Y0079500D03*
X0084750Y0079750D03*
X0084750Y0080000D03*
X0084750Y0080250D03*
X0084750Y0080500D03*
X0084750Y0080750D03*
X0084750Y0081000D03*
X0084750Y0081250D03*
X0084750Y0081500D03*
D44*
X0109120Y0075250D03*
X0115870Y0089500D03*
X0117130Y0090750D03*
X0126870Y0091500D03*
D45*
X0112500Y0084000D03*
X0103000Y0075250D03*
X0090250Y0083500D03*
X0090000Y0083250D03*
D46*
X0093750Y0085000D03*
X0114750Y0087500D03*
X0117750Y0075500D03*
X0126750Y0091250D03*
D47*
X0120250Y0098250D03*
X0117750Y0075750D03*
D48*
X0112125Y0083250D03*
X0112375Y0083500D03*
X0112375Y0083750D03*
X0109125Y0075750D03*
X0089625Y0083000D03*
X0084875Y0081750D03*
D49*
X0092745Y0088000D03*
X0100755Y0076000D03*
X0109755Y0082750D03*
X0109755Y0083000D03*
D50*
X0100755Y0076250D03*
X0107505Y0106250D03*
D51*
X0107505Y0106500D03*
X0118745Y0099750D03*
X0109995Y0081750D03*
X0100755Y0076750D03*
D52*
X0100625Y0077000D03*
D53*
X0100495Y0077500D03*
X0094245Y0077500D03*
X0091505Y0080250D03*
X0091255Y0079750D03*
X0088245Y0081000D03*
X0088245Y0081250D03*
X0088495Y0081500D03*
X0088745Y0082000D03*
X0087995Y0080750D03*
X0087995Y0080500D03*
X0087995Y0080250D03*
X0087745Y0079750D03*
X0087745Y0079500D03*
X0087745Y0079250D03*
X0087745Y0079000D03*
X0087745Y0078750D03*
X0087745Y0078500D03*
X0087745Y0078250D03*
X0085005Y0082000D03*
X0085005Y0082250D03*
X0085255Y0082750D03*
X0085505Y0083250D03*
D54*
X0090625Y0078500D03*
X0090625Y0078250D03*
X0090625Y0078000D03*
X0090625Y0077750D03*
X0090625Y0077500D03*
D55*
X0094245Y0078250D03*
X0094495Y0085500D03*
X0094495Y0085750D03*
X0094495Y0086000D03*
X0094495Y0086250D03*
X0094495Y0086500D03*
X0094495Y0086750D03*
X0094495Y0087000D03*
X0094495Y0088500D03*
X0094495Y0088750D03*
X0094495Y0089000D03*
X0094495Y0089250D03*
X0094495Y0089500D03*
X0094495Y0089750D03*
X0094495Y0090000D03*
X0094495Y0090250D03*
X0094495Y0090500D03*
X0094495Y0090750D03*
X0094495Y0091000D03*
X0094495Y0091250D03*
X0094495Y0091500D03*
X0094495Y0091750D03*
X0094495Y0092000D03*
X0094495Y0092250D03*
X0094495Y0092500D03*
X0094495Y0092750D03*
X0094495Y0093000D03*
X0094495Y0093250D03*
X0094495Y0093500D03*
X0094495Y0093750D03*
X0094495Y0094000D03*
X0094495Y0094250D03*
X0094495Y0094500D03*
X0094495Y0094750D03*
X0094495Y0095000D03*
X0094495Y0095250D03*
X0094495Y0095500D03*
X0094495Y0095750D03*
X0094495Y0096000D03*
X0094495Y0096250D03*
X0094495Y0096500D03*
X0094495Y0096750D03*
X0094495Y0097000D03*
X0094495Y0097250D03*
X0094495Y0097500D03*
X0088495Y0086500D03*
X0101495Y0083250D03*
X0112995Y0085000D03*
X0120495Y0093750D03*
X0120495Y0094000D03*
X0120495Y0094250D03*
X0120495Y0094500D03*
X0120495Y0094750D03*
X0120495Y0095000D03*
X0120495Y0095250D03*
X0120495Y0095500D03*
X0120495Y0095750D03*
X0120495Y0096000D03*
X0120495Y0096250D03*
X0120495Y0096500D03*
X0120495Y0096750D03*
X0120495Y0097000D03*
X0120495Y0097250D03*
X0120495Y0097500D03*
D56*
X0094370Y0079000D03*
X0089370Y0082750D03*
X0089120Y0082500D03*
X0088870Y0082250D03*
X0088620Y0081750D03*
X0085380Y0083000D03*
X0085130Y0082500D03*
X0087120Y0085500D03*
D57*
X0087870Y0080000D03*
X0090880Y0079250D03*
X0090880Y0079000D03*
X0091130Y0079500D03*
X0091380Y0080000D03*
X0094370Y0079250D03*
D58*
X0116500Y0081500D03*
X0107500Y0105750D03*
D59*
X0119495Y0099250D03*
X0125505Y0089000D03*
X0114505Y0087250D03*
X0110245Y0081500D03*
D60*
X0119875Y0084500D03*
X0120125Y0084750D03*
X0096625Y0081500D03*
D61*
X0116875Y0081750D03*
D62*
X0118620Y0083250D03*
X0119370Y0084000D03*
X0119620Y0084250D03*
X0098120Y0083000D03*
X0097120Y0081750D03*
D63*
X0117250Y0082000D03*
X0107500Y0105500D03*
D64*
X0103370Y0104000D03*
X0101130Y0102750D03*
X0098620Y0101250D03*
X0098120Y0101000D03*
X0097370Y0100500D03*
X0096870Y0100250D03*
X0112870Y0103250D03*
X0116870Y0101000D03*
X0118130Y0100250D03*
X0118130Y0091250D03*
X0116120Y0089250D03*
X0109870Y0082000D03*
D65*
X0118245Y0083000D03*
X0120505Y0085000D03*
X0097495Y0082000D03*
D66*
X0117500Y0082250D03*
D67*
X0109875Y0082250D03*
X0125375Y0090000D03*
D68*
X0098120Y0082250D03*
D69*
X0117875Y0082500D03*
D70*
X0116250Y0089000D03*
X0109750Y0082500D03*
D71*
X0098245Y0082500D03*
X0120995Y0085500D03*
X0121245Y0085750D03*
D72*
X0118120Y0082750D03*
X0098120Y0082750D03*
D73*
X0095750Y0083250D03*
X0096250Y0099750D03*
X0096500Y0100000D03*
D74*
X0118875Y0083500D03*
X0119125Y0083750D03*
D75*
X0114255Y0087000D03*
X0114005Y0086750D03*
X0115995Y0089750D03*
X0116495Y0090250D03*
X0116745Y0090500D03*
X0119745Y0099000D03*
X0107495Y0106750D03*
X0094995Y0083500D03*
D76*
X0085750Y0083750D03*
D77*
X0093125Y0084250D03*
D78*
X0093375Y0084750D03*
X0099875Y0102000D03*
X0100375Y0102250D03*
X0111625Y0104000D03*
X0112125Y0103750D03*
X0114625Y0102250D03*
X0115125Y0102000D03*
X0117625Y0100500D03*
X0125875Y0090500D03*
X0115375Y0088250D03*
D79*
X0120750Y0085250D03*
X0107500Y0105250D03*
D80*
X0121625Y0086000D03*
D81*
X0121995Y0086250D03*
X0121495Y0092250D03*
D82*
X0122250Y0086500D03*
D83*
X0122620Y0086750D03*
X0104620Y0088500D03*
D84*
X0123000Y0087000D03*
D85*
X0123380Y0087250D03*
X0104620Y0089250D03*
D86*
X0091995Y0087250D03*
D87*
X0104620Y0089500D03*
X0119620Y0091750D03*
X0123870Y0087500D03*
D88*
X0104745Y0088750D03*
X0092245Y0087500D03*
D89*
X0093250Y0088250D03*
X0099500Y0101750D03*
X0112500Y0103500D03*
X0115500Y0101750D03*
X0118750Y0091500D03*
X0115750Y0088500D03*
D90*
X0125750Y0088750D03*
X0095250Y0099000D03*
D91*
X0125125Y0089750D03*
X0125125Y0089500D03*
D92*
X0126375Y0091000D03*
X0104625Y0090000D03*
X0095875Y0099500D03*
D93*
X0101625Y0103000D03*
X0102125Y0103250D03*
X0102875Y0103750D03*
X0103875Y0104250D03*
X0111125Y0104250D03*
X0113375Y0103000D03*
X0113875Y0102750D03*
X0116375Y0101250D03*
X0126125Y0090750D03*
D94*
X0120375Y0092000D03*
D95*
X0123625Y0092500D03*
D96*
X0124125Y0092750D03*
D97*
X0124370Y0093000D03*
D98*
X0124495Y0093250D03*
X0124495Y0093500D03*
D99*
X0126250Y0093750D03*
D100*
X0126875Y0094000D03*
D101*
X0130375Y0095000D03*
D102*
X0095500Y0099250D03*
D103*
X0118500Y0100000D03*
D104*
X0110750Y0104500D03*
X0104250Y0104500D03*
X0102500Y0103500D03*
D105*
X0107500Y0104750D03*
D106*
X0107500Y0105000D03*
D107*
X0107500Y0106000D03*
M02*
