%
M48
M72
T01C0.01400
T02C0.02756
T03C0.03000
T04C0.03200
T05C0.04000
T06C0.04724
T07C0.05906
T08C0.11800
%
T01
X180500Y175500
X20000Y12500
X65000Y72500
X52500Y80500
X42500Y85000
X57500Y96500
X44500Y115000
X42500Y123000
X74000Y116000
X95000Y102500
X95500Y94500
X105500Y114500
X111000Y123500
X127500Y90000
X180000Y40000
X152500Y25000
X137500Y12500
X74000Y141500
X76500Y166500
X82500Y172500
X94500Y172500
X107500Y167500
X130000Y185000
X125500Y194500
X62000Y194000
X28500Y158000
X17500Y157500
T02
X42500Y152500
X42500Y162500
T03
X143000Y27657
X143000Y47343
X31000Y177500
X18000Y177500
X18657Y194000
X38343Y194000
T04
X117500Y57500
X127500Y57500
X137500Y57500
T05
X172500Y169000
X172500Y179000
X172500Y189000
X162500Y189000
X162500Y179000
X162500Y169000
X22500Y70000
X22500Y80000
X22500Y90000
X22500Y100000
X22500Y110000
X22500Y120000
X22500Y130000
X22500Y140000
X32500Y140000
X32500Y130000
X32500Y120000
X32500Y110000
X32500Y100000
X32500Y90000
X32500Y80000
X32500Y70000
X52500Y102500
X52500Y112500
X52500Y122500
X52500Y132500
X52500Y142500
X52500Y152500
X52500Y162500
X52500Y172500
X62500Y172500
X62500Y162500
X62500Y152500
X62500Y142500
X62500Y132500
X62500Y122500
X62500Y112500
X62500Y102500
X127500Y45000
X127500Y35000
X127500Y25000
X127500Y15000
X132500Y102500
X132500Y112500
X132500Y122500
X132500Y132500
X132500Y142500
X132500Y152500
X132500Y162500
X132500Y172500
X142500Y172500
X142500Y162500
X142500Y152500
X142500Y142500
X142500Y132500
X142500Y122500
X142500Y112500
X142500Y102500
T06
X85157Y20689
X85157Y40374
X104843Y40374
X104843Y20689
T07
X172500Y16614
X172500Y32205
X172500Y47795
X172500Y63386
T08
X37815Y36500
X49626Y17996
X61437Y36500
M30
